<?xml version="1.0" encoding="UTF-8" standalone="no"?>
<!DOCTYPE svg PUBLIC "-//W3C//DTD SVG 1.1//EN"
 "http://www.w3.org/Graphics/SVG/1.1/DTD/svg11.dtd">
<!-- Generated by graphviz version 2.38.0 (20140413.2041)
 -->
<!-- Title: SLIPSender.ipp Pages: 1 -->
<svg width="645pt" height="196pt"
 viewBox="0.00 0.00 645.00 196.00" xmlns="http://www.w3.org/2000/svg" xmlns:xlink="http://www.w3.org/1999/xlink">
<g id="graph0" class="graph" transform="scale(1 1) rotate(0) translate(4 192)">
<title>SLIPSender.ipp</title>
<polygon fill="white" stroke="none" points="-4,4 -4,-192 641,-192 641,4 -4,4"/>
<!-- Node1 -->
<g id="node1" class="node"><title>Node1</title>
<g id="a_node1"><a xlink:title=" ">
<polygon fill="#bfbfbf" stroke="black" points="259,-168.5 259,-187.5 344,-187.5 344,-168.5 259,-168.5"/>
<text text-anchor="middle" x="301.5" y="-175.5" font-family="Helvetica,sans-Serif" font-size="10.00">SLIPSender.ipp</text>
</a>
</g>
</g>
<!-- Node2 -->
<g id="node2" class="node"><title>Node2</title>
<g id="a_node2"><a xlink:href="../../d5/ddb/SLIPSender_8hpp.html" target="_top" xlink:title=" ">
<polygon fill="white" stroke="black" points="257.5,-112.5 257.5,-131.5 345.5,-131.5 345.5,-112.5 257.5,-112.5"/>
<text text-anchor="middle" x="301.5" y="-119.5" font-family="Helvetica,sans-Serif" font-size="10.00">SLIPSender.hpp</text>
</a>
</g>
</g>
<!-- Node1&#45;&gt;Node2 -->
<g id="edge1" class="edge"><title>Node1&#45;&gt;Node2</title>
<path fill="none" stroke="midnightblue" d="M296.334,-168.083C294.824,-160.927 294.394,-150.635 295.042,-141.691"/>
<polygon fill="midnightblue" stroke="midnightblue" points="298.515,-142.126 296.369,-131.751 291.577,-141.2 298.515,-142.126"/>
</g>
<!-- Node2&#45;&gt;Node1 -->
<g id="edge10" class="edge"><title>Node2&#45;&gt;Node1</title>
<path fill="none" stroke="midnightblue" d="M306.631,-131.751C308.157,-138.858 308.604,-149.136 307.972,-158.101"/>
<polygon fill="midnightblue" stroke="midnightblue" points="304.493,-157.713 306.666,-168.083 311.434,-158.622 304.493,-157.713"/>
</g>
<!-- Node3 -->
<g id="node3" class="node"><title>Node3</title>
<g id="a_node3"><a xlink:title=" ">
<polygon fill="white" stroke="#bfbfbf" points="0,-56.5 0,-75.5 95,-75.5 95,-56.5 0,-56.5"/>
<text text-anchor="middle" x="47.5" y="-63.5" font-family="Helvetica,sans-Serif" font-size="10.00">AH/STL/algorithm</text>
</a>
</g>
</g>
<!-- Node2&#45;&gt;Node3 -->
<g id="edge2" class="edge"><title>Node2&#45;&gt;Node3</title>
<path fill="none" stroke="midnightblue" d="M261.253,-112.444C216.85,-103.004 145.347,-87.802 97.4116,-77.6111"/>
<polygon fill="midnightblue" stroke="midnightblue" points="98.068,-74.1725 87.5588,-75.5164 96.6123,-81.0195 98.068,-74.1725"/>
</g>
<!-- Node4 -->
<g id="node4" class="node"><title>Node4</title>
<g id="a_node4"><a xlink:title=" ">
<polygon fill="white" stroke="#bfbfbf" points="113.5,-56.5 113.5,-75.5 191.5,-75.5 191.5,-56.5 113.5,-56.5"/>
<text text-anchor="middle" x="152.5" y="-63.5" font-family="Helvetica,sans-Serif" font-size="10.00">AH/STL/utility</text>
</a>
</g>
</g>
<!-- Node2&#45;&gt;Node4 -->
<g id="edge3" class="edge"><title>Node2&#45;&gt;Node4</title>
<path fill="none" stroke="midnightblue" d="M277.891,-112.444C253.042,-103.438 213.726,-89.1891 185.746,-79.049"/>
<polygon fill="midnightblue" stroke="midnightblue" points="186.593,-75.6332 175.999,-75.5164 184.208,-82.2144 186.593,-75.6332"/>
</g>
<!-- Node5 -->
<g id="node5" class="node"><title>Node5</title>
<g id="a_node5"><a xlink:title=" ">
<polygon fill="white" stroke="#bfbfbf" points="209.5,-56.5 209.5,-75.5 257.5,-75.5 257.5,-56.5 209.5,-56.5"/>
<text text-anchor="middle" x="233.5" y="-63.5" font-family="Helvetica,sans-Serif" font-size="10.00">limits.h</text>
</a>
</g>
</g>
<!-- Node2&#45;&gt;Node5 -->
<g id="edge4" class="edge"><title>Node2&#45;&gt;Node5</title>
<path fill="none" stroke="midnightblue" d="M290.575,-112.324C280.325,-104.185 264.779,-91.8395 252.499,-82.0874"/>
<polygon fill="midnightblue" stroke="midnightblue" points="254.632,-79.3119 244.624,-75.8339 250.279,-84.7937 254.632,-79.3119"/>
</g>
<!-- Node6 -->
<g id="node6" class="node"><title>Node6</title>
<g id="a_node6"><a xlink:title=" ">
<polygon fill="white" stroke="#bfbfbf" points="275.5,-56.5 275.5,-75.5 327.5,-75.5 327.5,-56.5 275.5,-56.5"/>
<text text-anchor="middle" x="301.5" y="-63.5" font-family="Helvetica,sans-Serif" font-size="10.00">stddef.h</text>
</a>
</g>
</g>
<!-- Node2&#45;&gt;Node6 -->
<g id="edge5" class="edge"><title>Node2&#45;&gt;Node6</title>
<path fill="none" stroke="midnightblue" d="M301.5,-112.083C301.5,-105.006 301.5,-94.8611 301.5,-85.9865"/>
<polygon fill="midnightblue" stroke="midnightblue" points="305,-85.751 301.5,-75.7511 298,-85.7511 305,-85.751"/>
</g>
<!-- Node7 -->
<g id="node7" class="node"><title>Node7</title>
<g id="a_node7"><a xlink:title=" ">
<polygon fill="white" stroke="#bfbfbf" points="346,-56.5 346,-75.5 395,-75.5 395,-56.5 346,-56.5"/>
<text text-anchor="middle" x="370.5" y="-63.5" font-family="Helvetica,sans-Serif" font-size="10.00">string.h</text>
</a>
</g>
</g>
<!-- Node2&#45;&gt;Node7 -->
<g id="edge6" class="edge"><title>Node2&#45;&gt;Node7</title>
<path fill="none" stroke="midnightblue" d="M312.586,-112.324C322.986,-104.185 338.761,-91.8395 351.222,-82.0874"/>
<polygon fill="midnightblue" stroke="midnightblue" points="353.494,-84.7533 359.212,-75.8339 349.18,-79.2407 353.494,-84.7533"/>
</g>
<!-- Node8 -->
<g id="node8" class="node"><title>Node8</title>
<g id="a_node8"><a xlink:title=" ">
<polygon fill="white" stroke="#bfbfbf" points="413.5,-56.5 413.5,-75.5 505.5,-75.5 505.5,-56.5 413.5,-56.5"/>
<text text-anchor="middle" x="459.5" y="-63.5" font-family="Helvetica,sans-Serif" font-size="10.00">boost/integer.hpp</text>
</a>
</g>
</g>
<!-- Node2&#45;&gt;Node8 -->
<g id="edge7" class="edge"><title>Node2&#45;&gt;Node8</title>
<path fill="none" stroke="midnightblue" d="M326.536,-112.444C353.116,-103.359 395.309,-88.9388 425.023,-78.7831"/>
<polygon fill="midnightblue" stroke="midnightblue" points="426.251,-82.0625 434.582,-75.5164 423.987,-75.4386 426.251,-82.0625"/>
</g>
<!-- Node9 -->
<g id="node9" class="node"><title>Node9</title>
<g id="a_node9"><a xlink:href="../../d6/d9e/SLIP_8hpp.html" target="_top" xlink:title=" ">
<polygon fill="white" stroke="black" points="524,-56.5 524,-75.5 637,-75.5 637,-56.5 524,-56.5"/>
<text text-anchor="middle" x="580.5" y="-63.5" font-family="Helvetica,sans-Serif" font-size="10.00">SLIPStream/SLIP.hpp</text>
</a>
</g>
</g>
<!-- Node2&#45;&gt;Node9 -->
<g id="edge8" class="edge"><title>Node2&#45;&gt;Node9</title>
<path fill="none" stroke="midnightblue" d="M345.708,-112.444C394.787,-102.944 474.01,-87.611 526.664,-77.4198"/>
<polygon fill="midnightblue" stroke="midnightblue" points="527.346,-80.853 536.498,-75.5164 526.016,-73.9805 527.346,-80.853"/>
</g>
<!-- Node10 -->
<g id="node10" class="node"><title>Node10</title>
<g id="a_node10"><a xlink:title=" ">
<polygon fill="white" stroke="#bfbfbf" points="556,-0.5 556,-19.5 605,-19.5 605,-0.5 556,-0.5"/>
<text text-anchor="middle" x="580.5" y="-7.5" font-family="Helvetica,sans-Serif" font-size="10.00">stdint.h</text>
</a>
</g>
</g>
<!-- Node9&#45;&gt;Node10 -->
<g id="edge9" class="edge"><title>Node9&#45;&gt;Node10</title>
<path fill="none" stroke="midnightblue" d="M580.5,-56.083C580.5,-49.0059 580.5,-38.8611 580.5,-29.9865"/>
<polygon fill="midnightblue" stroke="midnightblue" points="584,-29.751 580.5,-19.7511 577,-29.7511 584,-29.751"/>
</g>
</g>
</svg>
