<?xml version="1.0" encoding="UTF-8" standalone="no"?>
<!DOCTYPE svg PUBLIC "-//W3C//DTD SVG 1.1//EN"
 "http://www.w3.org/Graphics/SVG/1.1/DTD/svg11.dtd">
<!-- Generated by graphviz version 2.38.0 (20140413.2041)
 -->
<!-- Title: SLIPStream Pages: 1 -->
<svg width="102pt" height="391pt"
 viewBox="0.00 0.00 102.00 391.00" xmlns="http://www.w3.org/2000/svg" xmlns:xlink="http://www.w3.org/1999/xlink">
<g id="graph0" class="graph" transform="scale(1 1) rotate(0) translate(4 387)">
<title>SLIPStream</title>
<polygon fill="white" stroke="none" points="-4,4 -4,-387 98,-387 98,4 -4,4"/>
<!-- Node1 -->
<g id="node1" class="node"><title>Node1</title>
<g id="a_node1"><a xlink:title="Class that implements SLIP, a simple packet framing protocol.">
<polygon fill="#bfbfbf" stroke="black" points="0,-0.5 0,-145.5 94,-145.5 94,-0.5 0,-0.5"/>
<text text-anchor="middle" x="47" y="-133.5" font-family="Helvetica,sans-Serif" font-size="10.00">SLIPStream</text>
<polyline fill="none" stroke="black" points="0,-126.5 94,-126.5 "/>
<text text-anchor="start" x="8" y="-114.5" font-family="Helvetica,sans-Serif" font-size="10.00">&#45; stream</text>
<polyline fill="none" stroke="black" points="0,-107.5 94,-107.5 "/>
<text text-anchor="start" x="8" y="-95.5" font-family="Helvetica,sans-Serif" font-size="10.00">+ SLIPStream()</text>
<text text-anchor="start" x="8" y="-84.5" font-family="Helvetica,sans-Serif" font-size="10.00">+ SLIPStream()</text>
<text text-anchor="start" x="8" y="-73.5" font-family="Helvetica,sans-Serif" font-size="10.00">+ writePacket()</text>
<text text-anchor="start" x="8" y="-62.5" font-family="Helvetica,sans-Serif" font-size="10.00">+ beginPacket()</text>
<text text-anchor="start" x="8" y="-51.5" font-family="Helvetica,sans-Serif" font-size="10.00">+ write()</text>
<text text-anchor="start" x="8" y="-40.5" font-family="Helvetica,sans-Serif" font-size="10.00">+ endPacket()</text>
<text text-anchor="start" x="8" y="-29.5" font-family="Helvetica,sans-Serif" font-size="10.00">+ readPacket()</text>
<text text-anchor="start" x="8" y="-18.5" font-family="Helvetica,sans-Serif" font-size="10.00">+ wasTruncated()</text>
<text text-anchor="start" x="8" y="-7.5" font-family="Helvetica,sans-Serif" font-size="10.00">+ numTruncated()</text>
</a>
</g>
</g>
<!-- Node2 -->
<g id="node2" class="node"><title>Node2</title>
<g id="a_node2"><a xlink:href="../../d9/db2/classSLIPParser.html" target="_top" xlink:title="Class for parsing SLIP packets.">
<polygon fill="white" stroke="black" points="0,-193.5 0,-382.5 94,-382.5 94,-193.5 0,-193.5"/>
<text text-anchor="middle" x="47" y="-370.5" font-family="Helvetica,sans-Serif" font-size="10.00">SLIPParser</text>
<polyline fill="none" stroke="black" points="0,-363.5 94,-363.5 "/>
<text text-anchor="start" x="8" y="-351.5" font-family="Helvetica,sans-Serif" font-size="10.00">&#45; buffer</text>
<text text-anchor="start" x="8" y="-340.5" font-family="Helvetica,sans-Serif" font-size="10.00">&#45; write</text>
<text text-anchor="start" x="8" y="-329.5" font-family="Helvetica,sans-Serif" font-size="10.00">&#45; bufferSize</text>
<text text-anchor="start" x="8" y="-318.5" font-family="Helvetica,sans-Serif" font-size="10.00">&#45; truncated</text>
<text text-anchor="start" x="8" y="-307.5" font-family="Helvetica,sans-Serif" font-size="10.00">&#45; escape</text>
<polyline fill="none" stroke="black" points="0,-300.5 94,-300.5 "/>
<text text-anchor="start" x="8" y="-288.5" font-family="Helvetica,sans-Serif" font-size="10.00">+ SLIPParser()</text>
<text text-anchor="start" x="8" y="-277.5" font-family="Helvetica,sans-Serif" font-size="10.00">+ SLIPParser()</text>
<text text-anchor="start" x="8" y="-266.5" font-family="Helvetica,sans-Serif" font-size="10.00">+ SLIPParser()</text>
<text text-anchor="start" x="8" y="-255.5" font-family="Helvetica,sans-Serif" font-size="10.00">+ SLIPParser()</text>
<text text-anchor="start" x="8" y="-244.5" font-family="Helvetica,sans-Serif" font-size="10.00">+ parse()</text>
<text text-anchor="start" x="8" y="-233.5" font-family="Helvetica,sans-Serif" font-size="10.00">+ parse()</text>
<text text-anchor="start" x="8" y="-222.5" font-family="Helvetica,sans-Serif" font-size="10.00">+ wasTruncated()</text>
<text text-anchor="start" x="8" y="-211.5" font-family="Helvetica,sans-Serif" font-size="10.00">+ numTruncated()</text>
<text text-anchor="start" x="8" y="-200.5" font-family="Helvetica,sans-Serif" font-size="10.00">&#45; reset()</text>
</a>
</g>
</g>
<!-- Node2&#45;&gt;Node1 -->
<g id="edge1" class="edge"><title>Node2&#45;&gt;Node1</title>
<path fill="none" stroke="#404040" d="M47,-193.265C47,-181.419 47,-169.36 47,-157.684"/>
<polygon fill="none" stroke="#404040" points="47.0001,-157.681 43,-151.681 47,-145.681 51,-151.681 47.0001,-157.681"/>
<text text-anchor="middle" x="64" y="-167" font-family="Helvetica,sans-Serif" font-size="10.00"> &#45;parser</text>
</g>
</g>
</svg>
