<?xml version="1.0" encoding="UTF-8" standalone="no"?>
<!DOCTYPE svg PUBLIC "-//W3C//DTD SVG 1.1//EN"
 "http://www.w3.org/Graphics/SVG/1.1/DTD/svg11.dtd">
<!-- Generated by graphviz version 2.38.0 (20140413.2041)
 -->
<!-- Title: KV_Builder.cpp Pages: 1 -->
<svg width="1588pt" height="341pt"
 viewBox="0.00 0.00 1588.00 341.00" xmlns="http://www.w3.org/2000/svg" xmlns:xlink="http://www.w3.org/1999/xlink">
<g id="graph0" class="graph" transform="scale(1 1) rotate(0) translate(4 337)">
<title>KV_Builder.cpp</title>
<polygon fill="white" stroke="none" points="-4,4 -4,-337 1584,-337 1584,4 -4,4"/>
<!-- Node1 -->
<g id="node1" class="node"><title>Node1</title>
<g id="a_node1"><a xlink:title=" ">
<polygon fill="#bfbfbf" stroke="black" points="628.5,-313.5 628.5,-332.5 712.5,-332.5 712.5,-313.5 628.5,-313.5"/>
<text text-anchor="middle" x="670.5" y="-320.5" font-family="Helvetica,sans-Serif" font-size="10.00">KV_Builder.cpp</text>
</a>
</g>
</g>
<!-- Node2 -->
<g id="node2" class="node"><title>Node2</title>
<g id="a_node2"><a xlink:href="../../dc/d98/KV__Builder_8hpp.html" target="_top" xlink:title="This file contains the KV_Builder class, a key&#45;value pair, dictionary&#45;like container that supports ma...">
<polygon fill="white" stroke="black" points="474,-246.5 474,-276.5 613,-276.5 613,-246.5 474,-246.5"/>
<text text-anchor="start" x="482" y="-264.5" font-family="Helvetica,sans-Serif" font-size="10.00">KVComm/include/KVComm</text>
<text text-anchor="middle" x="543.5" y="-253.5" font-family="Helvetica,sans-Serif" font-size="10.00">/KV_Builder.hpp</text>
</a>
</g>
</g>
<!-- Node1&#45;&gt;Node2 -->
<g id="edge1" class="edge"><title>Node1&#45;&gt;Node2</title>
<path fill="none" stroke="midnightblue" d="M652.304,-313.475C634.219,-305.002 605.906,-291.737 582.695,-280.863"/>
<polygon fill="midnightblue" stroke="midnightblue" points="583.972,-277.596 573.431,-276.523 581.002,-283.935 583.972,-277.596"/>
</g>
<!-- Node8 -->
<g id="node8" class="node"><title>Node8</title>
<g id="a_node8"><a xlink:href="../../dd/d0f/KV__Helpers_8hpp.html" target="_top" xlink:title="Helpers for address manipulation used to layout dictionary entries in memory.">
<polygon fill="white" stroke="black" points="38,-112.5 38,-142.5 177,-142.5 177,-112.5 38,-112.5"/>
<text text-anchor="start" x="46" y="-130.5" font-family="Helvetica,sans-Serif" font-size="10.00">KVComm/include/KVComm</text>
<text text-anchor="middle" x="107.5" y="-119.5" font-family="Helvetica,sans-Serif" font-size="10.00">/KV_Helpers.hpp</text>
</a>
</g>
</g>
<!-- Node1&#45;&gt;Node8 -->
<g id="edge27" class="edge"><title>Node1&#45;&gt;Node8</title>
<path fill="none" stroke="midnightblue" d="M628.498,-315.104C586.459,-307.672 520.2,-294.513 464.5,-277 345.117,-239.464 210.283,-177.844 145.816,-147.124"/>
<polygon fill="midnightblue" stroke="midnightblue" points="146.987,-143.804 136.456,-142.645 143.965,-150.119 146.987,-143.804"/>
</g>
<!-- Node22 -->
<g id="node22" class="node"><title>Node22</title>
<g id="a_node22"><a xlink:title=" ">
<polygon fill="white" stroke="#bfbfbf" points="631.5,-252 631.5,-271 709.5,-271 709.5,-252 631.5,-252"/>
<text text-anchor="middle" x="670.5" y="-259" font-family="Helvetica,sans-Serif" font-size="10.00">AH/STL/limits</text>
</a>
</g>
</g>
<!-- Node1&#45;&gt;Node22 -->
<g id="edge28" class="edge"><title>Node1&#45;&gt;Node22</title>
<path fill="none" stroke="midnightblue" d="M670.5,-313.475C670.5,-305.08 670.5,-291.981 670.5,-281.163"/>
<polygon fill="midnightblue" stroke="midnightblue" points="674,-281.009 670.5,-271.009 667,-281.009 674,-281.009"/>
</g>
<!-- Node23 -->
<g id="node23" class="node"><title>Node23</title>
<g id="a_node23"><a xlink:title=" ">
<polygon fill="white" stroke="#bfbfbf" points="727.5,-252 727.5,-271 817.5,-271 817.5,-252 727.5,-252"/>
<text text-anchor="middle" x="772.5" y="-259" font-family="Helvetica,sans-Serif" font-size="10.00">AH/STL/memory</text>
</a>
</g>
</g>
<!-- Node1&#45;&gt;Node23 -->
<g id="edge29" class="edge"><title>Node1&#45;&gt;Node23</title>
<path fill="none" stroke="midnightblue" d="M685.114,-313.475C701.853,-303.711 729.504,-287.581 749.219,-276.081"/>
<polygon fill="midnightblue" stroke="midnightblue" points="751.039,-279.071 757.913,-271.009 747.512,-273.025 751.039,-279.071"/>
</g>
<!-- Node24 -->
<g id="node24" class="node"><title>Node24</title>
<g id="a_node24"><a xlink:href="../../dd/d80/PrintStream_8hpp.html" target="_top" xlink:title=" ">
<polygon fill="white" stroke="black" points="1150,-252 1150,-271 1309,-271 1309,-252 1150,-252"/>
<text text-anchor="middle" x="1229.5" y="-259" font-family="Helvetica,sans-Serif" font-size="10.00">AH/PrintStream/PrintStream.hpp</text>
</a>
</g>
</g>
<!-- Node1&#45;&gt;Node24 -->
<g id="edge30" class="edge"><title>Node1&#45;&gt;Node24</title>
<path fill="none" stroke="midnightblue" d="M712.516,-317.528C802.782,-307.92 1016.94,-285.125 1139.43,-272.087"/>
<polygon fill="midnightblue" stroke="midnightblue" points="1139.96,-275.55 1149.54,-271.011 1139.22,-268.589 1139.96,-275.55"/>
</g>
<!-- Node3 -->
<g id="node3" class="node"><title>Node3</title>
<g id="a_node3"><a xlink:href="../../dc/d2c/KV__Iterator_8hpp.html" target="_top" xlink:title="Iterating over a dictionary generated by the KV_Builder, used for parsing and for checking if a key i...">
<polygon fill="white" stroke="black" points="474,-179.5 474,-209.5 613,-209.5 613,-179.5 474,-179.5"/>
<text text-anchor="start" x="482" y="-197.5" font-family="Helvetica,sans-Serif" font-size="10.00">KVComm/include/KVComm</text>
<text text-anchor="middle" x="543.5" y="-186.5" font-family="Helvetica,sans-Serif" font-size="10.00">/KV_Iterator.hpp</text>
</a>
</g>
</g>
<!-- Node2&#45;&gt;Node3 -->
<g id="edge2" class="edge"><title>Node2&#45;&gt;Node3</title>
<path fill="none" stroke="midnightblue" d="M543.5,-246.396C543.5,-238.645 543.5,-228.812 543.5,-219.86"/>
<polygon fill="midnightblue" stroke="midnightblue" points="547,-219.576 543.5,-209.577 540,-219.577 547,-219.576"/>
</g>
<!-- Node12 -->
<g id="node12" class="node"><title>Node12</title>
<g id="a_node12"><a xlink:title=" ">
<polygon fill="white" stroke="#bfbfbf" points="0,-56.5 0,-75.5 49,-75.5 49,-56.5 0,-56.5"/>
<text text-anchor="middle" x="24.5" y="-63.5" font-family="Helvetica,sans-Serif" font-size="10.00">string.h</text>
</a>
</g>
</g>
<!-- Node2&#45;&gt;Node12 -->
<g id="edge22" class="edge"><title>Node2&#45;&gt;Node12</title>
<path fill="none" stroke="midnightblue" d="M473.577,-254.84C346.31,-242.959 84.7456,-210.73 28.5,-143 15.3436,-127.157 16.7244,-102.435 19.8179,-85.5172"/>
<polygon fill="midnightblue" stroke="midnightblue" points="23.2478,-86.2154 21.9624,-75.6988 16.409,-84.7216 23.2478,-86.2154"/>
</g>
<!-- Node13 -->
<g id="node13" class="node"><title>Node13</title>
<g id="a_node13"><a xlink:title=" ">
<polygon fill="white" stroke="#bfbfbf" points="195,-118 195,-137 272,-137 272,-118 195,-118"/>
<text text-anchor="middle" x="233.5" y="-125" font-family="Helvetica,sans-Serif" font-size="10.00">AH/STL/array</text>
</a>
</g>
</g>
<!-- Node2&#45;&gt;Node13 -->
<g id="edge18" class="edge"><title>Node2&#45;&gt;Node13</title>
<path fill="none" stroke="midnightblue" d="M477.727,-246.457C443.473,-238.003 401.366,-225.793 365.5,-210 323.131,-191.343 278.148,-160.997 253.163,-143.07"/>
<polygon fill="midnightblue" stroke="midnightblue" points="255.053,-140.117 244.905,-137.072 250.939,-145.781 255.053,-140.117"/>
</g>
<!-- Node14 -->
<g id="node14" class="node"><title>Node14</title>
<g id="a_node14"><a xlink:title=" ">
<polygon fill="white" stroke="#bfbfbf" points="888,-118 888,-137 975,-137 975,-118 888,-118"/>
<text text-anchor="middle" x="931.5" y="-125" font-family="Helvetica,sans-Serif" font-size="10.00">AH/STL/cstddef</text>
</a>
</g>
</g>
<!-- Node2&#45;&gt;Node14 -->
<g id="edge19" class="edge"><title>Node2&#45;&gt;Node14</title>
<path fill="none" stroke="midnightblue" d="M566.416,-246.483C582.168,-236.651 603.421,-222.991 621.5,-210 639.481,-197.079 640.261,-187.981 660.5,-179 750.261,-139.17 782.567,-163.985 878.5,-143 883.148,-141.983 887.997,-140.812 892.791,-139.586"/>
<polygon fill="midnightblue" stroke="midnightblue" points="893.704,-142.965 902.475,-137.022 891.913,-136.198 893.704,-142.965"/>
</g>
<!-- Node17 -->
<g id="node17" class="node"><title>Node17</title>
<g id="a_node17"><a xlink:title=" ">
<polygon fill="white" stroke="#bfbfbf" points="993.5,-118 993.5,-137 1075.5,-137 1075.5,-118 993.5,-118"/>
<text text-anchor="middle" x="1034.5" y="-125" font-family="Helvetica,sans-Serif" font-size="10.00">AH/STL/vector</text>
</a>
</g>
</g>
<!-- Node2&#45;&gt;Node17 -->
<g id="edge21" class="edge"><title>Node2&#45;&gt;Node17</title>
<path fill="none" stroke="midnightblue" d="M613.269,-247.592C616.388,-247.047 619.476,-246.514 622.5,-246 724.503,-228.659 753.299,-239.402 852.5,-210 911.361,-192.554 976.004,-160.172 1010.18,-141.917"/>
<polygon fill="midnightblue" stroke="midnightblue" points="1011.84,-144.997 1018.98,-137.167 1008.51,-138.837 1011.84,-144.997"/>
</g>
<!-- Node19 -->
<g id="node19" class="node"><title>Node19</title>
<g id="a_node19"><a xlink:title=" ">
<polygon fill="white" stroke="#bfbfbf" points="670,-185 670,-204 781,-204 781,-185 670,-185"/>
<text text-anchor="middle" x="725.5" y="-192" font-family="Helvetica,sans-Serif" font-size="10.00">AH/STL/initializer_list</text>
</a>
</g>
</g>
<!-- Node2&#45;&gt;Node19 -->
<g id="edge20" class="edge"><title>Node2&#45;&gt;Node19</title>
<path fill="none" stroke="midnightblue" d="M582.991,-246.396C615.632,-234.739 661.455,-218.373 692.247,-207.376"/>
<polygon fill="midnightblue" stroke="midnightblue" points="693.44,-210.667 701.68,-204.007 691.086,-204.074 693.44,-210.667"/>
</g>
<!-- Node20 -->
<g id="node20" class="node"><title>Node20</title>
<g id="a_node20"><a xlink:title=" ">
<polygon fill="white" stroke="#bfbfbf" points="799,-185 799,-204 844,-204 844,-185 799,-185"/>
<text text-anchor="middle" x="821.5" y="-192" font-family="Helvetica,sans-Serif" font-size="10.00">Print.h</text>
</a>
</g>
</g>
<!-- Node2&#45;&gt;Node20 -->
<g id="edge23" class="edge"><title>Node2&#45;&gt;Node20</title>
<path fill="none" stroke="midnightblue" d="M613.092,-247.037C679.814,-233.996 772.809,-215.419 789.5,-210 791.371,-209.393 793.278,-208.708 795.183,-207.975"/>
<polygon fill="midnightblue" stroke="midnightblue" points="796.651,-211.155 804.508,-204.047 793.933,-204.704 796.651,-211.155"/>
</g>
<!-- Node21 -->
<g id="node21" class="node"><title>Node21</title>
<g id="a_node21"><a xlink:href="../../d7/d98/KV__Builder_8ipp.html" target="_top" xlink:title=" ">
<polygon fill="white" stroke="black" points="375,-185 375,-204 456,-204 456,-185 375,-185"/>
<text text-anchor="middle" x="415.5" y="-192" font-family="Helvetica,sans-Serif" font-size="10.00">KV_Builder.ipp</text>
</a>
</g>
</g>
<!-- Node2&#45;&gt;Node21 -->
<g id="edge24" class="edge"><title>Node2&#45;&gt;Node21</title>
<path fill="none" stroke="midnightblue" d="M510.047,-246.396C486.729,-235.294 456.484,-219.921 436.455,-208.983"/>
<polygon fill="midnightblue" stroke="midnightblue" points="437.959,-205.814 427.519,-204.007 434.553,-211.93 437.959,-205.814"/>
</g>
<!-- Node4 -->
<g id="node4" class="node"><title>Node4</title>
<g id="a_node4"><a xlink:href="../../d5/dbd/KV__Error_8hpp.html" target="_top" xlink:title=" ">
<polygon fill="white" stroke="black" points="731,-112.5 731,-142.5 870,-142.5 870,-112.5 731,-112.5"/>
<text text-anchor="start" x="739" y="-130.5" font-family="Helvetica,sans-Serif" font-size="10.00">KVComm/include/KVComm</text>
<text text-anchor="middle" x="800.5" y="-119.5" font-family="Helvetica,sans-Serif" font-size="10.00">/KV_Error.hpp</text>
</a>
</g>
</g>
<!-- Node3&#45;&gt;Node4 -->
<g id="edge3" class="edge"><title>Node3&#45;&gt;Node4</title>
<path fill="none" stroke="midnightblue" d="M598.949,-179.476C638.839,-169.387 692.792,-155.741 734.838,-145.107"/>
<polygon fill="midnightblue" stroke="midnightblue" points="735.871,-148.456 744.708,-142.611 734.155,-141.67 735.871,-148.456"/>
</g>
<!-- Node3&#45;&gt;Node8 -->
<g id="edge7" class="edge"><title>Node3&#45;&gt;Node8</title>
<path fill="none" stroke="midnightblue" d="M473.747,-180.489C470.625,-179.972 467.531,-179.473 464.5,-179 344.227,-160.216 310.758,-162.305 187.429,-143.252"/>
<polygon fill="midnightblue" stroke="midnightblue" points="187.628,-139.741 177.208,-141.657 186.549,-146.657 187.628,-139.741"/>
</g>
<!-- Node10 -->
<g id="node10" class="node"><title>Node10</title>
<g id="a_node10"><a xlink:href="../../d6/da2/KV__Types_8hpp.html" target="_top" xlink:title="KV_Type type definitions for fundamental types (int::_t, uint::_t, float, double, bool,...">
<polygon fill="white" stroke="black" points="290,-112.5 290,-142.5 429,-142.5 429,-112.5 290,-112.5"/>
<text text-anchor="start" x="298" y="-130.5" font-family="Helvetica,sans-Serif" font-size="10.00">KVComm/include/KVComm</text>
<text text-anchor="middle" x="359.5" y="-119.5" font-family="Helvetica,sans-Serif" font-size="10.00">/KV_Types.hpp</text>
</a>
</g>
</g>
<!-- Node3&#45;&gt;Node10 -->
<g id="edge9" class="edge"><title>Node3&#45;&gt;Node10</title>
<path fill="none" stroke="midnightblue" d="M503.575,-179.396C475.846,-169.601 438.708,-156.481 409.082,-146.015"/>
<polygon fill="midnightblue" stroke="midnightblue" points="409.942,-142.607 399.347,-142.577 407.61,-149.208 409.942,-142.607"/>
</g>
<!-- Node3&#45;&gt;Node13 -->
<g id="edge12" class="edge"><title>Node3&#45;&gt;Node13</title>
<path fill="none" stroke="midnightblue" d="M473.833,-180.531C402.356,-167.16 299.052,-147.628 280.5,-143 276.891,-142.1 273.149,-141.086 269.424,-140.023"/>
<polygon fill="midnightblue" stroke="midnightblue" points="270.289,-136.629 259.707,-137.141 268.299,-143.34 270.289,-136.629"/>
</g>
<!-- Node3&#45;&gt;Node14 -->
<g id="edge13" class="edge"><title>Node3&#45;&gt;Node14</title>
<path fill="none" stroke="midnightblue" d="M613.147,-181.32C618.002,-180.52 622.822,-179.739 627.5,-179 738.816,-161.413 768.157,-165.914 878.5,-143 883.214,-142.021 888.129,-140.865 892.983,-139.639"/>
<polygon fill="midnightblue" stroke="midnightblue" points="893.997,-142.991 902.776,-137.059 892.214,-136.222 893.997,-142.991"/>
</g>
<!-- Node15 -->
<g id="node15" class="node"><title>Node15</title>
<g id="a_node15"><a xlink:title=" ">
<polygon fill="white" stroke="#bfbfbf" points="628.5,-118 628.5,-137 712.5,-137 712.5,-118 628.5,-118"/>
<text text-anchor="middle" x="670.5" y="-125" font-family="Helvetica,sans-Serif" font-size="10.00">AH/STL/cstdint</text>
</a>
</g>
</g>
<!-- Node3&#45;&gt;Node15 -->
<g id="edge14" class="edge"><title>Node3&#45;&gt;Node15</title>
<path fill="none" stroke="midnightblue" d="M571.057,-179.396C592.946,-168.193 623.332,-152.641 644.738,-141.685"/>
<polygon fill="midnightblue" stroke="midnightblue" points="646.571,-144.679 653.879,-137.007 643.382,-138.447 646.571,-144.679"/>
</g>
<!-- Node16 -->
<g id="node16" class="node"><title>Node16</title>
<g id="a_node16"><a xlink:title=" ">
<polygon fill="white" stroke="#bfbfbf" points="447,-118 447,-137 532,-137 532,-118 447,-118"/>
<text text-anchor="middle" x="489.5" y="-125" font-family="Helvetica,sans-Serif" font-size="10.00">AH/STL/iterator</text>
</a>
</g>
</g>
<!-- Node3&#45;&gt;Node16 -->
<g id="edge15" class="edge"><title>Node3&#45;&gt;Node16</title>
<path fill="none" stroke="midnightblue" d="M531.783,-179.396C523.363,-169.261 511.987,-155.567 503.155,-144.937"/>
<polygon fill="midnightblue" stroke="midnightblue" points="505.806,-142.65 496.723,-137.195 500.421,-147.123 505.806,-142.65"/>
</g>
<!-- Node3&#45;&gt;Node17 -->
<g id="edge16" class="edge"><title>Node3&#45;&gt;Node17</title>
<path fill="none" stroke="midnightblue" d="M613.084,-184.733C628.681,-182.808 645.153,-180.806 660.5,-179 803.954,-162.117 841.765,-170.847 983.5,-143 988.219,-142.073 993.137,-140.92 997.975,-139.672"/>
<polygon fill="midnightblue" stroke="midnightblue" points="998.978,-143.027 1007.71,-137.02 997.137,-136.273 998.978,-143.027"/>
</g>
<!-- Node18 -->
<g id="node18" class="node"><title>Node18</title>
<g id="a_node18"><a xlink:title=" ">
<polygon fill="white" stroke="#bfbfbf" points="550.5,-118 550.5,-137 610.5,-137 610.5,-118 550.5,-118"/>
<text text-anchor="middle" x="580.5" y="-125" font-family="Helvetica,sans-Serif" font-size="10.00">WString.h</text>
</a>
</g>
</g>
<!-- Node3&#45;&gt;Node18 -->
<g id="edge17" class="edge"><title>Node3&#45;&gt;Node18</title>
<path fill="none" stroke="midnightblue" d="M551.528,-179.396C557.126,-169.562 564.631,-156.378 570.6,-145.892"/>
<polygon fill="midnightblue" stroke="midnightblue" points="573.646,-147.617 575.551,-137.195 567.562,-144.154 573.646,-147.617"/>
</g>
<!-- Node5 -->
<g id="node5" class="node"><title>Node5</title>
<g id="a_node5"><a xlink:title=" ">
<polygon fill="white" stroke="#bfbfbf" points="774.5,-56.5 774.5,-75.5 826.5,-75.5 826.5,-56.5 774.5,-56.5"/>
<text text-anchor="middle" x="800.5" y="-63.5" font-family="Helvetica,sans-Serif" font-size="10.00">sstream</text>
</a>
</g>
</g>
<!-- Node4&#45;&gt;Node5 -->
<g id="edge4" class="edge"><title>Node4&#45;&gt;Node5</title>
<path fill="none" stroke="midnightblue" d="M800.5,-112.399C800.5,-104.466 800.5,-94.458 800.5,-85.8583"/>
<polygon fill="midnightblue" stroke="midnightblue" points="804,-85.6577 800.5,-75.6578 797,-85.6578 804,-85.6577"/>
</g>
<!-- Node6 -->
<g id="node6" class="node"><title>Node6</title>
<g id="a_node6"><a xlink:title=" ">
<polygon fill="white" stroke="#bfbfbf" points="845,-56.5 845,-75.5 904,-75.5 904,-56.5 845,-56.5"/>
<text text-anchor="middle" x="874.5" y="-63.5" font-family="Helvetica,sans-Serif" font-size="10.00">stdexcept</text>
</a>
</g>
</g>
<!-- Node4&#45;&gt;Node6 -->
<g id="edge5" class="edge"><title>Node4&#45;&gt;Node6</title>
<path fill="none" stroke="midnightblue" d="M818.037,-112.399C829.344,-103.308 844.042,-91.4899 855.607,-82.1909"/>
<polygon fill="midnightblue" stroke="midnightblue" points="858.132,-84.6517 863.732,-75.6578 853.746,-79.1964 858.132,-84.6517"/>
</g>
<!-- Node7 -->
<g id="node7" class="node"><title>Node7</title>
<g id="a_node7"><a xlink:title=" ">
<polygon fill="white" stroke="#bfbfbf" points="715,-56.5 715,-75.5 756,-75.5 756,-56.5 715,-56.5"/>
<text text-anchor="middle" x="735.5" y="-63.5" font-family="Helvetica,sans-Serif" font-size="10.00">string</text>
</a>
</g>
</g>
<!-- Node4&#45;&gt;Node7 -->
<g id="edge6" class="edge"><title>Node4&#45;&gt;Node7</title>
<path fill="none" stroke="midnightblue" d="M785.096,-112.399C775.261,-103.397 762.507,-91.7214 752.395,-82.4652"/>
<polygon fill="midnightblue" stroke="midnightblue" points="754.698,-79.8282 744.958,-75.6578 749.971,-84.9916 754.698,-79.8282"/>
</g>
<!-- Node9 -->
<g id="node9" class="node"><title>Node9</title>
<g id="a_node9"><a xlink:title=" ">
<polygon fill="white" stroke="#bfbfbf" points="81.5,-56.5 81.5,-75.5 133.5,-75.5 133.5,-56.5 81.5,-56.5"/>
<text text-anchor="middle" x="107.5" y="-63.5" font-family="Helvetica,sans-Serif" font-size="10.00">stddef.h</text>
</a>
</g>
</g>
<!-- Node8&#45;&gt;Node9 -->
<g id="edge8" class="edge"><title>Node8&#45;&gt;Node9</title>
<path fill="none" stroke="midnightblue" d="M107.5,-112.399C107.5,-104.466 107.5,-94.458 107.5,-85.8583"/>
<polygon fill="midnightblue" stroke="midnightblue" points="111,-85.6577 107.5,-75.6578 104,-85.6578 111,-85.6577"/>
</g>
<!-- Node11 -->
<g id="node11" class="node"><title>Node11</title>
<g id="a_node11"><a xlink:title=" ">
<polygon fill="white" stroke="#bfbfbf" points="335,-56.5 335,-75.5 384,-75.5 384,-56.5 335,-56.5"/>
<text text-anchor="middle" x="359.5" y="-63.5" font-family="Helvetica,sans-Serif" font-size="10.00">stdint.h</text>
</a>
</g>
</g>
<!-- Node10&#45;&gt;Node11 -->
<g id="edge10" class="edge"><title>Node10&#45;&gt;Node11</title>
<path fill="none" stroke="midnightblue" d="M359.5,-112.399C359.5,-104.466 359.5,-94.458 359.5,-85.8583"/>
<polygon fill="midnightblue" stroke="midnightblue" points="363,-85.6577 359.5,-75.6578 356,-85.6578 363,-85.6577"/>
</g>
<!-- Node10&#45;&gt;Node12 -->
<g id="edge11" class="edge"><title>Node10&#45;&gt;Node12</title>
<path fill="none" stroke="midnightblue" d="M289.72,-113.653C286.605,-113.092 283.52,-112.539 280.5,-112 188.138,-95.5313 164.83,-92.6453 72.5,-76 68.2758,-75.2385 63.8452,-74.4262 59.455,-73.613"/>
<polygon fill="midnightblue" stroke="midnightblue" points="59.8731,-70.1306 49.4008,-71.7373 58.5893,-77.0119 59.8731,-70.1306"/>
</g>
<!-- Node21&#45;&gt;Node2 -->
<g id="edge25" class="edge"><title>Node21&#45;&gt;Node2</title>
<path fill="none" stroke="midnightblue" d="M436.986,-204.007C457.759,-213.514 489.14,-229.203 512.548,-241.638"/>
<polygon fill="midnightblue" stroke="midnightblue" points="510.939,-244.747 521.404,-246.396 514.251,-238.58 510.939,-244.747"/>
</g>
<!-- Node21&#45;&gt;Node10 -->
<g id="edge26" class="edge"><title>Node21&#45;&gt;Node10</title>
<path fill="none" stroke="midnightblue" d="M407.948,-184.734C400.379,-175.949 388.429,-162.078 378.291,-150.311"/>
<polygon fill="midnightblue" stroke="midnightblue" points="380.817,-147.881 371.638,-142.589 375.514,-152.45 380.817,-147.881"/>
</g>
<!-- Node25 -->
<g id="node25" class="node"><title>Node25</title>
<g id="a_node25"><a xlink:href="../../d1/d65/Warnings_8hpp.html" target="_top" xlink:title=" ">
<polygon fill="white" stroke="black" points="1447,-0.5 1447,-19.5 1580,-19.5 1580,-0.5 1447,-0.5"/>
<text text-anchor="middle" x="1513.5" y="-7.5" font-family="Helvetica,sans-Serif" font-size="10.00">AH/Settings/Warnings.hpp</text>
</a>
</g>
</g>
<!-- Node24&#45;&gt;Node25 -->
<g id="edge31" class="edge"><title>Node24&#45;&gt;Node25</title>
<path fill="none" stroke="midnightblue" d="M1252.8,-251.954C1295.96,-235.401 1389.98,-195.889 1456.5,-143 1487.1,-118.668 1500,-112.693 1513.5,-76 1518.92,-61.2553 1518.45,-43.3243 1516.89,-30.0332"/>
<polygon fill="midnightblue" stroke="midnightblue" points="1520.29,-29.1199 1515.35,-19.7443 1513.36,-30.1507 1520.29,-29.1199"/>
</g>
<!-- Node26 -->
<g id="node26" class="node"><title>Node26</title>
<g id="a_node26"><a xlink:href="../../d6/ddf/Arduino-Wrapper_8h.html" target="_top" xlink:title=" ">
<polygon fill="white" stroke="black" points="1172,-185 1172,-204 1287,-204 1287,-185 1172,-185"/>
<text text-anchor="middle" x="1229.5" y="-192" font-family="Helvetica,sans-Serif" font-size="10.00">AH/Arduino&#45;Wrapper.h</text>
</a>
</g>
</g>
<!-- Node24&#45;&gt;Node26 -->
<g id="edge32" class="edge"><title>Node24&#45;&gt;Node26</title>
<path fill="none" stroke="midnightblue" d="M1229.5,-251.734C1229.5,-242.183 1229.5,-226.618 1229.5,-214.283"/>
<polygon fill="midnightblue" stroke="midnightblue" points="1233,-214.127 1229.5,-204.127 1226,-214.127 1233,-214.127"/>
</g>
<!-- Node27 -->
<g id="node27" class="node"><title>Node27</title>
<g id="a_node27"><a xlink:href="../../d7/d79/MinMaxFix_8hpp.html" target="_top" xlink:title=" ">
<polygon fill="white" stroke="black" points="1322,-118 1322,-137 1447,-137 1447,-118 1322,-118"/>
<text text-anchor="middle" x="1384.5" y="-125" font-family="Helvetica,sans-Serif" font-size="10.00">AH/Math/MinMaxFix.hpp</text>
</a>
</g>
</g>
<!-- Node26&#45;&gt;Node27 -->
<g id="edge33" class="edge"><title>Node26&#45;&gt;Node27</title>
<path fill="none" stroke="midnightblue" d="M1250.08,-184.869C1276.83,-173.65 1323.75,-153.977 1354.47,-141.092"/>
<polygon fill="midnightblue" stroke="midnightblue" points="1355.96,-144.262 1363.83,-137.167 1353.26,-137.807 1355.96,-144.262"/>
</g>
<!-- Node29 -->
<g id="node29" class="node"><title>Node29</title>
<g id="a_node29"><a xlink:title=" ">
<polygon fill="white" stroke="#bfbfbf" points="1222.5,-0.5 1222.5,-19.5 1280.5,-19.5 1280.5,-0.5 1222.5,-0.5"/>
<text text-anchor="middle" x="1251.5" y="-7.5" font-family="Helvetica,sans-Serif" font-size="10.00">Arduino.h</text>
</a>
</g>
</g>
<!-- Node26&#45;&gt;Node29 -->
<g id="edge40" class="edge"><title>Node26&#45;&gt;Node29</title>
<path fill="none" stroke="midnightblue" d="M1213.35,-184.855C1175.49,-163.47 1086.86,-106.184 1122.5,-56 1142.65,-27.6306 1182.07,-16.998 1212.05,-13.0902"/>
<polygon fill="midnightblue" stroke="midnightblue" points="1212.66,-16.5443 1222.22,-11.9703 1211.9,-9.5864 1212.66,-16.5443"/>
</g>
<!-- Node31 -->
<g id="node31" class="node"><title>Node31</title>
<g id="a_node31"><a xlink:title=" ">
<polygon fill="white" stroke="#bfbfbf" points="1179,-118 1179,-137 1280,-137 1280,-118 1179,-118"/>
<text text-anchor="middle" x="1229.5" y="-125" font-family="Helvetica,sans-Serif" font-size="10.00">AH/STL/type_traits</text>
</a>
</g>
</g>
<!-- Node26&#45;&gt;Node31 -->
<g id="edge39" class="edge"><title>Node26&#45;&gt;Node31</title>
<path fill="none" stroke="midnightblue" d="M1229.5,-184.734C1229.5,-175.183 1229.5,-159.618 1229.5,-147.283"/>
<polygon fill="midnightblue" stroke="midnightblue" points="1233,-147.127 1229.5,-137.127 1226,-147.127 1233,-147.127"/>
</g>
<!-- Node27&#45;&gt;Node25 -->
<g id="edge34" class="edge"><title>Node27&#45;&gt;Node25</title>
<path fill="none" stroke="midnightblue" d="M1421.77,-117.952C1445.72,-110.624 1475.75,-97.7076 1494.5,-76 1505.66,-63.0818 1510.27,-43.9094 1512.17,-29.7319"/>
<polygon fill="midnightblue" stroke="midnightblue" points="1515.67,-29.9487 1513.19,-19.6476 1508.7,-29.2452 1515.67,-29.9487"/>
</g>
<!-- Node28 -->
<g id="node28" class="node"><title>Node28</title>
<g id="a_node28"><a xlink:href="../../d6/d3b/FixArduinoMacros_8hpp.html" target="_top" xlink:title=" ">
<polygon fill="white" stroke="black" points="1329.5,-56.5 1329.5,-75.5 1485.5,-75.5 1485.5,-56.5 1329.5,-56.5"/>
<text text-anchor="middle" x="1407.5" y="-63.5" font-family="Helvetica,sans-Serif" font-size="10.00">AH/Math/FixArduinoMacros.hpp</text>
</a>
</g>
</g>
<!-- Node27&#45;&gt;Node28 -->
<g id="edge35" class="edge"><title>Node27&#45;&gt;Node28</title>
<path fill="none" stroke="midnightblue" d="M1387.8,-117.975C1391.11,-109.404 1396.32,-95.9269 1400.55,-84.983"/>
<polygon fill="midnightblue" stroke="midnightblue" points="1403.87,-86.0984 1404.21,-75.5091 1397.34,-83.5745 1403.87,-86.0984"/>
</g>
<!-- Node30 -->
<g id="node30" class="node"><title>Node30</title>
<g id="a_node30"><a xlink:href="../../dc/dc7/NamespaceSettings_8hpp.html" target="_top" xlink:title=" ">
<polygon fill="white" stroke="black" points="1131.5,-56.5 1131.5,-75.5 1311.5,-75.5 1311.5,-56.5 1131.5,-56.5"/>
<text text-anchor="middle" x="1221.5" y="-63.5" font-family="Helvetica,sans-Serif" font-size="10.00">AH/Settings/NamespaceSettings.hpp</text>
</a>
</g>
</g>
<!-- Node27&#45;&gt;Node30 -->
<g id="edge38" class="edge"><title>Node27&#45;&gt;Node30</title>
<path fill="none" stroke="midnightblue" d="M1361.15,-117.975C1333.19,-107.769 1286.17,-90.608 1254.51,-79.0492"/>
<polygon fill="midnightblue" stroke="midnightblue" points="1255.4,-75.6503 1244.81,-75.5091 1253,-82.2259 1255.4,-75.6503"/>
</g>
<!-- Node28&#45;&gt;Node25 -->
<g id="edge36" class="edge"><title>Node28&#45;&gt;Node25</title>
<path fill="none" stroke="midnightblue" d="M1424.53,-56.324C1441.53,-47.6641 1467.88,-34.2424 1487.49,-24.249"/>
<polygon fill="midnightblue" stroke="midnightblue" points="1489.19,-27.3125 1496.51,-19.6545 1486.01,-21.0752 1489.19,-27.3125"/>
</g>
<!-- Node28&#45;&gt;Node29 -->
<g id="edge37" class="edge"><title>Node28&#45;&gt;Node29</title>
<path fill="none" stroke="midnightblue" d="M1382.78,-56.4435C1356.65,-47.3986 1315.24,-33.064 1285.92,-22.9158"/>
<polygon fill="midnightblue" stroke="midnightblue" points="1286.7,-19.4801 1276.1,-19.5164 1284.41,-26.0951 1286.7,-19.4801"/>
</g>
</g>
</svg>
