<?xml version="1.0" encoding="UTF-8" standalone="no"?>
<!DOCTYPE svg PUBLIC "-//W3C//DTD SVG 1.1//EN"
 "http://www.w3.org/Graphics/SVG/1.1/DTD/svg11.dtd">
<!-- Generated by graphviz version 2.38.0 (20140413.2041)
 -->
<!-- Title: KV_Helpers.hpp Pages: 1 -->
<svg width="323pt" height="196pt"
 viewBox="0.00 0.00 323.00 196.00" xmlns="http://www.w3.org/2000/svg" xmlns:xlink="http://www.w3.org/1999/xlink">
<g id="graph0" class="graph" transform="scale(1 1) rotate(0) translate(4 192)">
<title>KV_Helpers.hpp</title>
<polygon fill="white" stroke="none" points="-4,4 -4,-192 319,-192 319,4 -4,4"/>
<!-- Node1 -->
<g id="node1" class="node"><title>Node1</title>
<g id="a_node1"><a xlink:title="Helpers for address manipulation used to layout dictionary entries in memory.">
<polygon fill="#bfbfbf" stroke="black" points="202,-168.5 202,-187.5 290,-187.5 290,-168.5 202,-168.5"/>
<text text-anchor="middle" x="246" y="-175.5" font-family="Helvetica,sans-Serif" font-size="10.00">KV_Helpers.hpp</text>
</a>
</g>
</g>
<!-- Node2 -->
<g id="node2" class="node"><title>Node2</title>
<g id="a_node2"><a xlink:href="../../dc/d2c/KV__Iterator_8hpp.html" target="_top" xlink:title="Iterating over a dictionary generated by the KV_Builder, used for parsing and for checking if a key i...">
<polygon fill="white" stroke="black" points="117.5,-112.5 117.5,-131.5 202.5,-131.5 202.5,-112.5 117.5,-112.5"/>
<text text-anchor="middle" x="160" y="-119.5" font-family="Helvetica,sans-Serif" font-size="10.00">KV_Iterator.hpp</text>
</a>
</g>
</g>
<!-- Node1&#45;&gt;Node2 -->
<g id="edge1" class="edge"><title>Node1&#45;&gt;Node2</title>
<path fill="none" stroke="midnightblue" d="M223.545,-162.901C207.776,-152.999 187.186,-140.071 173.783,-131.655"/>
<polygon fill="midnightblue" stroke="midnightblue" points="221.852,-165.97 232.183,-168.324 225.575,-160.042 221.852,-165.97"/>
</g>
<!-- Node5 -->
<g id="node5" class="node"><title>Node5</title>
<g id="a_node5"><a xlink:href="../../d7/d1f/KV__Builder_8cpp.html" target="_top" xlink:title=" ">
<polygon fill="white" stroke="black" points="231,-0.5 231,-19.5 315,-19.5 315,-0.5 231,-0.5"/>
<text text-anchor="middle" x="273" y="-7.5" font-family="Helvetica,sans-Serif" font-size="10.00">KV_Builder.cpp</text>
</a>
</g>
</g>
<!-- Node1&#45;&gt;Node5 -->
<g id="edge9" class="edge"><title>Node1&#45;&gt;Node5</title>
<path fill="none" stroke="midnightblue" d="M257.709,-160.04C270.277,-140.715 289.452,-107.694 297,-76 299.059,-67.353 299.156,-64.6235 297,-56 293.607,-42.4281 285.26,-28.4676 279.367,-19.768"/>
<polygon fill="midnightblue" stroke="midnightblue" points="254.795,-158.102 252.15,-168.361 260.616,-161.99 254.795,-158.102"/>
</g>
<!-- Node7 -->
<g id="node7" class="node"><title>Node7</title>
<g id="a_node7"><a xlink:href="../../db/d5a/KV__Iterator_8cpp.html" target="_top" xlink:title=" ">
<polygon fill="white" stroke="black" points="203.5,-56.5 203.5,-75.5 288.5,-75.5 288.5,-56.5 203.5,-56.5"/>
<text text-anchor="middle" x="246" y="-63.5" font-family="Helvetica,sans-Serif" font-size="10.00">KV_Iterator.cpp</text>
</a>
</g>
</g>
<!-- Node1&#45;&gt;Node7 -->
<g id="edge10" class="edge"><title>Node1&#45;&gt;Node7</title>
<path fill="none" stroke="midnightblue" d="M246,-158.348C246,-134.254 246,-93.3079 246,-75.5914"/>
<polygon fill="midnightblue" stroke="midnightblue" points="242.5,-158.368 246,-168.368 249.5,-158.369 242.5,-158.368"/>
</g>
<!-- Node3 -->
<g id="node3" class="node"><title>Node3</title>
<g id="a_node3"><a xlink:href="../../dc/d98/KV__Builder_8hpp.html" target="_top" xlink:title="This file contains the KV_Builder class, a key&#45;value pair, dictionary&#45;like container that supports ma...">
<polygon fill="white" stroke="black" points="0,-56.5 0,-75.5 84,-75.5 84,-56.5 0,-56.5"/>
<text text-anchor="middle" x="42" y="-63.5" font-family="Helvetica,sans-Serif" font-size="10.00">KV_Builder.hpp</text>
</a>
</g>
</g>
<!-- Node2&#45;&gt;Node3 -->
<g id="edge2" class="edge"><title>Node2&#45;&gt;Node3</title>
<path fill="none" stroke="midnightblue" d="M132.1,-108.232C110.027,-98.1312 79.8237,-84.3091 60.61,-75.5164"/>
<polygon fill="midnightblue" stroke="midnightblue" points="130.753,-111.465 141.303,-112.444 133.666,-105.1 130.753,-111.465"/>
</g>
<!-- Node2&#45;&gt;Node7 -->
<g id="edge7" class="edge"><title>Node2&#45;&gt;Node7</title>
<path fill="none" stroke="midnightblue" d="M182.455,-106.901C198.224,-96.9986 218.814,-84.0705 232.217,-75.6545"/>
<polygon fill="midnightblue" stroke="midnightblue" points="180.425,-104.042 173.817,-112.324 184.148,-109.97 180.425,-104.042"/>
</g>
<!-- Node8 -->
<g id="node8" class="node"><title>Node8</title>
<g id="a_node8"><a xlink:href="../../de/da1/KV__Parser_8cpp.html" target="_top" xlink:title=" ">
<polygon fill="white" stroke="black" points="102.5,-56.5 102.5,-75.5 185.5,-75.5 185.5,-56.5 102.5,-56.5"/>
<text text-anchor="middle" x="144" y="-63.5" font-family="Helvetica,sans-Serif" font-size="10.00">KV_Parser.cpp</text>
</a>
</g>
</g>
<!-- Node2&#45;&gt;Node8 -->
<g id="edge8" class="edge"><title>Node2&#45;&gt;Node8</title>
<path fill="none" stroke="midnightblue" d="M154.488,-102.396C151.811,-93.362 148.722,-82.936 146.593,-75.7511"/>
<polygon fill="midnightblue" stroke="midnightblue" points="151.161,-103.489 157.358,-112.083 157.873,-101.501 151.161,-103.489"/>
</g>
<!-- Node4 -->
<g id="node4" class="node"><title>Node4</title>
<g id="a_node4"><a xlink:href="../../d7/d98/KV__Builder_8ipp.html" target="_top" xlink:title=" ">
<polygon fill="white" stroke="black" points="1.5,-0.5 1.5,-19.5 82.5,-19.5 82.5,-0.5 1.5,-0.5"/>
<text text-anchor="middle" x="42" y="-7.5" font-family="Helvetica,sans-Serif" font-size="10.00">KV_Builder.ipp</text>
</a>
</g>
</g>
<!-- Node3&#45;&gt;Node4 -->
<g id="edge3" class="edge"><title>Node3&#45;&gt;Node4</title>
<path fill="none" stroke="midnightblue" d="M35.5276,-46.1005C34.8956,-37.1357 35.3427,-26.8579 36.869,-19.7511"/>
<polygon fill="midnightblue" stroke="midnightblue" points="32.0658,-46.6216 36.8337,-56.083 39.0067,-45.7134 32.0658,-46.6216"/>
</g>
<!-- Node3&#45;&gt;Node5 -->
<g id="edge5" class="edge"><title>Node3&#45;&gt;Node5</title>
<path fill="none" stroke="midnightblue" d="M88.4017,-54.1529C132.047,-43.95 196.51,-28.8809 236.569,-19.5164"/>
<polygon fill="midnightblue" stroke="midnightblue" points="87.5434,-50.7591 78.6026,-56.4435 89.1368,-57.5753 87.5434,-50.7591"/>
</g>
<!-- Node6 -->
<g id="node6" class="node"><title>Node6</title>
<g id="a_node6"><a xlink:href="../../df/d37/KVComm_8h.html" target="_top" xlink:title=" ">
<polygon fill="white" stroke="black" points="101,-0.5 101,-19.5 169,-19.5 169,-0.5 101,-0.5"/>
<text text-anchor="middle" x="135" y="-7.5" font-family="Helvetica,sans-Serif" font-size="10.00">KVComm.h</text>
</a>
</g>
</g>
<!-- Node3&#45;&gt;Node6 -->
<g id="edge6" class="edge"><title>Node3&#45;&gt;Node6</title>
<path fill="none" stroke="midnightblue" d="M65.8057,-51.1774C82.9189,-41.2407 105.465,-28.1492 120.095,-19.6545"/>
<polygon fill="midnightblue" stroke="midnightblue" points="63.8325,-48.2758 56.9421,-56.324 67.3475,-54.3293 63.8325,-48.2758"/>
</g>
<!-- Node4&#45;&gt;Node3 -->
<g id="edge4" class="edge"><title>Node4&#45;&gt;Node3</title>
<path fill="none" stroke="midnightblue" d="M48.4575,-29.6911C49.1062,-38.6353 48.6758,-48.9272 47.1663,-56.083"/>
<polygon fill="midnightblue" stroke="midnightblue" points="51.9231,-29.2002 47.131,-19.7511 44.9846,-30.1262 51.9231,-29.2002"/>
</g>
</g>
</svg>
