<?xml version="1.0" encoding="UTF-8" standalone="no"?>
<!DOCTYPE svg PUBLIC "-//W3C//DTD SVG 1.1//EN"
 "http://www.w3.org/Graphics/SVG/1.1/DTD/svg11.dtd">
<!-- Generated by graphviz version 2.38.0 (20140413.2041)
 -->
<!-- Title: KV_Parser.cpp Pages: 1 -->
<svg width="1303pt" height="207pt"
 viewBox="0.00 0.00 1303.00 207.00" xmlns="http://www.w3.org/2000/svg" xmlns:xlink="http://www.w3.org/1999/xlink">
<g id="graph0" class="graph" transform="scale(1 1) rotate(0) translate(4 203)">
<title>KV_Parser.cpp</title>
<polygon fill="white" stroke="none" points="-4,4 -4,-203 1299,-203 1299,4 -4,4"/>
<!-- Node1 -->
<g id="node1" class="node"><title>Node1</title>
<g id="a_node1"><a xlink:title=" ">
<polygon fill="#bfbfbf" stroke="black" points="1055.5,-179.5 1055.5,-198.5 1138.5,-198.5 1138.5,-179.5 1055.5,-179.5"/>
<text text-anchor="middle" x="1097" y="-186.5" font-family="Helvetica,sans-Serif" font-size="10.00">KV_Parser.cpp</text>
</a>
</g>
</g>
<!-- Node2 -->
<g id="node2" class="node"><title>Node2</title>
<g id="a_node2"><a xlink:href="../../dc/d2c/KV__Iterator_8hpp.html" target="_top" xlink:title="Iterating over a dictionary generated by the KV_Builder, used for parsing and for checking if a key i...">
<polygon fill="white" stroke="black" points="471.5,-123.5 471.5,-142.5 602.5,-142.5 602.5,-123.5 471.5,-123.5"/>
<text text-anchor="middle" x="537" y="-130.5" font-family="Helvetica,sans-Serif" font-size="10.00">KVComm/KV_Iterator.hpp</text>
</a>
</g>
</g>
<!-- Node1&#45;&gt;Node2 -->
<g id="edge1" class="edge"><title>Node1&#45;&gt;Node2</title>
<path fill="none" stroke="midnightblue" d="M1055.37,-183.985C961.649,-174.948 732.978,-152.898 613.127,-141.341"/>
<polygon fill="midnightblue" stroke="midnightblue" points="613.22,-137.834 602.931,-140.358 612.548,-144.801 613.22,-137.834"/>
</g>
<!-- Node18 -->
<g id="node18" class="node"><title>Node18</title>
<g id="a_node18"><a xlink:href="../../de/df6/KV__Parser_8hpp.html" target="_top" xlink:title="A parser for dictionaries generated by the KV_Builder.">
<polygon fill="white" stroke="black" points="981,-123.5 981,-142.5 1109,-142.5 1109,-123.5 981,-123.5"/>
<text text-anchor="middle" x="1045" y="-130.5" font-family="Helvetica,sans-Serif" font-size="10.00">KVComm/KV_Parser.hpp</text>
</a>
</g>
</g>
<!-- Node1&#45;&gt;Node18 -->
<g id="edge17" class="edge"><title>Node1&#45;&gt;Node18</title>
<path fill="none" stroke="midnightblue" d="M1088.41,-179.083C1080.84,-171.22 1069.62,-159.569 1060.49,-150.081"/>
<polygon fill="midnightblue" stroke="midnightblue" points="1062.88,-147.527 1053.43,-142.751 1057.84,-152.382 1062.88,-147.527"/>
</g>
<!-- Node22 -->
<g id="node22" class="node"><title>Node22</title>
<g id="a_node22"><a xlink:title=" ">
<polygon fill="white" stroke="#bfbfbf" points="1127,-123.5 1127,-142.5 1173,-142.5 1173,-123.5 1127,-123.5"/>
<text text-anchor="middle" x="1150" y="-130.5" font-family="Helvetica,sans-Serif" font-size="10.00">cstring</text>
</a>
</g>
</g>
<!-- Node1&#45;&gt;Node22 -->
<g id="edge24" class="edge"><title>Node1&#45;&gt;Node22</title>
<path fill="none" stroke="midnightblue" d="M1105.75,-179.083C1113.47,-171.22 1124.9,-159.569 1134.22,-150.081"/>
<polygon fill="midnightblue" stroke="midnightblue" points="1136.9,-152.34 1141.41,-142.751 1131.91,-147.436 1136.9,-152.34"/>
</g>
<!-- Node23 -->
<g id="node23" class="node"><title>Node23</title>
<g id="a_node23"><a xlink:title=" ">
<polygon fill="white" stroke="#bfbfbf" points="1191,-123.5 1191,-142.5 1245,-142.5 1245,-123.5 1191,-123.5"/>
<text text-anchor="middle" x="1218" y="-130.5" font-family="Helvetica,sans-Serif" font-size="10.00">iostream</text>
</a>
</g>
</g>
<!-- Node1&#45;&gt;Node23 -->
<g id="edge25" class="edge"><title>Node1&#45;&gt;Node23</title>
<path fill="none" stroke="midnightblue" d="M1116.17,-179.444C1135.91,-170.636 1166.89,-156.812 1189.49,-146.722"/>
<polygon fill="midnightblue" stroke="midnightblue" points="1191.21,-149.788 1198.92,-142.516 1188.36,-143.396 1191.21,-149.788"/>
</g>
<!-- Node3 -->
<g id="node3" class="node"><title>Node3</title>
<g id="a_node3"><a xlink:href="../../d5/dbd/KV__Error_8hpp.html" target="_top" xlink:title=" ">
<polygon fill="white" stroke="black" points="741.5,-56.5 741.5,-86.5 880.5,-86.5 880.5,-56.5 741.5,-56.5"/>
<text text-anchor="start" x="749.5" y="-74.5" font-family="Helvetica,sans-Serif" font-size="10.00">KVComm/include/KVComm</text>
<text text-anchor="middle" x="811" y="-63.5" font-family="Helvetica,sans-Serif" font-size="10.00">/KV_Error.hpp</text>
</a>
</g>
</g>
<!-- Node2&#45;&gt;Node3 -->
<g id="edge2" class="edge"><title>Node2&#45;&gt;Node3</title>
<path fill="none" stroke="midnightblue" d="M576.258,-123.475C617.962,-114.419 684.882,-99.8869 736.62,-88.6518"/>
<polygon fill="midnightblue" stroke="midnightblue" points="737.394,-92.0654 746.424,-86.523 735.909,-85.2248 737.394,-92.0654"/>
</g>
<!-- Node7 -->
<g id="node7" class="node"><title>Node7</title>
<g id="a_node7"><a xlink:href="../../dd/d0f/KV__Helpers_8hpp.html" target="_top" xlink:title="Helpers for address manipulation used to layout dictionary entries in memory.">
<polygon fill="white" stroke="black" points="102.5,-56.5 102.5,-86.5 241.5,-86.5 241.5,-56.5 102.5,-56.5"/>
<text text-anchor="start" x="110.5" y="-74.5" font-family="Helvetica,sans-Serif" font-size="10.00">KVComm/include/KVComm</text>
<text text-anchor="middle" x="172" y="-63.5" font-family="Helvetica,sans-Serif" font-size="10.00">/KV_Helpers.hpp</text>
</a>
</g>
</g>
<!-- Node2&#45;&gt;Node7 -->
<g id="edge6" class="edge"><title>Node2&#45;&gt;Node7</title>
<path fill="none" stroke="midnightblue" d="M479.954,-123.461C424.322,-115.036 337.053,-101.557 251.635,-87.083"/>
<polygon fill="midnightblue" stroke="midnightblue" points="252.215,-83.6314 241.77,-85.4054 251.042,-90.5323 252.215,-83.6314"/>
</g>
<!-- Node9 -->
<g id="node9" class="node"><title>Node9</title>
<g id="a_node9"><a xlink:href="../../d6/da2/KV__Types_8hpp.html" target="_top" xlink:title="KV_Type type definitions for fundamental types (int::_t, uint::_t, float, double, bool,...">
<polygon fill="white" stroke="black" points="975.5,-56.5 975.5,-86.5 1114.5,-86.5 1114.5,-56.5 975.5,-56.5"/>
<text text-anchor="start" x="983.5" y="-74.5" font-family="Helvetica,sans-Serif" font-size="10.00">KVComm/include/KVComm</text>
<text text-anchor="middle" x="1045" y="-63.5" font-family="Helvetica,sans-Serif" font-size="10.00">/KV_Types.hpp</text>
</a>
</g>
</g>
<!-- Node2&#45;&gt;Node9 -->
<g id="edge8" class="edge"><title>Node2&#45;&gt;Node9</title>
<path fill="none" stroke="midnightblue" d="M602.632,-124.313C695.595,-113.424 865.414,-93.5342 965.434,-81.8193"/>
<polygon fill="midnightblue" stroke="midnightblue" points="965.961,-85.2816 975.486,-80.6419 965.146,-78.3291 965.961,-85.2816"/>
</g>
<!-- Node12 -->
<g id="node12" class="node"><title>Node12</title>
<g id="a_node12"><a xlink:title=" ">
<polygon fill="white" stroke="#bfbfbf" points="541.5,-62 541.5,-81 618.5,-81 618.5,-62 541.5,-62"/>
<text text-anchor="middle" x="580" y="-69" font-family="Helvetica,sans-Serif" font-size="10.00">AH/STL/array</text>
</a>
</g>
</g>
<!-- Node2&#45;&gt;Node12 -->
<g id="edge11" class="edge"><title>Node2&#45;&gt;Node12</title>
<path fill="none" stroke="midnightblue" d="M543.161,-123.475C549.611,-114.55 559.904,-100.307 567.973,-89.1425"/>
<polygon fill="midnightblue" stroke="midnightblue" points="570.83,-91.1642 573.851,-81.0091 565.156,-87.064 570.83,-91.1642"/>
</g>
<!-- Node13 -->
<g id="node13" class="node"><title>Node13</title>
<g id="a_node13"><a xlink:title=" ">
<polygon fill="white" stroke="#bfbfbf" points="636.5,-62 636.5,-81 723.5,-81 723.5,-62 636.5,-62"/>
<text text-anchor="middle" x="680" y="-69" font-family="Helvetica,sans-Serif" font-size="10.00">AH/STL/cstddef</text>
</a>
</g>
</g>
<!-- Node2&#45;&gt;Node13 -->
<g id="edge12" class="edge"><title>Node2&#45;&gt;Node13</title>
<path fill="none" stroke="midnightblue" d="M557.488,-123.475C581.806,-113.357 622.549,-96.4046 650.317,-84.8507"/>
<polygon fill="midnightblue" stroke="midnightblue" points="651.661,-88.0822 659.55,-81.0091 648.972,-81.6193 651.661,-88.0822"/>
</g>
<!-- Node14 -->
<g id="node14" class="node"><title>Node14</title>
<g id="a_node14"><a xlink:title=" ">
<polygon fill="white" stroke="#bfbfbf" points="0,-62 0,-81 84,-81 84,-62 0,-62"/>
<text text-anchor="middle" x="42" y="-69" font-family="Helvetica,sans-Serif" font-size="10.00">AH/STL/cstdint</text>
</a>
</g>
</g>
<!-- Node2&#45;&gt;Node14 -->
<g id="edge13" class="edge"><title>Node2&#45;&gt;Node14</title>
<path fill="none" stroke="midnightblue" d="M471.402,-128.966C384.301,-124.116 225.982,-112.438 93,-87 88.276,-86.0964 83.3558,-84.9575 78.5163,-83.7172"/>
<polygon fill="midnightblue" stroke="midnightblue" points="79.3526,-80.3176 68.7847,-81.0715 77.5162,-87.0724 79.3526,-80.3176"/>
</g>
<!-- Node15 -->
<g id="node15" class="node"><title>Node15</title>
<g id="a_node15"><a xlink:title=" ">
<polygon fill="white" stroke="#bfbfbf" points="259.5,-62 259.5,-81 344.5,-81 344.5,-62 259.5,-62"/>
<text text-anchor="middle" x="302" y="-69" font-family="Helvetica,sans-Serif" font-size="10.00">AH/STL/iterator</text>
</a>
</g>
</g>
<!-- Node2&#45;&gt;Node15 -->
<g id="edge14" class="edge"><title>Node2&#45;&gt;Node15</title>
<path fill="none" stroke="midnightblue" d="M500.805,-123.448C463.828,-114.629 404.793,-100.323 354,-87 349.972,-85.9433 345.775,-84.8165 341.59,-83.6759"/>
<polygon fill="midnightblue" stroke="midnightblue" points="342.5,-80.2964 331.93,-81.0156 340.641,-87.0451 342.5,-80.2964"/>
</g>
<!-- Node16 -->
<g id="node16" class="node"><title>Node16</title>
<g id="a_node16"><a xlink:title=" ">
<polygon fill="white" stroke="#bfbfbf" points="363,-62 363,-81 445,-81 445,-62 363,-62"/>
<text text-anchor="middle" x="404" y="-69" font-family="Helvetica,sans-Serif" font-size="10.00">AH/STL/vector</text>
</a>
</g>
</g>
<!-- Node2&#45;&gt;Node16 -->
<g id="edge15" class="edge"><title>Node2&#45;&gt;Node16</title>
<path fill="none" stroke="midnightblue" d="M517.944,-123.475C495.525,-113.445 458.095,-96.7002 432.287,-85.1546"/>
<polygon fill="midnightblue" stroke="midnightblue" points="433.578,-81.8979 423.02,-81.0091 430.719,-88.2877 433.578,-81.8979"/>
</g>
<!-- Node17 -->
<g id="node17" class="node"><title>Node17</title>
<g id="a_node17"><a xlink:title=" ">
<polygon fill="white" stroke="#bfbfbf" points="463,-62 463,-81 523,-81 523,-62 463,-62"/>
<text text-anchor="middle" x="493" y="-69" font-family="Helvetica,sans-Serif" font-size="10.00">WString.h</text>
</a>
</g>
</g>
<!-- Node2&#45;&gt;Node17 -->
<g id="edge16" class="edge"><title>Node2&#45;&gt;Node17</title>
<path fill="none" stroke="midnightblue" d="M530.696,-123.475C524.096,-114.55 513.563,-100.307 505.307,-89.1425"/>
<polygon fill="midnightblue" stroke="midnightblue" points="508.052,-86.9684 499.292,-81.0091 502.424,-91.1305 508.052,-86.9684"/>
</g>
<!-- Node4 -->
<g id="node4" class="node"><title>Node4</title>
<g id="a_node4"><a xlink:title=" ">
<polygon fill="white" stroke="#bfbfbf" points="779,-0.5 779,-19.5 831,-19.5 831,-0.5 779,-0.5"/>
<text text-anchor="middle" x="805" y="-7.5" font-family="Helvetica,sans-Serif" font-size="10.00">sstream</text>
</a>
</g>
</g>
<!-- Node3&#45;&gt;Node4 -->
<g id="edge3" class="edge"><title>Node3&#45;&gt;Node4</title>
<path fill="none" stroke="midnightblue" d="M809.578,-56.3993C808.778,-48.4664 807.769,-38.458 806.902,-29.8583"/>
<polygon fill="midnightblue" stroke="midnightblue" points="810.359,-29.2561 805.873,-19.6578 803.394,-29.9585 810.359,-29.2561"/>
</g>
<!-- Node5 -->
<g id="node5" class="node"><title>Node5</title>
<g id="a_node5"><a xlink:title=" ">
<polygon fill="white" stroke="#bfbfbf" points="849.5,-0.5 849.5,-19.5 908.5,-19.5 908.5,-0.5 849.5,-0.5"/>
<text text-anchor="middle" x="879" y="-7.5" font-family="Helvetica,sans-Serif" font-size="10.00">stdexcept</text>
</a>
</g>
</g>
<!-- Node3&#45;&gt;Node5 -->
<g id="edge4" class="edge"><title>Node3&#45;&gt;Node5</title>
<path fill="none" stroke="midnightblue" d="M827.115,-56.3993C837.404,-47.3967 850.747,-35.7214 861.326,-26.4652"/>
<polygon fill="midnightblue" stroke="midnightblue" points="863.884,-28.8769 869.105,-19.6578 859.275,-23.6088 863.884,-28.8769"/>
</g>
<!-- Node6 -->
<g id="node6" class="node"><title>Node6</title>
<g id="a_node6"><a xlink:title=" ">
<polygon fill="white" stroke="#bfbfbf" points="926.5,-0.5 926.5,-19.5 967.5,-19.5 967.5,-0.5 926.5,-0.5"/>
<text text-anchor="middle" x="947" y="-7.5" font-family="Helvetica,sans-Serif" font-size="10.00">string</text>
</a>
</g>
</g>
<!-- Node3&#45;&gt;Node6 -->
<g id="edge5" class="edge"><title>Node3&#45;&gt;Node6</title>
<path fill="none" stroke="midnightblue" d="M843.23,-56.3993C865.845,-46.5054 895.838,-33.3832 917.761,-23.7919"/>
<polygon fill="midnightblue" stroke="midnightblue" points="919.452,-26.8726 927.211,-19.6578 916.646,-20.4595 919.452,-26.8726"/>
</g>
<!-- Node8 -->
<g id="node8" class="node"><title>Node8</title>
<g id="a_node8"><a xlink:title=" ">
<polygon fill="white" stroke="#bfbfbf" points="146,-0.5 146,-19.5 198,-19.5 198,-0.5 146,-0.5"/>
<text text-anchor="middle" x="172" y="-7.5" font-family="Helvetica,sans-Serif" font-size="10.00">stddef.h</text>
</a>
</g>
</g>
<!-- Node7&#45;&gt;Node8 -->
<g id="edge7" class="edge"><title>Node7&#45;&gt;Node8</title>
<path fill="none" stroke="midnightblue" d="M172,-56.3993C172,-48.4664 172,-38.458 172,-29.8583"/>
<polygon fill="midnightblue" stroke="midnightblue" points="175.5,-29.6577 172,-19.6578 168.5,-29.6578 175.5,-29.6577"/>
</g>
<!-- Node10 -->
<g id="node10" class="node"><title>Node10</title>
<g id="a_node10"><a xlink:title=" ">
<polygon fill="white" stroke="#bfbfbf" points="1002.5,-0.5 1002.5,-19.5 1051.5,-19.5 1051.5,-0.5 1002.5,-0.5"/>
<text text-anchor="middle" x="1027" y="-7.5" font-family="Helvetica,sans-Serif" font-size="10.00">stdint.h</text>
</a>
</g>
</g>
<!-- Node9&#45;&gt;Node10 -->
<g id="edge9" class="edge"><title>Node9&#45;&gt;Node10</title>
<path fill="none" stroke="midnightblue" d="M1040.73,-56.3993C1038.28,-48.2881 1035.17,-38.0071 1032.53,-29.2807"/>
<polygon fill="midnightblue" stroke="midnightblue" points="1035.86,-28.2159 1029.62,-19.6578 1029.16,-30.2429 1035.86,-28.2159"/>
</g>
<!-- Node11 -->
<g id="node11" class="node"><title>Node11</title>
<g id="a_node11"><a xlink:title=" ">
<polygon fill="white" stroke="#bfbfbf" points="1069.5,-0.5 1069.5,-19.5 1118.5,-19.5 1118.5,-0.5 1069.5,-0.5"/>
<text text-anchor="middle" x="1094" y="-7.5" font-family="Helvetica,sans-Serif" font-size="10.00">string.h</text>
</a>
</g>
</g>
<!-- Node9&#45;&gt;Node11 -->
<g id="edge10" class="edge"><title>Node9&#45;&gt;Node11</title>
<path fill="none" stroke="midnightblue" d="M1056.61,-56.3993C1063.73,-47.7533 1072.88,-36.642 1080.35,-27.576"/>
<polygon fill="midnightblue" stroke="midnightblue" points="1083.21,-29.6021 1086.87,-19.6578 1077.81,-25.1521 1083.21,-29.6021"/>
</g>
<!-- Node18&#45;&gt;Node5 -->
<g id="edge21" class="edge"><title>Node18&#45;&gt;Node5</title>
<path fill="none" stroke="midnightblue" d="M1019.59,-123.421C999.097,-115.773 970.136,-103.275 948,-87 924.983,-70.0762 903.735,-44.5449 891.066,-27.8232"/>
<polygon fill="midnightblue" stroke="midnightblue" points="893.712,-25.5135 884.954,-19.5503 888.081,-29.6731 893.712,-25.5135"/>
</g>
<!-- Node18&#45;&gt;Node6 -->
<g id="edge22" class="edge"><title>Node18&#45;&gt;Node6</title>
<path fill="none" stroke="midnightblue" d="M1019.65,-123.368C1002.37,-116.22 980.288,-104.392 967,-87 954.347,-70.4396 949.673,-46.5837 947.961,-30.0344"/>
<polygon fill="midnightblue" stroke="midnightblue" points="951.44,-29.6277 947.188,-19.9239 944.461,-30.1619 951.44,-29.6277"/>
</g>
<!-- Node18&#45;&gt;Node9 -->
<g id="edge18" class="edge"><title>Node18&#45;&gt;Node9</title>
<path fill="none" stroke="midnightblue" d="M1045,-123.475C1045,-116.471 1045,-106.192 1045,-96.6956"/>
<polygon fill="midnightblue" stroke="midnightblue" points="1048.5,-96.5229 1045,-86.523 1041.5,-96.523 1048.5,-96.5229"/>
</g>
<!-- Node19 -->
<g id="node19" class="node"><title>Node19</title>
<g id="a_node19"><a xlink:title=" ">
<polygon fill="white" stroke="#bfbfbf" points="1133,-62 1133,-81 1179,-81 1179,-62 1133,-62"/>
<text text-anchor="middle" x="1156" y="-69" font-family="Helvetica,sans-Serif" font-size="10.00">cstdint</text>
</a>
</g>
</g>
<!-- Node18&#45;&gt;Node19 -->
<g id="edge19" class="edge"><title>Node18&#45;&gt;Node19</title>
<path fill="none" stroke="midnightblue" d="M1060.9,-123.475C1079.28,-113.622 1109.76,-97.2883 1131.24,-85.7697"/>
<polygon fill="midnightblue" stroke="midnightblue" points="1132.97,-88.8183 1140.13,-81.0091 1129.66,-82.6488 1132.97,-88.8183"/>
</g>
<!-- Node20 -->
<g id="node20" class="node"><title>Node20</title>
<g id="a_node20"><a xlink:title=" ">
<polygon fill="white" stroke="#bfbfbf" points="1197.5,-62 1197.5,-81 1232.5,-81 1232.5,-62 1197.5,-62"/>
<text text-anchor="middle" x="1215" y="-69" font-family="Helvetica,sans-Serif" font-size="10.00">map</text>
</a>
</g>
</g>
<!-- Node18&#45;&gt;Node20 -->
<g id="edge20" class="edge"><title>Node18&#45;&gt;Node20</title>
<path fill="none" stroke="midnightblue" d="M1078.29,-123.44C1107.68,-115.433 1151.42,-102.414 1188,-87 1189.01,-86.5764 1190.02,-86.1277 1191.04,-85.6605"/>
<polygon fill="midnightblue" stroke="midnightblue" points="1192.72,-88.7356 1200.11,-81.1416 1189.6,-82.4709 1192.72,-88.7356"/>
</g>
<!-- Node21 -->
<g id="node21" class="node"><title>Node21</title>
<g id="a_node21"><a xlink:title=" ">
<polygon fill="white" stroke="#bfbfbf" points="1251,-62 1251,-81 1295,-81 1295,-62 1251,-62"/>
<text text-anchor="middle" x="1273" y="-69" font-family="Helvetica,sans-Serif" font-size="10.00">vector</text>
</a>
</g>
</g>
<!-- Node18&#45;&gt;Node21 -->
<g id="edge23" class="edge"><title>Node18&#45;&gt;Node21</title>
<path fill="none" stroke="midnightblue" d="M1096.03,-123.436C1136.3,-115.943 1193.56,-103.648 1242,-87 1243.62,-86.4424 1245.27,-85.8261 1246.93,-85.1714"/>
<polygon fill="midnightblue" stroke="midnightblue" points="1248.43,-88.3332 1256.21,-81.1442 1245.65,-81.9108 1248.43,-88.3332"/>
</g>
</g>
</svg>
