<?xml version="1.0" encoding="UTF-8" standalone="no"?>
<!DOCTYPE svg PUBLIC "-//W3C//DTD SVG 1.1//EN"
 "http://www.w3.org/Graphics/SVG/1.1/DTD/svg11.dtd">
<!-- Generated by graphviz version 2.38.0 (20140413.2041)
 -->
<!-- Title: KV_Builder.ipp Pages: 1 -->
<svg width="178pt" height="140pt"
 viewBox="0.00 0.00 178.00 140.00" xmlns="http://www.w3.org/2000/svg" xmlns:xlink="http://www.w3.org/1999/xlink">
<g id="graph0" class="graph" transform="scale(1 1) rotate(0) translate(4 136)">
<title>KV_Builder.ipp</title>
<polygon fill="white" stroke="none" points="-4,4 -4,-136 174,-136 174,4 -4,4"/>
<!-- Node1 -->
<g id="node1" class="node"><title>Node1</title>
<g id="a_node1"><a xlink:title=" ">
<polygon fill="#bfbfbf" stroke="black" points="48.5,-112.5 48.5,-131.5 129.5,-131.5 129.5,-112.5 48.5,-112.5"/>
<text text-anchor="middle" x="89" y="-119.5" font-family="Helvetica,sans-Serif" font-size="10.00">KV_Builder.ipp</text>
</a>
</g>
</g>
<!-- Node2 -->
<g id="node2" class="node"><title>Node2</title>
<g id="a_node2"><a xlink:href="../../dc/d98/KV__Builder_8hpp.html" target="_top" xlink:title="This file contains the KV_Builder class, a key&#45;value pair, dictionary&#45;like container that supports ma...">
<polygon fill="white" stroke="black" points="47,-56.5 47,-75.5 131,-75.5 131,-56.5 47,-56.5"/>
<text text-anchor="middle" x="89" y="-63.5" font-family="Helvetica,sans-Serif" font-size="10.00">KV_Builder.hpp</text>
</a>
</g>
</g>
<!-- Node1&#45;&gt;Node2 -->
<g id="edge1" class="edge"><title>Node1&#45;&gt;Node2</title>
<path fill="none" stroke="midnightblue" d="M82.5276,-102.101C81.8956,-93.1357 82.3427,-82.8579 83.869,-75.7511"/>
<polygon fill="midnightblue" stroke="midnightblue" points="79.0658,-102.622 83.8337,-112.083 86.0067,-101.713 79.0658,-102.622"/>
</g>
<!-- Node2&#45;&gt;Node1 -->
<g id="edge2" class="edge"><title>Node2&#45;&gt;Node1</title>
<path fill="none" stroke="midnightblue" d="M95.4575,-85.6911C96.1062,-94.6353 95.6758,-104.927 94.1663,-112.083"/>
<polygon fill="midnightblue" stroke="midnightblue" points="98.9231,-85.2002 94.131,-75.7511 91.9846,-86.1262 98.9231,-85.2002"/>
</g>
<!-- Node3 -->
<g id="node3" class="node"><title>Node3</title>
<g id="a_node3"><a xlink:href="../../d7/d1f/KV__Builder_8cpp.html" target="_top" xlink:title=" ">
<polygon fill="white" stroke="black" points="0,-0.5 0,-19.5 84,-19.5 84,-0.5 0,-0.5"/>
<text text-anchor="middle" x="42" y="-7.5" font-family="Helvetica,sans-Serif" font-size="10.00">KV_Builder.cpp</text>
</a>
</g>
</g>
<!-- Node2&#45;&gt;Node3 -->
<g id="edge3" class="edge"><title>Node2&#45;&gt;Node3</title>
<path fill="none" stroke="midnightblue" d="M74.5792,-48.4314C66.3419,-38.9673 56.3461,-27.4827 49.6167,-19.7511"/>
<polygon fill="midnightblue" stroke="midnightblue" points="72.0336,-50.8378 81.2389,-56.083 77.3137,-46.2421 72.0336,-50.8378"/>
</g>
<!-- Node4 -->
<g id="node4" class="node"><title>Node4</title>
<g id="a_node4"><a xlink:href="../../df/d37/KVComm_8h.html" target="_top" xlink:title=" ">
<polygon fill="white" stroke="black" points="102,-0.5 102,-19.5 170,-19.5 170,-0.5 102,-0.5"/>
<text text-anchor="middle" x="136" y="-7.5" font-family="Helvetica,sans-Serif" font-size="10.00">KVComm.h</text>
</a>
</g>
</g>
<!-- Node2&#45;&gt;Node4 -->
<g id="edge4" class="edge"><title>Node2&#45;&gt;Node4</title>
<path fill="none" stroke="midnightblue" d="M103.421,-48.4314C111.658,-38.9673 121.654,-27.4827 128.383,-19.7511"/>
<polygon fill="midnightblue" stroke="midnightblue" points="100.686,-46.2421 96.7611,-56.083 105.966,-50.8378 100.686,-46.2421"/>
</g>
</g>
</svg>
