<?xml version="1.0" encoding="UTF-8" standalone="no"?>
<!DOCTYPE svg PUBLIC "-//W3C//DTD SVG 1.1//EN"
 "http://www.w3.org/Graphics/SVG/1.1/DTD/svg11.dtd">
<!-- Generated by graphviz version 2.38.0 (20140413.2041)
 -->
<!-- Title: SLIPStream.cpp Pages: 1 -->
<svg width="955pt" height="308pt"
 viewBox="0.00 0.00 955.00 308.00" xmlns="http://www.w3.org/2000/svg" xmlns:xlink="http://www.w3.org/1999/xlink">
<g id="graph0" class="graph" transform="scale(1 1) rotate(0) translate(4 304)">
<title>SLIPStream.cpp</title>
<polygon fill="white" stroke="none" points="-4,4 -4,-304 951,-304 951,4 -4,4"/>
<!-- Node1 -->
<g id="node1" class="node"><title>Node1</title>
<g id="a_node1"><a xlink:title=" ">
<polygon fill="#bfbfbf" stroke="black" points="307,-280.5 307,-299.5 396,-299.5 396,-280.5 307,-280.5"/>
<text text-anchor="middle" x="351.5" y="-287.5" font-family="Helvetica,sans-Serif" font-size="10.00">SLIPStream.cpp</text>
</a>
</g>
</g>
<!-- Node2 -->
<g id="node2" class="node"><title>Node2</title>
<g id="a_node2"><a xlink:href="../../da/dd2/SLIPStream_8hpp.html" target="_top" xlink:title=" ">
<polygon fill="white" stroke="black" points="381,-224.5 381,-243.5 470,-243.5 470,-224.5 381,-224.5"/>
<text text-anchor="middle" x="425.5" y="-231.5" font-family="Helvetica,sans-Serif" font-size="10.00">SLIPStream.hpp</text>
</a>
</g>
</g>
<!-- Node1&#45;&gt;Node2 -->
<g id="edge1" class="edge"><title>Node1&#45;&gt;Node2</title>
<path fill="none" stroke="midnightblue" d="M363.389,-280.324C374.65,-272.107 391.787,-259.602 405.209,-249.807"/>
<polygon fill="midnightblue" stroke="midnightblue" points="407.38,-252.556 413.394,-243.834 403.253,-246.901 407.38,-252.556"/>
</g>
<!-- Node11 -->
<g id="node11" class="node"><title>Node11</title>
<g id="a_node11"><a xlink:href="../../d5/ddb/SLIPSender_8hpp.html" target="_top" xlink:title=" ">
<polygon fill="white" stroke="black" points="262.5,-112.5 262.5,-131.5 406.5,-131.5 406.5,-112.5 262.5,-112.5"/>
<text text-anchor="middle" x="334.5" y="-119.5" font-family="Helvetica,sans-Serif" font-size="10.00">SLIPStream/SLIPSender.hpp</text>
</a>
</g>
</g>
<!-- Node1&#45;&gt;Node11 -->
<g id="edge25" class="edge"><title>Node1&#45;&gt;Node11</title>
<path fill="none" stroke="midnightblue" d="M344.993,-280.424C332.783,-263.727 306.827,-225.225 297.5,-188 295.34,-179.378 294.502,-176.368 297.5,-168 301.441,-157.003 309.357,-146.769 316.86,-138.848"/>
<polygon fill="midnightblue" stroke="midnightblue" points="319.392,-141.266 324.062,-131.755 314.481,-136.278 319.392,-141.266"/>
</g>
<!-- Node3 -->
<g id="node3" class="node"><title>Node3</title>
<g id="a_node3"><a xlink:href="../../df/dfe/SLIPParser_8hpp.html" target="_top" xlink:title=" ">
<polygon fill="white" stroke="black" points="562.5,-112.5 562.5,-131.5 704.5,-131.5 704.5,-112.5 562.5,-112.5"/>
<text text-anchor="middle" x="633.5" y="-119.5" font-family="Helvetica,sans-Serif" font-size="10.00">SLIPStream/SLIPParser.hpp</text>
</a>
</g>
</g>
<!-- Node2&#45;&gt;Node3 -->
<g id="edge2" class="edge"><title>Node2&#45;&gt;Node3</title>
<path fill="none" stroke="midnightblue" d="M442.432,-224.492C460.196,-215.53 488.902,-200.949 513.5,-188 546.816,-170.462 585.008,-149.652 609.186,-136.389"/>
<polygon fill="midnightblue" stroke="midnightblue" points="610.949,-139.414 618.029,-131.532 607.579,-133.279 610.949,-139.414"/>
</g>
<!-- Node2&#45;&gt;Node11 -->
<g id="edge11" class="edge"><title>Node2&#45;&gt;Node11</title>
<path fill="none" stroke="midnightblue" d="M418.359,-224.368C403.209,-206.055 367.631,-163.049 348.036,-139.362"/>
<polygon fill="midnightblue" stroke="midnightblue" points="350.679,-137.066 341.607,-131.591 345.285,-141.528 350.679,-137.066"/>
</g>
<!-- Node16 -->
<g id="node16" class="node"><title>Node16</title>
<g id="a_node16"><a xlink:title=" ">
<polygon fill="white" stroke="#bfbfbf" points="306.5,-168.5 306.5,-187.5 362.5,-187.5 362.5,-168.5 306.5,-168.5"/>
<text text-anchor="middle" x="334.5" y="-175.5" font-family="Helvetica,sans-Serif" font-size="10.00">Stream.h</text>
</a>
</g>
</g>
<!-- Node2&#45;&gt;Node16 -->
<g id="edge21" class="edge"><title>Node2&#45;&gt;Node16</title>
<path fill="none" stroke="midnightblue" d="M410.879,-224.324C396.551,-215.822 374.487,-202.729 357.751,-192.797"/>
<polygon fill="midnightblue" stroke="midnightblue" points="359.47,-189.748 349.084,-187.655 355.898,-195.768 359.47,-189.748"/>
</g>
<!-- Node17 -->
<g id="node17" class="node"><title>Node17</title>
<g id="a_node17"><a xlink:href="../../d3/d61/SLIPStream_8ipp.html" target="_top" xlink:title=" ">
<polygon fill="white" stroke="black" points="418.5,-168.5 418.5,-187.5 504.5,-187.5 504.5,-168.5 418.5,-168.5"/>
<text text-anchor="middle" x="461.5" y="-175.5" font-family="Helvetica,sans-Serif" font-size="10.00">SLIPStream.ipp</text>
</a>
</g>
</g>
<!-- Node2&#45;&gt;Node17 -->
<g id="edge22" class="edge"><title>Node2&#45;&gt;Node17</title>
<path fill="none" stroke="midnightblue" d="M426.278,-224.083C429.79,-216.377 436.978,-205.033 444.109,-195.653"/>
<polygon fill="midnightblue" stroke="midnightblue" points="446.941,-197.718 450.535,-187.751 441.51,-193.302 446.941,-197.718"/>
</g>
<!-- Node4 -->
<g id="node4" class="node"><title>Node4</title>
<g id="a_node4"><a xlink:title=" ">
<polygon fill="white" stroke="#bfbfbf" points="759,-56.5 759,-75.5 846,-75.5 846,-56.5 759,-56.5"/>
<text text-anchor="middle" x="802.5" y="-63.5" font-family="Helvetica,sans-Serif" font-size="10.00">AH/STL/cstddef</text>
</a>
</g>
</g>
<!-- Node3&#45;&gt;Node4 -->
<g id="edge3" class="edge"><title>Node3&#45;&gt;Node4</title>
<path fill="none" stroke="midnightblue" d="M660.279,-112.444C688.833,-103.32 734.233,-88.8133 766.037,-78.6509"/>
<polygon fill="midnightblue" stroke="midnightblue" points="767.386,-81.8941 775.847,-75.5164 765.256,-75.2262 767.386,-81.8941"/>
</g>
<!-- Node5 -->
<g id="node5" class="node"><title>Node5</title>
<g id="a_node5"><a xlink:title=" ">
<polygon fill="white" stroke="#bfbfbf" points="350.5,-56.5 350.5,-75.5 428.5,-75.5 428.5,-56.5 350.5,-56.5"/>
<text text-anchor="middle" x="389.5" y="-63.5" font-family="Helvetica,sans-Serif" font-size="10.00">AH/STL/utility</text>
</a>
</g>
</g>
<!-- Node3&#45;&gt;Node5 -->
<g id="edge4" class="edge"><title>Node3&#45;&gt;Node5</title>
<path fill="none" stroke="midnightblue" d="M594.837,-112.444C552.362,-103.043 484.069,-87.9291 438.026,-77.7393"/>
<polygon fill="midnightblue" stroke="midnightblue" points="438.502,-74.26 427.982,-75.5164 436.989,-81.0946 438.502,-74.26"/>
</g>
<!-- Node6 -->
<g id="node6" class="node"><title>Node6</title>
<g id="a_node6"><a xlink:title=" ">
<polygon fill="white" stroke="#bfbfbf" points="446.5,-56.5 446.5,-75.5 498.5,-75.5 498.5,-56.5 446.5,-56.5"/>
<text text-anchor="middle" x="472.5" y="-63.5" font-family="Helvetica,sans-Serif" font-size="10.00">stddef.h</text>
</a>
</g>
</g>
<!-- Node3&#45;&gt;Node6 -->
<g id="edge5" class="edge"><title>Node3&#45;&gt;Node6</title>
<path fill="none" stroke="midnightblue" d="M607.989,-112.444C580.904,-103.359 537.91,-88.9388 507.631,-78.7831"/>
<polygon fill="midnightblue" stroke="midnightblue" points="508.486,-75.3781 497.892,-75.5164 506.26,-82.0148 508.486,-75.3781"/>
</g>
<!-- Node7 -->
<g id="node7" class="node"><title>Node7</title>
<g id="a_node7"><a xlink:href="../../d6/d9e/SLIP_8hpp.html" target="_top" xlink:title=" ">
<polygon fill="white" stroke="black" points="517,-56.5 517,-75.5 630,-75.5 630,-56.5 517,-56.5"/>
<text text-anchor="middle" x="573.5" y="-63.5" font-family="Helvetica,sans-Serif" font-size="10.00">SLIPStream/SLIP.hpp</text>
</a>
</g>
</g>
<!-- Node3&#45;&gt;Node7 -->
<g id="edge6" class="edge"><title>Node3&#45;&gt;Node7</title>
<path fill="none" stroke="midnightblue" d="M623.86,-112.324C614.99,-104.341 601.625,-92.3128 590.892,-82.6529"/>
<polygon fill="midnightblue" stroke="midnightblue" points="593.09,-79.922 583.315,-75.8339 588.407,-85.1251 593.09,-79.922"/>
</g>
<!-- Node9 -->
<g id="node9" class="node"><title>Node9</title>
<g id="a_node9"><a xlink:title=" ">
<polygon fill="white" stroke="#bfbfbf" points="648.5,-56.5 648.5,-75.5 740.5,-75.5 740.5,-56.5 648.5,-56.5"/>
<text text-anchor="middle" x="694.5" y="-63.5" font-family="Helvetica,sans-Serif" font-size="10.00">boost/integer.hpp</text>
</a>
</g>
</g>
<!-- Node3&#45;&gt;Node9 -->
<g id="edge8" class="edge"><title>Node3&#45;&gt;Node9</title>
<path fill="none" stroke="midnightblue" d="M643.301,-112.324C652.318,-104.341 665.906,-92.3128 676.818,-82.6529"/>
<polygon fill="midnightblue" stroke="midnightblue" points="679.353,-85.083 684.521,-75.8339 674.713,-79.8416 679.353,-85.083"/>
</g>
<!-- Node10 -->
<g id="node10" class="node"><title>Node10</title>
<g id="a_node10"><a xlink:href="../../d3/d0e/SLIPParser_8ipp.html" target="_top" xlink:title=" ">
<polygon fill="white" stroke="black" points="864,-56.5 864,-75.5 947,-75.5 947,-56.5 864,-56.5"/>
<text text-anchor="middle" x="905.5" y="-63.5" font-family="Helvetica,sans-Serif" font-size="10.00">SLIPParser.ipp</text>
</a>
</g>
</g>
<!-- Node3&#45;&gt;Node10 -->
<g id="edge9" class="edge"><title>Node3&#45;&gt;Node10</title>
<path fill="none" stroke="midnightblue" d="M671.51,-112.444C719.159,-102.553 800.789,-86.3384 853.998,-76.1879"/>
<polygon fill="midnightblue" stroke="midnightblue" points="854.743,-79.6089 863.915,-74.3042 853.437,-72.7318 854.743,-79.6089"/>
</g>
<!-- Node8 -->
<g id="node8" class="node"><title>Node8</title>
<g id="a_node8"><a xlink:title=" ">
<polygon fill="white" stroke="#bfbfbf" points="549,-0.5 549,-19.5 598,-19.5 598,-0.5 549,-0.5"/>
<text text-anchor="middle" x="573.5" y="-7.5" font-family="Helvetica,sans-Serif" font-size="10.00">stdint.h</text>
</a>
</g>
</g>
<!-- Node7&#45;&gt;Node8 -->
<g id="edge7" class="edge"><title>Node7&#45;&gt;Node8</title>
<path fill="none" stroke="midnightblue" d="M573.5,-56.083C573.5,-49.0059 573.5,-38.8611 573.5,-29.9865"/>
<polygon fill="midnightblue" stroke="midnightblue" points="577,-29.751 573.5,-19.7511 570,-29.7511 577,-29.751"/>
</g>
<!-- Node10&#45;&gt;Node3 -->
<g id="edge10" class="edge"><title>Node10&#45;&gt;Node3</title>
<path fill="none" stroke="midnightblue" d="M867.682,-75.5164C822.007,-84.9992 744.906,-100.332 691.669,-110.537"/>
<polygon fill="midnightblue" stroke="midnightblue" points="690.854,-107.13 681.688,-112.444 692.167,-114.005 690.854,-107.13"/>
</g>
<!-- Node11&#45;&gt;Node5 -->
<g id="edge13" class="edge"><title>Node11&#45;&gt;Node5</title>
<path fill="none" stroke="midnightblue" d="M343.582,-112.083C351.671,-104.141 363.695,-92.3354 373.41,-82.7973"/>
<polygon fill="midnightblue" stroke="midnightblue" points="375.903,-85.2545 380.587,-75.7511 370.999,-80.2595 375.903,-85.2545"/>
</g>
<!-- Node11&#45;&gt;Node6 -->
<g id="edge15" class="edge"><title>Node11&#45;&gt;Node6</title>
<path fill="none" stroke="midnightblue" d="M356.367,-112.444C379.279,-103.478 415.475,-89.314 441.366,-79.1827"/>
<polygon fill="midnightblue" stroke="midnightblue" points="442.699,-82.4198 450.736,-75.5164 440.148,-75.9011 442.699,-82.4198"/>
</g>
<!-- Node11&#45;&gt;Node7 -->
<g id="edge18" class="edge"><title>Node11&#45;&gt;Node7</title>
<path fill="none" stroke="midnightblue" d="M372.37,-112.444C413.976,-103.043 480.869,-87.9291 525.969,-77.7393"/>
<polygon fill="midnightblue" stroke="midnightblue" points="526.824,-81.1343 535.807,-75.5164 525.281,-74.3064 526.824,-81.1343"/>
</g>
<!-- Node11&#45;&gt;Node9 -->
<g id="edge17" class="edge"><title>Node11&#45;&gt;Node9</title>
<path fill="none" stroke="midnightblue" d="M393.664,-112.464C452.795,-103.882 546.594,-90.1335 638.343,-76.0069"/>
<polygon fill="midnightblue" stroke="midnightblue" points="639.013,-79.445 648.362,-74.4614 637.946,-72.5269 639.013,-79.445"/>
</g>
<!-- Node12 -->
<g id="node12" class="node"><title>Node12</title>
<g id="a_node12"><a xlink:title=" ">
<polygon fill="white" stroke="#bfbfbf" points="0,-56.5 0,-75.5 95,-75.5 95,-56.5 0,-56.5"/>
<text text-anchor="middle" x="47.5" y="-63.5" font-family="Helvetica,sans-Serif" font-size="10.00">AH/STL/algorithm</text>
</a>
</g>
</g>
<!-- Node11&#45;&gt;Node12 -->
<g id="edge12" class="edge"><title>Node11&#45;&gt;Node12</title>
<path fill="none" stroke="midnightblue" d="M289.024,-112.444C238.538,-102.944 157.044,-87.611 102.88,-77.4198"/>
<polygon fill="midnightblue" stroke="midnightblue" points="103.238,-73.9259 92.7632,-75.5164 101.944,-80.8052 103.238,-73.9259"/>
</g>
<!-- Node13 -->
<g id="node13" class="node"><title>Node13</title>
<g id="a_node13"><a xlink:title=" ">
<polygon fill="white" stroke="#bfbfbf" points="113.5,-56.5 113.5,-75.5 161.5,-75.5 161.5,-56.5 113.5,-56.5"/>
<text text-anchor="middle" x="137.5" y="-63.5" font-family="Helvetica,sans-Serif" font-size="10.00">limits.h</text>
</a>
</g>
</g>
<!-- Node11&#45;&gt;Node13 -->
<g id="edge14" class="edge"><title>Node11&#45;&gt;Node13</title>
<path fill="none" stroke="midnightblue" d="M303.285,-112.444C267.385,-102.603 208.645,-86.5016 171.58,-76.3418"/>
<polygon fill="midnightblue" stroke="midnightblue" points="172.307,-72.9121 161.738,-73.6439 170.457,-79.663 172.307,-72.9121"/>
</g>
<!-- Node14 -->
<g id="node14" class="node"><title>Node14</title>
<g id="a_node14"><a xlink:title=" ">
<polygon fill="white" stroke="#bfbfbf" points="180,-56.5 180,-75.5 229,-75.5 229,-56.5 180,-56.5"/>
<text text-anchor="middle" x="204.5" y="-63.5" font-family="Helvetica,sans-Serif" font-size="10.00">string.h</text>
</a>
</g>
</g>
<!-- Node11&#45;&gt;Node14 -->
<g id="edge16" class="edge"><title>Node11&#45;&gt;Node14</title>
<path fill="none" stroke="midnightblue" d="M313.901,-112.444C292.507,-103.557 258.819,-89.5632 234.476,-79.4514"/>
<polygon fill="midnightblue" stroke="midnightblue" points="235.58,-76.1203 225.003,-75.5164 232.895,-82.5848 235.58,-76.1203"/>
</g>
<!-- Node15 -->
<g id="node15" class="node"><title>Node15</title>
<g id="a_node15"><a xlink:href="../../d7/d88/SLIPSender_8ipp.html" target="_top" xlink:title=" ">
<polygon fill="white" stroke="black" points="247,-56.5 247,-75.5 332,-75.5 332,-56.5 247,-56.5"/>
<text text-anchor="middle" x="289.5" y="-63.5" font-family="Helvetica,sans-Serif" font-size="10.00">SLIPSender.ipp</text>
</a>
</g>
</g>
<!-- Node11&#45;&gt;Node15 -->
<g id="edge19" class="edge"><title>Node11&#45;&gt;Node15</title>
<path fill="none" stroke="midnightblue" d="M322.155,-112.324C314.185,-104.733 304.406,-93.4823 297.413,-84.0898"/>
<polygon fill="midnightblue" stroke="midnightblue" points="300.275,-82.0744 291.713,-75.8339 294.514,-86.0516 300.275,-82.0744"/>
</g>
<!-- Node15&#45;&gt;Node11 -->
<g id="edge20" class="edge"><title>Node15&#45;&gt;Node11</title>
<path fill="none" stroke="midnightblue" d="M301.924,-75.7511C309.863,-83.3265 319.579,-94.5048 326.546,-103.855"/>
<polygon fill="midnightblue" stroke="midnightblue" points="323.669,-105.849 332.235,-112.083 329.427,-101.867 323.669,-105.849"/>
</g>
<!-- Node17&#45;&gt;Node2 -->
<g id="edge23" class="edge"><title>Node17&#45;&gt;Node2</title>
<path fill="none" stroke="midnightblue" d="M460.797,-187.751C457.338,-195.405 450.176,-206.736 443.045,-216.144"/>
<polygon fill="midnightblue" stroke="midnightblue" points="440.188,-214.11 436.611,-224.083 445.626,-218.517 440.188,-214.11"/>
</g>
<!-- Node17&#45;&gt;Node11 -->
<g id="edge24" class="edge"><title>Node17&#45;&gt;Node11</title>
<path fill="none" stroke="midnightblue" d="M441.376,-168.444C420.476,-159.557 387.565,-145.563 363.784,-135.451"/>
<polygon fill="midnightblue" stroke="midnightblue" points="365.102,-132.208 354.529,-131.516 362.362,-138.65 365.102,-132.208"/>
</g>
</g>
</svg>
