<?xml version="1.0" encoding="UTF-8" standalone="no"?>
<!DOCTYPE svg PUBLIC "-//W3C//DTD SVG 1.1//EN"
 "http://www.w3.org/Graphics/SVG/1.1/DTD/svg11.dtd">
<!-- Generated by graphviz version 2.38.0 (20140413.2041)
 -->
<!-- Title: SLIP.hpp Pages: 1 -->
<svg width="358pt" height="196pt"
 viewBox="0.00 0.00 358.00 196.00" xmlns="http://www.w3.org/2000/svg" xmlns:xlink="http://www.w3.org/1999/xlink">
<g id="graph0" class="graph" transform="scale(1 1) rotate(0) translate(4 192)">
<title>SLIP.hpp</title>
<polygon fill="white" stroke="none" points="-4,4 -4,-192 354,-192 354,4 -4,4"/>
<!-- Node1 -->
<g id="node1" class="node"><title>Node1</title>
<g id="a_node1"><a xlink:title=" ">
<polygon fill="#bfbfbf" stroke="black" points="153,-168.5 153,-187.5 210,-187.5 210,-168.5 153,-168.5"/>
<text text-anchor="middle" x="181.5" y="-175.5" font-family="Helvetica,sans-Serif" font-size="10.00">SLIP.hpp</text>
</a>
</g>
</g>
<!-- Node2 -->
<g id="node2" class="node"><title>Node2</title>
<g id="a_node2"><a xlink:href="../../df/dfe/SLIPParser_8hpp.html" target="_top" xlink:title=" ">
<polygon fill="white" stroke="black" points="68.5,-112.5 68.5,-131.5 154.5,-131.5 154.5,-112.5 68.5,-112.5"/>
<text text-anchor="middle" x="111.5" y="-119.5" font-family="Helvetica,sans-Serif" font-size="10.00">SLIPParser.hpp</text>
</a>
</g>
</g>
<!-- Node1&#45;&gt;Node2 -->
<g id="edge1" class="edge"><title>Node1&#45;&gt;Node2</title>
<path fill="none" stroke="midnightblue" d="M162.186,-162.101C149.588,-152.382 133.572,-140.027 122.951,-131.834"/>
<polygon fill="midnightblue" stroke="midnightblue" points="160.198,-164.987 170.253,-168.324 164.473,-159.445 160.198,-164.987"/>
</g>
<!-- Node7 -->
<g id="node7" class="node"><title>Node7</title>
<g id="a_node7"><a xlink:href="../../d5/ddb/SLIPSender_8hpp.html" target="_top" xlink:title=" ">
<polygon fill="white" stroke="black" points="208.5,-112.5 208.5,-131.5 296.5,-131.5 296.5,-112.5 208.5,-112.5"/>
<text text-anchor="middle" x="252.5" y="-119.5" font-family="Helvetica,sans-Serif" font-size="10.00">SLIPSender.hpp</text>
</a>
</g>
</g>
<!-- Node1&#45;&gt;Node7 -->
<g id="edge8" class="edge"><title>Node1&#45;&gt;Node7</title>
<path fill="none" stroke="midnightblue" d="M201.09,-162.101C213.868,-152.382 230.113,-140.027 240.885,-131.834"/>
<polygon fill="midnightblue" stroke="midnightblue" points="198.748,-159.484 192.907,-168.324 202.986,-165.056 198.748,-159.484"/>
</g>
<!-- Node3 -->
<g id="node3" class="node"><title>Node3</title>
<g id="a_node3"><a xlink:href="../../d3/d0e/SLIPParser_8ipp.html" target="_top" xlink:title=" ">
<polygon fill="white" stroke="black" points="0,-56.5 0,-75.5 83,-75.5 83,-56.5 0,-56.5"/>
<text text-anchor="middle" x="41.5" y="-63.5" font-family="Helvetica,sans-Serif" font-size="10.00">SLIPParser.ipp</text>
</a>
</g>
</g>
<!-- Node2&#45;&gt;Node3 -->
<g id="edge2" class="edge"><title>Node2&#45;&gt;Node3</title>
<path fill="none" stroke="midnightblue" d="M86.8672,-106.658C72.9825,-96.8592 56.8501,-84.1845 47.8026,-75.8339"/>
<polygon fill="midnightblue" stroke="midnightblue" points="84.9104,-109.56 95.1385,-112.324 88.8661,-103.785 84.9104,-109.56"/>
</g>
<!-- Node4 -->
<g id="node4" class="node"><title>Node4</title>
<g id="a_node4"><a xlink:href="../../da/dd2/SLIPStream_8hpp.html" target="_top" xlink:title=" ">
<polygon fill="white" stroke="black" points="101,-56.5 101,-75.5 190,-75.5 190,-56.5 101,-56.5"/>
<text text-anchor="middle" x="145.5" y="-63.5" font-family="Helvetica,sans-Serif" font-size="10.00">SLIPStream.hpp</text>
</a>
</g>
</g>
<!-- Node2&#45;&gt;Node4 -->
<g id="edge4" class="edge"><title>Node2&#45;&gt;Node4</title>
<path fill="none" stroke="midnightblue" d="M122.477,-103.566C128.327,-94.2747 135.27,-83.2484 139.99,-75.7511"/>
<polygon fill="midnightblue" stroke="midnightblue" points="119.481,-101.756 117.114,-112.083 125.404,-105.486 119.481,-101.756"/>
</g>
<!-- Node3&#45;&gt;Node2 -->
<g id="edge3" class="edge"><title>Node3&#45;&gt;Node2</title>
<path fill="none" stroke="midnightblue" d="M66.1482,-81.3524C80.1173,-91.2122 96.3573,-103.979 105.368,-112.324"/>
<polygon fill="midnightblue" stroke="midnightblue" points="68.0571,-78.4176 57.829,-75.6545 64.1016,-84.1929 68.0571,-78.4176"/>
</g>
<!-- Node5 -->
<g id="node5" class="node"><title>Node5</title>
<g id="a_node5"><a xlink:href="../../d9/df2/SLIPStream_8cpp.html" target="_top" xlink:title=" ">
<polygon fill="white" stroke="black" points="261,-0.5 261,-19.5 350,-19.5 350,-0.5 261,-0.5"/>
<text text-anchor="middle" x="305.5" y="-7.5" font-family="Helvetica,sans-Serif" font-size="10.00">SLIPStream.cpp</text>
</a>
</g>
</g>
<!-- Node4&#45;&gt;Node5 -->
<g id="edge5" class="edge"><title>Node4&#45;&gt;Node5</title>
<path fill="none" stroke="midnightblue" d="M180.546,-53.172C210.674,-43.0039 253.396,-28.5852 280.266,-19.5164"/>
<polygon fill="midnightblue" stroke="midnightblue" points="179.208,-49.9295 170.852,-56.4435 181.447,-56.5619 179.208,-49.9295"/>
</g>
<!-- Node6 -->
<g id="node6" class="node"><title>Node6</title>
<g id="a_node6"><a xlink:href="../../d3/d61/SLIPStream_8ipp.html" target="_top" xlink:title=" ">
<polygon fill="white" stroke="black" points="102.5,-0.5 102.5,-19.5 188.5,-19.5 188.5,-0.5 102.5,-0.5"/>
<text text-anchor="middle" x="145.5" y="-7.5" font-family="Helvetica,sans-Serif" font-size="10.00">SLIPStream.ipp</text>
</a>
</g>
</g>
<!-- Node4&#45;&gt;Node6 -->
<g id="edge6" class="edge"><title>Node4&#45;&gt;Node6</title>
<path fill="none" stroke="midnightblue" d="M139.028,-46.1005C138.396,-37.1357 138.843,-26.8579 140.369,-19.7511"/>
<polygon fill="midnightblue" stroke="midnightblue" points="135.566,-46.6216 140.334,-56.083 142.507,-45.7134 135.566,-46.6216"/>
</g>
<!-- Node6&#45;&gt;Node4 -->
<g id="edge7" class="edge"><title>Node6&#45;&gt;Node4</title>
<path fill="none" stroke="midnightblue" d="M151.958,-29.6911C152.606,-38.6353 152.176,-48.9272 150.666,-56.083"/>
<polygon fill="midnightblue" stroke="midnightblue" points="155.423,-29.2002 150.631,-19.7511 148.485,-30.1262 155.423,-29.2002"/>
</g>
<!-- Node7&#45;&gt;Node4 -->
<g id="edge11" class="edge"><title>Node7&#45;&gt;Node4</title>
<path fill="none" stroke="midnightblue" d="M226.198,-107.726C206.385,-97.7271 179.793,-84.3065 162.649,-75.6545"/>
<polygon fill="midnightblue" stroke="midnightblue" points="224.804,-110.943 235.309,-112.324 227.958,-104.694 224.804,-110.943"/>
</g>
<!-- Node7&#45;&gt;Node5 -->
<g id="edge13" class="edge"><title>Node7&#45;&gt;Node5</title>
<path fill="none" stroke="midnightblue" d="M298.772,-108.728C315.189,-101.904 331.947,-91.5345 341.5,-76 353.663,-56.2207 330.924,-32.121 316.351,-19.5551"/>
<polygon fill="midnightblue" stroke="midnightblue" points="297.317,-105.537 289.202,-112.349 299.794,-112.084 297.317,-105.537"/>
</g>
<!-- Node7&#45;&gt;Node6 -->
<g id="edge12" class="edge"><title>Node7&#45;&gt;Node6</title>
<path fill="none" stroke="midnightblue" d="M239.857,-104.202C229.36,-90.6588 213.735,-71.3996 198.5,-56 185.087,-42.4422 168.042,-28.4784 156.957,-19.7742"/>
<polygon fill="midnightblue" stroke="midnightblue" points="237.103,-106.363 245.959,-112.179 242.663,-102.11 237.103,-106.363"/>
</g>
<!-- Node8 -->
<g id="node8" class="node"><title>Node8</title>
<g id="a_node8"><a xlink:href="../../d7/d88/SLIPSender_8ipp.html" target="_top" xlink:title=" ">
<polygon fill="white" stroke="black" points="247,-56.5 247,-75.5 332,-75.5 332,-56.5 247,-56.5"/>
<text text-anchor="middle" x="289.5" y="-63.5" font-family="Helvetica,sans-Serif" font-size="10.00">SLIPSender.ipp</text>
</a>
</g>
</g>
<!-- Node7&#45;&gt;Node8 -->
<g id="edge9" class="edge"><title>Node7&#45;&gt;Node8</title>
<path fill="none" stroke="midnightblue" d="M258.262,-103.275C263.827,-94.0454 271.696,-83.1703 278.373,-75.7511"/>
<polygon fill="midnightblue" stroke="midnightblue" points="255.172,-101.63 253.443,-112.083 261.314,-104.99 255.172,-101.63"/>
</g>
<!-- Node8&#45;&gt;Node7 -->
<g id="edge10" class="edge"><title>Node8&#45;&gt;Node7</title>
<path fill="none" stroke="midnightblue" d="M283.686,-84.8111C278.165,-93.9533 270.4,-104.691 263.776,-112.083"/>
<polygon fill="midnightblue" stroke="midnightblue" points="286.913,-86.205 288.635,-75.7511 280.769,-82.8493 286.913,-86.205"/>
</g>
</g>
</svg>
