<?xml version="1.0" encoding="UTF-8" standalone="no"?>
<!DOCTYPE svg PUBLIC "-//W3C//DTD SVG 1.1//EN"
 "http://www.w3.org/Graphics/SVG/1.1/DTD/svg11.dtd">
<!-- Generated by graphviz version 2.38.0 (20140413.2041)
 -->
<!-- Title: SLIPParser.hpp Pages: 1 -->
<svg width="605pt" height="140pt"
 viewBox="0.00 0.00 605.00 140.00" xmlns="http://www.w3.org/2000/svg" xmlns:xlink="http://www.w3.org/1999/xlink">
<g id="graph0" class="graph" transform="scale(1 1) rotate(0) translate(4 136)">
<title>SLIPParser.hpp</title>
<polygon fill="white" stroke="none" points="-4,4 -4,-136 601,-136 601,4 -4,4"/>
<!-- Node1 -->
<g id="node1" class="node"><title>Node1</title>
<g id="a_node1"><a xlink:title=" ">
<polygon fill="#bfbfbf" stroke="black" points="285.5,-112.5 285.5,-131.5 371.5,-131.5 371.5,-112.5 285.5,-112.5"/>
<text text-anchor="middle" x="328.5" y="-119.5" font-family="Helvetica,sans-Serif" font-size="10.00">SLIPParser.hpp</text>
</a>
</g>
</g>
<!-- Node2 -->
<g id="node2" class="node"><title>Node2</title>
<g id="a_node2"><a xlink:title=" ">
<polygon fill="white" stroke="#bfbfbf" points="0,-56.5 0,-75.5 87,-75.5 87,-56.5 0,-56.5"/>
<text text-anchor="middle" x="43.5" y="-63.5" font-family="Helvetica,sans-Serif" font-size="10.00">AH/STL/cstddef</text>
</a>
</g>
</g>
<!-- Node1&#45;&gt;Node2 -->
<g id="edge1" class="edge"><title>Node1&#45;&gt;Node2</title>
<path fill="none" stroke="midnightblue" d="M285.215,-112.799C234.891,-103.264 151.794,-87.5189 97.3466,-77.2025"/>
<polygon fill="midnightblue" stroke="midnightblue" points="97.6695,-73.7015 87.1927,-75.2786 96.3663,-80.5791 97.6695,-73.7015"/>
</g>
<!-- Node3 -->
<g id="node3" class="node"><title>Node3</title>
<g id="a_node3"><a xlink:title=" ">
<polygon fill="white" stroke="#bfbfbf" points="105.5,-56.5 105.5,-75.5 183.5,-75.5 183.5,-56.5 105.5,-56.5"/>
<text text-anchor="middle" x="144.5" y="-63.5" font-family="Helvetica,sans-Serif" font-size="10.00">AH/STL/utility</text>
</a>
</g>
</g>
<!-- Node1&#45;&gt;Node3 -->
<g id="edge2" class="edge"><title>Node1&#45;&gt;Node3</title>
<path fill="none" stroke="midnightblue" d="M299.345,-112.444C267.987,-103.241 217.969,-88.5617 183.303,-78.3879"/>
<polygon fill="midnightblue" stroke="midnightblue" points="184.1,-74.9742 173.519,-75.5164 182.129,-81.6909 184.1,-74.9742"/>
</g>
<!-- Node4 -->
<g id="node4" class="node"><title>Node4</title>
<g id="a_node4"><a xlink:title=" ">
<polygon fill="white" stroke="#bfbfbf" points="201.5,-56.5 201.5,-75.5 253.5,-75.5 253.5,-56.5 201.5,-56.5"/>
<text text-anchor="middle" x="227.5" y="-63.5" font-family="Helvetica,sans-Serif" font-size="10.00">stddef.h</text>
</a>
</g>
</g>
<!-- Node1&#45;&gt;Node4 -->
<g id="edge3" class="edge"><title>Node1&#45;&gt;Node4</title>
<path fill="none" stroke="midnightblue" d="M312.273,-112.324C296.149,-103.703 271.2,-90.3643 252.536,-80.3855"/>
<polygon fill="midnightblue" stroke="midnightblue" points="254.156,-77.283 243.687,-75.6545 250.856,-83.456 254.156,-77.283"/>
</g>
<!-- Node5 -->
<g id="node5" class="node"><title>Node5</title>
<g id="a_node5"><a xlink:href="../../d6/d9e/SLIP_8hpp.html" target="_top" xlink:title=" ">
<polygon fill="white" stroke="black" points="272,-56.5 272,-75.5 385,-75.5 385,-56.5 272,-56.5"/>
<text text-anchor="middle" x="328.5" y="-63.5" font-family="Helvetica,sans-Serif" font-size="10.00">SLIPStream/SLIP.hpp</text>
</a>
</g>
</g>
<!-- Node1&#45;&gt;Node5 -->
<g id="edge4" class="edge"><title>Node1&#45;&gt;Node5</title>
<path fill="none" stroke="midnightblue" d="M328.5,-112.083C328.5,-105.006 328.5,-94.8611 328.5,-85.9865"/>
<polygon fill="midnightblue" stroke="midnightblue" points="332,-85.751 328.5,-75.7511 325,-85.7511 332,-85.751"/>
</g>
<!-- Node7 -->
<g id="node7" class="node"><title>Node7</title>
<g id="a_node7"><a xlink:title=" ">
<polygon fill="white" stroke="#bfbfbf" points="403.5,-56.5 403.5,-75.5 495.5,-75.5 495.5,-56.5 403.5,-56.5"/>
<text text-anchor="middle" x="449.5" y="-63.5" font-family="Helvetica,sans-Serif" font-size="10.00">boost/integer.hpp</text>
</a>
</g>
</g>
<!-- Node1&#45;&gt;Node7 -->
<g id="edge6" class="edge"><title>Node1&#45;&gt;Node7</title>
<path fill="none" stroke="midnightblue" d="M347.673,-112.444C367.409,-103.636 398.385,-89.8116 420.993,-79.722"/>
<polygon fill="midnightblue" stroke="midnightblue" points="422.711,-82.788 430.417,-75.5164 419.859,-76.3957 422.711,-82.788"/>
</g>
<!-- Node8 -->
<g id="node8" class="node"><title>Node8</title>
<g id="a_node8"><a xlink:href="../../d3/d0e/SLIPParser_8ipp.html" target="_top" xlink:title=" ">
<polygon fill="white" stroke="black" points="514,-56.5 514,-75.5 597,-75.5 597,-56.5 514,-56.5"/>
<text text-anchor="middle" x="555.5" y="-63.5" font-family="Helvetica,sans-Serif" font-size="10.00">SLIPParser.ipp</text>
</a>
</g>
</g>
<!-- Node1&#45;&gt;Node8 -->
<g id="edge7" class="edge"><title>Node1&#45;&gt;Node8</title>
<path fill="none" stroke="midnightblue" d="M359.38,-112.444C396.835,-103.043 460.227,-87.9291 504.839,-77.7393"/>
<polygon fill="midnightblue" stroke="midnightblue" points="505.644,-81.1457 514.619,-75.5164 504.092,-74.3198 505.644,-81.1457"/>
</g>
<!-- Node6 -->
<g id="node6" class="node"><title>Node6</title>
<g id="a_node6"><a xlink:title=" ">
<polygon fill="white" stroke="#bfbfbf" points="304,-0.5 304,-19.5 353,-19.5 353,-0.5 304,-0.5"/>
<text text-anchor="middle" x="328.5" y="-7.5" font-family="Helvetica,sans-Serif" font-size="10.00">stdint.h</text>
</a>
</g>
</g>
<!-- Node5&#45;&gt;Node6 -->
<g id="edge5" class="edge"><title>Node5&#45;&gt;Node6</title>
<path fill="none" stroke="midnightblue" d="M328.5,-56.083C328.5,-49.0059 328.5,-38.8611 328.5,-29.9865"/>
<polygon fill="midnightblue" stroke="midnightblue" points="332,-29.751 328.5,-19.7511 325,-29.7511 332,-29.751"/>
</g>
<!-- Node8&#45;&gt;Node1 -->
<g id="edge8" class="edge"><title>Node8&#45;&gt;Node1</title>
<path fill="none" stroke="midnightblue" d="M524.779,-75.5164C487.399,-84.9006 424.017,-100.013 379.351,-110.217"/>
<polygon fill="midnightblue" stroke="midnightblue" points="378.533,-106.814 369.558,-112.444 380.085,-113.64 378.533,-106.814"/>
</g>
</g>
</svg>
