<?xml version="1.0" encoding="UTF-8" standalone="no"?>
<!DOCTYPE svg PUBLIC "-//W3C//DTD SVG 1.1//EN"
 "http://www.w3.org/Graphics/SVG/1.1/DTD/svg11.dtd">
<!-- Generated by graphviz version 2.38.0 (20140413.2041)
 -->
<!-- Title: Arduino&#45;Wrapper.h Pages: 1 -->
<svg width="1703pt" height="756pt"
 viewBox="0.00 0.00 1702.50 756.00" xmlns="http://www.w3.org/2000/svg" xmlns:xlink="http://www.w3.org/1999/xlink">
<g id="graph0" class="graph" transform="scale(1 1) rotate(0) translate(4 752)">
<title>Arduino&#45;Wrapper.h</title>
<polygon fill="white" stroke="none" points="-4,4 -4,-752 1698.5,-752 1698.5,4 -4,4"/>
<!-- Node1 -->
<g id="node1" class="node"><title>Node1</title>
<g id="a_node1"><a xlink:title=" ">
<polygon fill="#bfbfbf" stroke="black" points="1339,-728.5 1339,-747.5 1437,-747.5 1437,-728.5 1339,-728.5"/>
<text text-anchor="middle" x="1388" y="-735.5" font-family="Helvetica,sans-Serif" font-size="10.00">Arduino&#45;Wrapper.h</text>
</a>
</g>
</g>
<!-- Node2 -->
<g id="node2" class="node"><title>Node2</title>
<g id="a_node2"><a xlink:href="../../d7/d7c/ADCConfig_8hpp.html" target="_top" xlink:title="This file contains the platform&#45;specific ADC resolutions. By default, the library automatically selec...">
<polygon fill="white" stroke="black" points="1244,-672.5 1244,-691.5 1330,-691.5 1330,-672.5 1244,-672.5"/>
<text text-anchor="middle" x="1287" y="-679.5" font-family="Helvetica,sans-Serif" font-size="10.00">ADCConfig.hpp</text>
</a>
</g>
</g>
<!-- Node1&#45;&gt;Node2 -->
<g id="edge1" class="edge"><title>Node1&#45;&gt;Node2</title>
<path fill="none" stroke="midnightblue" d="M1362.92,-723.59C1344.24,-713.605 1319.3,-700.267 1303.19,-691.655"/>
<polygon fill="midnightblue" stroke="midnightblue" points="1361.3,-726.696 1371.77,-728.324 1364.6,-720.522 1361.3,-726.696"/>
</g>
<!-- Node13 -->
<g id="node13" class="node"><title>Node13</title>
<g id="a_node13"><a xlink:href="../../d0/db4/ShiftRegisterOut_8hpp.html" target="_top" xlink:title=" ">
<polygon fill="white" stroke="black" points="327,-56.5 327,-75.5 435,-75.5 435,-56.5 327,-56.5"/>
<text text-anchor="middle" x="381" y="-63.5" font-family="Helvetica,sans-Serif" font-size="10.00">ShiftRegisterOut.hpp</text>
</a>
</g>
</g>
<!-- Node1&#45;&gt;Node13 -->
<g id="edge72" class="edge"><title>Node1&#45;&gt;Node13</title>
<path fill="none" stroke="midnightblue" d="M1328.39,-735.447C1062.76,-728.142 0,-694.686 0,-627 0,-627 0,-627 0,-177 0,-143.759 9.40974,-130.541 37,-112 83.2423,-80.9248 242.298,-71.2625 326.967,-68.2933"/>
<polygon fill="midnightblue" stroke="midnightblue" points="1328.51,-738.951 1338.6,-735.726 1328.7,-731.954 1328.51,-738.951"/>
</g>
<!-- Node16 -->
<g id="node16" class="node"><title>Node16</title>
<g id="a_node16"><a xlink:href="../../d7/d88/SPIShiftRegisterOut_8hpp.html" target="_top" xlink:title=" ">
<polygon fill="white" stroke="black" points="1066.5,-56.5 1066.5,-75.5 1191.5,-75.5 1191.5,-56.5 1066.5,-56.5"/>
<text text-anchor="middle" x="1129" y="-63.5" font-family="Helvetica,sans-Serif" font-size="10.00">SPIShiftRegisterOut.hpp</text>
</a>
</g>
</g>
<!-- Node1&#45;&gt;Node16 -->
<g id="edge73" class="edge"><title>Node1&#45;&gt;Node16</title>
<path fill="none" stroke="midnightblue" d="M1401.44,-720.164C1416.55,-699.492 1439,-662.756 1439,-627 1439,-627 1439,-627 1439,-569 1439,-418.841 1631,-441.159 1631,-291 1631,-291 1631,-291 1631,-177 1631,-88.0025 1326.13,-70.9125 1191.56,-67.704"/>
<polygon fill="midnightblue" stroke="midnightblue" points="1398.57,-718.151 1395.31,-728.231 1404.14,-722.386 1398.57,-718.151"/>
</g>
<!-- Node27 -->
<g id="node27" class="node"><title>Node27</title>
<g id="a_node27"><a xlink:href="../../dd/ddf/ExtendedInputOutput_8hpp.html" target="_top" xlink:title=" ">
<polygon fill="white" stroke="black" points="661,-280.5 661,-299.5 789,-299.5 789,-280.5 661,-280.5"/>
<text text-anchor="middle" x="725" y="-287.5" font-family="Helvetica,sans-Serif" font-size="10.00">ExtendedInputOutput.hpp</text>
</a>
</g>
</g>
<!-- Node1&#45;&gt;Node27 -->
<g id="edge71" class="edge"><title>Node1&#45;&gt;Node27</title>
<path fill="none" stroke="midnightblue" d="M1328.62,-736.821C1111.88,-735.395 376,-723.45 376,-627 376,-627 376,-627 376,-513 376,-374.407 574.363,-318.607 671.994,-299.537"/>
<polygon fill="midnightblue" stroke="midnightblue" points="1328.83,-740.322 1338.85,-736.883 1328.87,-733.322 1328.83,-740.322"/>
</g>
<!-- Node44 -->
<g id="node44" class="node"><title>Node44</title>
<g id="a_node44"><a xlink:href="../../dd/d80/PrintStream_8hpp.html" target="_top" xlink:title=" ">
<polygon fill="white" stroke="black" points="1467.5,-560.5 1467.5,-579.5 1554.5,-579.5 1554.5,-560.5 1467.5,-560.5"/>
<text text-anchor="middle" x="1511" y="-567.5" font-family="Helvetica,sans-Serif" font-size="10.00">PrintStream.hpp</text>
</a>
</g>
</g>
<!-- Node1&#45;&gt;Node44 -->
<g id="edge74" class="edge"><title>Node1&#45;&gt;Node44</title>
<path fill="none" stroke="midnightblue" d="M1414.01,-723.297C1426.99,-715.471 1442.18,-704.689 1453,-692 1483.69,-656.018 1502.18,-601.016 1508.52,-579.785"/>
<polygon fill="midnightblue" stroke="midnightblue" points="1411.97,-720.434 1405.05,-728.458 1415.46,-726.501 1411.97,-720.434"/>
</g>
<!-- Node47 -->
<g id="node47" class="node"><title>Node47</title>
<g id="a_node47"><a xlink:href="../../d1/dd0/MillisMicrosTimer_8hpp.html" target="_top" xlink:title=" ">
<polygon fill="white" stroke="black" points="1505,-672.5 1505,-691.5 1617,-691.5 1617,-672.5 1505,-672.5"/>
<text text-anchor="middle" x="1561" y="-679.5" font-family="Helvetica,sans-Serif" font-size="10.00">MillisMicrosTimer.hpp</text>
</a>
</g>
</g>
<!-- Node1&#45;&gt;Node47 -->
<g id="edge79" class="edge"><title>Node1&#45;&gt;Node47</title>
<path fill="none" stroke="midnightblue" d="M1425.05,-725.436C1457.66,-715.255 1504.41,-700.664 1533.72,-691.516"/>
<polygon fill="midnightblue" stroke="midnightblue" points="1423.92,-722.123 1415.41,-728.444 1426,-728.805 1423.92,-722.123"/>
</g>
<!-- Node3 -->
<g id="node3" class="node"><title>Node3</title>
<g id="a_node3"><a xlink:href="../../db/d02/Settings_8hpp.html" target="_top" xlink:title="All user settings and debugging options can be changed here.">
<polygon fill="white" stroke="black" points="1155.5,-616.5 1155.5,-635.5 1226.5,-635.5 1226.5,-616.5 1155.5,-616.5"/>
<text text-anchor="middle" x="1191" y="-623.5" font-family="Helvetica,sans-Serif" font-size="10.00">Settings.hpp</text>
</a>
</g>
</g>
<!-- Node2&#45;&gt;Node3 -->
<g id="edge2" class="edge"><title>Node2&#45;&gt;Node3</title>
<path fill="none" stroke="midnightblue" d="M1262.43,-667.177C1244.76,-657.241 1221.49,-644.149 1206.39,-635.655"/>
<polygon fill="midnightblue" stroke="midnightblue" points="1261.14,-670.472 1271.58,-672.324 1264.58,-664.371 1261.14,-670.472"/>
</g>
<!-- Node4 -->
<g id="node4" class="node"><title>Node4</title>
<g id="a_node4"><a xlink:href="../../d2/dd5/SettingsWrapper_8hpp.html" target="_top" xlink:title=" ">
<polygon fill="white" stroke="black" points="1087,-560.5 1087,-579.5 1195,-579.5 1195,-560.5 1087,-560.5"/>
<text text-anchor="middle" x="1141" y="-567.5" font-family="Helvetica,sans-Serif" font-size="10.00">SettingsWrapper.hpp</text>
</a>
</g>
</g>
<!-- Node3&#45;&gt;Node4 -->
<g id="edge3" class="edge"><title>Node3&#45;&gt;Node4</title>
<path fill="none" stroke="midnightblue" d="M1175.92,-608.718C1167.11,-599.2 1156.33,-587.561 1149.1,-579.751"/>
<polygon fill="midnightblue" stroke="midnightblue" points="1173.38,-611.123 1182.74,-616.083 1178.52,-606.367 1173.38,-611.123"/>
</g>
<!-- Node5 -->
<g id="node5" class="node"><title>Node5</title>
<g id="a_node5"><a xlink:href="../../d4/d93/Updatable_8hpp.html" target="_top" xlink:title=" ">
<polygon fill="white" stroke="black" points="1089,-392.5 1089,-411.5 1169,-411.5 1169,-392.5 1089,-392.5"/>
<text text-anchor="middle" x="1129" y="-399.5" font-family="Helvetica,sans-Serif" font-size="10.00">Updatable.hpp</text>
</a>
</g>
</g>
<!-- Node4&#45;&gt;Node5 -->
<g id="edge4" class="edge"><title>Node4&#45;&gt;Node5</title>
<path fill="none" stroke="midnightblue" d="M1139.62,-549.93C1137.02,-513.92 1131.47,-437.231 1129.62,-411.568"/>
<polygon fill="midnightblue" stroke="midnightblue" points="1136.14,-550.354 1140.35,-560.075 1143.12,-549.849 1136.14,-550.354"/>
</g>
<!-- Node6 -->
<g id="node6" class="node"><title>Node6</title>
<g id="a_node6"><a xlink:href="../../df/dee/Debug_8hpp.html" target="_top" xlink:title=" ">
<polygon fill="white" stroke="black" points="1180,-504.5 1180,-523.5 1244,-523.5 1244,-504.5 1180,-504.5"/>
<text text-anchor="middle" x="1212" y="-511.5" font-family="Helvetica,sans-Serif" font-size="10.00">Debug.hpp</text>
</a>
</g>
</g>
<!-- Node4&#45;&gt;Node6 -->
<g id="edge5" class="edge"><title>Node4&#45;&gt;Node6</title>
<path fill="none" stroke="midnightblue" d="M1154.87,-553.778C1166.61,-544.038 1183.1,-531.756 1195.51,-523.655"/>
<polygon fill="midnightblue" stroke="midnightblue" points="1152.57,-551.138 1147.29,-560.324 1157.15,-556.436 1152.57,-551.138"/>
</g>
<!-- Node28 -->
<g id="node28" class="node"><title>Node28</title>
<g id="a_node28"><a xlink:href="../../d4/db3/Button_8hpp.html" target="_top" xlink:title=" ">
<polygon fill="white" stroke="black" points="306,-224.5 306,-243.5 370,-243.5 370,-224.5 306,-224.5"/>
<text text-anchor="middle" x="338" y="-231.5" font-family="Helvetica,sans-Serif" font-size="10.00">Button.hpp</text>
</a>
</g>
</g>
<!-- Node4&#45;&gt;Node28 -->
<g id="edge66" class="edge"><title>Node4&#45;&gt;Node28</title>
<path fill="none" stroke="midnightblue" d="M1076.48,-568.387C933.959,-566.414 596.376,-558.167 488,-524 406.31,-498.246 338,-488.653 338,-403 338,-403 338,-403 338,-345 338,-307.188 338,-262.064 338,-243.558"/>
<polygon fill="midnightblue" stroke="midnightblue" points="1076.76,-571.891 1086.8,-568.524 1076.85,-564.891 1076.76,-571.891"/>
</g>
<!-- Node34 -->
<g id="node34" class="node"><title>Node34</title>
<g id="a_node34"><a xlink:href="../../d8/df3/FilteredAnalog_8hpp.html" target="_top" xlink:title=" ">
<polygon fill="white" stroke="black" points="929,-224.5 929,-243.5 1027,-243.5 1027,-224.5 929,-224.5"/>
<text text-anchor="middle" x="978" y="-231.5" font-family="Helvetica,sans-Serif" font-size="10.00">FilteredAnalog.hpp</text>
</a>
</g>
</g>
<!-- Node4&#45;&gt;Node34 -->
<g id="edge70" class="edge"><title>Node4&#45;&gt;Node34</title>
<path fill="none" stroke="midnightblue" d="M1078.02,-558.167C1024.74,-544.965 957,-516.811 957,-459 957,-459 957,-459 957,-345 957,-306.699 969.436,-262.206 975.168,-243.732"/>
<polygon fill="midnightblue" stroke="midnightblue" points="1077.24,-561.58 1087.78,-560.462 1078.85,-554.766 1077.24,-561.58"/>
</g>
<!-- Node42 -->
<g id="node42" class="node"><title>Node42</title>
<g id="a_node42"><a xlink:href="../../d1/d1f/ShiftRegisterOutRGB_8hpp.html" target="_top" xlink:title=" ">
<polygon fill="white" stroke="black" points="497,-504.5 497,-523.5 627,-523.5 627,-504.5 497,-504.5"/>
<text text-anchor="middle" x="562" y="-511.5" font-family="Helvetica,sans-Serif" font-size="10.00">ShiftRegisterOutRGB.hpp</text>
</a>
</g>
</g>
<!-- Node4&#45;&gt;Node42 -->
<g id="edge67" class="edge"><title>Node4&#45;&gt;Node42</title>
<path fill="none" stroke="midnightblue" d="M1076.74,-563.006C965.704,-552.651 739.141,-531.521 627.357,-521.095"/>
<polygon fill="midnightblue" stroke="midnightblue" points="1076.51,-566.5 1086.79,-563.944 1077.16,-559.531 1076.51,-566.5"/>
</g>
<!-- Node6&#45;&gt;Node4 -->
<g id="edge65" class="edge"><title>Node6&#45;&gt;Node4</title>
<path fill="none" stroke="midnightblue" d="M1197.95,-530.369C1186.24,-540.077 1169.87,-552.263 1157.52,-560.324"/>
<polygon fill="midnightblue" stroke="midnightblue" points="1200.24,-533.014 1205.53,-523.834 1195.67,-527.712 1200.24,-533.014"/>
</g>
<!-- Node7 -->
<g id="node7" class="node"><title>Node7</title>
<g id="a_node7"><a xlink:href="../../de/dd1/LinkedList_8hpp.html" target="_top" xlink:title=" ">
<polygon fill="white" stroke="black" points="1033,-448.5 1033,-467.5 1113,-467.5 1113,-448.5 1033,-448.5"/>
<text text-anchor="middle" x="1073" y="-455.5" font-family="Helvetica,sans-Serif" font-size="10.00">LinkedList.hpp</text>
</a>
</g>
</g>
<!-- Node6&#45;&gt;Node7 -->
<g id="edge6" class="edge"><title>Node6&#45;&gt;Node7</title>
<path fill="none" stroke="midnightblue" d="M1180.52,-500.772C1154.41,-490.629 1117.96,-476.467 1094.92,-467.516"/>
<polygon fill="midnightblue" stroke="midnightblue" points="1179.39,-504.085 1189.98,-504.444 1181.92,-497.56 1179.39,-504.085"/>
</g>
<!-- Node20 -->
<g id="node20" class="node"><title>Node20</title>
<g id="a_node20"><a xlink:href="../../df/d66/Debug_8cpp.html" target="_top" xlink:title=" ">
<polygon fill="white" stroke="black" points="1281,-448.5 1281,-467.5 1345,-467.5 1345,-448.5 1281,-448.5"/>
<text text-anchor="middle" x="1313" y="-455.5" font-family="Helvetica,sans-Serif" font-size="10.00">Debug.cpp</text>
</a>
</g>
</g>
<!-- Node6&#45;&gt;Node20 -->
<g id="edge23" class="edge"><title>Node6&#45;&gt;Node20</title>
<path fill="none" stroke="midnightblue" d="M1237.08,-499.59C1255.76,-489.605 1280.7,-476.267 1296.81,-467.655"/>
<polygon fill="midnightblue" stroke="midnightblue" points="1235.4,-496.522 1228.23,-504.324 1238.7,-502.696 1235.4,-496.522"/>
</g>
<!-- Node21 -->
<g id="node21" class="node"><title>Node21</title>
<g id="a_node21"><a xlink:href="../../d1/d93/Error_8hpp.html" target="_top" xlink:title=" ">
<polygon fill="white" stroke="black" points="1207,-448.5 1207,-467.5 1263,-467.5 1263,-448.5 1207,-448.5"/>
<text text-anchor="middle" x="1235" y="-455.5" font-family="Helvetica,sans-Serif" font-size="10.00">Error.hpp</text>
</a>
</g>
</g>
<!-- Node6&#45;&gt;Node21 -->
<g id="edge24" class="edge"><title>Node6&#45;&gt;Node21</title>
<path fill="none" stroke="midnightblue" d="M1219.8,-494.69C1223.68,-485.589 1228.18,-475.014 1231.27,-467.751"/>
<polygon fill="midnightblue" stroke="midnightblue" points="1216.5,-493.511 1215.8,-504.083 1222.94,-496.254 1216.5,-493.511"/>
</g>
<!-- Node7&#45;&gt;Node5 -->
<g id="edge7" class="edge"><title>Node7&#45;&gt;Node5</title>
<path fill="none" stroke="midnightblue" d="M1089.33,-441.253C1099.26,-431.673 1111.59,-419.791 1119.84,-411.834"/>
<polygon fill="midnightblue" stroke="midnightblue" points="1086.77,-438.863 1082,-448.324 1091.63,-443.902 1086.77,-438.863"/>
</g>
<!-- Node8 -->
<g id="node8" class="node"><title>Node8</title>
<g id="a_node8"><a xlink:href="../../d4/d57/ExtendedIOElement_8hpp.html" target="_top" xlink:title=" ">
<polygon fill="white" stroke="black" points="1045.5,-224.5 1045.5,-243.5 1168.5,-243.5 1168.5,-224.5 1045.5,-224.5"/>
<text text-anchor="middle" x="1107" y="-231.5" font-family="Helvetica,sans-Serif" font-size="10.00">ExtendedIOElement.hpp</text>
</a>
</g>
</g>
<!-- Node7&#45;&gt;Node8 -->
<g id="edge8" class="edge"><title>Node7&#45;&gt;Node8</title>
<path fill="none" stroke="midnightblue" d="M1065.15,-438.9C1055.88,-415.081 1042.83,-372.014 1052,-336 1061.51,-298.657 1087.94,-260.214 1100.37,-243.555"/>
<polygon fill="midnightblue" stroke="midnightblue" points="1062.01,-440.473 1069.04,-448.395 1068.49,-437.815 1062.01,-440.473"/>
</g>
<!-- Node9 -->
<g id="node9" class="node"><title>Node9</title>
<g id="a_node9"><a xlink:href="../../d2/d05/StaticSizeExtendedIOElement_8hpp.html" target="_top" xlink:title=" ">
<polygon fill="white" stroke="black" points="1307,-168.5 1307,-187.5 1475,-187.5 1475,-168.5 1307,-168.5"/>
<text text-anchor="middle" x="1391" y="-175.5" font-family="Helvetica,sans-Serif" font-size="10.00">StaticSizeExtendedIOElement.hpp</text>
</a>
</g>
</g>
<!-- Node8&#45;&gt;Node9 -->
<g id="edge9" class="edge"><title>Node8&#45;&gt;Node9</title>
<path fill="none" stroke="midnightblue" d="M1162.03,-222.537C1215.7,-212.332 1296.34,-196.999 1346.21,-187.516"/>
<polygon fill="midnightblue" stroke="midnightblue" points="1161.17,-219.137 1152,-224.444 1162.48,-226.014 1161.17,-219.137"/>
</g>
<!-- Node18 -->
<g id="node18" class="node"><title>Node18</title>
<g id="a_node18"><a xlink:href="../../d6/d3c/ExtendedInputOutput_8cpp.html" target="_top" xlink:title=" ">
<polygon fill="white" stroke="black" points="1019,-168.5 1019,-187.5 1147,-187.5 1147,-168.5 1019,-168.5"/>
<text text-anchor="middle" x="1083" y="-175.5" font-family="Helvetica,sans-Serif" font-size="10.00">ExtendedInputOutput.cpp</text>
</a>
</g>
</g>
<!-- Node8&#45;&gt;Node18 -->
<g id="edge21" class="edge"><title>Node8&#45;&gt;Node18</title>
<path fill="none" stroke="midnightblue" d="M1098.86,-214.69C1094.82,-205.589 1090.12,-195.014 1086.89,-187.751"/>
<polygon fill="midnightblue" stroke="midnightblue" points="1095.78,-216.366 1103.04,-224.083 1102.17,-213.523 1095.78,-216.366"/>
</g>
<!-- Node19 -->
<g id="node19" class="node"><title>Node19</title>
<g id="a_node19"><a xlink:href="../../da/d1f/ExtendedIOElement_8cpp.html" target="_top" xlink:title=" ">
<polygon fill="white" stroke="black" points="1165.5,-168.5 1165.5,-187.5 1288.5,-187.5 1288.5,-168.5 1165.5,-168.5"/>
<text text-anchor="middle" x="1227" y="-175.5" font-family="Helvetica,sans-Serif" font-size="10.00">ExtendedIOElement.cpp</text>
</a>
</g>
</g>
<!-- Node8&#45;&gt;Node19 -->
<g id="edge22" class="edge"><title>Node8&#45;&gt;Node19</title>
<path fill="none" stroke="midnightblue" d="M1135.37,-220.232C1157.82,-210.131 1188.54,-196.309 1208.07,-187.516"/>
<polygon fill="midnightblue" stroke="midnightblue" points="1133.7,-217.148 1126.01,-224.444 1136.57,-223.532 1133.7,-217.148"/>
</g>
<!-- Node10 -->
<g id="node10" class="node"><title>Node10</title>
<g id="a_node10"><a xlink:href="../../d7/def/AnalogMultiplex_8hpp.html" target="_top" xlink:title=" ">
<polygon fill="white" stroke="black" points="1353,-112.5 1353,-131.5 1457,-131.5 1457,-112.5 1353,-112.5"/>
<text text-anchor="middle" x="1405" y="-119.5" font-family="Helvetica,sans-Serif" font-size="10.00">AnalogMultiplex.hpp</text>
</a>
</g>
</g>
<!-- Node9&#45;&gt;Node10 -->
<g id="edge10" class="edge"><title>Node9&#45;&gt;Node10</title>
<path fill="none" stroke="midnightblue" d="M1395.82,-158.396C1398.17,-149.362 1400.87,-138.936 1402.73,-131.751"/>
<polygon fill="midnightblue" stroke="midnightblue" points="1392.43,-157.525 1393.31,-168.083 1399.21,-159.281 1392.43,-157.525"/>
</g>
<!-- Node11 -->
<g id="node11" class="node"><title>Node11</title>
<g id="a_node11"><a xlink:href="../../d2/d25/MAX7219_8hpp.html" target="_top" xlink:title=" ">
<polygon fill="white" stroke="black" points="1257,-112.5 1257,-131.5 1335,-131.5 1335,-112.5 1257,-112.5"/>
<text text-anchor="middle" x="1296" y="-119.5" font-family="Helvetica,sans-Serif" font-size="10.00">MAX7219.hpp</text>
</a>
</g>
</g>
<!-- Node9&#45;&gt;Node11 -->
<g id="edge11" class="edge"><title>Node9&#45;&gt;Node11</title>
<path fill="none" stroke="midnightblue" d="M1366.68,-163.177C1349.2,-153.241 1326.17,-140.149 1311.23,-131.655"/>
<polygon fill="midnightblue" stroke="midnightblue" points="1365.31,-166.425 1375.74,-168.324 1368.77,-160.339 1365.31,-166.425"/>
</g>
<!-- Node12 -->
<g id="node12" class="node"><title>Node12</title>
<g id="a_node12"><a xlink:href="../../d8/d93/ShiftRegisterOutBase_8hpp.html" target="_top" xlink:title=" ">
<polygon fill="white" stroke="black" points="567.5,-112.5 567.5,-131.5 698.5,-131.5 698.5,-112.5 567.5,-112.5"/>
<text text-anchor="middle" x="633" y="-119.5" font-family="Helvetica,sans-Serif" font-size="10.00">ShiftRegisterOutBase.hpp</text>
</a>
</g>
</g>
<!-- Node9&#45;&gt;Node12 -->
<g id="edge12" class="edge"><title>Node9&#45;&gt;Node12</title>
<path fill="none" stroke="midnightblue" d="M1296.88,-168.015C1070.32,-149.62 815.992,-133.843 698.546,-126.836"/>
<polygon fill="midnightblue" stroke="midnightblue" points="1296.71,-171.513 1306.96,-168.837 1297.28,-164.536 1296.71,-171.513"/>
</g>
<!-- Node12&#45;&gt;Node13 -->
<g id="edge13" class="edge"><title>Node12&#45;&gt;Node13</title>
<path fill="none" stroke="midnightblue" d="M583.279,-110.346C535.656,-100.141 464.72,-84.94 420.743,-75.5164"/>
<polygon fill="midnightblue" stroke="midnightblue" points="582.558,-113.77 593.07,-112.444 584.025,-106.926 582.558,-113.77"/>
</g>
<!-- Node15 -->
<g id="node15" class="node"><title>Node15</title>
<g id="a_node15"><a xlink:href="../../d5/d47/ShiftRegisterOutBase_8ipp.html" target="_top" xlink:title=" ">
<polygon fill="white" stroke="black" points="549,-56.5 549,-75.5 677,-75.5 677,-56.5 549,-56.5"/>
<text text-anchor="middle" x="613" y="-63.5" font-family="Helvetica,sans-Serif" font-size="10.00">ShiftRegisterOutBase.ipp</text>
</a>
</g>
</g>
<!-- Node12&#45;&gt;Node15 -->
<g id="edge16" class="edge"><title>Node12&#45;&gt;Node15</title>
<path fill="none" stroke="midnightblue" d="M619.921,-102.983C615.799,-93.8168 612.253,-83.0922 611.11,-75.7511"/>
<polygon fill="midnightblue" stroke="midnightblue" points="616.889,-104.744 624.531,-112.083 623.134,-101.581 616.889,-104.744"/>
</g>
<!-- Node12&#45;&gt;Node16 -->
<g id="edge18" class="edge"><title>Node12&#45;&gt;Node16</title>
<path fill="none" stroke="midnightblue" d="M708.729,-112.755C806.611,-102.099 975.257,-83.7381 1066.32,-73.8245"/>
<polygon fill="midnightblue" stroke="midnightblue" points="708.171,-109.295 698.609,-113.857 708.929,-116.254 708.171,-109.295"/>
</g>
<!-- Node14 -->
<g id="node14" class="node"><title>Node14</title>
<g id="a_node14"><a xlink:href="../../de/d95/ShiftRegisterOut_8ipp.html" target="_top" xlink:title=" ">
<polygon fill="white" stroke="black" points="328.5,-0.5 328.5,-19.5 433.5,-19.5 433.5,-0.5 328.5,-0.5"/>
<text text-anchor="middle" x="381" y="-7.5" font-family="Helvetica,sans-Serif" font-size="10.00">ShiftRegisterOut.ipp</text>
</a>
</g>
</g>
<!-- Node13&#45;&gt;Node14 -->
<g id="edge14" class="edge"><title>Node13&#45;&gt;Node14</title>
<path fill="none" stroke="midnightblue" d="M374.528,-46.1005C373.896,-37.1357 374.343,-26.8579 375.869,-19.7511"/>
<polygon fill="midnightblue" stroke="midnightblue" points="371.066,-46.6216 375.834,-56.083 378.007,-45.7134 371.066,-46.6216"/>
</g>
<!-- Node14&#45;&gt;Node13 -->
<g id="edge15" class="edge"><title>Node14&#45;&gt;Node13</title>
<path fill="none" stroke="midnightblue" d="M387.458,-29.6911C388.106,-38.6353 387.676,-48.9272 386.166,-56.083"/>
<polygon fill="midnightblue" stroke="midnightblue" points="390.923,-29.2002 386.131,-19.7511 383.985,-30.1262 390.923,-29.2002"/>
</g>
<!-- Node15&#45;&gt;Node12 -->
<g id="edge17" class="edge"><title>Node15&#45;&gt;Node12</title>
<path fill="none" stroke="midnightblue" d="M625.987,-84.8111C630.116,-93.9533 633.685,-104.691 634.864,-112.083"/>
<polygon fill="midnightblue" stroke="midnightblue" points="629.029,-83.0735 621.372,-75.7511 622.792,-86.2504 629.029,-83.0735"/>
</g>
<!-- Node17 -->
<g id="node17" class="node"><title>Node17</title>
<g id="a_node17"><a xlink:href="../../da/d45/SPIShiftRegisterOut_8ipp.html" target="_top" xlink:title=" ">
<polygon fill="white" stroke="black" points="1068,-0.5 1068,-19.5 1190,-19.5 1190,-0.5 1068,-0.5"/>
<text text-anchor="middle" x="1129" y="-7.5" font-family="Helvetica,sans-Serif" font-size="10.00">SPIShiftRegisterOut.ipp</text>
</a>
</g>
</g>
<!-- Node16&#45;&gt;Node17 -->
<g id="edge19" class="edge"><title>Node16&#45;&gt;Node17</title>
<path fill="none" stroke="midnightblue" d="M1122.53,-46.1005C1121.9,-37.1357 1122.34,-26.8579 1123.87,-19.7511"/>
<polygon fill="midnightblue" stroke="midnightblue" points="1119.07,-46.6216 1123.83,-56.083 1126.01,-45.7134 1119.07,-46.6216"/>
</g>
<!-- Node17&#45;&gt;Node16 -->
<g id="edge20" class="edge"><title>Node17&#45;&gt;Node16</title>
<path fill="none" stroke="midnightblue" d="M1135.46,-29.6911C1136.11,-38.6353 1135.68,-48.9272 1134.17,-56.083"/>
<polygon fill="midnightblue" stroke="midnightblue" points="1138.92,-29.2002 1134.13,-19.7511 1131.98,-30.1262 1138.92,-29.2002"/>
</g>
<!-- Node21&#45;&gt;Node5 -->
<g id="edge60" class="edge"><title>Node21&#45;&gt;Node5</title>
<path fill="none" stroke="midnightblue" d="M1208.94,-443.726C1189.32,-433.727 1162.97,-420.307 1145.99,-411.655"/>
<polygon fill="midnightblue" stroke="midnightblue" points="1207.47,-446.903 1217.97,-448.324 1210.65,-440.666 1207.47,-446.903"/>
</g>
<!-- Node21&#45;&gt;Node18 -->
<g id="edge62" class="edge"><title>Node21&#45;&gt;Node18</title>
<path fill="none" stroke="midnightblue" d="M1224.86,-439.429C1213.6,-418.236 1197,-381.187 1197,-347 1197,-347 1197,-347 1197,-289 1197,-258.775 1196.73,-246.894 1177,-224 1161.29,-205.773 1136.53,-194.339 1116.37,-187.559"/>
<polygon fill="midnightblue" stroke="midnightblue" points="1221.82,-441.168 1229.72,-448.231 1227.95,-437.785 1221.82,-441.168"/>
</g>
<!-- Node21&#45;&gt;Node19 -->
<g id="edge63" class="edge"><title>Node21&#45;&gt;Node19</title>
<path fill="none" stroke="midnightblue" d="M1235,-438.251C1235,-416.357 1235,-379.052 1235,-347 1235,-347 1235,-347 1235,-289 1235,-251.088 1230.21,-206.018 1228.05,-187.542"/>
<polygon fill="midnightblue" stroke="midnightblue" points="1231.5,-438.442 1235,-448.442 1238.5,-438.442 1231.5,-438.442"/>
</g>
<!-- Node22 -->
<g id="node22" class="node"><title>Node22</title>
<g id="a_node22"><a xlink:href="../../de/d76/Array_8hpp.html" target="_top" xlink:title=" ">
<polygon fill="white" stroke="black" points="1453.5,-392.5 1453.5,-411.5 1512.5,-411.5 1512.5,-392.5 1453.5,-392.5"/>
<text text-anchor="middle" x="1483" y="-399.5" font-family="Helvetica,sans-Serif" font-size="10.00">Array.hpp</text>
</a>
</g>
</g>
<!-- Node21&#45;&gt;Node22 -->
<g id="edge25" class="edge"><title>Node21&#45;&gt;Node22</title>
<path fill="none" stroke="midnightblue" d="M1273.14,-447.787C1343.2,-431.885 1414.17,-417.096 1453.24,-409.068"/>
<polygon fill="midnightblue" stroke="midnightblue" points="1272.23,-444.403 1263.26,-450.038 1273.79,-451.228 1272.23,-444.403"/>
</g>
<!-- Node39 -->
<g id="node39" class="node"><title>Node39</title>
<g id="a_node39"><a xlink:href="../../d1/d40/BitArray_8hpp.html" target="_top" xlink:title=" ">
<polygon fill="white" stroke="black" points="1493.5,-168.5 1493.5,-187.5 1564.5,-187.5 1564.5,-168.5 1493.5,-168.5"/>
<text text-anchor="middle" x="1529" y="-175.5" font-family="Helvetica,sans-Serif" font-size="10.00">BitArray.hpp</text>
</a>
</g>
</g>
<!-- Node21&#45;&gt;Node39 -->
<g id="edge56" class="edge"><title>Node21&#45;&gt;Node39</title>
<path fill="none" stroke="midnightblue" d="M1272.87,-447.526C1322.49,-435.04 1403.56,-414.372 1406,-412 1427.57,-391.008 1425,-377.098 1425,-347 1425,-347 1425,-347 1425,-289 1425,-239.591 1481.09,-203.428 1510.88,-187.702"/>
<polygon fill="midnightblue" stroke="midnightblue" points="1271.94,-444.15 1263.09,-449.981 1273.65,-450.939 1271.94,-444.15"/>
</g>
<!-- Node40 -->
<g id="node40" class="node"><title>Node40</title>
<g id="a_node40"><a xlink:href="../../d6/df4/Exit_8cpp.html" target="_top" xlink:title=" ">
<polygon fill="white" stroke="black" points="1263.5,-392.5 1263.5,-411.5 1316.5,-411.5 1316.5,-392.5 1263.5,-392.5"/>
<text text-anchor="middle" x="1290" y="-399.5" font-family="Helvetica,sans-Serif" font-size="10.00">Exit.cpp</text>
</a>
</g>
</g>
<!-- Node21&#45;&gt;Node40 -->
<g id="edge61" class="edge"><title>Node21&#45;&gt;Node40</title>
<path fill="none" stroke="midnightblue" d="M1251.29,-441.002C1261.04,-431.433 1273.05,-419.639 1281.09,-411.751"/>
<polygon fill="midnightblue" stroke="midnightblue" points="1248.77,-438.58 1244.08,-448.083 1253.67,-443.575 1248.77,-438.58"/>
</g>
<!-- Node41 -->
<g id="node41" class="node"><title>Node41</title>
<g id="a_node41"><a xlink:href="../../d4/d1b/vector_8cpp.html" target="_top" xlink:title=" ">
<polygon fill="white" stroke="black" points="1335,-392.5 1335,-411.5 1397,-411.5 1397,-392.5 1335,-392.5"/>
<text text-anchor="middle" x="1366" y="-399.5" font-family="Helvetica,sans-Serif" font-size="10.00">vector.cpp</text>
</a>
</g>
</g>
<!-- Node21&#45;&gt;Node41 -->
<g id="edge64" class="edge"><title>Node21&#45;&gt;Node41</title>
<path fill="none" stroke="midnightblue" d="M1265.32,-444.503C1289.88,-434.38 1323.82,-420.388 1345.34,-411.516"/>
<polygon fill="midnightblue" stroke="midnightblue" points="1263.67,-441.397 1255.76,-448.444 1266.34,-447.868 1263.67,-441.397"/>
</g>
<!-- Node22&#45;&gt;Node10 -->
<g id="edge28" class="edge"><title>Node22&#45;&gt;Node10</title>
<path fill="none" stroke="midnightblue" d="M1487.5,-382.701C1490.94,-369.53 1496.09,-351.439 1502,-336 1531,-260.304 1622.35,-232.308 1573,-168 1558.85,-149.555 1500.93,-137.017 1457.02,-129.954"/>
<polygon fill="midnightblue" stroke="midnightblue" points="1484.09,-381.887 1485.03,-392.44 1490.88,-383.606 1484.09,-381.887"/>
</g>
<!-- Node23 -->
<g id="node23" class="node"><title>Node23</title>
<g id="a_node23"><a xlink:href="../../d5/db6/ArrayHelpers_8hpp.html" target="_top" xlink:title=" ">
<polygon fill="white" stroke="black" points="1511,-336.5 1511,-355.5 1603,-355.5 1603,-336.5 1511,-336.5"/>
<text text-anchor="middle" x="1557" y="-343.5" font-family="Helvetica,sans-Serif" font-size="10.00">ArrayHelpers.hpp</text>
</a>
</g>
</g>
<!-- Node22&#45;&gt;Node23 -->
<g id="edge26" class="edge"><title>Node22&#45;&gt;Node23</title>
<path fill="none" stroke="midnightblue" d="M1503.03,-386.38C1516.41,-376.62 1533.56,-364.106 1544.89,-355.834"/>
<polygon fill="midnightblue" stroke="midnightblue" points="1500.9,-383.602 1494.89,-392.324 1505.03,-389.257 1500.9,-383.602"/>
</g>
<!-- Node24 -->
<g id="node24" class="node"><title>Node24</title>
<g id="a_node24"><a xlink:href="../../d4/d35/Hardware-Types_8hpp.html" target="_top" xlink:title=" ">
<polygon fill="white" stroke="black" points="1061.5,-336.5 1061.5,-355.5 1168.5,-355.5 1168.5,-336.5 1061.5,-336.5"/>
<text text-anchor="middle" x="1115" y="-343.5" font-family="Helvetica,sans-Serif" font-size="10.00">Hardware&#45;Types.hpp</text>
</a>
</g>
</g>
<!-- Node22&#45;&gt;Node24 -->
<g id="edge29" class="edge"><title>Node22&#45;&gt;Node24</title>
<path fill="none" stroke="midnightblue" d="M1443.13,-395.15C1376.74,-385.408 1243.45,-365.849 1168.8,-354.894"/>
<polygon fill="midnightblue" stroke="midnightblue" points="1442.79,-398.638 1453.2,-396.627 1443.81,-391.712 1442.79,-398.638"/>
</g>
<!-- Node23&#45;&gt;Node9 -->
<g id="edge27" class="edge"><title>Node23&#45;&gt;Node9</title>
<path fill="none" stroke="midnightblue" d="M1540.65,-328.651C1505.94,-293.939 1425.9,-213.898 1399.57,-187.568"/>
<polygon fill="midnightblue" stroke="midnightblue" points="1538.53,-331.479 1548.08,-336.075 1543.48,-326.529 1538.53,-331.479"/>
</g>
<!-- Node24&#45;&gt;Node8 -->
<g id="edge54" class="edge"><title>Node24&#45;&gt;Node8</title>
<path fill="none" stroke="midnightblue" d="M1113.64,-326.348C1111.89,-302.254 1108.91,-261.308 1107.62,-243.591"/>
<polygon fill="midnightblue" stroke="midnightblue" points="1110.16,-326.649 1114.37,-336.368 1117.14,-326.141 1110.16,-326.649"/>
</g>
<!-- Node25 -->
<g id="node25" class="node"><title>Node25</title>
<g id="a_node25"><a xlink:href="../../d9/d4b/ButtonMatrix_8hpp.html" target="_top" xlink:title=" ">
<polygon fill="white" stroke="black" points="1263.5,-280.5 1263.5,-299.5 1354.5,-299.5 1354.5,-280.5 1263.5,-280.5"/>
<text text-anchor="middle" x="1309" y="-287.5" font-family="Helvetica,sans-Serif" font-size="10.00">ButtonMatrix.hpp</text>
</a>
</g>
</g>
<!-- Node24&#45;&gt;Node25 -->
<g id="edge30" class="edge"><title>Node24&#45;&gt;Node25</title>
<path fill="none" stroke="midnightblue" d="M1155.6,-333.699C1192.22,-323.507 1245.26,-308.743 1278.4,-299.516"/>
<polygon fill="midnightblue" stroke="midnightblue" points="1154.44,-330.39 1145.74,-336.444 1156.31,-337.134 1154.44,-330.39"/>
</g>
<!-- Node24&#45;&gt;Node27 -->
<g id="edge33" class="edge"><title>Node24&#45;&gt;Node27</title>
<path fill="none" stroke="midnightblue" d="M1051.17,-336.162C977.989,-326.029 858.854,-309.534 786.615,-299.531"/>
<polygon fill="midnightblue" stroke="midnightblue" points="1050.8,-339.644 1061.18,-337.548 1051.76,-332.71 1050.8,-339.644"/>
</g>
<!-- Node24&#45;&gt;Node34 -->
<g id="edge55" class="edge"><title>Node24&#45;&gt;Node34</title>
<path fill="none" stroke="midnightblue" d="M1096.09,-329.816C1066.91,-306.387 1011.86,-262.19 988.7,-243.591"/>
<polygon fill="midnightblue" stroke="midnightblue" points="1094.26,-332.837 1104.25,-336.368 1098.64,-327.378 1094.26,-332.837"/>
</g>
<!-- Node26 -->
<g id="node26" class="node"><title>Node26</title>
<g id="a_node26"><a xlink:href="../../d5/d41/ButtonMatrix_8ipp.html" target="_top" xlink:title=" ">
<polygon fill="white" stroke="black" points="1265,-224.5 1265,-243.5 1353,-243.5 1353,-224.5 1265,-224.5"/>
<text text-anchor="middle" x="1309" y="-231.5" font-family="Helvetica,sans-Serif" font-size="10.00">ButtonMatrix.ipp</text>
</a>
</g>
</g>
<!-- Node25&#45;&gt;Node26 -->
<g id="edge31" class="edge"><title>Node25&#45;&gt;Node26</title>
<path fill="none" stroke="midnightblue" d="M1302.53,-270.101C1301.9,-261.136 1302.34,-250.858 1303.87,-243.751"/>
<polygon fill="midnightblue" stroke="midnightblue" points="1299.07,-270.622 1303.83,-280.083 1306.01,-269.713 1299.07,-270.622"/>
</g>
<!-- Node26&#45;&gt;Node25 -->
<g id="edge32" class="edge"><title>Node26&#45;&gt;Node25</title>
<path fill="none" stroke="midnightblue" d="M1315.46,-253.691C1316.11,-262.635 1315.68,-272.927 1314.17,-280.083"/>
<polygon fill="midnightblue" stroke="midnightblue" points="1318.92,-253.2 1314.13,-243.751 1311.98,-254.126 1318.92,-253.2"/>
</g>
<!-- Node27&#45;&gt;Node8 -->
<g id="edge42" class="edge"><title>Node27&#45;&gt;Node8</title>
<path fill="none" stroke="midnightblue" d="M795.443,-279.042C867.591,-268.843 978.557,-253.157 1046.75,-243.516"/>
<polygon fill="midnightblue" stroke="midnightblue" points="794.941,-275.578 785.529,-280.444 795.921,-282.509 794.941,-275.578"/>
</g>
<!-- Node27&#45;&gt;Node10 -->
<g id="edge41" class="edge"><title>Node27&#45;&gt;Node10</title>
<path fill="none" stroke="midnightblue" d="M761.79,-277.048C785.682,-268.812 817.242,-257.031 844,-244 859.419,-236.491 861.611,-231.569 877,-224 916.772,-204.439 929.467,-205.931 970,-188 988.177,-179.959 990.928,-173.598 1010,-168 1153.26,-125.949 1195.9,-150.9 1344,-132 1346.87,-131.634 1349.81,-131.245 1352.78,-130.842"/>
<polygon fill="midnightblue" stroke="midnightblue" points="760.399,-273.824 752.056,-280.354 762.65,-280.452 760.399,-273.824"/>
</g>
<!-- Node27&#45;&gt;Node12 -->
<g id="edge44" class="edge"><title>Node27&#45;&gt;Node12</title>
<path fill="none" stroke="midnightblue" d="M690.606,-276.598C672.729,-269.027 651.277,-258.077 635,-244 612.06,-224.16 605.084,-216.938 596,-188 593.338,-179.519 593.002,-176.368 596,-168 601.254,-153.337 613.576,-140.031 622.562,-131.755"/>
<polygon fill="midnightblue" stroke="midnightblue" points="689.533,-279.94 700.115,-280.456 692.164,-273.453 689.533,-279.94"/>
</g>
<!-- Node27&#45;&gt;Node14 -->
<g id="edge46" class="edge"><title>Node27&#45;&gt;Node14</title>
<path fill="none" stroke="midnightblue" d="M650.546,-282.907C590.196,-276.551 511.32,-264.567 487,-244 463.486,-224.115 463,-209.795 463,-179 463,-179 463,-179 463,-121 463,-90.9022 461.426,-80.5402 444,-56 432.483,-39.7804 413.226,-27.2744 399.028,-19.6092"/>
<polygon fill="midnightblue" stroke="midnightblue" points="650.516,-286.422 660.819,-283.955 651.226,-279.458 650.516,-286.422"/>
</g>
<!-- Node27&#45;&gt;Node15 -->
<g id="edge45" class="edge"><title>Node27&#45;&gt;Node15</title>
<path fill="none" stroke="midnightblue" d="M672.294,-277.572C650.888,-270.759 627.203,-260.173 610,-244 564.06,-200.81 530.998,-168.981 558,-112 565.766,-95.6111 582.749,-83.2061 595.802,-75.6136"/>
<polygon fill="midnightblue" stroke="midnightblue" points="671.355,-280.944 681.938,-280.443 673.352,-274.235 671.355,-280.944"/>
</g>
<!-- Node27&#45;&gt;Node17 -->
<g id="edge47" class="edge"><title>Node27&#45;&gt;Node17</title>
<path fill="none" stroke="midnightblue" d="M650.53,-282.907C585.352,-273.013 501,-247.062 501,-179 501,-179 501,-179 501,-121 501,-87.3101 511.337,-73.7044 540,-56 584.117,-28.75 926.157,-16.4699 1067.84,-12.5144"/>
<polygon fill="midnightblue" stroke="midnightblue" points="650.419,-286.426 660.811,-284.361 651.399,-279.495 650.419,-286.426"/>
</g>
<!-- Node27&#45;&gt;Node18 -->
<g id="edge43" class="edge"><title>Node27&#45;&gt;Node18</title>
<path fill="none" stroke="midnightblue" d="M768.933,-277.839C799.597,-269.603 841.269,-257.514 877,-244 896.714,-236.544 900.218,-231.274 920,-224 962.019,-208.549 1011.82,-195.538 1045.22,-187.542"/>
<polygon fill="midnightblue" stroke="midnightblue" points="767.747,-274.533 758.98,-280.481 769.543,-281.299 767.747,-274.533"/>
</g>
<!-- Node27&#45;&gt;Node26 -->
<g id="edge40" class="edge"><title>Node27&#45;&gt;Node26</title>
<path fill="none" stroke="midnightblue" d="M799.272,-282.132C922.503,-270.738 1165.49,-248.269 1264.97,-239.071"/>
<polygon fill="midnightblue" stroke="midnightblue" points="798.804,-278.661 789.169,-283.067 799.449,-285.631 798.804,-278.661"/>
</g>
<!-- Node27&#45;&gt;Node28 -->
<g id="edge34" class="edge"><title>Node27&#45;&gt;Node28</title>
<path fill="none" stroke="midnightblue" d="M653.635,-279.042C569.063,-267.241 431.842,-248.094 370.008,-239.466"/>
<polygon fill="midnightblue" stroke="midnightblue" points="653.291,-282.528 663.679,-280.444 654.258,-275.595 653.291,-282.528"/>
</g>
<!-- Node27&#45;&gt;Node34 -->
<g id="edge48" class="edge"><title>Node27&#45;&gt;Node34</title>
<path fill="none" stroke="midnightblue" d="M774.918,-278.346C822.731,-268.141 893.948,-252.94 938.099,-243.516"/>
<polygon fill="midnightblue" stroke="midnightblue" points="774.138,-274.933 765.089,-280.444 775.599,-281.779 774.138,-274.933"/>
</g>
<!-- Node35 -->
<g id="node35" class="node"><title>Node35</title>
<g id="a_node35"><a xlink:href="../../d9/d4f/LEDs_8hpp.html" target="_top" xlink:title=" ">
<polygon fill="white" stroke="black" points="644,-224.5 644,-243.5 704,-243.5 704,-224.5 644,-224.5"/>
<text text-anchor="middle" x="674" y="-231.5" font-family="Helvetica,sans-Serif" font-size="10.00">LEDs.hpp</text>
</a>
</g>
</g>
<!-- Node27&#45;&gt;Node35 -->
<g id="edge49" class="edge"><title>Node27&#45;&gt;Node35</title>
<path fill="none" stroke="midnightblue" d="M709.622,-272.718C700.633,-263.2 689.641,-251.561 682.265,-243.751"/>
<polygon fill="midnightblue" stroke="midnightblue" points="707.168,-275.216 716.578,-280.083 712.257,-270.41 707.168,-275.216"/>
</g>
<!-- Node37 -->
<g id="node37" class="node"><title>Node37</title>
<g id="a_node37"><a xlink:href="../../d7/d13/MAX7219__Base_8hpp.html" target="_top" xlink:title=" ">
<polygon fill="white" stroke="black" points="729,-224.5 729,-243.5 835,-243.5 835,-224.5 729,-224.5"/>
<text text-anchor="middle" x="782" y="-231.5" font-family="Helvetica,sans-Serif" font-size="10.00">MAX7219_Base.hpp</text>
</a>
</g>
</g>
<!-- Node27&#45;&gt;Node37 -->
<g id="edge51" class="edge"><title>Node27&#45;&gt;Node37</title>
<path fill="none" stroke="midnightblue" d="M741.621,-273.253C751.734,-263.673 764.277,-251.791 772.675,-243.834"/>
<polygon fill="midnightblue" stroke="midnightblue" points="739.01,-270.906 734.158,-280.324 743.825,-275.987 739.01,-270.906"/>
</g>
<!-- Node29 -->
<g id="node29" class="node"><title>Node29</title>
<g id="a_node29"><a xlink:href="../../de/dd1/Button_8cpp.html" target="_top" xlink:title=" ">
<polygon fill="white" stroke="black" points="371,-168.5 371,-187.5 435,-187.5 435,-168.5 371,-168.5"/>
<text text-anchor="middle" x="403" y="-175.5" font-family="Helvetica,sans-Serif" font-size="10.00">Button.cpp</text>
</a>
</g>
</g>
<!-- Node28&#45;&gt;Node29 -->
<g id="edge35" class="edge"><title>Node28&#45;&gt;Node29</title>
<path fill="none" stroke="midnightblue" d="M356.273,-217.82C367.918,-208.145 382.599,-195.948 392.367,-187.834"/>
<polygon fill="midnightblue" stroke="midnightblue" points="353.899,-215.242 348.443,-224.324 358.372,-220.626 353.899,-215.242"/>
</g>
<!-- Node30 -->
<g id="node30" class="node"><title>Node30</title>
<g id="a_node30"><a xlink:href="../../d5/d04/IncrementButton_8hpp.html" target="_top" xlink:title=" ">
<polygon fill="white" stroke="black" points="66.5,-168.5 66.5,-187.5 173.5,-187.5 173.5,-168.5 66.5,-168.5"/>
<text text-anchor="middle" x="120" y="-175.5" font-family="Helvetica,sans-Serif" font-size="10.00">IncrementButton.hpp</text>
</a>
</g>
</g>
<!-- Node28&#45;&gt;Node30 -->
<g id="edge36" class="edge"><title>Node28&#45;&gt;Node30</title>
<path fill="none" stroke="midnightblue" d="M296.101,-222.621C254.93,-212.423 192.854,-197.046 154.46,-187.536"/>
<polygon fill="midnightblue" stroke="midnightblue" points="295.285,-226.025 305.833,-225.032 296.968,-219.23 295.285,-226.025"/>
</g>
<!-- Node32 -->
<g id="node32" class="node"><title>Node32</title>
<g id="a_node32"><a xlink:href="../../df/df5/IncrementDecrementButtons_8hpp.html" target="_top" xlink:title=" ">
<polygon fill="white" stroke="black" points="191.5,-168.5 191.5,-187.5 352.5,-187.5 352.5,-168.5 191.5,-168.5"/>
<text text-anchor="middle" x="272" y="-175.5" font-family="Helvetica,sans-Serif" font-size="10.00">IncrementDecrementButtons.hpp</text>
</a>
</g>
</g>
<!-- Node28&#45;&gt;Node32 -->
<g id="edge38" class="edge"><title>Node28&#45;&gt;Node32</title>
<path fill="none" stroke="midnightblue" d="M319.446,-217.82C307.622,-208.145 292.714,-195.948 282.797,-187.834"/>
<polygon fill="midnightblue" stroke="midnightblue" points="317.44,-220.7 327.396,-224.324 321.873,-215.283 317.44,-220.7"/>
</g>
<!-- Node31 -->
<g id="node31" class="node"><title>Node31</title>
<g id="a_node31"><a xlink:href="../../db/d9d/IncrementButton_8cpp.html" target="_top" xlink:title=" ">
<polygon fill="white" stroke="black" points="66.5,-112.5 66.5,-131.5 173.5,-131.5 173.5,-112.5 66.5,-112.5"/>
<text text-anchor="middle" x="120" y="-119.5" font-family="Helvetica,sans-Serif" font-size="10.00">IncrementButton.cpp</text>
</a>
</g>
</g>
<!-- Node30&#45;&gt;Node31 -->
<g id="edge37" class="edge"><title>Node30&#45;&gt;Node31</title>
<path fill="none" stroke="midnightblue" d="M120,-157.805C120,-148.91 120,-138.78 120,-131.751"/>
<polygon fill="midnightblue" stroke="midnightblue" points="116.5,-158.083 120,-168.083 123.5,-158.083 116.5,-158.083"/>
</g>
<!-- Node33 -->
<g id="node33" class="node"><title>Node33</title>
<g id="a_node33"><a xlink:href="../../da/d66/IncrementDecrementButtons_8cpp.html" target="_top" xlink:title=" ">
<polygon fill="white" stroke="black" points="191.5,-112.5 191.5,-131.5 352.5,-131.5 352.5,-112.5 191.5,-112.5"/>
<text text-anchor="middle" x="272" y="-119.5" font-family="Helvetica,sans-Serif" font-size="10.00">IncrementDecrementButtons.cpp</text>
</a>
</g>
</g>
<!-- Node32&#45;&gt;Node33 -->
<g id="edge39" class="edge"><title>Node32&#45;&gt;Node33</title>
<path fill="none" stroke="midnightblue" d="M272,-157.805C272,-148.91 272,-138.78 272,-131.751"/>
<polygon fill="midnightblue" stroke="midnightblue" points="268.5,-158.083 272,-168.083 275.5,-158.083 268.5,-158.083"/>
</g>
<!-- Node36 -->
<g id="node36" class="node"><title>Node36</title>
<g id="a_node36"><a xlink:href="../../d6/d3a/DotBarDisplayLEDs_8hpp.html" target="_top" xlink:title=" ">
<polygon fill="white" stroke="black" points="605,-168.5 605,-187.5 729,-187.5 729,-168.5 605,-168.5"/>
<text text-anchor="middle" x="667" y="-175.5" font-family="Helvetica,sans-Serif" font-size="10.00">DotBarDisplayLEDs.hpp</text>
</a>
</g>
</g>
<!-- Node35&#45;&gt;Node36 -->
<g id="edge50" class="edge"><title>Node35&#45;&gt;Node36</title>
<path fill="none" stroke="midnightblue" d="M671.55,-214.101C670.388,-205.136 669.056,-194.858 668.134,-187.751"/>
<polygon fill="midnightblue" stroke="midnightblue" points="668.088,-214.616 672.844,-224.083 675.029,-213.716 668.088,-214.616"/>
</g>
<!-- Node37&#45;&gt;Node11 -->
<g id="edge52" class="edge"><title>Node37&#45;&gt;Node11</title>
<path fill="none" stroke="midnightblue" d="M825.933,-221.839C856.597,-213.603 898.269,-201.514 934,-188 953.714,-180.544 956.789,-173.982 977,-168 1075.14,-138.953 1195.98,-128.439 1256.92,-124.805"/>
<polygon fill="midnightblue" stroke="midnightblue" points="824.747,-218.533 815.98,-224.481 826.543,-225.299 824.747,-218.533"/>
</g>
<!-- Node38 -->
<g id="node38" class="node"><title>Node38</title>
<g id="a_node38"><a xlink:href="../../d5/d0c/MAX7219SevenSegmentDisplay_8hpp.html" target="_top" xlink:title=" ">
<polygon fill="white" stroke="black" points="747,-168.5 747,-187.5 925,-187.5 925,-168.5 747,-168.5"/>
<text text-anchor="middle" x="836" y="-175.5" font-family="Helvetica,sans-Serif" font-size="10.00">MAX7219SevenSegmentDisplay.hpp</text>
</a>
</g>
</g>
<!-- Node37&#45;&gt;Node38 -->
<g id="edge53" class="edge"><title>Node37&#45;&gt;Node38</title>
<path fill="none" stroke="midnightblue" d="M797.998,-217.002C807.567,-207.433 819.361,-195.639 827.249,-187.751"/>
<polygon fill="midnightblue" stroke="midnightblue" points="795.513,-214.537 790.917,-224.083 800.463,-219.487 795.513,-214.537"/>
</g>
<!-- Node39&#45;&gt;Node11 -->
<g id="edge57" class="edge"><title>Node39&#45;&gt;Node11</title>
<path fill="none" stroke="midnightblue" d="M1483.49,-166.453C1439.47,-156.251 1373.6,-140.984 1332.79,-131.527"/>
<polygon fill="midnightblue" stroke="midnightblue" points="1482.83,-169.892 1493.36,-168.74 1484.41,-163.072 1482.83,-169.892"/>
</g>
<!-- Node39&#45;&gt;Node12 -->
<g id="edge58" class="edge"><title>Node39&#45;&gt;Node12</title>
<path fill="none" stroke="midnightblue" d="M1483.07,-168.09C1184.94,-131.222 840.291,-124.477 698.681,-123.247"/>
<polygon fill="midnightblue" stroke="midnightblue" points="1482.86,-171.59 1493.22,-169.358 1483.73,-164.644 1482.86,-171.59"/>
</g>
<!-- Node39&#45;&gt;Node16 -->
<g id="edge59" class="edge"><title>Node39&#45;&gt;Node16</title>
<path fill="none" stroke="midnightblue" d="M1517.63,-159.953C1506.42,-144.671 1487.85,-123.013 1466,-112 1419.29,-88.4541 1275.7,-75.941 1191.79,-70.4706"/>
<polygon fill="midnightblue" stroke="midnightblue" points="1515,-162.313 1523.61,-168.493 1520.74,-158.295 1515,-162.313"/>
</g>
<!-- Node42&#45;&gt;Node15 -->
<g id="edge68" class="edge"><title>Node42&#45;&gt;Node15</title>
<path fill="none" stroke="midnightblue" d="M560.45,-494.456C558.426,-480.379 553.759,-461.252 543,-448 377.479,-244.139 -121.036,-305.028 57,-112 65.2637,-103.04 404.564,-80.3317 548.987,-71.0484"/>
<polygon fill="midnightblue" stroke="midnightblue" points="556.978,-494.906 561.572,-504.453 563.935,-494.125 556.978,-494.906"/>
</g>
<!-- Node43 -->
<g id="node43" class="node"><title>Node43</title>
<g id="a_node43"><a xlink:href="../../db/d0b/ShiftRegisterOutRGB_8cpp.html" target="_top" xlink:title=" ">
<polygon fill="white" stroke="black" points="404,-448.5 404,-467.5 534,-467.5 534,-448.5 404,-448.5"/>
<text text-anchor="middle" x="469" y="-455.5" font-family="Helvetica,sans-Serif" font-size="10.00">ShiftRegisterOutRGB.cpp</text>
</a>
</g>
</g>
<!-- Node42&#45;&gt;Node43 -->
<g id="edge69" class="edge"><title>Node42&#45;&gt;Node43</title>
<path fill="none" stroke="midnightblue" d="M538.194,-499.177C521.081,-489.241 498.535,-476.149 483.905,-467.655"/>
<polygon fill="midnightblue" stroke="midnightblue" points="536.653,-502.329 547.058,-504.324 540.168,-496.276 536.653,-502.329"/>
</g>
<!-- Node44&#45;&gt;Node6 -->
<g id="edge76" class="edge"><title>Node44&#45;&gt;Node6</title>
<path fill="none" stroke="midnightblue" d="M1457.22,-559.288C1395.28,-548.1 1295.48,-530.077 1244.4,-520.852"/>
<polygon fill="midnightblue" stroke="midnightblue" points="1456.74,-562.757 1467.2,-561.09 1457.98,-555.868 1456.74,-562.757"/>
</g>
<!-- Node44&#45;&gt;Node23 -->
<g id="edge75" class="edge"><title>Node44&#45;&gt;Node23</title>
<path fill="none" stroke="midnightblue" d="M1534.1,-554.354C1544.04,-546.659 1554.61,-536.268 1560,-524 1586.21,-464.348 1566.95,-382.11 1559.56,-355.602"/>
<polygon fill="midnightblue" stroke="midnightblue" points="1531.75,-551.73 1525.66,-560.402 1535.83,-557.419 1531.75,-551.73"/>
</g>
<!-- Node45 -->
<g id="node45" class="node"><title>Node45</title>
<g id="a_node45"><a xlink:href="../../da/d69/PrintStream_8cpp.html" target="_top" xlink:title=" ">
<polygon fill="white" stroke="black" points="1607.5,-504.5 1607.5,-523.5 1694.5,-523.5 1694.5,-504.5 1607.5,-504.5"/>
<text text-anchor="middle" x="1651" y="-511.5" font-family="Helvetica,sans-Serif" font-size="10.00">PrintStream.cpp</text>
</a>
</g>
</g>
<!-- Node44&#45;&gt;Node45 -->
<g id="edge77" class="edge"><title>Node44&#45;&gt;Node45</title>
<path fill="none" stroke="midnightblue" d="M1542.7,-556.772C1569,-546.629 1605.72,-532.467 1628.92,-523.516"/>
<polygon fill="midnightblue" stroke="midnightblue" points="1541.25,-553.579 1533.18,-560.444 1543.77,-560.11 1541.25,-553.579"/>
</g>
<!-- Node46 -->
<g id="node46" class="node"><title>Node46</title>
<g id="a_node46"><a xlink:href="../../d7/d1f/KV__Builder_8cpp.html" target="_top" xlink:title=" ">
<polygon fill="white" stroke="black" points="1467,-504.5 1467,-523.5 1551,-523.5 1551,-504.5 1467,-504.5"/>
<text text-anchor="middle" x="1509" y="-511.5" font-family="Helvetica,sans-Serif" font-size="10.00">KV_Builder.cpp</text>
</a>
</g>
</g>
<!-- Node44&#45;&gt;Node46 -->
<g id="edge78" class="edge"><title>Node44&#45;&gt;Node46</title>
<path fill="none" stroke="midnightblue" d="M1510.29,-549.805C1509.96,-540.91 1509.58,-530.78 1509.32,-523.751"/>
<polygon fill="midnightblue" stroke="midnightblue" points="1506.8,-550.219 1510.67,-560.083 1513.8,-549.96 1506.8,-550.219"/>
</g>
</g>
</svg>
