<?xml version="1.0" encoding="UTF-8" standalone="no"?>
<!DOCTYPE svg PUBLIC "-//W3C//DTD SVG 1.1//EN"
 "http://www.w3.org/Graphics/SVG/1.1/DTD/svg11.dtd">
<!-- Generated by graphviz version 2.38.0 (20140413.2041)
 -->
<!-- Title: KV_Types.hpp Pages: 1 -->
<svg width="359pt" height="196pt"
 viewBox="0.00 0.00 358.50 196.00" xmlns="http://www.w3.org/2000/svg" xmlns:xlink="http://www.w3.org/1999/xlink">
<g id="graph0" class="graph" transform="scale(1 1) rotate(0) translate(4 192)">
<title>KV_Types.hpp</title>
<polygon fill="white" stroke="none" points="-4,4 -4,-192 354.5,-192 354.5,4 -4,4"/>
<!-- Node1 -->
<g id="node1" class="node"><title>Node1</title>
<g id="a_node1"><a xlink:title="KV_Type type definitions for fundamental types (int::_t, uint::_t, float, double, bool,...">
<polygon fill="#bfbfbf" stroke="black" points="130.5,-168.5 130.5,-187.5 211.5,-187.5 211.5,-168.5 130.5,-168.5"/>
<text text-anchor="middle" x="171" y="-175.5" font-family="Helvetica,sans-Serif" font-size="10.00">KV_Types.hpp</text>
</a>
</g>
</g>
<!-- Node2 -->
<g id="node2" class="node"><title>Node2</title>
<g id="a_node2"><a xlink:href="../../d7/d98/KV__Builder_8ipp.html" target="_top" xlink:title=" ">
<polygon fill="white" stroke="black" points="25.5,-112.5 25.5,-131.5 106.5,-131.5 106.5,-112.5 25.5,-112.5"/>
<text text-anchor="middle" x="66" y="-119.5" font-family="Helvetica,sans-Serif" font-size="10.00">KV_Builder.ipp</text>
</a>
</g>
</g>
<!-- Node1&#45;&gt;Node2 -->
<g id="edge1" class="edge"><title>Node1&#45;&gt;Node2</title>
<path fill="none" stroke="midnightblue" d="M145.19,-163.726C125.747,-153.727 99.6516,-140.307 82.8282,-131.655"/>
<polygon fill="midnightblue" stroke="midnightblue" points="143.636,-166.863 154.13,-168.324 146.838,-160.638 143.636,-166.863"/>
</g>
<!-- Node5 -->
<g id="node5" class="node"><title>Node5</title>
<g id="a_node5"><a xlink:href="../../df/d37/KVComm_8h.html" target="_top" xlink:title=" ">
<polygon fill="white" stroke="black" points="102,-0.5 102,-19.5 170,-19.5 170,-0.5 102,-0.5"/>
<text text-anchor="middle" x="136" y="-7.5" font-family="Helvetica,sans-Serif" font-size="10.00">KVComm.h</text>
</a>
</g>
</g>
<!-- Node1&#45;&gt;Node5 -->
<g id="edge12" class="edge"><title>Node1&#45;&gt;Node5</title>
<path fill="none" stroke="midnightblue" d="M163.616,-158.684C160.589,-150.609 157.27,-140.941 155,-132 144.48,-90.5735 138.767,-39.6066 136.797,-19.619"/>
<polygon fill="midnightblue" stroke="midnightblue" points="160.426,-160.137 167.315,-168.186 166.949,-157.598 160.426,-160.137"/>
</g>
<!-- Node6 -->
<g id="node6" class="node"><title>Node6</title>
<g id="a_node6"><a xlink:href="../../dc/d2c/KV__Iterator_8hpp.html" target="_top" xlink:title="Iterating over a dictionary generated by the KV_Builder, used for parsing and for checking if a key i...">
<polygon fill="white" stroke="black" points="164.5,-112.5 164.5,-131.5 249.5,-131.5 249.5,-112.5 164.5,-112.5"/>
<text text-anchor="middle" x="207" y="-119.5" font-family="Helvetica,sans-Serif" font-size="10.00">KV_Iterator.hpp</text>
</a>
</g>
</g>
<!-- Node1&#45;&gt;Node6 -->
<g id="edge6" class="edge"><title>Node1&#45;&gt;Node6</title>
<path fill="none" stroke="midnightblue" d="M182.623,-159.566C188.817,-150.275 196.168,-139.248 201.166,-131.751"/>
<polygon fill="midnightblue" stroke="midnightblue" points="179.58,-157.821 176.945,-168.083 185.404,-161.704 179.58,-157.821"/>
</g>
<!-- Node9 -->
<g id="node9" class="node"><title>Node9</title>
<g id="a_node9"><a xlink:href="../../de/df6/KV__Parser_8hpp.html" target="_top" xlink:title="A parser for dictionaries generated by the KV_Builder.">
<polygon fill="white" stroke="black" points="267.5,-112.5 267.5,-131.5 350.5,-131.5 350.5,-112.5 267.5,-112.5"/>
<text text-anchor="middle" x="309" y="-119.5" font-family="Helvetica,sans-Serif" font-size="10.00">KV_Parser.hpp</text>
</a>
</g>
</g>
<!-- Node1&#45;&gt;Node9 -->
<g id="edge10" class="edge"><title>Node1&#45;&gt;Node9</title>
<path fill="none" stroke="midnightblue" d="M202.249,-164.772C228.171,-154.629 264.362,-140.467 287.236,-131.516"/>
<polygon fill="midnightblue" stroke="midnightblue" points="200.904,-161.54 192.867,-168.444 203.454,-168.059 200.904,-161.54"/>
</g>
<!-- Node3 -->
<g id="node3" class="node"><title>Node3</title>
<g id="a_node3"><a xlink:href="../../dc/d98/KV__Builder_8hpp.html" target="_top" xlink:title="This file contains the KV_Builder class, a key&#45;value pair, dictionary&#45;like container that supports ma...">
<polygon fill="white" stroke="black" points="24,-56.5 24,-75.5 108,-75.5 108,-56.5 24,-56.5"/>
<text text-anchor="middle" x="66" y="-63.5" font-family="Helvetica,sans-Serif" font-size="10.00">KV_Builder.hpp</text>
</a>
</g>
</g>
<!-- Node2&#45;&gt;Node3 -->
<g id="edge2" class="edge"><title>Node2&#45;&gt;Node3</title>
<path fill="none" stroke="midnightblue" d="M59.5276,-102.101C58.8956,-93.1357 59.3427,-82.8579 60.869,-75.7511"/>
<polygon fill="midnightblue" stroke="midnightblue" points="56.0658,-102.622 60.8337,-112.083 63.0067,-101.713 56.0658,-102.622"/>
</g>
<!-- Node3&#45;&gt;Node2 -->
<g id="edge3" class="edge"><title>Node3&#45;&gt;Node2</title>
<path fill="none" stroke="midnightblue" d="M72.4575,-85.6911C73.1062,-94.6353 72.6758,-104.927 71.1663,-112.083"/>
<polygon fill="midnightblue" stroke="midnightblue" points="75.9231,-85.2002 71.131,-75.7511 68.9846,-86.1262 75.9231,-85.2002"/>
</g>
<!-- Node4 -->
<g id="node4" class="node"><title>Node4</title>
<g id="a_node4"><a xlink:href="../../d7/d1f/KV__Builder_8cpp.html" target="_top" xlink:title=" ">
<polygon fill="white" stroke="black" points="0,-0.5 0,-19.5 84,-19.5 84,-0.5 0,-0.5"/>
<text text-anchor="middle" x="42" y="-7.5" font-family="Helvetica,sans-Serif" font-size="10.00">KV_Builder.cpp</text>
</a>
</g>
</g>
<!-- Node3&#45;&gt;Node4 -->
<g id="edge4" class="edge"><title>Node3&#45;&gt;Node4</title>
<path fill="none" stroke="midnightblue" d="M57.8621,-46.6897C53.8174,-37.589 49.1174,-27.0141 45.8894,-19.7511"/>
<polygon fill="midnightblue" stroke="midnightblue" points="54.7771,-48.3664 62.0369,-56.083 61.1738,-45.5234 54.7771,-48.3664"/>
</g>
<!-- Node3&#45;&gt;Node5 -->
<g id="edge5" class="edge"><title>Node3&#45;&gt;Node5</title>
<path fill="none" stroke="midnightblue" d="M85.3138,-50.1008C97.9117,-40.3824 113.928,-28.0269 124.549,-19.8339"/>
<polygon fill="midnightblue" stroke="midnightblue" points="83.0267,-47.4446 77.2467,-56.324 87.3024,-52.9871 83.0267,-47.4446"/>
</g>
<!-- Node6&#45;&gt;Node3 -->
<g id="edge7" class="edge"><title>Node6&#45;&gt;Node3</title>
<path fill="none" stroke="midnightblue" d="M175.071,-108.772C148.586,-98.6287 111.608,-84.4669 88.2373,-75.5164"/>
<polygon fill="midnightblue" stroke="midnightblue" points="174.068,-112.136 184.658,-112.444 176.571,-105.599 174.068,-112.136"/>
</g>
<!-- Node7 -->
<g id="node7" class="node"><title>Node7</title>
<g id="a_node7"><a xlink:href="../../db/d5a/KV__Iterator_8cpp.html" target="_top" xlink:title=" ">
<polygon fill="white" stroke="black" points="164.5,-56.5 164.5,-75.5 249.5,-75.5 249.5,-56.5 164.5,-56.5"/>
<text text-anchor="middle" x="207" y="-63.5" font-family="Helvetica,sans-Serif" font-size="10.00">KV_Iterator.cpp</text>
</a>
</g>
</g>
<!-- Node6&#45;&gt;Node7 -->
<g id="edge8" class="edge"><title>Node6&#45;&gt;Node7</title>
<path fill="none" stroke="midnightblue" d="M207,-101.805C207,-92.9102 207,-82.7798 207,-75.7511"/>
<polygon fill="midnightblue" stroke="midnightblue" points="203.5,-102.083 207,-112.083 210.5,-102.083 203.5,-102.083"/>
</g>
<!-- Node8 -->
<g id="node8" class="node"><title>Node8</title>
<g id="a_node8"><a xlink:href="../../de/da1/KV__Parser_8cpp.html" target="_top" xlink:title=" ">
<polygon fill="white" stroke="black" points="267.5,-56.5 267.5,-75.5 350.5,-75.5 350.5,-56.5 267.5,-56.5"/>
<text text-anchor="middle" x="309" y="-63.5" font-family="Helvetica,sans-Serif" font-size="10.00">KV_Parser.cpp</text>
</a>
</g>
</g>
<!-- Node6&#45;&gt;Node8 -->
<g id="edge9" class="edge"><title>Node6&#45;&gt;Node8</title>
<path fill="none" stroke="midnightblue" d="M232.331,-107.59C251.19,-97.6052 276.384,-84.2672 292.653,-75.6545"/>
<polygon fill="midnightblue" stroke="midnightblue" points="230.588,-104.552 223.388,-112.324 233.864,-110.738 230.588,-104.552"/>
</g>
<!-- Node9&#45;&gt;Node8 -->
<g id="edge11" class="edge"><title>Node9&#45;&gt;Node8</title>
<path fill="none" stroke="midnightblue" d="M309,-101.805C309,-92.9102 309,-82.7798 309,-75.7511"/>
<polygon fill="midnightblue" stroke="midnightblue" points="305.5,-102.083 309,-112.083 312.5,-102.083 305.5,-102.083"/>
</g>
</g>
</svg>
