<?xml version="1.0" encoding="UTF-8" standalone="no"?>
<!DOCTYPE svg PUBLIC "-//W3C//DTD SVG 1.1//EN"
 "http://www.w3.org/Graphics/SVG/1.1/DTD/svg11.dtd">
<!-- Generated by graphviz version 2.38.0 (20140413.2041)
 -->
<!-- Title: SLIPParser.ipp Pages: 1 -->
<svg width="504pt" height="196pt"
 viewBox="0.00 0.00 503.50 196.00" xmlns="http://www.w3.org/2000/svg" xmlns:xlink="http://www.w3.org/1999/xlink">
<g id="graph0" class="graph" transform="scale(1 1) rotate(0) translate(4 192)">
<title>SLIPParser.ipp</title>
<polygon fill="white" stroke="none" points="-4,4 -4,-192 499.5,-192 499.5,4 -4,4"/>
<!-- Node1 -->
<g id="node1" class="node"><title>Node1</title>
<g id="a_node1"><a xlink:title=" ">
<polygon fill="#bfbfbf" stroke="black" points="186,-168.5 186,-187.5 269,-187.5 269,-168.5 186,-168.5"/>
<text text-anchor="middle" x="227.5" y="-175.5" font-family="Helvetica,sans-Serif" font-size="10.00">SLIPParser.ipp</text>
</a>
</g>
</g>
<!-- Node2 -->
<g id="node2" class="node"><title>Node2</title>
<g id="a_node2"><a xlink:href="../../df/dfe/SLIPParser_8hpp.html" target="_top" xlink:title=" ">
<polygon fill="white" stroke="black" points="184.5,-112.5 184.5,-131.5 270.5,-131.5 270.5,-112.5 184.5,-112.5"/>
<text text-anchor="middle" x="227.5" y="-119.5" font-family="Helvetica,sans-Serif" font-size="10.00">SLIPParser.hpp</text>
</a>
</g>
</g>
<!-- Node1&#45;&gt;Node2 -->
<g id="edge1" class="edge"><title>Node1&#45;&gt;Node2</title>
<path fill="none" stroke="midnightblue" d="M222.334,-168.083C220.824,-160.927 220.394,-150.635 221.042,-141.691"/>
<polygon fill="midnightblue" stroke="midnightblue" points="224.515,-142.126 222.369,-131.751 217.577,-141.2 224.515,-142.126"/>
</g>
<!-- Node2&#45;&gt;Node1 -->
<g id="edge8" class="edge"><title>Node2&#45;&gt;Node1</title>
<path fill="none" stroke="midnightblue" d="M232.631,-131.751C234.157,-138.858 234.604,-149.136 233.972,-158.101"/>
<polygon fill="midnightblue" stroke="midnightblue" points="230.493,-157.713 232.666,-168.083 237.434,-158.622 230.493,-157.713"/>
</g>
<!-- Node3 -->
<g id="node3" class="node"><title>Node3</title>
<g id="a_node3"><a xlink:title=" ">
<polygon fill="white" stroke="#bfbfbf" points="0,-56.5 0,-75.5 87,-75.5 87,-56.5 0,-56.5"/>
<text text-anchor="middle" x="43.5" y="-63.5" font-family="Helvetica,sans-Serif" font-size="10.00">AH/STL/cstddef</text>
</a>
</g>
</g>
<!-- Node2&#45;&gt;Node3 -->
<g id="edge2" class="edge"><title>Node2&#45;&gt;Node3</title>
<path fill="none" stroke="midnightblue" d="M198.345,-112.444C166.987,-103.241 116.969,-88.5617 82.3034,-78.3879"/>
<polygon fill="midnightblue" stroke="midnightblue" points="83.0999,-74.9742 72.5189,-75.5164 81.1286,-81.6909 83.0999,-74.9742"/>
</g>
<!-- Node4 -->
<g id="node4" class="node"><title>Node4</title>
<g id="a_node4"><a xlink:title=" ">
<polygon fill="white" stroke="#bfbfbf" points="105.5,-56.5 105.5,-75.5 183.5,-75.5 183.5,-56.5 105.5,-56.5"/>
<text text-anchor="middle" x="144.5" y="-63.5" font-family="Helvetica,sans-Serif" font-size="10.00">AH/STL/utility</text>
</a>
</g>
</g>
<!-- Node2&#45;&gt;Node4 -->
<g id="edge3" class="edge"><title>Node2&#45;&gt;Node4</title>
<path fill="none" stroke="midnightblue" d="M214.165,-112.324C201.338,-103.979 181.715,-91.2122 166.56,-81.3524"/>
<polygon fill="midnightblue" stroke="midnightblue" points="168.093,-78.1742 157.802,-75.6545 164.276,-84.0417 168.093,-78.1742"/>
</g>
<!-- Node5 -->
<g id="node5" class="node"><title>Node5</title>
<g id="a_node5"><a xlink:title=" ">
<polygon fill="white" stroke="#bfbfbf" points="201.5,-56.5 201.5,-75.5 253.5,-75.5 253.5,-56.5 201.5,-56.5"/>
<text text-anchor="middle" x="227.5" y="-63.5" font-family="Helvetica,sans-Serif" font-size="10.00">stddef.h</text>
</a>
</g>
</g>
<!-- Node2&#45;&gt;Node5 -->
<g id="edge4" class="edge"><title>Node2&#45;&gt;Node5</title>
<path fill="none" stroke="midnightblue" d="M227.5,-112.083C227.5,-105.006 227.5,-94.8611 227.5,-85.9865"/>
<polygon fill="midnightblue" stroke="midnightblue" points="231,-85.751 227.5,-75.7511 224,-85.7511 231,-85.751"/>
</g>
<!-- Node6 -->
<g id="node6" class="node"><title>Node6</title>
<g id="a_node6"><a xlink:href="../../d6/d9e/SLIP_8hpp.html" target="_top" xlink:title=" ">
<polygon fill="white" stroke="black" points="272,-56.5 272,-75.5 385,-75.5 385,-56.5 272,-56.5"/>
<text text-anchor="middle" x="328.5" y="-63.5" font-family="Helvetica,sans-Serif" font-size="10.00">SLIPStream/SLIP.hpp</text>
</a>
</g>
</g>
<!-- Node2&#45;&gt;Node6 -->
<g id="edge5" class="edge"><title>Node2&#45;&gt;Node6</title>
<path fill="none" stroke="midnightblue" d="M243.727,-112.324C259.851,-103.703 284.8,-90.3643 303.464,-80.3855"/>
<polygon fill="midnightblue" stroke="midnightblue" points="305.144,-83.456 312.313,-75.6545 301.844,-77.283 305.144,-83.456"/>
</g>
<!-- Node8 -->
<g id="node8" class="node"><title>Node8</title>
<g id="a_node8"><a xlink:title=" ">
<polygon fill="white" stroke="#bfbfbf" points="403.5,-56.5 403.5,-75.5 495.5,-75.5 495.5,-56.5 403.5,-56.5"/>
<text text-anchor="middle" x="449.5" y="-63.5" font-family="Helvetica,sans-Serif" font-size="10.00">boost/integer.hpp</text>
</a>
</g>
</g>
<!-- Node2&#45;&gt;Node8 -->
<g id="edge7" class="edge"><title>Node2&#45;&gt;Node8</title>
<path fill="none" stroke="midnightblue" d="M262.677,-112.444C301.079,-103.102 362.676,-88.1194 404.555,-77.9326"/>
<polygon fill="midnightblue" stroke="midnightblue" points="405.599,-81.2809 414.488,-75.5164 403.944,-74.4792 405.599,-81.2809"/>
</g>
<!-- Node7 -->
<g id="node7" class="node"><title>Node7</title>
<g id="a_node7"><a xlink:title=" ">
<polygon fill="white" stroke="#bfbfbf" points="304,-0.5 304,-19.5 353,-19.5 353,-0.5 304,-0.5"/>
<text text-anchor="middle" x="328.5" y="-7.5" font-family="Helvetica,sans-Serif" font-size="10.00">stdint.h</text>
</a>
</g>
</g>
<!-- Node6&#45;&gt;Node7 -->
<g id="edge6" class="edge"><title>Node6&#45;&gt;Node7</title>
<path fill="none" stroke="midnightblue" d="M328.5,-56.083C328.5,-49.0059 328.5,-38.8611 328.5,-29.9865"/>
<polygon fill="midnightblue" stroke="midnightblue" points="332,-29.751 328.5,-19.7511 325,-29.7511 332,-29.751"/>
</g>
</g>
</svg>
