<?xml version="1.0" encoding="UTF-8" standalone="no"?>
<!DOCTYPE svg PUBLIC "-//W3C//DTD SVG 1.1//EN"
 "http://www.w3.org/Graphics/SVG/1.1/DTD/svg11.dtd">
<!-- Generated by graphviz version 2.38.0 (20140413.2041)
 -->
<!-- Title: KVComm.h Pages: 1 -->
<svg width="1086pt" height="285pt"
 viewBox="0.00 0.00 1085.50 285.00" xmlns="http://www.w3.org/2000/svg" xmlns:xlink="http://www.w3.org/1999/xlink">
<g id="graph0" class="graph" transform="scale(1 1) rotate(0) translate(4 281)">
<title>KVComm.h</title>
<polygon fill="white" stroke="none" points="-4,4 -4,-281 1081.5,-281 1081.5,4 -4,4"/>
<!-- Node1 -->
<g id="node1" class="node"><title>Node1</title>
<g id="a_node1"><a xlink:title=" ">
<polygon fill="#bfbfbf" stroke="black" points="115.5,-257.5 115.5,-276.5 183.5,-276.5 183.5,-257.5 115.5,-257.5"/>
<text text-anchor="middle" x="149.5" y="-264.5" font-family="Helvetica,sans-Serif" font-size="10.00">KVComm.h</text>
</a>
</g>
</g>
<!-- Node2 -->
<g id="node2" class="node"><title>Node2</title>
<g id="a_node2"><a xlink:href="../../d6/da2/KV__Types_8hpp.html" target="_top" xlink:title="KV_Type type definitions for fundamental types (int::_t, uint::_t, float, double, bool,...">
<polygon fill="white" stroke="black" points="0,-56.5 0,-86.5 139,-86.5 139,-56.5 0,-56.5"/>
<text text-anchor="start" x="8" y="-74.5" font-family="Helvetica,sans-Serif" font-size="10.00">KVComm/include/KVComm</text>
<text text-anchor="middle" x="69.5" y="-63.5" font-family="Helvetica,sans-Serif" font-size="10.00">/KV_Types.hpp</text>
</a>
</g>
</g>
<!-- Node1&#45;&gt;Node2 -->
<g id="edge1" class="edge"><title>Node1&#45;&gt;Node2</title>
<path fill="none" stroke="midnightblue" d="M138.385,-257.325C117.512,-240.239 73.0652,-199.88 56.5,-154 49.7304,-135.251 54.1583,-112.81 59.6123,-96.2269"/>
<polygon fill="midnightblue" stroke="midnightblue" points="62.9322,-97.3384 63.0499,-86.7442 56.3512,-94.9527 62.9322,-97.3384"/>
</g>
<!-- Node5 -->
<g id="node5" class="node"><title>Node5</title>
<g id="a_node5"><a xlink:href="../../dc/d98/KV__Builder_8hpp.html" target="_top" xlink:title="This file contains the KV_Builder class, a key&#45;value pair, dictionary&#45;like container that supports ma...">
<polygon fill="white" stroke="black" points="193,-190.5 193,-220.5 332,-220.5 332,-190.5 193,-190.5"/>
<text text-anchor="start" x="201" y="-208.5" font-family="Helvetica,sans-Serif" font-size="10.00">KVComm/include/KVComm</text>
<text text-anchor="middle" x="262.5" y="-197.5" font-family="Helvetica,sans-Serif" font-size="10.00">/KV_Builder.hpp</text>
</a>
</g>
</g>
<!-- Node1&#45;&gt;Node5 -->
<g id="edge4" class="edge"><title>Node1&#45;&gt;Node5</title>
<path fill="none" stroke="midnightblue" d="M165.69,-257.475C181.567,-249.115 206.303,-236.09 226.798,-225.299"/>
<polygon fill="midnightblue" stroke="midnightblue" points="228.65,-228.279 235.868,-220.523 225.389,-222.085 228.65,-228.279"/>
</g>
<!-- Node3 -->
<g id="node3" class="node"><title>Node3</title>
<g id="a_node3"><a xlink:title=" ">
<polygon fill="white" stroke="#bfbfbf" points="45,-0.5 45,-19.5 94,-19.5 94,-0.5 45,-0.5"/>
<text text-anchor="middle" x="69.5" y="-7.5" font-family="Helvetica,sans-Serif" font-size="10.00">stdint.h</text>
</a>
</g>
</g>
<!-- Node2&#45;&gt;Node3 -->
<g id="edge2" class="edge"><title>Node2&#45;&gt;Node3</title>
<path fill="none" stroke="midnightblue" d="M69.5,-56.3993C69.5,-48.4664 69.5,-38.458 69.5,-29.8583"/>
<polygon fill="midnightblue" stroke="midnightblue" points="73.0001,-29.6577 69.5,-19.6578 66.0001,-29.6578 73.0001,-29.6577"/>
</g>
<!-- Node4 -->
<g id="node4" class="node"><title>Node4</title>
<g id="a_node4"><a xlink:title=" ">
<polygon fill="white" stroke="#bfbfbf" points="128,-0.5 128,-19.5 177,-19.5 177,-0.5 128,-0.5"/>
<text text-anchor="middle" x="152.5" y="-7.5" font-family="Helvetica,sans-Serif" font-size="10.00">string.h</text>
</a>
</g>
</g>
<!-- Node2&#45;&gt;Node4 -->
<g id="edge3" class="edge"><title>Node2&#45;&gt;Node4</title>
<path fill="none" stroke="midnightblue" d="M89.1698,-56.3993C102.101,-47.1293 118.986,-35.0254 132.068,-25.6469"/>
<polygon fill="midnightblue" stroke="midnightblue" points="134.335,-28.3287 140.423,-19.6578 130.256,-22.6395 134.335,-28.3287"/>
</g>
<!-- Node5&#45;&gt;Node4 -->
<g id="edge23" class="edge"><title>Node5&#45;&gt;Node4</title>
<path fill="none" stroke="midnightblue" d="M252.409,-190.463C237.11,-168.853 207.597,-125.858 186.5,-87 176.077,-67.8024 166.111,-44.7853 159.695,-29.1485"/>
<polygon fill="midnightblue" stroke="midnightblue" points="162.846,-27.6037 155.859,-19.6398 156.355,-30.223 162.846,-27.6037"/>
</g>
<!-- Node6 -->
<g id="node6" class="node"><title>Node6</title>
<g id="a_node6"><a xlink:href="../../dc/d2c/KV__Iterator_8hpp.html" target="_top" xlink:title="Iterating over a dictionary generated by the KV_Builder, used for parsing and for checking if a key i...">
<polygon fill="white" stroke="black" points="482,-123.5 482,-153.5 621,-153.5 621,-123.5 482,-123.5"/>
<text text-anchor="start" x="490" y="-141.5" font-family="Helvetica,sans-Serif" font-size="10.00">KVComm/include/KVComm</text>
<text text-anchor="middle" x="551.5" y="-130.5" font-family="Helvetica,sans-Serif" font-size="10.00">/KV_Iterator.hpp</text>
</a>
</g>
</g>
<!-- Node5&#45;&gt;Node6 -->
<g id="edge5" class="edge"><title>Node5&#45;&gt;Node6</title>
<path fill="none" stroke="midnightblue" d="M324.853,-190.476C370.088,-180.302 431.406,-166.511 478.857,-155.839"/>
<polygon fill="midnightblue" stroke="midnightblue" points="479.772,-159.22 488.761,-153.611 478.236,-152.391 479.772,-159.22"/>
</g>
<!-- Node13 -->
<g id="node13" class="node"><title>Node13</title>
<g id="a_node13"><a xlink:title=" ">
<polygon fill="white" stroke="#bfbfbf" points="196,-62 196,-81 273,-81 273,-62 196,-62"/>
<text text-anchor="middle" x="234.5" y="-69" font-family="Helvetica,sans-Serif" font-size="10.00">AH/STL/array</text>
</a>
</g>
</g>
<!-- Node5&#45;&gt;Node13 -->
<g id="edge19" class="edge"><title>Node5&#45;&gt;Node13</title>
<path fill="none" stroke="midnightblue" d="M254.395,-190.425C249.148,-180.567 242.716,-166.9 239.5,-154 234.262,-132.989 233.495,-108.036 233.728,-91.325"/>
<polygon fill="midnightblue" stroke="midnightblue" points="237.229,-91.3153 234.006,-81.2226 230.232,-91.1223 237.229,-91.3153"/>
</g>
<!-- Node14 -->
<g id="node14" class="node"><title>Node14</title>
<g id="a_node14"><a xlink:title=" ">
<polygon fill="white" stroke="#bfbfbf" points="890,-62 890,-81 977,-81 977,-62 890,-62"/>
<text text-anchor="middle" x="933.5" y="-69" font-family="Helvetica,sans-Serif" font-size="10.00">AH/STL/cstddef</text>
</a>
</g>
</g>
<!-- Node5&#45;&gt;Node14 -->
<g id="edge20" class="edge"><title>Node5&#45;&gt;Node14</title>
<path fill="none" stroke="midnightblue" d="M332.261,-197.488C406.408,-189.433 526.878,-174.621 629.5,-154 743.12,-131.169 769.682,-117.454 881.5,-87 885.308,-85.9629 889.27,-84.8747 893.233,-83.7802"/>
<polygon fill="midnightblue" stroke="midnightblue" points="894.295,-87.1177 902.996,-81.0723 892.424,-80.3724 894.295,-87.1177"/>
</g>
<!-- Node17 -->
<g id="node17" class="node"><title>Node17</title>
<g id="a_node17"><a xlink:title=" ">
<polygon fill="white" stroke="#bfbfbf" points="995.5,-62 995.5,-81 1077.5,-81 1077.5,-62 995.5,-62"/>
<text text-anchor="middle" x="1036.5" y="-69" font-family="Helvetica,sans-Serif" font-size="10.00">AH/STL/vector</text>
</a>
</g>
</g>
<!-- Node5&#45;&gt;Node17 -->
<g id="edge22" class="edge"><title>Node5&#45;&gt;Node17</title>
<path fill="none" stroke="midnightblue" d="M332.091,-199.221C419.826,-191.962 575.078,-177.109 706.5,-154 832.524,-131.84 862.796,-119.718 986.5,-87 990.323,-85.9889 994.299,-84.9 998.265,-83.7892"/>
<polygon fill="midnightblue" stroke="midnightblue" points="999.349,-87.1198 1008.01,-81.0154 997.432,-80.3873 999.349,-87.1198"/>
</g>
<!-- Node19 -->
<g id="node19" class="node"><title>Node19</title>
<g id="a_node19"><a xlink:title=" ">
<polygon fill="white" stroke="#bfbfbf" points="249,-129 249,-148 360,-148 360,-129 249,-129"/>
<text text-anchor="middle" x="304.5" y="-136" font-family="Helvetica,sans-Serif" font-size="10.00">AH/STL/initializer_list</text>
</a>
</g>
</g>
<!-- Node5&#45;&gt;Node19 -->
<g id="edge21" class="edge"><title>Node5&#45;&gt;Node19</title>
<path fill="none" stroke="midnightblue" d="M271.613,-190.396C277.968,-180.562 286.487,-167.378 293.262,-156.892"/>
<polygon fill="midnightblue" stroke="midnightblue" points="296.395,-158.493 298.882,-148.195 290.515,-154.694 296.395,-158.493"/>
</g>
<!-- Node20 -->
<g id="node20" class="node"><title>Node20</title>
<g id="a_node20"><a xlink:title=" ">
<polygon fill="white" stroke="#bfbfbf" points="378,-129 378,-148 423,-148 423,-129 378,-129"/>
<text text-anchor="middle" x="400.5" y="-136" font-family="Helvetica,sans-Serif" font-size="10.00">Print.h</text>
</a>
</g>
</g>
<!-- Node5&#45;&gt;Node20 -->
<g id="edge24" class="edge"><title>Node5&#45;&gt;Node20</title>
<path fill="none" stroke="midnightblue" d="M292.444,-190.396C316.443,-179.092 349.842,-163.361 373.133,-152.39"/>
<polygon fill="midnightblue" stroke="midnightblue" points="374.884,-155.435 382.439,-148.007 371.901,-149.102 374.884,-155.435"/>
</g>
<!-- Node21 -->
<g id="node21" class="node"><title>Node21</title>
<g id="a_node21"><a xlink:href="../../d7/d98/KV__Builder_8ipp.html" target="_top" xlink:title=" ">
<polygon fill="white" stroke="black" points="66,-129 66,-148 147,-148 147,-129 66,-129"/>
<text text-anchor="middle" x="106.5" y="-136" font-family="Helvetica,sans-Serif" font-size="10.00">KV_Builder.ipp</text>
</a>
</g>
</g>
<!-- Node5&#45;&gt;Node21 -->
<g id="edge25" class="edge"><title>Node5&#45;&gt;Node21</title>
<path fill="none" stroke="midnightblue" d="M222.972,-190.396C194.232,-179.041 156.324,-163.22 131.595,-152.244"/>
<polygon fill="midnightblue" stroke="midnightblue" points="132.739,-148.92 122.184,-148.007 129.866,-155.303 132.739,-148.92"/>
</g>
<!-- Node6&#45;&gt;Node2 -->
<g id="edge12" class="edge"><title>Node6&#45;&gt;Node2</title>
<path fill="none" stroke="midnightblue" d="M481.928,-128.118C393.727,-116.224 242.012,-95.764 149.231,-83.252"/>
<polygon fill="midnightblue" stroke="midnightblue" points="149.429,-79.7472 139.051,-81.8793 148.494,-86.6844 149.429,-79.7472"/>
</g>
<!-- Node7 -->
<g id="node7" class="node"><title>Node7</title>
<g id="a_node7"><a xlink:href="../../d5/dbd/KV__Error_8hpp.html" target="_top" xlink:title=" ">
<polygon fill="white" stroke="black" points="291,-56.5 291,-86.5 430,-86.5 430,-56.5 291,-56.5"/>
<text text-anchor="start" x="299" y="-74.5" font-family="Helvetica,sans-Serif" font-size="10.00">KVComm/include/KVComm</text>
<text text-anchor="middle" x="360.5" y="-63.5" font-family="Helvetica,sans-Serif" font-size="10.00">/KV_Error.hpp</text>
</a>
</g>
</g>
<!-- Node6&#45;&gt;Node7 -->
<g id="edge6" class="edge"><title>Node6&#45;&gt;Node7</title>
<path fill="none" stroke="midnightblue" d="M510.056,-123.396C481.147,-113.558 442.385,-100.367 411.567,-89.879"/>
<polygon fill="midnightblue" stroke="midnightblue" points="412.458,-86.4849 401.863,-86.5765 410.202,-93.1117 412.458,-86.4849"/>
</g>
<!-- Node11 -->
<g id="node11" class="node"><title>Node11</title>
<g id="a_node11"><a xlink:href="../../dd/d0f/KV__Helpers_8hpp.html" target="_top" xlink:title="Helpers for address manipulation used to layout dictionary entries in memory.">
<polygon fill="white" stroke="black" points="733,-56.5 733,-86.5 872,-86.5 872,-56.5 733,-56.5"/>
<text text-anchor="start" x="741" y="-74.5" font-family="Helvetica,sans-Serif" font-size="10.00">KVComm/include/KVComm</text>
<text text-anchor="middle" x="802.5" y="-63.5" font-family="Helvetica,sans-Serif" font-size="10.00">/KV_Helpers.hpp</text>
</a>
</g>
</g>
<!-- Node6&#45;&gt;Node11 -->
<g id="edge10" class="edge"><title>Node6&#45;&gt;Node11</title>
<path fill="none" stroke="midnightblue" d="M605.654,-123.476C644.531,-113.408 697.084,-99.7989 738.111,-89.1744"/>
<polygon fill="midnightblue" stroke="midnightblue" points="739.207,-92.5062 748.01,-86.6109 737.452,-85.7297 739.207,-92.5062"/>
</g>
<!-- Node6&#45;&gt;Node13 -->
<g id="edge13" class="edge"><title>Node6&#45;&gt;Node13</title>
<path fill="none" stroke="midnightblue" d="M481.947,-126.739C427.14,-117.72 348.979,-103.661 281.5,-87 277.692,-86.0597 273.737,-84.9899 269.81,-83.8674"/>
<polygon fill="midnightblue" stroke="midnightblue" points="270.792,-80.508 260.209,-81.0124 268.797,-87.2176 270.792,-80.508"/>
</g>
<!-- Node6&#45;&gt;Node14 -->
<g id="edge14" class="edge"><title>Node6&#45;&gt;Node14</title>
<path fill="none" stroke="midnightblue" d="M621.153,-129.311C688.246,-120.842 792.398,-106.168 881.5,-87 886.003,-86.0314 890.693,-84.9004 895.332,-83.705"/>
<polygon fill="midnightblue" stroke="midnightblue" points="896.566,-86.9976 905.316,-81.0232 894.751,-80.2372 896.566,-86.9976"/>
</g>
<!-- Node15 -->
<g id="node15" class="node"><title>Node15</title>
<g id="a_node15"><a xlink:title=" ">
<polygon fill="white" stroke="#bfbfbf" points="448.5,-62 448.5,-81 532.5,-81 532.5,-62 448.5,-62"/>
<text text-anchor="middle" x="490.5" y="-69" font-family="Helvetica,sans-Serif" font-size="10.00">AH/STL/cstdint</text>
</a>
</g>
</g>
<!-- Node6&#45;&gt;Node15 -->
<g id="edge15" class="edge"><title>Node6&#45;&gt;Node15</title>
<path fill="none" stroke="midnightblue" d="M538.264,-123.396C528.659,-113.161 515.647,-99.2959 505.63,-88.622"/>
<polygon fill="midnightblue" stroke="midnightblue" points="508.055,-86.0913 498.659,-81.1945 502.95,-90.8815 508.055,-86.0913"/>
</g>
<!-- Node16 -->
<g id="node16" class="node"><title>Node16</title>
<g id="a_node16"><a xlink:title=" ">
<polygon fill="white" stroke="#bfbfbf" points="551,-62 551,-81 636,-81 636,-62 551,-62"/>
<text text-anchor="middle" x="593.5" y="-69" font-family="Helvetica,sans-Serif" font-size="10.00">AH/STL/iterator</text>
</a>
</g>
</g>
<!-- Node6&#45;&gt;Node16 -->
<g id="edge16" class="edge"><title>Node6&#45;&gt;Node16</title>
<path fill="none" stroke="midnightblue" d="M560.613,-123.396C566.968,-113.562 575.487,-100.378 582.262,-89.892"/>
<polygon fill="midnightblue" stroke="midnightblue" points="585.395,-91.4932 587.882,-81.1945 579.515,-87.6942 585.395,-91.4932"/>
</g>
<!-- Node6&#45;&gt;Node17 -->
<g id="edge17" class="edge"><title>Node6&#45;&gt;Node17</title>
<path fill="none" stroke="midnightblue" d="M621.373,-132.992C707.78,-126.592 859.056,-112.69 986.5,-87 991.008,-86.0914 995.698,-84.9712 1000.32,-83.7595"/>
<polygon fill="midnightblue" stroke="midnightblue" points="1001.54,-87.0545 1010.24,-81.0072 999.664,-80.3096 1001.54,-87.0545"/>
</g>
<!-- Node18 -->
<g id="node18" class="node"><title>Node18</title>
<g id="a_node18"><a xlink:title=" ">
<polygon fill="white" stroke="#bfbfbf" points="654.5,-62 654.5,-81 714.5,-81 714.5,-62 654.5,-62"/>
<text text-anchor="middle" x="684.5" y="-69" font-family="Helvetica,sans-Serif" font-size="10.00">WString.h</text>
</a>
</g>
</g>
<!-- Node6&#45;&gt;Node18 -->
<g id="edge18" class="edge"><title>Node6&#45;&gt;Node18</title>
<path fill="none" stroke="midnightblue" d="M580.359,-123.396C603.386,-112.142 635.39,-96.501 657.823,-85.5375"/>
<polygon fill="midnightblue" stroke="midnightblue" points="659.646,-88.5425 667.093,-81.007 656.572,-82.2534 659.646,-88.5425"/>
</g>
<!-- Node8 -->
<g id="node8" class="node"><title>Node8</title>
<g id="a_node8"><a xlink:title=" ">
<polygon fill="white" stroke="#bfbfbf" points="269.5,-0.5 269.5,-19.5 321.5,-19.5 321.5,-0.5 269.5,-0.5"/>
<text text-anchor="middle" x="295.5" y="-7.5" font-family="Helvetica,sans-Serif" font-size="10.00">sstream</text>
</a>
</g>
</g>
<!-- Node7&#45;&gt;Node8 -->
<g id="edge7" class="edge"><title>Node7&#45;&gt;Node8</title>
<path fill="none" stroke="midnightblue" d="M345.096,-56.3993C335.261,-47.3967 322.507,-35.7214 312.395,-26.4652"/>
<polygon fill="midnightblue" stroke="midnightblue" points="314.698,-23.8282 304.958,-19.6578 309.971,-28.9916 314.698,-23.8282"/>
</g>
<!-- Node9 -->
<g id="node9" class="node"><title>Node9</title>
<g id="a_node9"><a xlink:title=" ">
<polygon fill="white" stroke="#bfbfbf" points="399,-0.5 399,-19.5 458,-19.5 458,-0.5 399,-0.5"/>
<text text-anchor="middle" x="428.5" y="-7.5" font-family="Helvetica,sans-Serif" font-size="10.00">stdexcept</text>
</a>
</g>
</g>
<!-- Node7&#45;&gt;Node9 -->
<g id="edge8" class="edge"><title>Node7&#45;&gt;Node9</title>
<path fill="none" stroke="midnightblue" d="M376.615,-56.3993C386.904,-47.3967 400.247,-35.7214 410.826,-26.4652"/>
<polygon fill="midnightblue" stroke="midnightblue" points="413.384,-28.8769 418.605,-19.6578 408.775,-23.6088 413.384,-28.8769"/>
</g>
<!-- Node10 -->
<g id="node10" class="node"><title>Node10</title>
<g id="a_node10"><a xlink:title=" ">
<polygon fill="white" stroke="#bfbfbf" points="340,-0.5 340,-19.5 381,-19.5 381,-0.5 340,-0.5"/>
<text text-anchor="middle" x="360.5" y="-7.5" font-family="Helvetica,sans-Serif" font-size="10.00">string</text>
</a>
</g>
</g>
<!-- Node7&#45;&gt;Node10 -->
<g id="edge9" class="edge"><title>Node7&#45;&gt;Node10</title>
<path fill="none" stroke="midnightblue" d="M360.5,-56.3993C360.5,-48.4664 360.5,-38.458 360.5,-29.8583"/>
<polygon fill="midnightblue" stroke="midnightblue" points="364,-29.6577 360.5,-19.6578 357,-29.6578 364,-29.6577"/>
</g>
<!-- Node12 -->
<g id="node12" class="node"><title>Node12</title>
<g id="a_node12"><a xlink:title=" ">
<polygon fill="white" stroke="#bfbfbf" points="776.5,-0.5 776.5,-19.5 828.5,-19.5 828.5,-0.5 776.5,-0.5"/>
<text text-anchor="middle" x="802.5" y="-7.5" font-family="Helvetica,sans-Serif" font-size="10.00">stddef.h</text>
</a>
</g>
</g>
<!-- Node11&#45;&gt;Node12 -->
<g id="edge11" class="edge"><title>Node11&#45;&gt;Node12</title>
<path fill="none" stroke="midnightblue" d="M802.5,-56.3993C802.5,-48.4664 802.5,-38.458 802.5,-29.8583"/>
<polygon fill="midnightblue" stroke="midnightblue" points="806,-29.6577 802.5,-19.6578 799,-29.6578 806,-29.6577"/>
</g>
<!-- Node21&#45;&gt;Node2 -->
<g id="edge27" class="edge"><title>Node21&#45;&gt;Node2</title>
<path fill="none" stroke="midnightblue" d="M101.51,-128.734C96.6539,-120.203 89.0669,-106.874 82.4981,-95.3345"/>
<polygon fill="midnightblue" stroke="midnightblue" points="85.5087,-93.5482 77.5199,-86.589 79.4252,-97.0111 85.5087,-93.5482"/>
</g>
<!-- Node21&#45;&gt;Node5 -->
<g id="edge26" class="edge"><title>Node21&#45;&gt;Node5</title>
<path fill="none" stroke="midnightblue" d="M131.65,-148.007C156.958,-157.682 196.012,-173.76 224.941,-186.295"/>
<polygon fill="midnightblue" stroke="midnightblue" points="223.764,-189.6 234.329,-190.396 226.566,-183.186 223.764,-189.6"/>
</g>
</g>
</svg>
