<?xml version="1.0" encoding="UTF-8" standalone="no"?>
<!DOCTYPE svg PUBLIC "-//W3C//DTD SVG 1.1//EN"
 "http://www.w3.org/Graphics/SVG/1.1/DTD/svg11.dtd">
<!-- Generated by graphviz version 2.38.0 (20140413.2041)
 -->
<!-- Title: KVComm.h Pages: 1 -->
<svg width="1134pt" height="285pt"
 viewBox="0.00 0.00 1134.00 285.00" xmlns="http://www.w3.org/2000/svg" xmlns:xlink="http://www.w3.org/1999/xlink">
<g id="graph0" class="graph" transform="scale(1 1) rotate(0) translate(4 281)">
<title>KVComm.h</title>
<polygon fill="white" stroke="none" points="-4,4 -4,-281 1130,-281 1130,4 -4,4"/>
<!-- Node1 -->
<g id="node1" class="node"><title>Node1</title>
<g id="a_node1"><a xlink:title=" ">
<polygon fill="#bfbfbf" stroke="black" points="52,-257.5 52,-276.5 120,-276.5 120,-257.5 52,-257.5"/>
<text text-anchor="middle" x="86" y="-264.5" font-family="Helvetica,sans-Serif" font-size="10.00">KVComm.h</text>
</a>
</g>
</g>
<!-- Node2 -->
<g id="node2" class="node"><title>Node2</title>
<g id="a_node2"><a xlink:title=" ">
<polygon fill="white" stroke="#bfbfbf" points="0,-196 0,-215 58,-215 58,-196 0,-196"/>
<text text-anchor="middle" x="29" y="-203" font-family="Helvetica,sans-Serif" font-size="10.00">Arduino.h</text>
</a>
</g>
</g>
<!-- Node1&#45;&gt;Node2 -->
<g id="edge1" class="edge"><title>Node1&#45;&gt;Node2</title>
<path fill="none" stroke="midnightblue" d="M77.8333,-257.475C69.1139,-248.373 55.0964,-233.741 44.3114,-222.483"/>
<polygon fill="midnightblue" stroke="midnightblue" points="46.5967,-219.809 37.1516,-215.009 41.5419,-224.651 46.5967,-219.809"/>
</g>
<!-- Node3 -->
<g id="node3" class="node"><title>Node3</title>
<g id="a_node3"><a xlink:href="../../d6/da2/KV__Types_8hpp.html" target="_top" xlink:title="KV_Type type definitions for fundamental types (int::_t, uint::_t, float, double, bool,...">
<polygon fill="white" stroke="black" points="48.5,-56.5 48.5,-86.5 187.5,-86.5 187.5,-56.5 48.5,-56.5"/>
<text text-anchor="start" x="56.5" y="-74.5" font-family="Helvetica,sans-Serif" font-size="10.00">KVComm/include/KVComm</text>
<text text-anchor="middle" x="118" y="-63.5" font-family="Helvetica,sans-Serif" font-size="10.00">/KV_Types.hpp</text>
</a>
</g>
</g>
<!-- Node1&#45;&gt;Node3 -->
<g id="edge2" class="edge"><title>Node1&#45;&gt;Node3</title>
<path fill="none" stroke="midnightblue" d="M86.7951,-257.236C88.9122,-234.779 95.2017,-173.398 105,-123 106.701,-114.252 109.016,-104.765 111.221,-96.4004"/>
<polygon fill="midnightblue" stroke="midnightblue" points="114.654,-97.1141 113.901,-86.5461 107.899,-95.2769 114.654,-97.1141"/>
</g>
<!-- Node6 -->
<g id="node6" class="node"><title>Node6</title>
<g id="a_node6"><a xlink:href="../../dc/d98/KV__Builder_8hpp.html" target="_top" xlink:title="This file contains the KV_Builder class, a key&#45;value pair, dictionary&#45;like container that supports ma...">
<polygon fill="white" stroke="black" points="241.5,-190.5 241.5,-220.5 380.5,-220.5 380.5,-190.5 241.5,-190.5"/>
<text text-anchor="start" x="249.5" y="-208.5" font-family="Helvetica,sans-Serif" font-size="10.00">KVComm/include/KVComm</text>
<text text-anchor="middle" x="311" y="-197.5" font-family="Helvetica,sans-Serif" font-size="10.00">/KV_Builder.hpp</text>
</a>
</g>
</g>
<!-- Node1&#45;&gt;Node6 -->
<g id="edge5" class="edge"><title>Node1&#45;&gt;Node6</title>
<path fill="none" stroke="midnightblue" d="M118.237,-257.475C151.985,-248.551 205.841,-234.309 248.059,-223.144"/>
<polygon fill="midnightblue" stroke="midnightblue" points="249.199,-226.463 257.972,-220.523 247.409,-219.696 249.199,-226.463"/>
</g>
<!-- Node4 -->
<g id="node4" class="node"><title>Node4</title>
<g id="a_node4"><a xlink:title=" ">
<polygon fill="white" stroke="#bfbfbf" points="93.5,-0.5 93.5,-19.5 142.5,-19.5 142.5,-0.5 93.5,-0.5"/>
<text text-anchor="middle" x="118" y="-7.5" font-family="Helvetica,sans-Serif" font-size="10.00">stdint.h</text>
</a>
</g>
</g>
<!-- Node3&#45;&gt;Node4 -->
<g id="edge3" class="edge"><title>Node3&#45;&gt;Node4</title>
<path fill="none" stroke="midnightblue" d="M118,-56.3993C118,-48.4664 118,-38.458 118,-29.8583"/>
<polygon fill="midnightblue" stroke="midnightblue" points="121.5,-29.6577 118,-19.6578 114.5,-29.6578 121.5,-29.6577"/>
</g>
<!-- Node5 -->
<g id="node5" class="node"><title>Node5</title>
<g id="a_node5"><a xlink:title=" ">
<polygon fill="white" stroke="#bfbfbf" points="176.5,-0.5 176.5,-19.5 225.5,-19.5 225.5,-0.5 176.5,-0.5"/>
<text text-anchor="middle" x="201" y="-7.5" font-family="Helvetica,sans-Serif" font-size="10.00">string.h</text>
</a>
</g>
</g>
<!-- Node3&#45;&gt;Node5 -->
<g id="edge4" class="edge"><title>Node3&#45;&gt;Node5</title>
<path fill="none" stroke="midnightblue" d="M137.67,-56.3993C150.601,-47.1293 167.486,-35.0254 180.568,-25.6469"/>
<polygon fill="midnightblue" stroke="midnightblue" points="182.835,-28.3287 188.923,-19.6578 178.756,-22.6395 182.835,-28.3287"/>
</g>
<!-- Node6&#45;&gt;Node5 -->
<g id="edge24" class="edge"><title>Node6&#45;&gt;Node5</title>
<path fill="none" stroke="midnightblue" d="M300.909,-190.463C285.61,-168.853 256.097,-125.858 235,-87 224.577,-67.8024 214.611,-44.7853 208.195,-29.1485"/>
<polygon fill="midnightblue" stroke="midnightblue" points="211.346,-27.6037 204.359,-19.6398 204.855,-30.223 211.346,-27.6037"/>
</g>
<!-- Node7 -->
<g id="node7" class="node"><title>Node7</title>
<g id="a_node7"><a xlink:href="../../dc/d2c/KV__Iterator_8hpp.html" target="_top" xlink:title="Iterating over a dictionary generated by the KV_Builder, used for parsing and for checking if a key i...">
<polygon fill="white" stroke="black" points="530.5,-123.5 530.5,-153.5 669.5,-153.5 669.5,-123.5 530.5,-123.5"/>
<text text-anchor="start" x="538.5" y="-141.5" font-family="Helvetica,sans-Serif" font-size="10.00">KVComm/include/KVComm</text>
<text text-anchor="middle" x="600" y="-130.5" font-family="Helvetica,sans-Serif" font-size="10.00">/KV_Iterator.hpp</text>
</a>
</g>
</g>
<!-- Node6&#45;&gt;Node7 -->
<g id="edge6" class="edge"><title>Node6&#45;&gt;Node7</title>
<path fill="none" stroke="midnightblue" d="M373.353,-190.476C418.588,-180.302 479.906,-166.511 527.357,-155.839"/>
<polygon fill="midnightblue" stroke="midnightblue" points="528.272,-159.22 537.261,-153.611 526.736,-152.391 528.272,-159.22"/>
</g>
<!-- Node14 -->
<g id="node14" class="node"><title>Node14</title>
<g id="a_node14"><a xlink:title=" ">
<polygon fill="white" stroke="#bfbfbf" points="244.5,-62 244.5,-81 321.5,-81 321.5,-62 244.5,-62"/>
<text text-anchor="middle" x="283" y="-69" font-family="Helvetica,sans-Serif" font-size="10.00">AH/STL/array</text>
</a>
</g>
</g>
<!-- Node6&#45;&gt;Node14 -->
<g id="edge20" class="edge"><title>Node6&#45;&gt;Node14</title>
<path fill="none" stroke="midnightblue" d="M302.895,-190.425C297.648,-180.567 291.216,-166.9 288,-154 282.762,-132.989 281.995,-108.036 282.228,-91.325"/>
<polygon fill="midnightblue" stroke="midnightblue" points="285.729,-91.3153 282.506,-81.2226 278.732,-91.1223 285.729,-91.3153"/>
</g>
<!-- Node15 -->
<g id="node15" class="node"><title>Node15</title>
<g id="a_node15"><a xlink:title=" ">
<polygon fill="white" stroke="#bfbfbf" points="938.5,-62 938.5,-81 1025.5,-81 1025.5,-62 938.5,-62"/>
<text text-anchor="middle" x="982" y="-69" font-family="Helvetica,sans-Serif" font-size="10.00">AH/STL/cstddef</text>
</a>
</g>
</g>
<!-- Node6&#45;&gt;Node15 -->
<g id="edge21" class="edge"><title>Node6&#45;&gt;Node15</title>
<path fill="none" stroke="midnightblue" d="M380.761,-197.488C454.908,-189.433 575.378,-174.621 678,-154 791.62,-131.169 818.182,-117.454 930,-87 933.808,-85.9629 937.77,-84.8747 941.733,-83.7802"/>
<polygon fill="midnightblue" stroke="midnightblue" points="942.795,-87.1177 951.496,-81.0723 940.924,-80.3724 942.795,-87.1177"/>
</g>
<!-- Node18 -->
<g id="node18" class="node"><title>Node18</title>
<g id="a_node18"><a xlink:title=" ">
<polygon fill="white" stroke="#bfbfbf" points="1044,-62 1044,-81 1126,-81 1126,-62 1044,-62"/>
<text text-anchor="middle" x="1085" y="-69" font-family="Helvetica,sans-Serif" font-size="10.00">AH/STL/vector</text>
</a>
</g>
</g>
<!-- Node6&#45;&gt;Node18 -->
<g id="edge23" class="edge"><title>Node6&#45;&gt;Node18</title>
<path fill="none" stroke="midnightblue" d="M380.591,-199.221C468.326,-191.962 623.578,-177.109 755,-154 881.024,-131.84 911.296,-119.718 1035,-87 1038.82,-85.9889 1042.8,-84.9 1046.77,-83.7892"/>
<polygon fill="midnightblue" stroke="midnightblue" points="1047.85,-87.1198 1056.51,-81.0154 1045.93,-80.3873 1047.85,-87.1198"/>
</g>
<!-- Node20 -->
<g id="node20" class="node"><title>Node20</title>
<g id="a_node20"><a xlink:title=" ">
<polygon fill="white" stroke="#bfbfbf" points="297.5,-129 297.5,-148 408.5,-148 408.5,-129 297.5,-129"/>
<text text-anchor="middle" x="353" y="-136" font-family="Helvetica,sans-Serif" font-size="10.00">AH/STL/initializer_list</text>
</a>
</g>
</g>
<!-- Node6&#45;&gt;Node20 -->
<g id="edge22" class="edge"><title>Node6&#45;&gt;Node20</title>
<path fill="none" stroke="midnightblue" d="M320.113,-190.396C326.468,-180.562 334.987,-167.378 341.762,-156.892"/>
<polygon fill="midnightblue" stroke="midnightblue" points="344.895,-158.493 347.382,-148.195 339.015,-154.694 344.895,-158.493"/>
</g>
<!-- Node21 -->
<g id="node21" class="node"><title>Node21</title>
<g id="a_node21"><a xlink:title=" ">
<polygon fill="white" stroke="#bfbfbf" points="426.5,-129 426.5,-148 471.5,-148 471.5,-129 426.5,-129"/>
<text text-anchor="middle" x="449" y="-136" font-family="Helvetica,sans-Serif" font-size="10.00">Print.h</text>
</a>
</g>
</g>
<!-- Node6&#45;&gt;Node21 -->
<g id="edge25" class="edge"><title>Node6&#45;&gt;Node21</title>
<path fill="none" stroke="midnightblue" d="M340.944,-190.396C364.943,-179.092 398.342,-163.361 421.633,-152.39"/>
<polygon fill="midnightblue" stroke="midnightblue" points="423.384,-155.435 430.939,-148.007 420.401,-149.102 423.384,-155.435"/>
</g>
<!-- Node22 -->
<g id="node22" class="node"><title>Node22</title>
<g id="a_node22"><a xlink:href="../../d7/d98/KV__Builder_8ipp.html" target="_top" xlink:title=" ">
<polygon fill="white" stroke="black" points="114.5,-129 114.5,-148 195.5,-148 195.5,-129 114.5,-129"/>
<text text-anchor="middle" x="155" y="-136" font-family="Helvetica,sans-Serif" font-size="10.00">KV_Builder.ipp</text>
</a>
</g>
</g>
<!-- Node6&#45;&gt;Node22 -->
<g id="edge26" class="edge"><title>Node6&#45;&gt;Node22</title>
<path fill="none" stroke="midnightblue" d="M271.472,-190.396C242.732,-179.041 204.824,-163.22 180.095,-152.244"/>
<polygon fill="midnightblue" stroke="midnightblue" points="181.239,-148.92 170.684,-148.007 178.366,-155.303 181.239,-148.92"/>
</g>
<!-- Node7&#45;&gt;Node3 -->
<g id="edge13" class="edge"><title>Node7&#45;&gt;Node3</title>
<path fill="none" stroke="midnightblue" d="M530.428,-128.118C442.227,-116.224 290.512,-95.764 197.731,-83.252"/>
<polygon fill="midnightblue" stroke="midnightblue" points="197.929,-79.7472 187.551,-81.8793 196.994,-86.6844 197.929,-79.7472"/>
</g>
<!-- Node8 -->
<g id="node8" class="node"><title>Node8</title>
<g id="a_node8"><a xlink:href="../../d5/dbd/KV__Error_8hpp.html" target="_top" xlink:title=" ">
<polygon fill="white" stroke="black" points="339.5,-56.5 339.5,-86.5 478.5,-86.5 478.5,-56.5 339.5,-56.5"/>
<text text-anchor="start" x="347.5" y="-74.5" font-family="Helvetica,sans-Serif" font-size="10.00">KVComm/include/KVComm</text>
<text text-anchor="middle" x="409" y="-63.5" font-family="Helvetica,sans-Serif" font-size="10.00">/KV_Error.hpp</text>
</a>
</g>
</g>
<!-- Node7&#45;&gt;Node8 -->
<g id="edge7" class="edge"><title>Node7&#45;&gt;Node8</title>
<path fill="none" stroke="midnightblue" d="M558.556,-123.396C529.647,-113.558 490.885,-100.367 460.067,-89.879"/>
<polygon fill="midnightblue" stroke="midnightblue" points="460.958,-86.4849 450.363,-86.5765 458.702,-93.1117 460.958,-86.4849"/>
</g>
<!-- Node12 -->
<g id="node12" class="node"><title>Node12</title>
<g id="a_node12"><a xlink:href="../../dd/d0f/KV__Helpers_8hpp.html" target="_top" xlink:title="Helpers for address manipulation used to layout dictionary entries in memory.">
<polygon fill="white" stroke="black" points="781.5,-56.5 781.5,-86.5 920.5,-86.5 920.5,-56.5 781.5,-56.5"/>
<text text-anchor="start" x="789.5" y="-74.5" font-family="Helvetica,sans-Serif" font-size="10.00">KVComm/include/KVComm</text>
<text text-anchor="middle" x="851" y="-63.5" font-family="Helvetica,sans-Serif" font-size="10.00">/KV_Helpers.hpp</text>
</a>
</g>
</g>
<!-- Node7&#45;&gt;Node12 -->
<g id="edge11" class="edge"><title>Node7&#45;&gt;Node12</title>
<path fill="none" stroke="midnightblue" d="M654.154,-123.476C693.031,-113.408 745.584,-99.7989 786.611,-89.1744"/>
<polygon fill="midnightblue" stroke="midnightblue" points="787.707,-92.5062 796.51,-86.6109 785.952,-85.7297 787.707,-92.5062"/>
</g>
<!-- Node7&#45;&gt;Node14 -->
<g id="edge14" class="edge"><title>Node7&#45;&gt;Node14</title>
<path fill="none" stroke="midnightblue" d="M530.447,-126.739C475.64,-117.72 397.479,-103.661 330,-87 326.192,-86.0597 322.237,-84.9899 318.31,-83.8674"/>
<polygon fill="midnightblue" stroke="midnightblue" points="319.292,-80.508 308.709,-81.0124 317.297,-87.2176 319.292,-80.508"/>
</g>
<!-- Node7&#45;&gt;Node15 -->
<g id="edge15" class="edge"><title>Node7&#45;&gt;Node15</title>
<path fill="none" stroke="midnightblue" d="M669.653,-129.311C736.746,-120.842 840.898,-106.168 930,-87 934.503,-86.0314 939.193,-84.9004 943.832,-83.705"/>
<polygon fill="midnightblue" stroke="midnightblue" points="945.066,-86.9976 953.816,-81.0232 943.251,-80.2372 945.066,-86.9976"/>
</g>
<!-- Node16 -->
<g id="node16" class="node"><title>Node16</title>
<g id="a_node16"><a xlink:title=" ">
<polygon fill="white" stroke="#bfbfbf" points="497,-62 497,-81 581,-81 581,-62 497,-62"/>
<text text-anchor="middle" x="539" y="-69" font-family="Helvetica,sans-Serif" font-size="10.00">AH/STL/cstdint</text>
</a>
</g>
</g>
<!-- Node7&#45;&gt;Node16 -->
<g id="edge16" class="edge"><title>Node7&#45;&gt;Node16</title>
<path fill="none" stroke="midnightblue" d="M586.764,-123.396C577.159,-113.161 564.147,-99.2959 554.13,-88.622"/>
<polygon fill="midnightblue" stroke="midnightblue" points="556.555,-86.0913 547.159,-81.1945 551.45,-90.8815 556.555,-86.0913"/>
</g>
<!-- Node17 -->
<g id="node17" class="node"><title>Node17</title>
<g id="a_node17"><a xlink:title=" ">
<polygon fill="white" stroke="#bfbfbf" points="599.5,-62 599.5,-81 684.5,-81 684.5,-62 599.5,-62"/>
<text text-anchor="middle" x="642" y="-69" font-family="Helvetica,sans-Serif" font-size="10.00">AH/STL/iterator</text>
</a>
</g>
</g>
<!-- Node7&#45;&gt;Node17 -->
<g id="edge17" class="edge"><title>Node7&#45;&gt;Node17</title>
<path fill="none" stroke="midnightblue" d="M609.113,-123.396C615.468,-113.562 623.987,-100.378 630.762,-89.892"/>
<polygon fill="midnightblue" stroke="midnightblue" points="633.895,-91.4932 636.382,-81.1945 628.015,-87.6942 633.895,-91.4932"/>
</g>
<!-- Node7&#45;&gt;Node18 -->
<g id="edge18" class="edge"><title>Node7&#45;&gt;Node18</title>
<path fill="none" stroke="midnightblue" d="M669.873,-132.992C756.28,-126.592 907.556,-112.69 1035,-87 1039.51,-86.0914 1044.2,-84.9712 1048.82,-83.7595"/>
<polygon fill="midnightblue" stroke="midnightblue" points="1050.04,-87.0545 1058.74,-81.0072 1048.16,-80.3096 1050.04,-87.0545"/>
</g>
<!-- Node19 -->
<g id="node19" class="node"><title>Node19</title>
<g id="a_node19"><a xlink:title=" ">
<polygon fill="white" stroke="#bfbfbf" points="703,-62 703,-81 763,-81 763,-62 703,-62"/>
<text text-anchor="middle" x="733" y="-69" font-family="Helvetica,sans-Serif" font-size="10.00">WString.h</text>
</a>
</g>
</g>
<!-- Node7&#45;&gt;Node19 -->
<g id="edge19" class="edge"><title>Node7&#45;&gt;Node19</title>
<path fill="none" stroke="midnightblue" d="M628.859,-123.396C651.886,-112.142 683.89,-96.501 706.323,-85.5375"/>
<polygon fill="midnightblue" stroke="midnightblue" points="708.146,-88.5425 715.593,-81.007 705.072,-82.2534 708.146,-88.5425"/>
</g>
<!-- Node9 -->
<g id="node9" class="node"><title>Node9</title>
<g id="a_node9"><a xlink:title=" ">
<polygon fill="white" stroke="#bfbfbf" points="318,-0.5 318,-19.5 370,-19.5 370,-0.5 318,-0.5"/>
<text text-anchor="middle" x="344" y="-7.5" font-family="Helvetica,sans-Serif" font-size="10.00">sstream</text>
</a>
</g>
</g>
<!-- Node8&#45;&gt;Node9 -->
<g id="edge8" class="edge"><title>Node8&#45;&gt;Node9</title>
<path fill="none" stroke="midnightblue" d="M393.596,-56.3993C383.761,-47.3967 371.007,-35.7214 360.895,-26.4652"/>
<polygon fill="midnightblue" stroke="midnightblue" points="363.198,-23.8282 353.458,-19.6578 358.471,-28.9916 363.198,-23.8282"/>
</g>
<!-- Node10 -->
<g id="node10" class="node"><title>Node10</title>
<g id="a_node10"><a xlink:title=" ">
<polygon fill="white" stroke="#bfbfbf" points="447.5,-0.5 447.5,-19.5 506.5,-19.5 506.5,-0.5 447.5,-0.5"/>
<text text-anchor="middle" x="477" y="-7.5" font-family="Helvetica,sans-Serif" font-size="10.00">stdexcept</text>
</a>
</g>
</g>
<!-- Node8&#45;&gt;Node10 -->
<g id="edge9" class="edge"><title>Node8&#45;&gt;Node10</title>
<path fill="none" stroke="midnightblue" d="M425.115,-56.3993C435.404,-47.3967 448.747,-35.7214 459.326,-26.4652"/>
<polygon fill="midnightblue" stroke="midnightblue" points="461.884,-28.8769 467.105,-19.6578 457.275,-23.6088 461.884,-28.8769"/>
</g>
<!-- Node11 -->
<g id="node11" class="node"><title>Node11</title>
<g id="a_node11"><a xlink:title=" ">
<polygon fill="white" stroke="#bfbfbf" points="388.5,-0.5 388.5,-19.5 429.5,-19.5 429.5,-0.5 388.5,-0.5"/>
<text text-anchor="middle" x="409" y="-7.5" font-family="Helvetica,sans-Serif" font-size="10.00">string</text>
</a>
</g>
</g>
<!-- Node8&#45;&gt;Node11 -->
<g id="edge10" class="edge"><title>Node8&#45;&gt;Node11</title>
<path fill="none" stroke="midnightblue" d="M409,-56.3993C409,-48.4664 409,-38.458 409,-29.8583"/>
<polygon fill="midnightblue" stroke="midnightblue" points="412.5,-29.6577 409,-19.6578 405.5,-29.6578 412.5,-29.6577"/>
</g>
<!-- Node13 -->
<g id="node13" class="node"><title>Node13</title>
<g id="a_node13"><a xlink:title=" ">
<polygon fill="white" stroke="#bfbfbf" points="825,-0.5 825,-19.5 877,-19.5 877,-0.5 825,-0.5"/>
<text text-anchor="middle" x="851" y="-7.5" font-family="Helvetica,sans-Serif" font-size="10.00">stddef.h</text>
</a>
</g>
</g>
<!-- Node12&#45;&gt;Node13 -->
<g id="edge12" class="edge"><title>Node12&#45;&gt;Node13</title>
<path fill="none" stroke="midnightblue" d="M851,-56.3993C851,-48.4664 851,-38.458 851,-29.8583"/>
<polygon fill="midnightblue" stroke="midnightblue" points="854.5,-29.6577 851,-19.6578 847.5,-29.6578 854.5,-29.6577"/>
</g>
<!-- Node22&#45;&gt;Node3 -->
<g id="edge28" class="edge"><title>Node22&#45;&gt;Node3</title>
<path fill="none" stroke="midnightblue" d="M150.01,-128.734C145.154,-120.203 137.567,-106.874 130.998,-95.3345"/>
<polygon fill="midnightblue" stroke="midnightblue" points="134.009,-93.5482 126.02,-86.589 127.925,-97.0111 134.009,-93.5482"/>
</g>
<!-- Node22&#45;&gt;Node6 -->
<g id="edge27" class="edge"><title>Node22&#45;&gt;Node6</title>
<path fill="none" stroke="midnightblue" d="M180.15,-148.007C205.458,-157.682 244.512,-173.76 273.441,-186.295"/>
<polygon fill="midnightblue" stroke="midnightblue" points="272.264,-189.6 282.829,-190.396 275.066,-183.186 272.264,-189.6"/>
</g>
</g>
</svg>
