<?xml version="1.0" encoding="UTF-8" standalone="no"?>
<!DOCTYPE svg PUBLIC "-//W3C//DTD SVG 1.1//EN"
 "http://www.w3.org/Graphics/SVG/1.1/DTD/svg11.dtd">
<!-- Generated by graphviz version 2.38.0 (20140413.2041)
 -->
<!-- Title: KV_Iterator::iterator Pages: 1 -->
<svg width="128pt" height="413pt"
 viewBox="0.00 0.00 128.00 413.00" xmlns="http://www.w3.org/2000/svg" xmlns:xlink="http://www.w3.org/1999/xlink">
<g id="graph0" class="graph" transform="scale(1 1) rotate(0) translate(4 409)">
<title>KV_Iterator::iterator</title>
<polygon fill="white" stroke="none" points="-4,4 -4,-409 124,-409 124,4 -4,4"/>
<!-- Node1 -->
<g id="node1" class="node"><title>Node1</title>
<g id="a_node1"><a xlink:title=" ">
<polygon fill="#bfbfbf" stroke="black" points="-7.10543e-15,-0.5 -7.10543e-15,-134.5 120,-134.5 120,-0.5 -7.10543e-15,-0.5"/>
<text text-anchor="middle" x="60" y="-122.5" font-family="Helvetica,sans-Serif" font-size="10.00">KV_Iterator::iterator</text>
<polyline fill="none" stroke="black" points="-7.10543e-15,-115.5 120,-115.5 "/>
<text text-anchor="start" x="8" y="-103.5" font-family="Helvetica,sans-Serif" font-size="10.00">&#45; remainingBufferLength</text>
<polyline fill="none" stroke="black" points="-7.10543e-15,-96.5 120,-96.5 "/>
<text text-anchor="start" x="8" y="-84.5" font-family="Helvetica,sans-Serif" font-size="10.00">+ iterator()</text>
<text text-anchor="start" x="8" y="-73.5" font-family="Helvetica,sans-Serif" font-size="10.00">+ iterator()</text>
<text text-anchor="start" x="8" y="-62.5" font-family="Helvetica,sans-Serif" font-size="10.00">+ operator++()</text>
<text text-anchor="start" x="8" y="-51.5" font-family="Helvetica,sans-Serif" font-size="10.00">+ operator!=()</text>
<text text-anchor="start" x="8" y="-40.5" font-family="Helvetica,sans-Serif" font-size="10.00">+ operator*()</text>
<text text-anchor="start" x="8" y="-29.5" font-family="Helvetica,sans-Serif" font-size="10.00">+ operator&#45;&gt;()</text>
<text text-anchor="start" x="8" y="-18.5" font-family="Helvetica,sans-Serif" font-size="10.00">+ operator bool()</text>
<text text-anchor="start" x="8" y="-7.5" font-family="Helvetica,sans-Serif" font-size="10.00">&#45; checkLength()</text>
</a>
</g>
</g>
<!-- Node2 -->
<g id="node2" class="node"><title>Node2</title>
<g id="a_node2"><a xlink:href="../../dc/d10/classKV__Iterator_1_1KV.html" target="_top" xlink:title=" ">
<polygon fill="white" stroke="black" points="12.5,-182.5 12.5,-404.5 107.5,-404.5 107.5,-182.5 12.5,-182.5"/>
<text text-anchor="middle" x="60" y="-392.5" font-family="Helvetica,sans-Serif" font-size="10.00">KV</text>
<polyline fill="none" stroke="black" points="12.5,-385.5 107.5,-385.5 "/>
<text text-anchor="start" x="20.5" y="-373.5" font-family="Helvetica,sans-Serif" font-size="10.00">&#45; buffer</text>
<polyline fill="none" stroke="black" points="12.5,-366.5 107.5,-366.5 "/>
<text text-anchor="start" x="20.5" y="-354.5" font-family="Helvetica,sans-Serif" font-size="10.00">+ KV()</text>
<text text-anchor="start" x="20.5" y="-343.5" font-family="Helvetica,sans-Serif" font-size="10.00">+ getTypeID()</text>
<text text-anchor="start" x="20.5" y="-332.5" font-family="Helvetica,sans-Serif" font-size="10.00">+ getIDLength()</text>
<text text-anchor="start" x="20.5" y="-321.5" font-family="Helvetica,sans-Serif" font-size="10.00">+ getDataLength()</text>
<text text-anchor="start" x="20.5" y="-310.5" font-family="Helvetica,sans-Serif" font-size="10.00">+ getBuffer()</text>
<text text-anchor="start" x="20.5" y="-299.5" font-family="Helvetica,sans-Serif" font-size="10.00">+ getID()</text>
<text text-anchor="start" x="20.5" y="-288.5" font-family="Helvetica,sans-Serif" font-size="10.00">+ getData()</text>
<text text-anchor="start" x="20.5" y="-277.5" font-family="Helvetica,sans-Serif" font-size="10.00">+ operator bool()</text>
<text text-anchor="start" x="20.5" y="-266.5" font-family="Helvetica,sans-Serif" font-size="10.00">+ getArraySize()</text>
<text text-anchor="start" x="20.5" y="-255.5" font-family="Helvetica,sans-Serif" font-size="10.00">+ get()</text>
<text text-anchor="start" x="20.5" y="-244.5" font-family="Helvetica,sans-Serif" font-size="10.00">+ getAs()</text>
<text text-anchor="start" x="20.5" y="-233.5" font-family="Helvetica,sans-Serif" font-size="10.00">+ getVector()</text>
<text text-anchor="start" x="20.5" y="-222.5" font-family="Helvetica,sans-Serif" font-size="10.00">+ getArray()</text>
<text text-anchor="start" x="20.5" y="-211.5" font-family="Helvetica,sans-Serif" font-size="10.00">+ getString()</text>
<text text-anchor="start" x="20.5" y="-200.5" font-family="Helvetica,sans-Serif" font-size="10.00">+ hasType()</text>
<text text-anchor="start" x="20.5" y="-189.5" font-family="Helvetica,sans-Serif" font-size="10.00">&#45; checkType()</text>
</a>
</g>
</g>
<!-- Node2&#45;&gt;Node1 -->
<g id="edge1" class="edge"><title>Node2&#45;&gt;Node1</title>
<path fill="none" stroke="#404040" d="M60,-182.469C60,-170.443 60,-158.388 60,-146.857"/>
<polygon fill="none" stroke="#404040" points="60.0001,-146.576 56,-140.576 60,-134.576 64,-140.576 60.0001,-146.576"/>
<text text-anchor="middle" x="68.5" y="-156" font-family="Helvetica,sans-Serif" font-size="10.00"> &#45;kv</text>
</g>
</g>
</svg>
