<?xml version="1.0" encoding="UTF-8" standalone="no"?>
<!DOCTYPE svg PUBLIC "-//W3C//DTD SVG 1.1//EN"
 "http://www.w3.org/Graphics/SVG/1.1/DTD/svg11.dtd">
<!-- Generated by graphviz version 2.38.0 (20140413.2041)
 -->
<!-- Title: SLIPSender.hpp Pages: 1 -->
<svg width="271pt" height="140pt"
 viewBox="0.00 0.00 270.50 140.00" xmlns="http://www.w3.org/2000/svg" xmlns:xlink="http://www.w3.org/1999/xlink">
<g id="graph0" class="graph" transform="scale(1 1) rotate(0) translate(4 136)">
<title>SLIPSender.hpp</title>
<polygon fill="white" stroke="none" points="-4,4 -4,-136 266.5,-136 266.5,4 -4,4"/>
<!-- Node1 -->
<g id="node1" class="node"><title>Node1</title>
<g id="a_node1"><a xlink:title=" ">
<polygon fill="#bfbfbf" stroke="black" points="69.5,-112.5 69.5,-131.5 157.5,-131.5 157.5,-112.5 69.5,-112.5"/>
<text text-anchor="middle" x="113.5" y="-119.5" font-family="Helvetica,sans-Serif" font-size="10.00">SLIPSender.hpp</text>
</a>
</g>
</g>
<!-- Node2 -->
<g id="node2" class="node"><title>Node2</title>
<g id="a_node2"><a xlink:href="../../d7/d88/SLIPSender_8ipp.html" target="_top" xlink:title=" ">
<polygon fill="white" stroke="black" points="0,-56.5 0,-75.5 85,-75.5 85,-56.5 0,-56.5"/>
<text text-anchor="middle" x="42.5" y="-63.5" font-family="Helvetica,sans-Serif" font-size="10.00">SLIPSender.ipp</text>
</a>
</g>
</g>
<!-- Node1&#45;&gt;Node2 -->
<g id="edge1" class="edge"><title>Node1&#45;&gt;Node2</title>
<path fill="none" stroke="midnightblue" d="M88.6016,-106.658C74.5354,-96.8592 58.1683,-84.1845 48.9662,-75.8339"/>
<polygon fill="midnightblue" stroke="midnightblue" points="86.7337,-109.62 96.9778,-112.324 90.6555,-103.822 86.7337,-109.62"/>
</g>
<!-- Node3 -->
<g id="node3" class="node"><title>Node3</title>
<g id="a_node3"><a xlink:href="../../da/dd2/SLIPStream_8hpp.html" target="_top" xlink:title=" ">
<polygon fill="white" stroke="black" points="142,-56.5 142,-75.5 231,-75.5 231,-56.5 142,-56.5"/>
<text text-anchor="middle" x="186.5" y="-63.5" font-family="Helvetica,sans-Serif" font-size="10.00">SLIPStream.hpp</text>
</a>
</g>
</g>
<!-- Node1&#45;&gt;Node3 -->
<g id="edge3" class="edge"><title>Node1&#45;&gt;Node3</title>
<path fill="none" stroke="midnightblue" d="M133.642,-106.101C146.779,-96.3824 163.482,-84.0269 174.558,-75.8339"/>
<polygon fill="midnightblue" stroke="midnightblue" points="131.187,-103.563 125.229,-112.324 135.35,-109.191 131.187,-103.563"/>
</g>
<!-- Node4 -->
<g id="node4" class="node"><title>Node4</title>
<g id="a_node4"><a xlink:href="../../d9/df2/SLIPStream_8cpp.html" target="_top" xlink:title=" ">
<polygon fill="white" stroke="black" points="69,-0.5 69,-19.5 158,-19.5 158,-0.5 69,-0.5"/>
<text text-anchor="middle" x="113.5" y="-7.5" font-family="Helvetica,sans-Serif" font-size="10.00">SLIPStream.cpp</text>
</a>
</g>
</g>
<!-- Node1&#45;&gt;Node4 -->
<g id="edge8" class="edge"><title>Node1&#45;&gt;Node4</title>
<path fill="none" stroke="midnightblue" d="M113.5,-102.348C113.5,-78.2538 113.5,-37.3079 113.5,-19.5914"/>
<polygon fill="midnightblue" stroke="midnightblue" points="110,-102.368 113.5,-112.368 117,-102.369 110,-102.368"/>
</g>
<!-- Node5 -->
<g id="node5" class="node"><title>Node5</title>
<g id="a_node5"><a xlink:href="../../d3/d61/SLIPStream_8ipp.html" target="_top" xlink:title=" ">
<polygon fill="white" stroke="black" points="176.5,-0.5 176.5,-19.5 262.5,-19.5 262.5,-0.5 176.5,-0.5"/>
<text text-anchor="middle" x="219.5" y="-7.5" font-family="Helvetica,sans-Serif" font-size="10.00">SLIPStream.ipp</text>
</a>
</g>
</g>
<!-- Node1&#45;&gt;Node5 -->
<g id="edge7" class="edge"><title>Node1&#45;&gt;Node5</title>
<path fill="none" stroke="midnightblue" d="M167.558,-115.949C193.831,-110.456 223.186,-99.1498 239.5,-76 251.878,-58.435 236.548,-32.9922 226.65,-19.7507"/>
<polygon fill="midnightblue" stroke="midnightblue" points="166.867,-112.517 157.673,-117.782 168.143,-119.4 166.867,-112.517"/>
</g>
<!-- Node2&#45;&gt;Node1 -->
<g id="edge2" class="edge"><title>Node2&#45;&gt;Node1</title>
<path fill="none" stroke="midnightblue" d="M67.414,-81.3524C81.5656,-91.2122 98.0421,-103.979 107.207,-112.324"/>
<polygon fill="midnightblue" stroke="midnightblue" points="69.2334,-78.3576 58.9892,-75.6545 65.3118,-84.156 69.2334,-78.3576"/>
</g>
<!-- Node3&#45;&gt;Node4 -->
<g id="edge4" class="edge"><title>Node3&#45;&gt;Node4</title>
<path fill="none" stroke="midnightblue" d="M166.358,-50.1008C153.221,-40.3824 136.518,-28.0269 125.442,-19.8339"/>
<polygon fill="midnightblue" stroke="midnightblue" points="164.65,-53.1907 174.771,-56.324 168.813,-47.5631 164.65,-53.1907"/>
</g>
<!-- Node3&#45;&gt;Node5 -->
<g id="edge5" class="edge"><title>Node3&#45;&gt;Node5</title>
<path fill="none" stroke="midnightblue" d="M191.104,-46.9827C195.979,-37.8168 202.958,-27.0922 209.021,-19.7511"/>
<polygon fill="midnightblue" stroke="midnightblue" points="187.911,-45.5484 186.783,-56.083 194.234,-48.551 187.911,-45.5484"/>
</g>
<!-- Node5&#45;&gt;Node3 -->
<g id="edge6" class="edge"><title>Node5&#45;&gt;Node3</title>
<path fill="none" stroke="midnightblue" d="M215.005,-28.8111C210.162,-37.9533 203.192,-48.6913 197.116,-56.083"/>
<polygon fill="midnightblue" stroke="midnightblue" points="218.178,-30.2882 219.283,-19.7511 211.848,-27.2994 218.178,-30.2882"/>
</g>
</g>
</svg>
