<?xml version="1.0" encoding="UTF-8" standalone="no"?>
<!DOCTYPE svg PUBLIC "-//W3C//DTD SVG 1.1//EN"
 "http://www.w3.org/Graphics/SVG/1.1/DTD/svg11.dtd">
<!-- Generated by graphviz version 2.38.0 (20140413.2041)
 -->
<!-- Title: SLIPStream.ipp Pages: 1 -->
<svg width="955pt" height="252pt"
 viewBox="0.00 0.00 954.50 252.00" xmlns="http://www.w3.org/2000/svg" xmlns:xlink="http://www.w3.org/1999/xlink">
<g id="graph0" class="graph" transform="scale(1 1) rotate(0) translate(4 248)">
<title>SLIPStream.ipp</title>
<polygon fill="white" stroke="none" points="-4,4 -4,-248 950.5,-248 950.5,4 -4,4"/>
<!-- Node1 -->
<g id="node1" class="node"><title>Node1</title>
<g id="a_node1"><a xlink:title=" ">
<polygon fill="#bfbfbf" stroke="black" points="322.5,-224.5 322.5,-243.5 408.5,-243.5 408.5,-224.5 322.5,-224.5"/>
<text text-anchor="middle" x="365.5" y="-231.5" font-family="Helvetica,sans-Serif" font-size="10.00">SLIPStream.ipp</text>
</a>
</g>
</g>
<!-- Node2 -->
<g id="node2" class="node"><title>Node2</title>
<g id="a_node2"><a xlink:href="../../da/dd2/SLIPStream_8hpp.html" target="_top" xlink:title=" ">
<polygon fill="white" stroke="black" points="321,-168.5 321,-187.5 410,-187.5 410,-168.5 321,-168.5"/>
<text text-anchor="middle" x="365.5" y="-175.5" font-family="Helvetica,sans-Serif" font-size="10.00">SLIPStream.hpp</text>
</a>
</g>
</g>
<!-- Node1&#45;&gt;Node2 -->
<g id="edge1" class="edge"><title>Node1&#45;&gt;Node2</title>
<path fill="none" stroke="midnightblue" d="M360.334,-224.083C358.824,-216.927 358.394,-206.635 359.042,-197.691"/>
<polygon fill="midnightblue" stroke="midnightblue" points="362.515,-198.126 360.369,-187.751 355.577,-197.2 362.515,-198.126"/>
</g>
<!-- Node11 -->
<g id="node11" class="node"><title>Node11</title>
<g id="a_node11"><a xlink:href="../../d5/ddb/SLIPSender_8hpp.html" target="_top" xlink:title=" ">
<polygon fill="white" stroke="black" points="478.5,-112.5 478.5,-131.5 622.5,-131.5 622.5,-112.5 478.5,-112.5"/>
<text text-anchor="middle" x="550.5" y="-119.5" font-family="Helvetica,sans-Serif" font-size="10.00">SLIPStream/SLIPSender.hpp</text>
</a>
</g>
</g>
<!-- Node1&#45;&gt;Node11 -->
<g id="edge23" class="edge"><title>Node1&#45;&gt;Node11</title>
<path fill="none" stroke="midnightblue" d="M380.017,-224.368C411.898,-205.412 488.272,-160.001 527.051,-136.942"/>
<polygon fill="midnightblue" stroke="midnightblue" points="529.244,-139.711 536.051,-131.591 525.667,-133.694 529.244,-139.711"/>
</g>
<!-- Node2&#45;&gt;Node1 -->
<g id="edge22" class="edge"><title>Node2&#45;&gt;Node1</title>
<path fill="none" stroke="midnightblue" d="M370.631,-187.751C372.157,-194.858 372.604,-205.136 371.972,-214.101"/>
<polygon fill="midnightblue" stroke="midnightblue" points="368.493,-213.713 370.666,-224.083 375.434,-214.622 368.493,-213.713"/>
</g>
<!-- Node3 -->
<g id="node3" class="node"><title>Node3</title>
<g id="a_node3"><a xlink:href="../../df/dfe/SLIPParser_8hpp.html" target="_top" xlink:title=" ">
<polygon fill="white" stroke="black" points="257.5,-112.5 257.5,-131.5 399.5,-131.5 399.5,-112.5 257.5,-112.5"/>
<text text-anchor="middle" x="328.5" y="-119.5" font-family="Helvetica,sans-Serif" font-size="10.00">SLIPStream/SLIPParser.hpp</text>
</a>
</g>
</g>
<!-- Node2&#45;&gt;Node3 -->
<g id="edge2" class="edge"><title>Node2&#45;&gt;Node3</title>
<path fill="none" stroke="midnightblue" d="M359.39,-168.083C354.218,-160.534 346.654,-149.495 340.306,-140.23"/>
<polygon fill="midnightblue" stroke="midnightblue" points="343.036,-138.022 334.496,-131.751 337.261,-141.979 343.036,-138.022"/>
</g>
<!-- Node2&#45;&gt;Node11 -->
<g id="edge11" class="edge"><title>Node2&#45;&gt;Node11</title>
<path fill="none" stroke="midnightblue" d="M394.814,-168.444C426.342,-159.241 476.631,-144.562 511.486,-134.388"/>
<polygon fill="midnightblue" stroke="midnightblue" points="512.705,-137.678 521.323,-131.516 510.743,-130.959 512.705,-137.678"/>
</g>
<!-- Node16 -->
<g id="node16" class="node"><title>Node16</title>
<g id="a_node16"><a xlink:title=" ">
<polygon fill="white" stroke="#bfbfbf" points="183.5,-112.5 183.5,-131.5 239.5,-131.5 239.5,-112.5 183.5,-112.5"/>
<text text-anchor="middle" x="211.5" y="-119.5" font-family="Helvetica,sans-Serif" font-size="10.00">Stream.h</text>
</a>
</g>
</g>
<!-- Node2&#45;&gt;Node16 -->
<g id="edge21" class="edge"><title>Node2&#45;&gt;Node16</title>
<path fill="none" stroke="midnightblue" d="M341.098,-168.444C315.303,-159.399 274.423,-145.064 245.482,-134.916"/>
<polygon fill="midnightblue" stroke="midnightblue" points="246.382,-131.523 235.788,-131.516 244.066,-138.128 246.382,-131.523"/>
</g>
<!-- Node4 -->
<g id="node4" class="node"><title>Node4</title>
<g id="a_node4"><a xlink:title=" ">
<polygon fill="white" stroke="#bfbfbf" points="0,-56.5 0,-75.5 87,-75.5 87,-56.5 0,-56.5"/>
<text text-anchor="middle" x="43.5" y="-63.5" font-family="Helvetica,sans-Serif" font-size="10.00">AH/STL/cstddef</text>
</a>
</g>
</g>
<!-- Node3&#45;&gt;Node4 -->
<g id="edge3" class="edge"><title>Node3&#45;&gt;Node4</title>
<path fill="none" stroke="midnightblue" d="M283.341,-112.444C232.764,-102.861 150.85,-87.3399 97.0762,-77.1513"/>
<polygon fill="midnightblue" stroke="midnightblue" points="97.5226,-73.6737 87.0459,-75.2508 96.2195,-80.5513 97.5226,-73.6737"/>
</g>
<!-- Node5 -->
<g id="node5" class="node"><title>Node5</title>
<g id="a_node5"><a xlink:title=" ">
<polygon fill="white" stroke="#bfbfbf" points="206.5,-56.5 206.5,-75.5 284.5,-75.5 284.5,-56.5 206.5,-56.5"/>
<text text-anchor="middle" x="245.5" y="-63.5" font-family="Helvetica,sans-Serif" font-size="10.00">AH/STL/utility</text>
</a>
</g>
</g>
<!-- Node3&#45;&gt;Node5 -->
<g id="edge4" class="edge"><title>Node3&#45;&gt;Node5</title>
<path fill="none" stroke="midnightblue" d="M315.165,-112.324C302.338,-103.979 282.715,-91.2122 267.56,-81.3524"/>
<polygon fill="midnightblue" stroke="midnightblue" points="269.093,-78.1742 258.802,-75.6545 265.276,-84.0417 269.093,-78.1742"/>
</g>
<!-- Node6 -->
<g id="node6" class="node"><title>Node6</title>
<g id="a_node6"><a xlink:title=" ">
<polygon fill="white" stroke="#bfbfbf" points="302.5,-56.5 302.5,-75.5 354.5,-75.5 354.5,-56.5 302.5,-56.5"/>
<text text-anchor="middle" x="328.5" y="-63.5" font-family="Helvetica,sans-Serif" font-size="10.00">stddef.h</text>
</a>
</g>
</g>
<!-- Node3&#45;&gt;Node6 -->
<g id="edge5" class="edge"><title>Node3&#45;&gt;Node6</title>
<path fill="none" stroke="midnightblue" d="M328.5,-112.083C328.5,-105.006 328.5,-94.8611 328.5,-85.9865"/>
<polygon fill="midnightblue" stroke="midnightblue" points="332,-85.751 328.5,-75.7511 325,-85.7511 332,-85.751"/>
</g>
<!-- Node7 -->
<g id="node7" class="node"><title>Node7</title>
<g id="a_node7"><a xlink:href="../../d6/d9e/SLIP_8hpp.html" target="_top" xlink:title=" ">
<polygon fill="white" stroke="black" points="373,-56.5 373,-75.5 486,-75.5 486,-56.5 373,-56.5"/>
<text text-anchor="middle" x="429.5" y="-63.5" font-family="Helvetica,sans-Serif" font-size="10.00">SLIPStream/SLIP.hpp</text>
</a>
</g>
</g>
<!-- Node3&#45;&gt;Node7 -->
<g id="edge6" class="edge"><title>Node3&#45;&gt;Node7</title>
<path fill="none" stroke="midnightblue" d="M344.727,-112.324C360.851,-103.703 385.8,-90.3643 404.464,-80.3855"/>
<polygon fill="midnightblue" stroke="midnightblue" points="406.144,-83.456 413.313,-75.6545 402.844,-77.283 406.144,-83.456"/>
</g>
<!-- Node9 -->
<g id="node9" class="node"><title>Node9</title>
<g id="a_node9"><a xlink:title=" ">
<polygon fill="white" stroke="#bfbfbf" points="504.5,-56.5 504.5,-75.5 596.5,-75.5 596.5,-56.5 504.5,-56.5"/>
<text text-anchor="middle" x="550.5" y="-63.5" font-family="Helvetica,sans-Serif" font-size="10.00">boost/integer.hpp</text>
</a>
</g>
</g>
<!-- Node3&#45;&gt;Node9 -->
<g id="edge8" class="edge"><title>Node3&#45;&gt;Node9</title>
<path fill="none" stroke="midnightblue" d="M363.677,-112.444C402.079,-103.102 463.676,-88.1194 505.555,-77.9326"/>
<polygon fill="midnightblue" stroke="midnightblue" points="506.599,-81.2809 515.488,-75.5164 504.944,-74.4792 506.599,-81.2809"/>
</g>
<!-- Node10 -->
<g id="node10" class="node"><title>Node10</title>
<g id="a_node10"><a xlink:href="../../d3/d0e/SLIPParser_8ipp.html" target="_top" xlink:title=" ">
<polygon fill="white" stroke="black" points="105,-56.5 105,-75.5 188,-75.5 188,-56.5 105,-56.5"/>
<text text-anchor="middle" x="146.5" y="-63.5" font-family="Helvetica,sans-Serif" font-size="10.00">SLIPParser.ipp</text>
</a>
</g>
</g>
<!-- Node3&#45;&gt;Node10 -->
<g id="edge9" class="edge"><title>Node3&#45;&gt;Node10</title>
<path fill="none" stroke="midnightblue" d="M294.573,-112.444C261.679,-103.28 212.31,-88.6876 179.677,-78.5192"/>
<polygon fill="midnightblue" stroke="midnightblue" points="180.713,-75.176 170.124,-75.5164 178.614,-81.8539 180.713,-75.176"/>
</g>
<!-- Node8 -->
<g id="node8" class="node"><title>Node8</title>
<g id="a_node8"><a xlink:title=" ">
<polygon fill="white" stroke="#bfbfbf" points="405,-0.5 405,-19.5 454,-19.5 454,-0.5 405,-0.5"/>
<text text-anchor="middle" x="429.5" y="-7.5" font-family="Helvetica,sans-Serif" font-size="10.00">stdint.h</text>
</a>
</g>
</g>
<!-- Node7&#45;&gt;Node8 -->
<g id="edge7" class="edge"><title>Node7&#45;&gt;Node8</title>
<path fill="none" stroke="midnightblue" d="M429.5,-56.083C429.5,-49.0059 429.5,-38.8611 429.5,-29.9865"/>
<polygon fill="midnightblue" stroke="midnightblue" points="433,-29.751 429.5,-19.7511 426,-29.7511 433,-29.751"/>
</g>
<!-- Node10&#45;&gt;Node3 -->
<g id="edge10" class="edge"><title>Node10&#45;&gt;Node3</title>
<path fill="none" stroke="midnightblue" d="M180.283,-75.5164C213.13,-84.664 262.498,-99.2551 295.18,-109.436"/>
<polygon fill="midnightblue" stroke="midnightblue" points="294.161,-112.785 304.75,-112.444 296.259,-106.107 294.161,-112.785"/>
</g>
<!-- Node11&#45;&gt;Node5 -->
<g id="edge13" class="edge"><title>Node11&#45;&gt;Node5</title>
<path fill="none" stroke="midnightblue" d="M500.72,-112.466C451.049,-103.909 372.273,-90.2292 294.497,-76.1642"/>
<polygon fill="midnightblue" stroke="midnightblue" points="294.989,-72.6965 284.525,-74.3578 293.741,-79.5844 294.989,-72.6965"/>
</g>
<!-- Node11&#45;&gt;Node6 -->
<g id="edge15" class="edge"><title>Node11&#45;&gt;Node6</title>
<path fill="none" stroke="midnightblue" d="M514.261,-112.456C478.62,-104.013 422.405,-90.5935 364.859,-76.312"/>
<polygon fill="midnightblue" stroke="midnightblue" points="365.411,-72.8428 354.862,-73.8256 363.722,-79.6359 365.411,-72.8428"/>
</g>
<!-- Node11&#45;&gt;Node7 -->
<g id="edge18" class="edge"><title>Node11&#45;&gt;Node7</title>
<path fill="none" stroke="midnightblue" d="M531.327,-112.444C511.591,-103.636 480.615,-89.8116 458.007,-79.722"/>
<polygon fill="midnightblue" stroke="midnightblue" points="459.141,-76.3957 448.583,-75.5164 456.289,-82.788 459.141,-76.3957"/>
</g>
<!-- Node11&#45;&gt;Node9 -->
<g id="edge17" class="edge"><title>Node11&#45;&gt;Node9</title>
<path fill="none" stroke="midnightblue" d="M550.5,-112.083C550.5,-105.006 550.5,-94.8611 550.5,-85.9865"/>
<polygon fill="midnightblue" stroke="midnightblue" points="554,-85.751 550.5,-75.7511 547,-85.7511 554,-85.751"/>
</g>
<!-- Node12 -->
<g id="node12" class="node"><title>Node12</title>
<g id="a_node12"><a xlink:title=" ">
<polygon fill="white" stroke="#bfbfbf" points="785,-56.5 785,-75.5 880,-75.5 880,-56.5 785,-56.5"/>
<text text-anchor="middle" x="832.5" y="-63.5" font-family="Helvetica,sans-Serif" font-size="10.00">AH/STL/algorithm</text>
</a>
</g>
</g>
<!-- Node11&#45;&gt;Node12 -->
<g id="edge12" class="edge"><title>Node11&#45;&gt;Node12</title>
<path fill="none" stroke="midnightblue" d="M595.184,-112.444C644.79,-102.944 724.865,-87.611 778.085,-77.4198"/>
<polygon fill="midnightblue" stroke="midnightblue" points="778.862,-80.8348 788.025,-75.5164 777.545,-73.9597 778.862,-80.8348"/>
</g>
<!-- Node13 -->
<g id="node13" class="node"><title>Node13</title>
<g id="a_node13"><a xlink:title=" ">
<polygon fill="white" stroke="#bfbfbf" points="898.5,-56.5 898.5,-75.5 946.5,-75.5 946.5,-56.5 898.5,-56.5"/>
<text text-anchor="middle" x="922.5" y="-63.5" font-family="Helvetica,sans-Serif" font-size="10.00">limits.h</text>
</a>
</g>
</g>
<!-- Node11&#45;&gt;Node13 -->
<g id="edge14" class="edge"><title>Node11&#45;&gt;Node13</title>
<path fill="none" stroke="midnightblue" d="M622.718,-114.254C689.379,-107.381 791.238,-95.2474 888.442,-75.9743"/>
<polygon fill="midnightblue" stroke="midnightblue" points="889.325,-79.3668 898.439,-73.9633 887.945,-72.5042 889.325,-79.3668"/>
</g>
<!-- Node14 -->
<g id="node14" class="node"><title>Node14</title>
<g id="a_node14"><a xlink:title=" ">
<polygon fill="white" stroke="#bfbfbf" points="615,-56.5 615,-75.5 664,-75.5 664,-56.5 615,-56.5"/>
<text text-anchor="middle" x="639.5" y="-63.5" font-family="Helvetica,sans-Serif" font-size="10.00">string.h</text>
</a>
</g>
</g>
<!-- Node11&#45;&gt;Node14 -->
<g id="edge16" class="edge"><title>Node11&#45;&gt;Node14</title>
<path fill="none" stroke="midnightblue" d="M564.799,-112.324C578.683,-103.9 599.992,-90.9709 616.304,-81.0741"/>
<polygon fill="midnightblue" stroke="midnightblue" points="618.502,-83.8341 625.236,-75.6545 614.871,-77.8495 618.502,-83.8341"/>
</g>
<!-- Node15 -->
<g id="node15" class="node"><title>Node15</title>
<g id="a_node15"><a xlink:href="../../d7/d88/SLIPSender_8ipp.html" target="_top" xlink:title=" ">
<polygon fill="white" stroke="black" points="682,-56.5 682,-75.5 767,-75.5 767,-56.5 682,-56.5"/>
<text text-anchor="middle" x="724.5" y="-63.5" font-family="Helvetica,sans-Serif" font-size="10.00">SLIPSender.ipp</text>
</a>
</g>
</g>
<!-- Node11&#45;&gt;Node15 -->
<g id="edge19" class="edge"><title>Node11&#45;&gt;Node15</title>
<path fill="none" stroke="midnightblue" d="M572.982,-112.444C600.617,-103.241 647.737,-88.5617 682.18,-78.3879"/>
<polygon fill="midnightblue" stroke="midnightblue" points="683.366,-81.6876 691.978,-75.5164 681.397,-74.9701 683.366,-81.6876"/>
</g>
<!-- Node15&#45;&gt;Node11 -->
<g id="edge20" class="edge"><title>Node15&#45;&gt;Node11</title>
<path fill="none" stroke="midnightblue" d="M702.138,-75.5164C674.56,-84.7034 627.45,-99.381 592.97,-109.568"/>
<polygon fill="midnightblue" stroke="midnightblue" points="591.771,-106.272 583.16,-112.444 593.74,-112.989 591.771,-106.272"/>
</g>
</g>
</svg>
