<?xml version="1.0" encoding="UTF-8" standalone="no"?>
<!DOCTYPE svg PUBLIC "-//W3C//DTD SVG 1.1//EN"
 "http://www.w3.org/Graphics/SVG/1.1/DTD/svg11.dtd">
<!-- Generated by graphviz version 2.38.0 (20140413.2041)
 -->
<!-- Title: SLIPStream.hpp Pages: 1 -->
<svg width="203pt" height="84pt"
 viewBox="0.00 0.00 203.00 84.00" xmlns="http://www.w3.org/2000/svg" xmlns:xlink="http://www.w3.org/1999/xlink">
<g id="graph0" class="graph" transform="scale(1 1) rotate(0) translate(4 80)">
<title>SLIPStream.hpp</title>
<polygon fill="white" stroke="none" points="-4,4 -4,-80 199,-80 199,4 -4,4"/>
<!-- Node1 -->
<g id="node1" class="node"><title>Node1</title>
<g id="a_node1"><a xlink:title=" ">
<polygon fill="#bfbfbf" stroke="black" points="106,-56.5 106,-75.5 195,-75.5 195,-56.5 106,-56.5"/>
<text text-anchor="middle" x="150.5" y="-63.5" font-family="Helvetica,sans-Serif" font-size="10.00">SLIPStream.hpp</text>
</a>
</g>
</g>
<!-- Node2 -->
<g id="node2" class="node"><title>Node2</title>
<g id="a_node2"><a xlink:href="../../d9/df2/SLIPStream_8cpp.html" target="_top" xlink:title=" ">
<polygon fill="white" stroke="black" points="0,-0.5 0,-19.5 89,-19.5 89,-0.5 0,-0.5"/>
<text text-anchor="middle" x="44.5" y="-7.5" font-family="Helvetica,sans-Serif" font-size="10.00">SLIPStream.cpp</text>
</a>
</g>
</g>
<!-- Node1&#45;&gt;Node2 -->
<g id="edge1" class="edge"><title>Node1&#45;&gt;Node2</title>
<path fill="none" stroke="midnightblue" d="M124.444,-51.7261C104.816,-41.7271 78.472,-28.3065 61.4885,-19.6545"/>
<polygon fill="midnightblue" stroke="midnightblue" points="122.97,-54.9033 133.469,-56.324 126.148,-48.666 122.97,-54.9033"/>
</g>
<!-- Node3 -->
<g id="node3" class="node"><title>Node3</title>
<g id="a_node3"><a xlink:href="../../d3/d61/SLIPStream_8ipp.html" target="_top" xlink:title=" ">
<polygon fill="white" stroke="black" points="107.5,-0.5 107.5,-19.5 193.5,-19.5 193.5,-0.5 107.5,-0.5"/>
<text text-anchor="middle" x="150.5" y="-7.5" font-family="Helvetica,sans-Serif" font-size="10.00">SLIPStream.ipp</text>
</a>
</g>
</g>
<!-- Node1&#45;&gt;Node3 -->
<g id="edge2" class="edge"><title>Node1&#45;&gt;Node3</title>
<path fill="none" stroke="midnightblue" d="M144.028,-46.1005C143.396,-37.1357 143.843,-26.8579 145.369,-19.7511"/>
<polygon fill="midnightblue" stroke="midnightblue" points="140.566,-46.6216 145.334,-56.083 147.507,-45.7134 140.566,-46.6216"/>
</g>
<!-- Node3&#45;&gt;Node1 -->
<g id="edge3" class="edge"><title>Node3&#45;&gt;Node1</title>
<path fill="none" stroke="midnightblue" d="M156.958,-29.6911C157.606,-38.6353 157.176,-48.9272 155.666,-56.083"/>
<polygon fill="midnightblue" stroke="midnightblue" points="160.423,-29.2002 155.631,-19.7511 153.485,-30.1262 160.423,-29.2002"/>
</g>
</g>
</svg>
