<?xml version="1.0" encoding="UTF-8" standalone="no"?>
<!DOCTYPE svg PUBLIC "-//W3C//DTD SVG 1.1//EN"
 "http://www.w3.org/Graphics/SVG/1.1/DTD/svg11.dtd">
<!-- Generated by graphviz version 2.38.0 (20140413.2041)
 -->
<!-- Title: KV_Iterator.hpp Pages: 1 -->
<svg width="1076pt" height="151pt"
 viewBox="0.00 0.00 1076.00 151.00" xmlns="http://www.w3.org/2000/svg" xmlns:xlink="http://www.w3.org/1999/xlink">
<g id="graph0" class="graph" transform="scale(1 1) rotate(0) translate(4 147)">
<title>KV_Iterator.hpp</title>
<polygon fill="white" stroke="none" points="-4,4 -4,-147 1072,-147 1072,4 -4,4"/>
<!-- Node1 -->
<g id="node1" class="node"><title>Node1</title>
<g id="a_node1"><a xlink:title="Iterating over a dictionary generated by the KV_Builder, used for parsing and for checking if a key i...">
<polygon fill="#bfbfbf" stroke="black" points="597.5,-123.5 597.5,-142.5 682.5,-142.5 682.5,-123.5 597.5,-123.5"/>
<text text-anchor="middle" x="640" y="-130.5" font-family="Helvetica,sans-Serif" font-size="10.00">KV_Iterator.hpp</text>
</a>
</g>
</g>
<!-- Node2 -->
<g id="node2" class="node"><title>Node2</title>
<g id="a_node2"><a xlink:href="../../d5/dbd/KV__Error_8hpp.html" target="_top" xlink:title=" ">
<polygon fill="white" stroke="black" points="30.5,-56.5 30.5,-86.5 169.5,-86.5 169.5,-56.5 30.5,-56.5"/>
<text text-anchor="start" x="38.5" y="-74.5" font-family="Helvetica,sans-Serif" font-size="10.00">KVComm/include/KVComm</text>
<text text-anchor="middle" x="100" y="-63.5" font-family="Helvetica,sans-Serif" font-size="10.00">/KV_Error.hpp</text>
</a>
</g>
</g>
<!-- Node1&#45;&gt;Node2 -->
<g id="edge1" class="edge"><title>Node1&#45;&gt;Node2</title>
<path fill="none" stroke="midnightblue" d="M597.495,-129.099C517.583,-123.375 339.312,-109.336 179.692,-87.1682"/>
<polygon fill="midnightblue" stroke="midnightblue" points="180.081,-83.6886 169.692,-85.7651 179.109,-90.6207 180.081,-83.6886"/>
</g>
<!-- Node6 -->
<g id="node6" class="node"><title>Node6</title>
<g id="a_node6"><a xlink:href="../../dd/d0f/KV__Helpers_8hpp.html" target="_top" xlink:title="Helpers for address manipulation used to layout dictionary entries in memory.">
<polygon fill="white" stroke="black" points="187.5,-56.5 187.5,-86.5 326.5,-86.5 326.5,-56.5 187.5,-56.5"/>
<text text-anchor="start" x="195.5" y="-74.5" font-family="Helvetica,sans-Serif" font-size="10.00">KVComm/include/KVComm</text>
<text text-anchor="middle" x="257" y="-63.5" font-family="Helvetica,sans-Serif" font-size="10.00">/KV_Helpers.hpp</text>
</a>
</g>
</g>
<!-- Node1&#45;&gt;Node6 -->
<g id="edge5" class="edge"><title>Node1&#45;&gt;Node6</title>
<path fill="none" stroke="midnightblue" d="M597.488,-126.238C540.438,-118.394 435.7,-103.599 336.877,-87.2802"/>
<polygon fill="midnightblue" stroke="midnightblue" points="337.157,-83.7788 326.718,-85.5937 336.01,-90.6843 337.157,-83.7788"/>
</g>
<!-- Node8 -->
<g id="node8" class="node"><title>Node8</title>
<g id="a_node8"><a xlink:href="../../d6/da2/KV__Types_8hpp.html" target="_top" xlink:title="KV_Type type definitions for fundamental types (int::_t, uint::_t, float, double, bool,...">
<polygon fill="white" stroke="black" points="344.5,-56.5 344.5,-86.5 483.5,-86.5 483.5,-56.5 344.5,-56.5"/>
<text text-anchor="start" x="352.5" y="-74.5" font-family="Helvetica,sans-Serif" font-size="10.00">KVComm/include/KVComm</text>
<text text-anchor="middle" x="414" y="-63.5" font-family="Helvetica,sans-Serif" font-size="10.00">/KV_Types.hpp</text>
</a>
</g>
</g>
<!-- Node1&#45;&gt;Node8 -->
<g id="edge7" class="edge"><title>Node1&#45;&gt;Node8</title>
<path fill="none" stroke="midnightblue" d="M607.62,-123.475C573.65,-114.532 519.398,-100.249 476.953,-89.0738"/>
<polygon fill="midnightblue" stroke="midnightblue" points="477.825,-85.6844 467.264,-86.523 476.043,-92.4537 477.825,-85.6844"/>
</g>
<!-- Node11 -->
<g id="node11" class="node"><title>Node11</title>
<g id="a_node11"><a xlink:title=" ">
<polygon fill="white" stroke="#bfbfbf" points="501.5,-62 501.5,-81 578.5,-81 578.5,-62 501.5,-62"/>
<text text-anchor="middle" x="540" y="-69" font-family="Helvetica,sans-Serif" font-size="10.00">AH/STL/array</text>
</a>
</g>
</g>
<!-- Node1&#45;&gt;Node11 -->
<g id="edge10" class="edge"><title>Node1&#45;&gt;Node11</title>
<path fill="none" stroke="midnightblue" d="M625.672,-123.475C609.336,-113.755 582.398,-97.7266 563.088,-86.2372"/>
<polygon fill="midnightblue" stroke="midnightblue" points="564.685,-83.1146 554.301,-81.0091 561.105,-89.1303 564.685,-83.1146"/>
</g>
<!-- Node12 -->
<g id="node12" class="node"><title>Node12</title>
<g id="a_node12"><a xlink:title=" ">
<polygon fill="white" stroke="#bfbfbf" points="596.5,-62 596.5,-81 683.5,-81 683.5,-62 596.5,-62"/>
<text text-anchor="middle" x="640" y="-69" font-family="Helvetica,sans-Serif" font-size="10.00">AH/STL/cstddef</text>
</a>
</g>
</g>
<!-- Node1&#45;&gt;Node12 -->
<g id="edge11" class="edge"><title>Node1&#45;&gt;Node12</title>
<path fill="none" stroke="midnightblue" d="M640,-123.475C640,-115.08 640,-101.981 640,-91.1631"/>
<polygon fill="midnightblue" stroke="midnightblue" points="643.5,-91.0091 640,-81.0091 636.5,-91.0091 643.5,-91.0091"/>
</g>
<!-- Node13 -->
<g id="node13" class="node"><title>Node13</title>
<g id="a_node13"><a xlink:title=" ">
<polygon fill="white" stroke="#bfbfbf" points="702,-62 702,-81 786,-81 786,-62 702,-62"/>
<text text-anchor="middle" x="744" y="-69" font-family="Helvetica,sans-Serif" font-size="10.00">AH/STL/cstdint</text>
</a>
</g>
</g>
<!-- Node1&#45;&gt;Node13 -->
<g id="edge12" class="edge"><title>Node1&#45;&gt;Node13</title>
<path fill="none" stroke="midnightblue" d="M654.901,-123.475C671.968,-113.711 700.161,-97.5807 720.262,-86.0808"/>
<polygon fill="midnightblue" stroke="midnightblue" points="722.185,-89.013 729.127,-81.0091 718.709,-82.9371 722.185,-89.013"/>
</g>
<!-- Node14 -->
<g id="node14" class="node"><title>Node14</title>
<g id="a_node14"><a xlink:title=" ">
<polygon fill="white" stroke="#bfbfbf" points="804.5,-62 804.5,-81 889.5,-81 889.5,-62 804.5,-62"/>
<text text-anchor="middle" x="847" y="-69" font-family="Helvetica,sans-Serif" font-size="10.00">AH/STL/iterator</text>
</a>
</g>
</g>
<!-- Node1&#45;&gt;Node14 -->
<g id="edge13" class="edge"><title>Node1&#45;&gt;Node14</title>
<path fill="none" stroke="midnightblue" d="M669.658,-123.475C705.934,-113.048 767.464,-95.3618 807.664,-83.8066"/>
<polygon fill="midnightblue" stroke="midnightblue" points="808.753,-87.1355 817.397,-81.0091 806.819,-80.4079 808.753,-87.1355"/>
</g>
<!-- Node15 -->
<g id="node15" class="node"><title>Node15</title>
<g id="a_node15"><a xlink:title=" ">
<polygon fill="white" stroke="#bfbfbf" points="908,-62 908,-81 990,-81 990,-62 908,-62"/>
<text text-anchor="middle" x="949" y="-69" font-family="Helvetica,sans-Serif" font-size="10.00">AH/STL/vector</text>
</a>
</g>
</g>
<!-- Node1&#45;&gt;Node15 -->
<g id="edge14" class="edge"><title>Node1&#45;&gt;Node15</title>
<path fill="none" stroke="midnightblue" d="M682.912,-126.026C734.523,-118.5 823.629,-104.421 899,-87 903.161,-86.0383 907.489,-84.9376 911.781,-83.7821"/>
<polygon fill="midnightblue" stroke="midnightblue" points="912.947,-87.0903 921.635,-81.0257 911.061,-80.3491 912.947,-87.0903"/>
</g>
<!-- Node16 -->
<g id="node16" class="node"><title>Node16</title>
<g id="a_node16"><a xlink:title=" ">
<polygon fill="white" stroke="#bfbfbf" points="1008,-62 1008,-81 1068,-81 1068,-62 1008,-62"/>
<text text-anchor="middle" x="1038" y="-69" font-family="Helvetica,sans-Serif" font-size="10.00">WString.h</text>
</a>
</g>
</g>
<!-- Node1&#45;&gt;Node16 -->
<g id="edge15" class="edge"><title>Node1&#45;&gt;Node16</title>
<path fill="none" stroke="midnightblue" d="M682.58,-129.852C750.396,-125.721 886.744,-114.51 999,-87 1001.99,-86.2671 1005.07,-85.3763 1008.12,-84.4004"/>
<polygon fill="midnightblue" stroke="midnightblue" points="1009.34,-87.6795 1017.63,-81.083 1007.04,-81.0695 1009.34,-87.6795"/>
</g>
<!-- Node3 -->
<g id="node3" class="node"><title>Node3</title>
<g id="a_node3"><a xlink:title=" ">
<polygon fill="white" stroke="#bfbfbf" points="0,-0.5 0,-19.5 52,-19.5 52,-0.5 0,-0.5"/>
<text text-anchor="middle" x="26" y="-7.5" font-family="Helvetica,sans-Serif" font-size="10.00">sstream</text>
</a>
</g>
</g>
<!-- Node2&#45;&gt;Node3 -->
<g id="edge2" class="edge"><title>Node2&#45;&gt;Node3</title>
<path fill="none" stroke="midnightblue" d="M82.463,-56.3993C71.1557,-47.3076 56.4581,-35.4899 44.8929,-26.1909"/>
<polygon fill="midnightblue" stroke="midnightblue" points="46.7541,-23.1964 36.7677,-19.6578 42.3677,-28.6517 46.7541,-23.1964"/>
</g>
<!-- Node4 -->
<g id="node4" class="node"><title>Node4</title>
<g id="a_node4"><a xlink:title=" ">
<polygon fill="white" stroke="#bfbfbf" points="70.5,-0.5 70.5,-19.5 129.5,-19.5 129.5,-0.5 70.5,-0.5"/>
<text text-anchor="middle" x="100" y="-7.5" font-family="Helvetica,sans-Serif" font-size="10.00">stdexcept</text>
</a>
</g>
</g>
<!-- Node2&#45;&gt;Node4 -->
<g id="edge3" class="edge"><title>Node2&#45;&gt;Node4</title>
<path fill="none" stroke="midnightblue" d="M100,-56.3993C100,-48.4664 100,-38.458 100,-29.8583"/>
<polygon fill="midnightblue" stroke="midnightblue" points="103.5,-29.6577 100,-19.6578 96.5001,-29.6578 103.5,-29.6577"/>
</g>
<!-- Node5 -->
<g id="node5" class="node"><title>Node5</title>
<g id="a_node5"><a xlink:title=" ">
<polygon fill="white" stroke="#bfbfbf" points="147.5,-0.5 147.5,-19.5 188.5,-19.5 188.5,-0.5 147.5,-0.5"/>
<text text-anchor="middle" x="168" y="-7.5" font-family="Helvetica,sans-Serif" font-size="10.00">string</text>
</a>
</g>
</g>
<!-- Node2&#45;&gt;Node5 -->
<g id="edge4" class="edge"><title>Node2&#45;&gt;Node5</title>
<path fill="none" stroke="midnightblue" d="M116.115,-56.3993C126.404,-47.3967 139.747,-35.7214 150.326,-26.4652"/>
<polygon fill="midnightblue" stroke="midnightblue" points="152.884,-28.8769 158.105,-19.6578 148.275,-23.6088 152.884,-28.8769"/>
</g>
<!-- Node7 -->
<g id="node7" class="node"><title>Node7</title>
<g id="a_node7"><a xlink:title=" ">
<polygon fill="white" stroke="#bfbfbf" points="231,-0.5 231,-19.5 283,-19.5 283,-0.5 231,-0.5"/>
<text text-anchor="middle" x="257" y="-7.5" font-family="Helvetica,sans-Serif" font-size="10.00">stddef.h</text>
</a>
</g>
</g>
<!-- Node6&#45;&gt;Node7 -->
<g id="edge6" class="edge"><title>Node6&#45;&gt;Node7</title>
<path fill="none" stroke="midnightblue" d="M257,-56.3993C257,-48.4664 257,-38.458 257,-29.8583"/>
<polygon fill="midnightblue" stroke="midnightblue" points="260.5,-29.6577 257,-19.6578 253.5,-29.6578 260.5,-29.6577"/>
</g>
<!-- Node9 -->
<g id="node9" class="node"><title>Node9</title>
<g id="a_node9"><a xlink:title=" ">
<polygon fill="white" stroke="#bfbfbf" points="355.5,-0.5 355.5,-19.5 404.5,-19.5 404.5,-0.5 355.5,-0.5"/>
<text text-anchor="middle" x="380" y="-7.5" font-family="Helvetica,sans-Serif" font-size="10.00">stdint.h</text>
</a>
</g>
</g>
<!-- Node8&#45;&gt;Node9 -->
<g id="edge8" class="edge"><title>Node8&#45;&gt;Node9</title>
<path fill="none" stroke="midnightblue" d="M405.942,-56.3993C401.155,-48.0207 395.044,-37.3269 389.956,-28.4229"/>
<polygon fill="midnightblue" stroke="midnightblue" points="392.948,-26.6037 384.947,-19.6578 386.87,-30.0767 392.948,-26.6037"/>
</g>
<!-- Node10 -->
<g id="node10" class="node"><title>Node10</title>
<g id="a_node10"><a xlink:title=" ">
<polygon fill="white" stroke="#bfbfbf" points="422.5,-0.5 422.5,-19.5 471.5,-19.5 471.5,-0.5 422.5,-0.5"/>
<text text-anchor="middle" x="447" y="-7.5" font-family="Helvetica,sans-Serif" font-size="10.00">string.h</text>
</a>
</g>
</g>
<!-- Node8&#45;&gt;Node10 -->
<g id="edge9" class="edge"><title>Node8&#45;&gt;Node10</title>
<path fill="none" stroke="midnightblue" d="M421.821,-56.3993C426.468,-48.0207 432.399,-37.3269 437.337,-28.4229"/>
<polygon fill="midnightblue" stroke="midnightblue" points="440.409,-30.1004 442.198,-19.6578 434.287,-26.7052 440.409,-30.1004"/>
</g>
</g>
</svg>
