<?xml version="1.0" encoding="UTF-8" standalone="no"?>
<!DOCTYPE svg PUBLIC "-//W3C//DTD SVG 1.1//EN"
 "http://www.w3.org/Graphics/SVG/1.1/DTD/svg11.dtd">
<!-- Generated by graphviz version 2.38.0 (20140413.2041)
 -->
<!-- Title: SLIPStream.hpp Pages: 1 -->
<svg width="955pt" height="252pt"
 viewBox="0.00 0.00 954.50 252.00" xmlns="http://www.w3.org/2000/svg" xmlns:xlink="http://www.w3.org/1999/xlink">
<g id="graph0" class="graph" transform="scale(1 1) rotate(0) translate(4 248)">
<title>SLIPStream.hpp</title>
<polygon fill="white" stroke="none" points="-4,4 -4,-248 950.5,-248 950.5,4 -4,4"/>
<!-- Node1 -->
<g id="node1" class="node"><title>Node1</title>
<g id="a_node1"><a xlink:title=" ">
<polygon fill="#bfbfbf" stroke="black" points="550,-224.5 550,-243.5 639,-243.5 639,-224.5 550,-224.5"/>
<text text-anchor="middle" x="594.5" y="-231.5" font-family="Helvetica,sans-Serif" font-size="10.00">SLIPStream.hpp</text>
</a>
</g>
</g>
<!-- Node2 -->
<g id="node2" class="node"><title>Node2</title>
<g id="a_node2"><a xlink:href="../../df/dfe/SLIPParser_8hpp.html" target="_top" xlink:title=" ">
<polygon fill="white" stroke="black" points="216.5,-112.5 216.5,-131.5 358.5,-131.5 358.5,-112.5 216.5,-112.5"/>
<text text-anchor="middle" x="287.5" y="-119.5" font-family="Helvetica,sans-Serif" font-size="10.00">SLIPStream/SLIPParser.hpp</text>
</a>
</g>
</g>
<!-- Node1&#45;&gt;Node2 -->
<g id="edge1" class="edge"><title>Node1&#45;&gt;Node2</title>
<path fill="none" stroke="midnightblue" d="M570.666,-224.46C516.484,-205.047 383.929,-157.551 321.313,-135.115"/>
<polygon fill="midnightblue" stroke="midnightblue" points="322.125,-131.689 311.531,-131.61 319.764,-138.278 322.125,-131.689"/>
</g>
<!-- Node10 -->
<g id="node10" class="node"><title>Node10</title>
<g id="a_node10"><a xlink:href="../../d5/ddb/SLIPSender_8hpp.html" target="_top" xlink:title=" ">
<polygon fill="white" stroke="black" points="522.5,-112.5 522.5,-131.5 666.5,-131.5 666.5,-112.5 522.5,-112.5"/>
<text text-anchor="middle" x="594.5" y="-119.5" font-family="Helvetica,sans-Serif" font-size="10.00">SLIPStream/SLIPSender.hpp</text>
</a>
</g>
</g>
<!-- Node1&#45;&gt;Node10 -->
<g id="edge10" class="edge"><title>Node1&#45;&gt;Node10</title>
<path fill="none" stroke="midnightblue" d="M578.717,-224.467C566.297,-216.769 549.895,-204.179 542.5,-188 533.598,-168.525 552.422,-149.819 569.858,-137.516"/>
<polygon fill="midnightblue" stroke="midnightblue" points="572.268,-140.119 578.695,-131.695 568.418,-134.273 572.268,-140.119"/>
</g>
<!-- Node15 -->
<g id="node15" class="node"><title>Node15</title>
<g id="a_node15"><a xlink:title=" ">
<polygon fill="white" stroke="#bfbfbf" points="655.5,-168.5 655.5,-187.5 711.5,-187.5 711.5,-168.5 655.5,-168.5"/>
<text text-anchor="middle" x="683.5" y="-175.5" font-family="Helvetica,sans-Serif" font-size="10.00">Stream.h</text>
</a>
</g>
</g>
<!-- Node1&#45;&gt;Node15 -->
<g id="edge20" class="edge"><title>Node1&#45;&gt;Node15</title>
<path fill="none" stroke="midnightblue" d="M608.799,-224.324C622.683,-215.9 643.992,-202.971 660.304,-193.074"/>
<polygon fill="midnightblue" stroke="midnightblue" points="662.502,-195.834 669.236,-187.655 658.871,-189.85 662.502,-195.834"/>
</g>
<!-- Node16 -->
<g id="node16" class="node"><title>Node16</title>
<g id="a_node16"><a xlink:href="../../d3/d61/SLIPStream_8ipp.html" target="_top" xlink:title=" ">
<polygon fill="white" stroke="black" points="551.5,-168.5 551.5,-187.5 637.5,-187.5 637.5,-168.5 551.5,-168.5"/>
<text text-anchor="middle" x="594.5" y="-175.5" font-family="Helvetica,sans-Serif" font-size="10.00">SLIPStream.ipp</text>
</a>
</g>
</g>
<!-- Node1&#45;&gt;Node16 -->
<g id="edge21" class="edge"><title>Node1&#45;&gt;Node16</title>
<path fill="none" stroke="midnightblue" d="M589.334,-224.083C587.824,-216.927 587.394,-206.635 588.042,-197.691"/>
<polygon fill="midnightblue" stroke="midnightblue" points="591.515,-198.126 589.369,-187.751 584.577,-197.2 591.515,-198.126"/>
</g>
<!-- Node3 -->
<g id="node3" class="node"><title>Node3</title>
<g id="a_node3"><a xlink:title=" ">
<polygon fill="white" stroke="#bfbfbf" points="0,-56.5 0,-75.5 87,-75.5 87,-56.5 0,-56.5"/>
<text text-anchor="middle" x="43.5" y="-63.5" font-family="Helvetica,sans-Serif" font-size="10.00">AH/STL/cstddef</text>
</a>
</g>
</g>
<!-- Node2&#45;&gt;Node3 -->
<g id="edge2" class="edge"><title>Node2&#45;&gt;Node3</title>
<path fill="none" stroke="midnightblue" d="M248.837,-112.444C206.362,-103.043 138.069,-87.9291 92.0258,-77.7393"/>
<polygon fill="midnightblue" stroke="midnightblue" points="92.5017,-74.26 81.9816,-75.5164 90.9891,-81.0946 92.5017,-74.26"/>
</g>
<!-- Node4 -->
<g id="node4" class="node"><title>Node4</title>
<g id="a_node4"><a xlink:title=" ">
<polygon fill="white" stroke="#bfbfbf" points="206.5,-56.5 206.5,-75.5 284.5,-75.5 284.5,-56.5 206.5,-56.5"/>
<text text-anchor="middle" x="245.5" y="-63.5" font-family="Helvetica,sans-Serif" font-size="10.00">AH/STL/utility</text>
</a>
</g>
</g>
<!-- Node2&#45;&gt;Node4 -->
<g id="edge3" class="edge"><title>Node2&#45;&gt;Node4</title>
<path fill="none" stroke="midnightblue" d="M280.565,-112.083C274.571,-104.377 265.748,-93.0333 258.452,-83.6531"/>
<polygon fill="midnightblue" stroke="midnightblue" points="261.209,-81.4958 252.306,-75.7511 255.683,-85.7934 261.209,-81.4958"/>
</g>
<!-- Node5 -->
<g id="node5" class="node"><title>Node5</title>
<g id="a_node5"><a xlink:title=" ">
<polygon fill="white" stroke="#bfbfbf" points="302.5,-56.5 302.5,-75.5 354.5,-75.5 354.5,-56.5 302.5,-56.5"/>
<text text-anchor="middle" x="328.5" y="-63.5" font-family="Helvetica,sans-Serif" font-size="10.00">stddef.h</text>
</a>
</g>
</g>
<!-- Node2&#45;&gt;Node5 -->
<g id="edge4" class="edge"><title>Node2&#45;&gt;Node5</title>
<path fill="none" stroke="midnightblue" d="M294.27,-112.083C300.062,-104.455 308.558,-93.2645 315.638,-83.9408"/>
<polygon fill="midnightblue" stroke="midnightblue" points="318.596,-85.8321 321.856,-75.7511 313.021,-81.5991 318.596,-85.8321"/>
</g>
<!-- Node6 -->
<g id="node6" class="node"><title>Node6</title>
<g id="a_node6"><a xlink:href="../../d6/d9e/SLIP_8hpp.html" target="_top" xlink:title=" ">
<polygon fill="white" stroke="black" points="373,-56.5 373,-75.5 486,-75.5 486,-56.5 373,-56.5"/>
<text text-anchor="middle" x="429.5" y="-63.5" font-family="Helvetica,sans-Serif" font-size="10.00">SLIPStream/SLIP.hpp</text>
</a>
</g>
</g>
<!-- Node2&#45;&gt;Node6 -->
<g id="edge5" class="edge"><title>Node2&#45;&gt;Node6</title>
<path fill="none" stroke="midnightblue" d="M310,-112.444C333.577,-103.478 370.822,-89.314 397.464,-79.1827"/>
<polygon fill="midnightblue" stroke="midnightblue" points="399.002,-82.3424 407.105,-75.5164 396.514,-75.7995 399.002,-82.3424"/>
</g>
<!-- Node8 -->
<g id="node8" class="node"><title>Node8</title>
<g id="a_node8"><a xlink:title=" ">
<polygon fill="white" stroke="#bfbfbf" points="504.5,-56.5 504.5,-75.5 596.5,-75.5 596.5,-56.5 504.5,-56.5"/>
<text text-anchor="middle" x="550.5" y="-63.5" font-family="Helvetica,sans-Serif" font-size="10.00">boost/integer.hpp</text>
</a>
</g>
</g>
<!-- Node2&#45;&gt;Node8 -->
<g id="edge7" class="edge"><title>Node2&#45;&gt;Node8</title>
<path fill="none" stroke="midnightblue" d="M329.173,-112.444C375.245,-102.984 449.496,-87.7384 499.131,-77.5472"/>
<polygon fill="midnightblue" stroke="midnightblue" points="499.93,-80.9563 509.022,-75.5164 498.522,-74.0993 499.93,-80.9563"/>
</g>
<!-- Node9 -->
<g id="node9" class="node"><title>Node9</title>
<g id="a_node9"><a xlink:href="../../d3/d0e/SLIPParser_8ipp.html" target="_top" xlink:title=" ">
<polygon fill="white" stroke="black" points="105,-56.5 105,-75.5 188,-75.5 188,-56.5 105,-56.5"/>
<text text-anchor="middle" x="146.5" y="-63.5" font-family="Helvetica,sans-Serif" font-size="10.00">SLIPParser.ipp</text>
</a>
</g>
</g>
<!-- Node2&#45;&gt;Node9 -->
<g id="edge8" class="edge"><title>Node2&#45;&gt;Node9</title>
<path fill="none" stroke="midnightblue" d="M260.069,-112.444C234.915,-103.557 198.143,-89.5632 173.222,-79.4514"/>
<polygon fill="midnightblue" stroke="midnightblue" points="174.237,-76.0844 163.657,-75.5164 171.574,-82.558 174.237,-76.0844"/>
</g>
<!-- Node7 -->
<g id="node7" class="node"><title>Node7</title>
<g id="a_node7"><a xlink:title=" ">
<polygon fill="white" stroke="#bfbfbf" points="405,-0.5 405,-19.5 454,-19.5 454,-0.5 405,-0.5"/>
<text text-anchor="middle" x="429.5" y="-7.5" font-family="Helvetica,sans-Serif" font-size="10.00">stdint.h</text>
</a>
</g>
</g>
<!-- Node6&#45;&gt;Node7 -->
<g id="edge6" class="edge"><title>Node6&#45;&gt;Node7</title>
<path fill="none" stroke="midnightblue" d="M429.5,-56.083C429.5,-49.0059 429.5,-38.8611 429.5,-29.9865"/>
<polygon fill="midnightblue" stroke="midnightblue" points="433,-29.751 429.5,-19.7511 426,-29.7511 433,-29.751"/>
</g>
<!-- Node9&#45;&gt;Node2 -->
<g id="edge9" class="edge"><title>Node9&#45;&gt;Node2</title>
<path fill="none" stroke="midnightblue" d="M173.817,-75.5164C199.048,-84.4274 236.036,-98.504 260.998,-108.638"/>
<polygon fill="midnightblue" stroke="midnightblue" points="259.667,-111.875 270.247,-112.444 262.331,-105.402 259.667,-111.875"/>
</g>
<!-- Node10&#45;&gt;Node4 -->
<g id="edge12" class="edge"><title>Node10&#45;&gt;Node4</title>
<path fill="none" stroke="midnightblue" d="M532.999,-112.484C474.293,-104.201 383.098,-90.9342 294.466,-76.1125"/>
<polygon fill="midnightblue" stroke="midnightblue" points="294.953,-72.6454 284.511,-74.4393 293.793,-79.5485 294.953,-72.6454"/>
</g>
<!-- Node10&#45;&gt;Node5 -->
<g id="edge14" class="edge"><title>Node10&#45;&gt;Node5</title>
<path fill="none" stroke="midnightblue" d="M546.101,-112.435C501.438,-104.337 433.055,-91.4507 364.886,-76.2144"/>
<polygon fill="midnightblue" stroke="midnightblue" points="365.357,-72.7329 354.833,-73.9496 363.819,-79.5618 365.357,-72.7329"/>
</g>
<!-- Node10&#45;&gt;Node6 -->
<g id="edge17" class="edge"><title>Node10&#45;&gt;Node6</title>
<path fill="none" stroke="midnightblue" d="M568.355,-112.444C540.477,-103.32 496.152,-88.8133 465.1,-78.6509"/>
<polygon fill="midnightblue" stroke="midnightblue" points="466.115,-75.3005 455.522,-75.5164 463.938,-81.9533 466.115,-75.3005"/>
</g>
<!-- Node10&#45;&gt;Node8 -->
<g id="edge16" class="edge"><title>Node10&#45;&gt;Node8</title>
<path fill="none" stroke="midnightblue" d="M587.234,-112.083C580.955,-104.377 571.712,-93.0333 564.069,-83.6531"/>
<polygon fill="midnightblue" stroke="midnightblue" points="566.661,-81.2926 557.631,-75.7511 561.234,-85.7143 566.661,-81.2926"/>
</g>
<!-- Node11 -->
<g id="node11" class="node"><title>Node11</title>
<g id="a_node11"><a xlink:title=" ">
<polygon fill="white" stroke="#bfbfbf" points="785,-56.5 785,-75.5 880,-75.5 880,-56.5 785,-56.5"/>
<text text-anchor="middle" x="832.5" y="-63.5" font-family="Helvetica,sans-Serif" font-size="10.00">AH/STL/algorithm</text>
</a>
</g>
</g>
<!-- Node10&#45;&gt;Node11 -->
<g id="edge11" class="edge"><title>Node10&#45;&gt;Node11</title>
<path fill="none" stroke="midnightblue" d="M632.212,-112.444C673.643,-103.043 740.257,-87.9291 785.167,-77.7393"/>
<polygon fill="midnightblue" stroke="midnightblue" points="785.987,-81.1424 794.965,-75.5164 784.438,-74.3159 785.987,-81.1424"/>
</g>
<!-- Node12 -->
<g id="node12" class="node"><title>Node12</title>
<g id="a_node12"><a xlink:title=" ">
<polygon fill="white" stroke="#bfbfbf" points="898.5,-56.5 898.5,-75.5 946.5,-75.5 946.5,-56.5 898.5,-56.5"/>
<text text-anchor="middle" x="922.5" y="-63.5" font-family="Helvetica,sans-Serif" font-size="10.00">limits.h</text>
</a>
</g>
</g>
<!-- Node10&#45;&gt;Node12 -->
<g id="edge13" class="edge"><title>Node10&#45;&gt;Node12</title>
<path fill="none" stroke="midnightblue" d="M665.545,-112.491C723.213,-105.05 806.767,-93.0647 888.474,-76.0131"/>
<polygon fill="midnightblue" stroke="midnightblue" points="889.368,-79.4016 898.427,-73.9085 887.92,-72.553 889.368,-79.4016"/>
</g>
<!-- Node13 -->
<g id="node13" class="node"><title>Node13</title>
<g id="a_node13"><a xlink:title=" ">
<polygon fill="white" stroke="#bfbfbf" points="615,-56.5 615,-75.5 664,-75.5 664,-56.5 615,-56.5"/>
<text text-anchor="middle" x="639.5" y="-63.5" font-family="Helvetica,sans-Serif" font-size="10.00">string.h</text>
</a>
</g>
</g>
<!-- Node10&#45;&gt;Node13 -->
<g id="edge15" class="edge"><title>Node10&#45;&gt;Node13</title>
<path fill="none" stroke="midnightblue" d="M601.931,-112.083C608.353,-104.377 617.806,-93.0333 625.622,-83.6531"/>
<polygon fill="midnightblue" stroke="midnightblue" points="628.494,-85.674 632.207,-75.7511 623.117,-81.1927 628.494,-85.674"/>
</g>
<!-- Node14 -->
<g id="node14" class="node"><title>Node14</title>
<g id="a_node14"><a xlink:href="../../d7/d88/SLIPSender_8ipp.html" target="_top" xlink:title=" ">
<polygon fill="white" stroke="black" points="682,-56.5 682,-75.5 767,-75.5 767,-56.5 682,-56.5"/>
<text text-anchor="middle" x="724.5" y="-63.5" font-family="Helvetica,sans-Serif" font-size="10.00">SLIPSender.ipp</text>
</a>
</g>
</g>
<!-- Node10&#45;&gt;Node14 -->
<g id="edge18" class="edge"><title>Node10&#45;&gt;Node14</title>
<path fill="none" stroke="midnightblue" d="M610.01,-112.444C629.628,-103.478 663.505,-89.314 689.421,-79.1827"/>
<polygon fill="midnightblue" stroke="midnightblue" points="690.849,-82.3832 698.918,-75.5164 688.328,-75.853 690.849,-82.3832"/>
</g>
<!-- Node14&#45;&gt;Node10 -->
<g id="edge19" class="edge"><title>Node14&#45;&gt;Node10</title>
<path fill="none" stroke="midnightblue" d="M709.077,-75.5164C689.502,-84.4669 655.634,-98.6287 629.695,-108.772"/>
<polygon fill="midnightblue" stroke="midnightblue" points="628.255,-105.576 620.188,-112.444 630.777,-112.106 628.255,-105.576"/>
</g>
<!-- Node16&#45;&gt;Node1 -->
<g id="edge22" class="edge"><title>Node16&#45;&gt;Node1</title>
<path fill="none" stroke="midnightblue" d="M599.631,-187.751C601.157,-194.858 601.604,-205.136 600.972,-214.101"/>
<polygon fill="midnightblue" stroke="midnightblue" points="597.493,-213.713 599.666,-224.083 604.434,-214.622 597.493,-213.713"/>
</g>
<!-- Node16&#45;&gt;Node10 -->
<g id="edge23" class="edge"><title>Node16&#45;&gt;Node10</title>
<path fill="none" stroke="midnightblue" d="M594.5,-168.083C594.5,-161.006 594.5,-150.861 594.5,-141.986"/>
<polygon fill="midnightblue" stroke="midnightblue" points="598,-141.751 594.5,-131.751 591,-141.751 598,-141.751"/>
</g>
</g>
</svg>
