<?xml version="1.0" encoding="UTF-8" standalone="no"?>
<!DOCTYPE svg PUBLIC "-//W3C//DTD SVG 1.1//EN"
 "http://www.w3.org/Graphics/SVG/1.1/DTD/svg11.dtd">
<!-- Generated by graphviz version 2.38.0 (20140413.2041)
 -->
<!-- Title: SLIPSender.hpp Pages: 1 -->
<svg width="748pt" height="140pt"
 viewBox="0.00 0.00 748.00 140.00" xmlns="http://www.w3.org/2000/svg" xmlns:xlink="http://www.w3.org/1999/xlink">
<g id="graph0" class="graph" transform="scale(1 1) rotate(0) translate(4 136)">
<title>SLIPSender.hpp</title>
<polygon fill="white" stroke="none" points="-4,4 -4,-136 744,-136 744,4 -4,4"/>
<!-- Node1 -->
<g id="node1" class="node"><title>Node1</title>
<g id="a_node1"><a xlink:title=" ">
<polygon fill="#bfbfbf" stroke="black" points="326.5,-112.5 326.5,-131.5 414.5,-131.5 414.5,-112.5 326.5,-112.5"/>
<text text-anchor="middle" x="370.5" y="-119.5" font-family="Helvetica,sans-Serif" font-size="10.00">SLIPSender.hpp</text>
</a>
</g>
</g>
<!-- Node2 -->
<g id="node2" class="node"><title>Node2</title>
<g id="a_node2"><a xlink:title=" ">
<polygon fill="white" stroke="#bfbfbf" points="0,-56.5 0,-75.5 95,-75.5 95,-56.5 0,-56.5"/>
<text text-anchor="middle" x="47.5" y="-63.5" font-family="Helvetica,sans-Serif" font-size="10.00">AH/STL/algorithm</text>
</a>
</g>
</g>
<!-- Node1&#45;&gt;Node2 -->
<g id="edge1" class="edge"><title>Node1&#45;&gt;Node2</title>
<path fill="none" stroke="midnightblue" d="M326.265,-113.605C268.901,-104.014 168.71,-87.2642 105.359,-76.673"/>
<polygon fill="midnightblue" stroke="midnightblue" points="105.575,-73.1606 95.1347,-74.9637 104.421,-80.0648 105.575,-73.1606"/>
</g>
<!-- Node3 -->
<g id="node3" class="node"><title>Node3</title>
<g id="a_node3"><a xlink:title=" ">
<polygon fill="white" stroke="#bfbfbf" points="113.5,-56.5 113.5,-75.5 191.5,-75.5 191.5,-56.5 113.5,-56.5"/>
<text text-anchor="middle" x="152.5" y="-63.5" font-family="Helvetica,sans-Serif" font-size="10.00">AH/STL/utility</text>
</a>
</g>
</g>
<!-- Node1&#45;&gt;Node3 -->
<g id="edge2" class="edge"><title>Node1&#45;&gt;Node3</title>
<path fill="none" stroke="midnightblue" d="M335.957,-112.444C298.247,-103.102 237.76,-88.1194 196.635,-77.9326"/>
<polygon fill="midnightblue" stroke="midnightblue" points="197.429,-74.5236 186.881,-75.5164 195.746,-81.3182 197.429,-74.5236"/>
</g>
<!-- Node4 -->
<g id="node4" class="node"><title>Node4</title>
<g id="a_node4"><a xlink:title=" ">
<polygon fill="white" stroke="#bfbfbf" points="209.5,-56.5 209.5,-75.5 257.5,-75.5 257.5,-56.5 209.5,-56.5"/>
<text text-anchor="middle" x="233.5" y="-63.5" font-family="Helvetica,sans-Serif" font-size="10.00">limits.h</text>
</a>
</g>
</g>
<!-- Node1&#45;&gt;Node4 -->
<g id="edge3" class="edge"><title>Node1&#45;&gt;Node4</title>
<path fill="none" stroke="midnightblue" d="M348.792,-112.444C326.145,-103.517 290.428,-89.4387 264.748,-79.3168"/>
<polygon fill="midnightblue" stroke="midnightblue" points="265.693,-75.9273 255.106,-75.5164 263.126,-82.4397 265.693,-75.9273"/>
</g>
<!-- Node5 -->
<g id="node5" class="node"><title>Node5</title>
<g id="a_node5"><a xlink:title=" ">
<polygon fill="white" stroke="#bfbfbf" points="275.5,-56.5 275.5,-75.5 327.5,-75.5 327.5,-56.5 275.5,-56.5"/>
<text text-anchor="middle" x="301.5" y="-63.5" font-family="Helvetica,sans-Serif" font-size="10.00">stddef.h</text>
</a>
</g>
</g>
<!-- Node1&#45;&gt;Node5 -->
<g id="edge4" class="edge"><title>Node1&#45;&gt;Node5</title>
<path fill="none" stroke="midnightblue" d="M359.414,-112.324C349.014,-104.185 333.239,-91.8395 320.778,-82.0874"/>
<polygon fill="midnightblue" stroke="midnightblue" points="322.82,-79.2407 312.788,-75.8339 318.506,-84.7533 322.82,-79.2407"/>
</g>
<!-- Node6 -->
<g id="node6" class="node"><title>Node6</title>
<g id="a_node6"><a xlink:title=" ">
<polygon fill="white" stroke="#bfbfbf" points="346,-56.5 346,-75.5 395,-75.5 395,-56.5 346,-56.5"/>
<text text-anchor="middle" x="370.5" y="-63.5" font-family="Helvetica,sans-Serif" font-size="10.00">string.h</text>
</a>
</g>
</g>
<!-- Node1&#45;&gt;Node6 -->
<g id="edge5" class="edge"><title>Node1&#45;&gt;Node6</title>
<path fill="none" stroke="midnightblue" d="M370.5,-112.083C370.5,-105.006 370.5,-94.8611 370.5,-85.9865"/>
<polygon fill="midnightblue" stroke="midnightblue" points="374,-85.751 370.5,-75.7511 367,-85.7511 374,-85.751"/>
</g>
<!-- Node7 -->
<g id="node7" class="node"><title>Node7</title>
<g id="a_node7"><a xlink:title=" ">
<polygon fill="white" stroke="#bfbfbf" points="413.5,-56.5 413.5,-75.5 505.5,-75.5 505.5,-56.5 413.5,-56.5"/>
<text text-anchor="middle" x="459.5" y="-63.5" font-family="Helvetica,sans-Serif" font-size="10.00">boost/integer.hpp</text>
</a>
</g>
</g>
<!-- Node1&#45;&gt;Node7 -->
<g id="edge6" class="edge"><title>Node1&#45;&gt;Node7</title>
<path fill="none" stroke="midnightblue" d="M384.799,-112.324C398.683,-103.9 419.992,-90.9709 436.304,-81.0741"/>
<polygon fill="midnightblue" stroke="midnightblue" points="438.502,-83.8341 445.236,-75.6545 434.871,-77.8495 438.502,-83.8341"/>
</g>
<!-- Node8 -->
<g id="node8" class="node"><title>Node8</title>
<g id="a_node8"><a xlink:href="../../d6/d9e/SLIP_8hpp.html" target="_top" xlink:title=" ">
<polygon fill="white" stroke="black" points="524,-56.5 524,-75.5 637,-75.5 637,-56.5 524,-56.5"/>
<text text-anchor="middle" x="580.5" y="-63.5" font-family="Helvetica,sans-Serif" font-size="10.00">SLIPStream/SLIP.hpp</text>
</a>
</g>
</g>
<!-- Node1&#45;&gt;Node8 -->
<g id="edge7" class="edge"><title>Node1&#45;&gt;Node8</title>
<path fill="none" stroke="midnightblue" d="M403.775,-112.444C439.948,-103.142 497.877,-88.246 537.481,-78.062"/>
<polygon fill="midnightblue" stroke="midnightblue" points="538.567,-81.3966 547.381,-75.5164 536.824,-74.6172 538.567,-81.3966"/>
</g>
<!-- Node10 -->
<g id="node10" class="node"><title>Node10</title>
<g id="a_node10"><a xlink:href="../../d7/d88/SLIPSender_8ipp.html" target="_top" xlink:title=" ">
<polygon fill="white" stroke="black" points="655,-56.5 655,-75.5 740,-75.5 740,-56.5 655,-56.5"/>
<text text-anchor="middle" x="697.5" y="-63.5" font-family="Helvetica,sans-Serif" font-size="10.00">SLIPSender.ipp</text>
</a>
</g>
</g>
<!-- Node1&#45;&gt;Node10 -->
<g id="edge9" class="edge"><title>Node1&#45;&gt;Node10</title>
<path fill="none" stroke="midnightblue" d="M414.768,-112.905C467.809,-104.045 559.002,-89.325 637.5,-76 639.943,-75.5853 642.451,-75.1555 644.994,-74.7188"/>
<polygon fill="midnightblue" stroke="midnightblue" points="645.639,-78.1593 654.902,-73.0167 644.454,-71.2603 645.639,-78.1593"/>
</g>
<!-- Node9 -->
<g id="node9" class="node"><title>Node9</title>
<g id="a_node9"><a xlink:title=" ">
<polygon fill="white" stroke="#bfbfbf" points="556,-0.5 556,-19.5 605,-19.5 605,-0.5 556,-0.5"/>
<text text-anchor="middle" x="580.5" y="-7.5" font-family="Helvetica,sans-Serif" font-size="10.00">stdint.h</text>
</a>
</g>
</g>
<!-- Node8&#45;&gt;Node9 -->
<g id="edge8" class="edge"><title>Node8&#45;&gt;Node9</title>
<path fill="none" stroke="midnightblue" d="M580.5,-56.083C580.5,-49.0059 580.5,-38.8611 580.5,-29.9865"/>
<polygon fill="midnightblue" stroke="midnightblue" points="584,-29.751 580.5,-19.7511 577,-29.7511 584,-29.751"/>
</g>
<!-- Node10&#45;&gt;Node1 -->
<g id="edge10" class="edge"><title>Node10&#45;&gt;Node1</title>
<path fill="none" stroke="midnightblue" d="M658.182,-75.543C657.281,-75.6971 656.386,-75.8495 655.5,-76 575.578,-89.5667 482.497,-104.58 424.926,-113.381"/>
<polygon fill="midnightblue" stroke="midnightblue" points="424.311,-109.934 414.95,-114.897 425.363,-116.855 424.311,-109.934"/>
</g>
</g>
</svg>
