<?xml version="1.0" encoding="UTF-8" standalone="no"?>
<!DOCTYPE svg PUBLIC "-//W3C//DTD SVG 1.1//EN"
 "http://www.w3.org/Graphics/SVG/1.1/DTD/svg11.dtd">
<!-- Generated by graphviz version 2.38.0 (20140413.2041)
 -->
<!-- Title: SLIPStreamCRC&lt; CRC &gt; Pages: 1 -->
<svg width="238pt" height="590pt"
 viewBox="0.00 0.00 238.00 590.00" xmlns="http://www.w3.org/2000/svg" xmlns:xlink="http://www.w3.org/1999/xlink">
<g id="graph0" class="graph" transform="scale(1 1) rotate(0) translate(4 586)">
<title>SLIPStreamCRC&lt; CRC &gt;</title>
<polygon fill="white" stroke="none" points="-4,4 -4,-586 234,-586 234,4 -4,4"/>
<!-- Node1 -->
<g id="node1" class="node"><title>Node1</title>
<g id="a_node1"><a xlink:title="Class that implements SLIP, a simple packet framing protocol, and that uses cyclic redundancy checks ...">
<polygon fill="#bfbfbf" stroke="black" points="10.5,-0.5 10.5,-123.5 143.5,-123.5 143.5,-0.5 10.5,-0.5"/>
<text text-anchor="middle" x="77" y="-111.5" font-family="Helvetica,sans-Serif" font-size="10.00">SLIPStreamCRC&lt; CRC &gt;</text>
<polyline fill="none" stroke="black" points="10.5,-104.5 143.5,-104.5 "/>
<text text-anchor="start" x="18.5" y="-92.5" font-family="Helvetica,sans-Serif" font-size="10.00">&#45; stream</text>
<text text-anchor="start" x="18.5" y="-81.5" font-family="Helvetica,sans-Serif" font-size="10.00">&#45; parser</text>
<polyline fill="none" stroke="black" points="10.5,-74.5 143.5,-74.5 "/>
<text text-anchor="start" x="18.5" y="-62.5" font-family="Helvetica,sans-Serif" font-size="10.00">+ SLIPStreamCRC()</text>
<text text-anchor="start" x="18.5" y="-51.5" font-family="Helvetica,sans-Serif" font-size="10.00">+ writePacket()</text>
<text text-anchor="start" x="18.5" y="-40.5" font-family="Helvetica,sans-Serif" font-size="10.00">+ readPacket()</text>
<text text-anchor="start" x="18.5" y="-29.5" font-family="Helvetica,sans-Serif" font-size="10.00">+ wasTruncated()</text>
<text text-anchor="start" x="18.5" y="-18.5" font-family="Helvetica,sans-Serif" font-size="10.00">+ numTruncated()</text>
<text text-anchor="start" x="18.5" y="-7.5" font-family="Helvetica,sans-Serif" font-size="10.00">+ checksum()</text>
</a>
</g>
</g>
<!-- Node2 -->
<g id="node2" class="node"><title>Node2</title>
<g id="a_node2"><a xlink:href="../../d0/dd8/classSLIPSenderCRC.html" target="_top" xlink:title=" ">
<polygon fill="white" stroke="black" points="0,-171.5 0,-305.5 154,-305.5 154,-171.5 0,-171.5"/>
<text text-anchor="start" x="8" y="-293.5" font-family="Helvetica,sans-Serif" font-size="10.00">SLIPSenderCRC&lt; SLIPStream</text>
<text text-anchor="middle" x="77" y="-282.5" font-family="Helvetica,sans-Serif" font-size="10.00">CRC::StreamSender, CRC &gt;</text>
<polyline fill="none" stroke="black" points="0,-275.5 154,-275.5 "/>
<text text-anchor="middle" x="77" y="-263.5" font-family="Helvetica,sans-Serif" font-size="10.00"> </text>
<polyline fill="none" stroke="black" points="0,-256.5 154,-256.5 "/>
<text text-anchor="start" x="8" y="-244.5" font-family="Helvetica,sans-Serif" font-size="10.00">+ SLIPSenderCRC()</text>
<text text-anchor="start" x="8" y="-233.5" font-family="Helvetica,sans-Serif" font-size="10.00">+ SLIPSenderCRC()</text>
<text text-anchor="start" x="8" y="-222.5" font-family="Helvetica,sans-Serif" font-size="10.00">+ SLIPSenderCRC()</text>
<text text-anchor="start" x="8" y="-211.5" font-family="Helvetica,sans-Serif" font-size="10.00">+ SLIPSenderCRC()</text>
<text text-anchor="start" x="8" y="-200.5" font-family="Helvetica,sans-Serif" font-size="10.00">+ beginPacket()</text>
<text text-anchor="start" x="8" y="-189.5" font-family="Helvetica,sans-Serif" font-size="10.00">+ endPacket()</text>
<text text-anchor="start" x="8" y="-178.5" font-family="Helvetica,sans-Serif" font-size="10.00">+ write()</text>
</a>
</g>
</g>
<!-- Node2&#45;&gt;Node1 -->
<g id="edge1" class="edge"><title>Node2&#45;&gt;Node1</title>
<path fill="none" stroke="#404040" d="M77,-171.031C77,-159.451 77,-147.352 77,-135.616"/>
<polygon fill="none" stroke="#404040" points="77.0001,-135.555 73,-129.555 77,-123.555 81,-129.555 77.0001,-135.555"/>
<text text-anchor="middle" x="95" y="-145" font-family="Helvetica,sans-Serif" font-size="10.00"> &#45;sender</text>
</g>
<!-- Node3 -->
<g id="node3" class="node"><title>Node3</title>
<g id="a_node3"><a xlink:title=" ">
<polygon fill="white" stroke="#bfbfbf" points="18.5,-381 18.5,-438 57.5,-438 57.5,-381 18.5,-381"/>
<text text-anchor="middle" x="38" y="-426" font-family="Helvetica,sans-Serif" font-size="10.00">CRC</text>
<polyline fill="none" stroke="#bfbfbf" points="18.5,-419 57.5,-419 "/>
<text text-anchor="middle" x="38" y="-407" font-family="Helvetica,sans-Serif" font-size="10.00"> </text>
<polyline fill="none" stroke="#bfbfbf" points="18.5,-400 57.5,-400 "/>
<text text-anchor="middle" x="38" y="-388" font-family="Helvetica,sans-Serif" font-size="10.00"> </text>
</a>
</g>
</g>
<!-- Node3&#45;&gt;Node2 -->
<g id="edge2" class="edge"><title>Node3&#45;&gt;Node2</title>
<path fill="none" stroke="#404040" d="M44.3528,-380.971C48.3597,-363.608 53.7529,-340.237 59.0003,-317.499"/>
<polygon fill="none" stroke="#404040" points="59.0246,-317.393 56.4762,-310.647 61.723,-305.7 64.2714,-312.446 59.0246,-317.393"/>
<text text-anchor="middle" x="68" y="-327" font-family="Helvetica,sans-Serif" font-size="10.00"> &#45;crc</text>
</g>
<!-- Node4 -->
<g id="node4" class="node"><title>Node4</title>
<g id="a_node4"><a xlink:href="../../d0/dc9/classSLIPSender.html" target="_top" xlink:title=" ">
<polygon fill="white" stroke="black" points="76,-353.5 76,-465.5 230,-465.5 230,-353.5 76,-353.5"/>
<text text-anchor="start" x="84" y="-453.5" font-family="Helvetica,sans-Serif" font-size="10.00">SLIPSender&lt; SLIPStreamCRC</text>
<text text-anchor="middle" x="153" y="-442.5" font-family="Helvetica,sans-Serif" font-size="10.00">::StreamSender &gt;</text>
<polyline fill="none" stroke="black" points="76,-435.5 230,-435.5 "/>
<text text-anchor="middle" x="153" y="-423.5" font-family="Helvetica,sans-Serif" font-size="10.00"> </text>
<polyline fill="none" stroke="black" points="76,-416.5 230,-416.5 "/>
<text text-anchor="start" x="84" y="-404.5" font-family="Helvetica,sans-Serif" font-size="10.00">+ SLIPSender()</text>
<text text-anchor="start" x="84" y="-393.5" font-family="Helvetica,sans-Serif" font-size="10.00">+ SLIPSender()</text>
<text text-anchor="start" x="84" y="-382.5" font-family="Helvetica,sans-Serif" font-size="10.00">+ beginPacket()</text>
<text text-anchor="start" x="84" y="-371.5" font-family="Helvetica,sans-Serif" font-size="10.00">+ endPacket()</text>
<text text-anchor="start" x="84" y="-360.5" font-family="Helvetica,sans-Serif" font-size="10.00">+ write()</text>
</a>
</g>
</g>
<!-- Node4&#45;&gt;Node2 -->
<g id="edge3" class="edge"><title>Node4&#45;&gt;Node2</title>
<path fill="none" stroke="#404040" d="M128.115,-353.163C122.878,-341.518 117.262,-329.031 111.739,-316.749"/>
<polygon fill="none" stroke="#404040" points="111.628,-316.503 105.519,-312.671 106.707,-305.558 112.816,-309.39 111.628,-316.503"/>
<text text-anchor="middle" x="137" y="-327" font-family="Helvetica,sans-Serif" font-size="10.00"> &#45;sender</text>
</g>
<!-- Node5 -->
<g id="node5" class="node"><title>Node5</title>
<g id="a_node5"><a xlink:href="../../db/d98/structSLIPStreamCRC_1_1StreamSender.html" target="_top" xlink:title="Functor that sends bytes over an Arduino Stream.">
<polygon fill="white" stroke="black" points="106,-513.5 106,-581.5 200,-581.5 200,-513.5 106,-513.5"/>
<text text-anchor="middle" x="153" y="-569.5" font-family="Helvetica,sans-Serif" font-size="10.00">StreamSender</text>
<polyline fill="none" stroke="black" points="106,-562.5 200,-562.5 "/>
<text text-anchor="start" x="114" y="-550.5" font-family="Helvetica,sans-Serif" font-size="10.00">+ stream</text>
<polyline fill="none" stroke="black" points="106,-543.5 200,-543.5 "/>
<text text-anchor="start" x="114" y="-531.5" font-family="Helvetica,sans-Serif" font-size="10.00">+ StreamSender()</text>
<text text-anchor="start" x="114" y="-520.5" font-family="Helvetica,sans-Serif" font-size="10.00">+ operator()()</text>
</a>
</g>
</g>
<!-- Node5&#45;&gt;Node4 -->
<g id="edge4" class="edge"><title>Node5&#45;&gt;Node4</title>
<path fill="none" stroke="#404040" d="M153,-513.231C153,-502.497 153,-490.184 153,-477.898"/>
<polygon fill="none" stroke="#404040" points="153,-477.68 149,-471.68 153,-465.68 157,-471.68 153,-477.68"/>
<text text-anchor="middle" x="171" y="-487" font-family="Helvetica,sans-Serif" font-size="10.00"> &#45;sender</text>
</g>
</g>
</svg>
