<?xml version="1.0" encoding="UTF-8" standalone="no"?>
<!DOCTYPE svg PUBLIC "-//W3C//DTD SVG 1.1//EN"
 "http://www.w3.org/Graphics/SVG/1.1/DTD/svg11.dtd">
<!-- Generated by graphviz version 2.38.0 (20140413.2041)
 -->
<!-- Title: SLIPStreamCRC&lt; CRC &gt; Pages: 1 -->
<svg width="218pt" height="634pt"
 viewBox="0.00 0.00 217.50 634.00" xmlns="http://www.w3.org/2000/svg" xmlns:xlink="http://www.w3.org/1999/xlink">
<g id="graph0" class="graph" transform="scale(1 1) rotate(0) translate(4 630)">
<title>SLIPStreamCRC&lt; CRC &gt;</title>
<polygon fill="white" stroke="none" points="-4,4 -4,-630 213.5,-630 213.5,4 -4,4"/>
<!-- Node1 -->
<g id="node1" class="node"><title>Node1</title>
<g id="a_node1"><a xlink:title="Class that implements SLIP, a simple packet framing protocol, and that uses cyclic redundancy checks ...">
<polygon fill="#bfbfbf" stroke="black" points="10.5,-0.5 10.5,-156.5 143.5,-156.5 143.5,-0.5 10.5,-0.5"/>
<text text-anchor="middle" x="77" y="-144.5" font-family="Helvetica,sans-Serif" font-size="10.00">SLIPStreamCRC&lt; CRC &gt;</text>
<polyline fill="none" stroke="black" points="10.5,-137.5 143.5,-137.5 "/>
<text text-anchor="start" x="18.5" y="-125.5" font-family="Helvetica,sans-Serif" font-size="10.00">&#45; stream</text>
<text text-anchor="start" x="18.5" y="-114.5" font-family="Helvetica,sans-Serif" font-size="10.00">&#45; parser</text>
<polyline fill="none" stroke="black" points="10.5,-107.5 143.5,-107.5 "/>
<text text-anchor="start" x="18.5" y="-95.5" font-family="Helvetica,sans-Serif" font-size="10.00">+ SLIPStreamCRC()</text>
<text text-anchor="start" x="18.5" y="-84.5" font-family="Helvetica,sans-Serif" font-size="10.00">+ writePacket()</text>
<text text-anchor="start" x="18.5" y="-73.5" font-family="Helvetica,sans-Serif" font-size="10.00">+ beginPacket()</text>
<text text-anchor="start" x="18.5" y="-62.5" font-family="Helvetica,sans-Serif" font-size="10.00">+ write()</text>
<text text-anchor="start" x="18.5" y="-51.5" font-family="Helvetica,sans-Serif" font-size="10.00">+ endPacket()</text>
<text text-anchor="start" x="18.5" y="-40.5" font-family="Helvetica,sans-Serif" font-size="10.00">+ readPacket()</text>
<text text-anchor="start" x="18.5" y="-29.5" font-family="Helvetica,sans-Serif" font-size="10.00">+ wasTruncated()</text>
<text text-anchor="start" x="18.5" y="-18.5" font-family="Helvetica,sans-Serif" font-size="10.00">+ numTruncated()</text>
<text text-anchor="start" x="18.5" y="-7.5" font-family="Helvetica,sans-Serif" font-size="10.00">+ checksum()</text>
</a>
</g>
</g>
<!-- Node2 -->
<g id="node2" class="node"><title>Node2</title>
<g id="a_node2"><a xlink:href="../../d0/dd8/classSLIPSenderCRC.html" target="_top" xlink:title=" ">
<polygon fill="white" stroke="black" points="0,-204.5 0,-338.5 154,-338.5 154,-204.5 0,-204.5"/>
<text text-anchor="start" x="8" y="-326.5" font-family="Helvetica,sans-Serif" font-size="10.00">SLIPSenderCRC&lt; SLIPStream</text>
<text text-anchor="middle" x="77" y="-315.5" font-family="Helvetica,sans-Serif" font-size="10.00">::StreamSender, CRC &gt;</text>
<polyline fill="none" stroke="black" points="0,-308.5 154,-308.5 "/>
<text text-anchor="middle" x="77" y="-296.5" font-family="Helvetica,sans-Serif" font-size="10.00"> </text>
<polyline fill="none" stroke="black" points="0,-289.5 154,-289.5 "/>
<text text-anchor="start" x="8" y="-277.5" font-family="Helvetica,sans-Serif" font-size="10.00">+ SLIPSenderCRC()</text>
<text text-anchor="start" x="8" y="-266.5" font-family="Helvetica,sans-Serif" font-size="10.00">+ SLIPSenderCRC()</text>
<text text-anchor="start" x="8" y="-255.5" font-family="Helvetica,sans-Serif" font-size="10.00">+ SLIPSenderCRC()</text>
<text text-anchor="start" x="8" y="-244.5" font-family="Helvetica,sans-Serif" font-size="10.00">+ SLIPSenderCRC()</text>
<text text-anchor="start" x="8" y="-233.5" font-family="Helvetica,sans-Serif" font-size="10.00">+ beginPacket()</text>
<text text-anchor="start" x="8" y="-222.5" font-family="Helvetica,sans-Serif" font-size="10.00">+ endPacket()</text>
<text text-anchor="start" x="8" y="-211.5" font-family="Helvetica,sans-Serif" font-size="10.00">+ write()</text>
</a>
</g>
</g>
<!-- Node2&#45;&gt;Node1 -->
<g id="edge1" class="edge"><title>Node2&#45;&gt;Node1</title>
<path fill="none" stroke="#404040" d="M77,-204.234C77,-192.878 77,-180.913 77,-169.069"/>
<polygon fill="none" stroke="#404040" points="77.0001,-168.802 73,-162.802 77,-156.802 81,-162.802 77.0001,-168.802"/>
<text text-anchor="middle" x="95" y="-178" font-family="Helvetica,sans-Serif" font-size="10.00"> &#45;sender</text>
</g>
<!-- Node3 -->
<g id="node3" class="node"><title>Node3</title>
<g id="a_node3"><a xlink:title=" ">
<polygon fill="white" stroke="#bfbfbf" points="21.5,-414 21.5,-471 60.5,-471 60.5,-414 21.5,-414"/>
<text text-anchor="middle" x="41" y="-459" font-family="Helvetica,sans-Serif" font-size="10.00">CRC</text>
<polyline fill="none" stroke="#bfbfbf" points="21.5,-452 60.5,-452 "/>
<text text-anchor="middle" x="41" y="-440" font-family="Helvetica,sans-Serif" font-size="10.00"> </text>
<polyline fill="none" stroke="#bfbfbf" points="21.5,-433 60.5,-433 "/>
<text text-anchor="middle" x="41" y="-421" font-family="Helvetica,sans-Serif" font-size="10.00"> </text>
</a>
</g>
</g>
<!-- Node3&#45;&gt;Node2 -->
<g id="edge2" class="edge"><title>Node3&#45;&gt;Node2</title>
<path fill="none" stroke="#404040" d="M46.8641,-413.971C50.5628,-396.608 55.5411,-373.237 60.3849,-350.499"/>
<polygon fill="none" stroke="#404040" points="60.398,-350.437 57.7358,-343.735 62.8982,-338.7 65.5603,-345.402 60.398,-350.437"/>
<text text-anchor="middle" x="69" y="-360" font-family="Helvetica,sans-Serif" font-size="10.00"> &#45;crc</text>
</g>
<!-- Node4 -->
<g id="node4" class="node"><title>Node4</title>
<g id="a_node4"><a xlink:href="../../d0/dc9/classSLIPSender.html" target="_top" xlink:title=" ">
<polygon fill="white" stroke="black" points="78.5,-386.5 78.5,-498.5 209.5,-498.5 209.5,-386.5 78.5,-386.5"/>
<text text-anchor="start" x="86.5" y="-486.5" font-family="Helvetica,sans-Serif" font-size="10.00">SLIPSender&lt; SLIPStream</text>
<text text-anchor="middle" x="144" y="-475.5" font-family="Helvetica,sans-Serif" font-size="10.00">::StreamSender &gt;</text>
<polyline fill="none" stroke="black" points="78.5,-468.5 209.5,-468.5 "/>
<text text-anchor="middle" x="144" y="-456.5" font-family="Helvetica,sans-Serif" font-size="10.00"> </text>
<polyline fill="none" stroke="black" points="78.5,-449.5 209.5,-449.5 "/>
<text text-anchor="start" x="86.5" y="-437.5" font-family="Helvetica,sans-Serif" font-size="10.00">+ SLIPSender()</text>
<text text-anchor="start" x="86.5" y="-426.5" font-family="Helvetica,sans-Serif" font-size="10.00">+ SLIPSender()</text>
<text text-anchor="start" x="86.5" y="-415.5" font-family="Helvetica,sans-Serif" font-size="10.00">+ beginPacket()</text>
<text text-anchor="start" x="86.5" y="-404.5" font-family="Helvetica,sans-Serif" font-size="10.00">+ endPacket()</text>
<text text-anchor="start" x="86.5" y="-393.5" font-family="Helvetica,sans-Serif" font-size="10.00">+ write()</text>
</a>
</g>
</g>
<!-- Node4&#45;&gt;Node2 -->
<g id="edge3" class="edge"><title>Node4&#45;&gt;Node2</title>
<path fill="none" stroke="#404040" d="M122.062,-386.163C117.445,-374.518 112.494,-362.031 107.625,-349.749"/>
<polygon fill="none" stroke="#404040" points="107.611,-349.714 101.682,-345.61 103.189,-338.558 109.119,-342.662 107.611,-349.714"/>
<text text-anchor="middle" x="132" y="-360" font-family="Helvetica,sans-Serif" font-size="10.00"> &#45;sender</text>
</g>
<!-- Node5 -->
<g id="node5" class="node"><title>Node5</title>
<g id="a_node5"><a xlink:href="../../df/dfa/structSLIPStream_1_1StreamSender.html" target="_top" xlink:title="Functor that sends bytes over an Arduino Stream.">
<polygon fill="white" stroke="black" points="97,-546.5 97,-625.5 191,-625.5 191,-546.5 97,-546.5"/>
<text text-anchor="middle" x="144" y="-613.5" font-family="Helvetica,sans-Serif" font-size="10.00">StreamSender</text>
<polyline fill="none" stroke="black" points="97,-606.5 191,-606.5 "/>
<text text-anchor="start" x="105" y="-594.5" font-family="Helvetica,sans-Serif" font-size="10.00">+ stream</text>
<polyline fill="none" stroke="black" points="97,-587.5 191,-587.5 "/>
<text text-anchor="start" x="105" y="-575.5" font-family="Helvetica,sans-Serif" font-size="10.00">+ StreamSender()</text>
<text text-anchor="start" x="105" y="-564.5" font-family="Helvetica,sans-Serif" font-size="10.00">+ StreamSender()</text>
<text text-anchor="start" x="105" y="-553.5" font-family="Helvetica,sans-Serif" font-size="10.00">+ operator()()</text>
</a>
</g>
</g>
<!-- Node5&#45;&gt;Node4 -->
<g id="edge4" class="edge"><title>Node5&#45;&gt;Node4</title>
<path fill="none" stroke="#404040" d="M144,-546.335C144,-535.288 144,-522.917 144,-510.689"/>
<polygon fill="none" stroke="#404040" points="144,-510.562 140,-504.562 144,-498.562 148,-504.562 144,-510.562"/>
<text text-anchor="middle" x="162" y="-520" font-family="Helvetica,sans-Serif" font-size="10.00"> &#45;sender</text>
</g>
</g>
</svg>
