<?xml version="1.0" encoding="UTF-8" standalone="no"?>
<!DOCTYPE svg PUBLIC "-//W3C//DTD SVG 1.1//EN"
 "http://www.w3.org/Graphics/SVG/1.1/DTD/svg11.dtd">
<!-- Generated by graphviz version 2.38.0 (20140413.2041)
 -->
<!-- Title: KVComm Pages: 1 -->
<svg width="242pt" height="183pt"
 viewBox="0.00 0.00 242.00 183.00" xmlns="http://www.w3.org/2000/svg" xmlns:xlink="http://www.w3.org/1999/xlink">
<g id="graph0" class="graph" transform="scale(1 1) rotate(0) translate(4 179)">
<title>KVComm</title>
<polygon fill="white" stroke="none" points="-4,4 -4,-179 238,-179 238,4 -4,4"/>
<g id="clust1" class="cluster"><title>clusterdir_68267d1309a1af8e8297ef4c3efbcdba</title>
<g id="a_clust1"><a xlink:href="dir_68267d1309a1af8e8297ef4c3efbcdba.html" target="_top" xlink:title="src">
<polygon fill="#ddddee" stroke="black" points="8,-8 8,-167 172,-167 172,-8 8,-8"/>
<text text-anchor="middle" x="90" y="-155" font-family="Helvetica,sans-Serif" font-size="10.00">src</text>
</a>
</g>
</g>
<g id="clust2" class="cluster"><title>clusterdir_2dedddb1d83afa3783d5c3f2f0db574d</title>
<g id="a_clust2"><a xlink:href="dir_2dedddb1d83afa3783d5c3f2f0db574d.html" target="_top">
<polygon fill="#eeeeff" stroke="black" points="16,-16 16,-140 164,-140 164,-16 16,-16"/>
</a>
</g>
</g>
<!-- dir_2dedddb1d83afa3783d5c3f2f0db574d -->
<g id="node1" class="node"><title>dir_2dedddb1d83afa3783d5c3f2f0db574d</title>
<text text-anchor="middle" x="126" y="-111.5" font-family="Helvetica,sans-Serif" font-size="10.00">KVComm</text>
</g>
<!-- dir_9d49f9ba689645cb2dfa9e0cb8f9fe6a -->
<g id="node2" class="node"><title>dir_9d49f9ba689645cb2dfa9e0cb8f9fe6a</title>
<g id="a_node2"><a xlink:href="dir_9d49f9ba689645cb2dfa9e0cb8f9fe6a.html" target="_top" xlink:title="include">
<polygon fill="white" stroke="red" points="78,-60 24,-60 24,-24 78,-24 78,-60"/>
<text text-anchor="middle" x="51" y="-39.5" font-family="Helvetica,sans-Serif" font-size="10.00">include</text>
</a>
</g>
</g>
<!-- dir_76a69a8997f03fef1348566bd6f08299 -->
<g id="node3" class="node"><title>dir_76a69a8997f03fef1348566bd6f08299</title>
<g id="a_node3"><a xlink:href="dir_76a69a8997f03fef1348566bd6f08299.html" target="_top" xlink:title="src">
<polygon fill="white" stroke="black" points="78,-132 24,-132 24,-96 78,-96 78,-132"/>
<text text-anchor="middle" x="51" y="-111.5" font-family="Helvetica,sans-Serif" font-size="10.00">src</text>
</a>
</g>
</g>
<!-- dir_76a69a8997f03fef1348566bd6f08299&#45;&gt;dir_9d49f9ba689645cb2dfa9e0cb8f9fe6a -->
<g id="edge2" class="edge"><title>dir_76a69a8997f03fef1348566bd6f08299&#45;&gt;dir_9d49f9ba689645cb2dfa9e0cb8f9fe6a</title>
<path fill="none" stroke="black" d="M51,-95.6966C51,-87.9827 51,-78.7125 51,-70.1124"/>
<polygon fill="black" stroke="black" points="54.5001,-70.1043 51,-60.1043 47.5001,-70.1044 54.5001,-70.1043"/>
<g id="a_edge2&#45;headlabel"><a xlink:href="dir_000014_000015.html" target="_top" xlink:title="6">
<text text-anchor="middle" x="57.3393" y="-71.199" font-family="Helvetica,sans-Serif" font-size="10.00">6</text>
</a>
</g>
</g>
<!-- dir_15b6432dff6a6d357bf70f8fbf2cdf14 -->
<g id="node4" class="node"><title>dir_15b6432dff6a6d357bf70f8fbf2cdf14</title>
<g id="a_node4"><a xlink:href="dir_15b6432dff6a6d357bf70f8fbf2cdf14.html" target="_top" xlink:title="AH">
<polygon fill="white" stroke="red" points="234,-60 180,-60 180,-24 234,-24 234,-60"/>
<text text-anchor="middle" x="207" y="-39.5" font-family="Helvetica,sans-Serif" font-size="10.00">AH</text>
</a>
</g>
</g>
<!-- dir_76a69a8997f03fef1348566bd6f08299&#45;&gt;dir_15b6432dff6a6d357bf70f8fbf2cdf14 -->
<g id="edge1" class="edge"><title>dir_76a69a8997f03fef1348566bd6f08299&#45;&gt;dir_15b6432dff6a6d357bf70f8fbf2cdf14</title>
<path fill="none" stroke="black" d="M78.0612,-100.522C81.4058,-98.9932 84.7796,-97.4569 88,-96 115.528,-83.5464 146.732,-69.6573 170.279,-59.2223"/>
<polygon fill="black" stroke="black" points="171.819,-62.368 179.546,-55.1187 168.985,-55.9675 171.819,-62.368"/>
<g id="a_edge1&#45;headlabel"><a xlink:href="dir_000014_000001.html" target="_top" xlink:title="1">
<text text-anchor="middle" x="169.682" y="-63.9195" font-family="Helvetica,sans-Serif" font-size="10.00">1</text>
</a>
</g>
</g>
</g>
</svg>
