<?xml version="1.0" encoding="UTF-8" standalone="no"?>
<!DOCTYPE svg PUBLIC "-//W3C//DTD SVG 1.1//EN"
 "http://www.w3.org/Graphics/SVG/1.1/DTD/svg11.dtd">
<!-- Generated by graphviz version 2.38.0 (20140413.2041)
 -->
<!-- Title: src Pages: 1 -->
<svg width="260pt" height="148pt"
 viewBox="0.00 0.00 260.00 148.00" xmlns="http://www.w3.org/2000/svg" xmlns:xlink="http://www.w3.org/1999/xlink">
<g id="graph0" class="graph" transform="scale(1 1) rotate(0) translate(4 144)">
<title>src</title>
<polygon fill="white" stroke="none" points="-4,4 -4,-144 256,-144 256,4 -4,4"/>
<g id="clust1" class="cluster"><title>clusterdir_68267d1309a1af8e8297ef4c3efbcdba</title>
<g id="a_clust1"><a xlink:href="dir_68267d1309a1af8e8297ef4c3efbcdba.html" target="_top">
<polygon fill="#eeeeff" stroke="black" points="8,-8 8,-132 244,-132 244,-8 8,-8"/>
</a>
</g>
</g>
<!-- dir_68267d1309a1af8e8297ef4c3efbcdba -->
<g id="node1" class="node"><title>dir_68267d1309a1af8e8297ef4c3efbcdba</title>
<text text-anchor="middle" x="209" y="-103.5" font-family="Helvetica,sans-Serif" font-size="10.00">src</text>
</g>
<!-- dir_15b6432dff6a6d357bf70f8fbf2cdf14 -->
<g id="node2" class="node"><title>dir_15b6432dff6a6d357bf70f8fbf2cdf14</title>
<g id="a_node2"><a xlink:href="dir_15b6432dff6a6d357bf70f8fbf2cdf14.html" target="_top" xlink:title="AH">
<polygon fill="white" stroke="red" points="161,-52 107,-52 107,-16 161,-16 161,-52"/>
<text text-anchor="middle" x="134" y="-31.5" font-family="Helvetica,sans-Serif" font-size="10.00">AH</text>
</a>
</g>
</g>
<!-- dir_2dedddb1d83afa3783d5c3f2f0db574d -->
<g id="node3" class="node"><title>dir_2dedddb1d83afa3783d5c3f2f0db574d</title>
<g id="a_node3"><a xlink:href="dir_2dedddb1d83afa3783d5c3f2f0db574d.html" target="_top" xlink:title="KVComm">
<polygon fill="white" stroke="red" points="163.5,-124 104.5,-124 104.5,-88 163.5,-88 163.5,-124"/>
<text text-anchor="middle" x="134" y="-103.5" font-family="Helvetica,sans-Serif" font-size="10.00">KVComm</text>
</a>
</g>
</g>
<!-- dir_2dedddb1d83afa3783d5c3f2f0db574d&#45;&gt;dir_15b6432dff6a6d357bf70f8fbf2cdf14 -->
<g id="edge1" class="edge"><title>dir_2dedddb1d83afa3783d5c3f2f0db574d&#45;&gt;dir_15b6432dff6a6d357bf70f8fbf2cdf14</title>
<path fill="none" stroke="black" d="M134,-87.6966C134,-79.9827 134,-70.7125 134,-62.1124"/>
<polygon fill="black" stroke="black" points="137.5,-62.1043 134,-52.1043 130.5,-62.1044 137.5,-62.1043"/>
<g id="a_edge1&#45;headlabel"><a xlink:href="dir_000013_000001.html" target="_top" xlink:title="1">
<text text-anchor="middle" x="140.339" y="-63.199" font-family="Helvetica,sans-Serif" font-size="10.00">1</text>
</a>
</g>
</g>
<!-- dir_e57ea15e8b9d023d9f9436e158426b7a -->
<g id="node4" class="node"><title>dir_e57ea15e8b9d023d9f9436e158426b7a</title>
<g id="a_node4"><a xlink:href="dir_e57ea15e8b9d023d9f9436e158426b7a.html" target="_top" xlink:title="SLIPStream">
<polygon fill="white" stroke="black" points="86,-124 16,-124 16,-88 86,-88 86,-124"/>
<text text-anchor="middle" x="51" y="-103.5" font-family="Helvetica,sans-Serif" font-size="10.00">SLIPStream</text>
</a>
</g>
</g>
</g>
</svg>
