<?xml version="1.0" encoding="UTF-8" standalone="no"?>
<!DOCTYPE svg PUBLIC "-//W3C//DTD SVG 1.1//EN"
 "http://www.w3.org/Graphics/SVG/1.1/DTD/svg11.dtd">
<!-- Generated by graphviz version 2.38.0 (20140413.2041)
 -->
<!-- Title: KV_Parser.hpp Pages: 1 -->
<svg width="452pt" height="140pt"
 viewBox="0.00 0.00 451.50 140.00" xmlns="http://www.w3.org/2000/svg" xmlns:xlink="http://www.w3.org/1999/xlink">
<g id="graph0" class="graph" transform="scale(1 1) rotate(0) translate(4 136)">
<title>KV_Parser.hpp</title>
<polygon fill="white" stroke="none" points="-4,4 -4,-136 447.5,-136 447.5,4 -4,4"/>
<!-- Node1 -->
<g id="node1" class="node"><title>Node1</title>
<g id="a_node1"><a xlink:title="A parser for dictionaries generated by the KV_Builder.">
<polygon fill="#bfbfbf" stroke="black" points="218,-112.5 218,-131.5 301,-131.5 301,-112.5 218,-112.5"/>
<text text-anchor="middle" x="259.5" y="-119.5" font-family="Helvetica,sans-Serif" font-size="10.00">KV_Parser.hpp</text>
</a>
</g>
</g>
<!-- Node2 -->
<g id="node2" class="node"><title>Node2</title>
<g id="a_node2"><a xlink:href="../../d6/da2/KV__Types_8hpp.html" target="_top" xlink:title="KV_Type type definitions for fundamental types (int::_t, uint::_t, float, double, bool,...">
<polygon fill="white" stroke="black" points="0,-56.5 0,-75.5 127,-75.5 127,-56.5 0,-56.5"/>
<text text-anchor="middle" x="63.5" y="-63.5" font-family="Helvetica,sans-Serif" font-size="10.00">KVComm/KV_Types.hpp</text>
</a>
</g>
</g>
<!-- Node1&#45;&gt;Node2 -->
<g id="edge1" class="edge"><title>Node1&#45;&gt;Node2</title>
<path fill="none" stroke="midnightblue" d="M228.443,-112.444C194.897,-103.201 141.303,-88.4356 104.359,-78.2572"/>
<polygon fill="midnightblue" stroke="midnightblue" points="104.982,-74.7984 94.4115,-75.5164 103.123,-81.5469 104.982,-74.7984"/>
</g>
<!-- Node5 -->
<g id="node5" class="node"><title>Node5</title>
<g id="a_node5"><a xlink:title=" ">
<polygon fill="white" stroke="#bfbfbf" points="145.5,-56.5 145.5,-75.5 191.5,-75.5 191.5,-56.5 145.5,-56.5"/>
<text text-anchor="middle" x="168.5" y="-63.5" font-family="Helvetica,sans-Serif" font-size="10.00">cstdint</text>
</a>
</g>
</g>
<!-- Node1&#45;&gt;Node5 -->
<g id="edge4" class="edge"><title>Node1&#45;&gt;Node5</title>
<path fill="none" stroke="midnightblue" d="M244.879,-112.324C230.551,-103.822 208.487,-90.7288 191.751,-80.7975"/>
<polygon fill="midnightblue" stroke="midnightblue" points="193.47,-77.7478 183.084,-75.6545 189.898,-83.7677 193.47,-77.7478"/>
</g>
<!-- Node6 -->
<g id="node6" class="node"><title>Node6</title>
<g id="a_node6"><a xlink:title=" ">
<polygon fill="white" stroke="#bfbfbf" points="210,-56.5 210,-75.5 245,-75.5 245,-56.5 210,-56.5"/>
<text text-anchor="middle" x="227.5" y="-63.5" font-family="Helvetica,sans-Serif" font-size="10.00">map</text>
</a>
</g>
</g>
<!-- Node1&#45;&gt;Node6 -->
<g id="edge5" class="edge"><title>Node1&#45;&gt;Node6</title>
<path fill="none" stroke="midnightblue" d="M254.216,-112.083C249.789,-104.613 243.337,-93.7244 237.882,-84.5199"/>
<polygon fill="midnightblue" stroke="midnightblue" points="240.795,-82.5697 232.686,-75.7511 234.773,-86.1383 240.795,-82.5697"/>
</g>
<!-- Node7 -->
<g id="node7" class="node"><title>Node7</title>
<g id="a_node7"><a xlink:title=" ">
<polygon fill="white" stroke="#bfbfbf" points="263,-56.5 263,-75.5 322,-75.5 322,-56.5 263,-56.5"/>
<text text-anchor="middle" x="292.5" y="-63.5" font-family="Helvetica,sans-Serif" font-size="10.00">stdexcept</text>
</a>
</g>
</g>
<!-- Node1&#45;&gt;Node7 -->
<g id="edge6" class="edge"><title>Node1&#45;&gt;Node7</title>
<path fill="none" stroke="midnightblue" d="M264.949,-112.083C269.514,-104.613 276.168,-93.7244 281.793,-84.5199"/>
<polygon fill="midnightblue" stroke="midnightblue" points="284.924,-86.109 287.152,-75.7511 278.951,-82.4588 284.924,-86.109"/>
</g>
<!-- Node8 -->
<g id="node8" class="node"><title>Node8</title>
<g id="a_node8"><a xlink:title=" ">
<polygon fill="white" stroke="#bfbfbf" points="340,-56.5 340,-75.5 381,-75.5 381,-56.5 340,-56.5"/>
<text text-anchor="middle" x="360.5" y="-63.5" font-family="Helvetica,sans-Serif" font-size="10.00">string</text>
</a>
</g>
</g>
<!-- Node1&#45;&gt;Node8 -->
<g id="edge7" class="edge"><title>Node1&#45;&gt;Node8</title>
<path fill="none" stroke="midnightblue" d="M275.727,-112.324C291.851,-103.703 316.8,-90.3643 335.464,-80.3855"/>
<polygon fill="midnightblue" stroke="midnightblue" points="337.144,-83.456 344.313,-75.6545 333.844,-77.283 337.144,-83.456"/>
</g>
<!-- Node9 -->
<g id="node9" class="node"><title>Node9</title>
<g id="a_node9"><a xlink:title=" ">
<polygon fill="white" stroke="#bfbfbf" points="399.5,-56.5 399.5,-75.5 443.5,-75.5 443.5,-56.5 399.5,-56.5"/>
<text text-anchor="middle" x="421.5" y="-63.5" font-family="Helvetica,sans-Serif" font-size="10.00">vector</text>
</a>
</g>
</g>
<!-- Node1&#45;&gt;Node9 -->
<g id="edge8" class="edge"><title>Node1&#45;&gt;Node9</title>
<path fill="none" stroke="midnightblue" d="M285.169,-112.444C313.465,-103.012 359.015,-87.8282 389.588,-77.6375"/>
<polygon fill="midnightblue" stroke="midnightblue" points="390.955,-80.8711 399.335,-74.3884 388.741,-74.2304 390.955,-80.8711"/>
</g>
<!-- Node3 -->
<g id="node3" class="node"><title>Node3</title>
<g id="a_node3"><a xlink:title=" ">
<polygon fill="white" stroke="#bfbfbf" points="6,-0.5 6,-19.5 55,-19.5 55,-0.5 6,-0.5"/>
<text text-anchor="middle" x="30.5" y="-7.5" font-family="Helvetica,sans-Serif" font-size="10.00">stdint.h</text>
</a>
</g>
</g>
<!-- Node2&#45;&gt;Node3 -->
<g id="edge2" class="edge"><title>Node2&#45;&gt;Node3</title>
<path fill="none" stroke="midnightblue" d="M58.0507,-56.083C53.4855,-48.6127 46.8316,-37.7244 41.2066,-28.5199"/>
<polygon fill="midnightblue" stroke="midnightblue" points="44.0489,-26.4588 35.8479,-19.7511 38.0759,-30.109 44.0489,-26.4588"/>
</g>
<!-- Node4 -->
<g id="node4" class="node"><title>Node4</title>
<g id="a_node4"><a xlink:title=" ">
<polygon fill="white" stroke="#bfbfbf" points="73,-0.5 73,-19.5 122,-19.5 122,-0.5 73,-0.5"/>
<text text-anchor="middle" x="97.5" y="-7.5" font-family="Helvetica,sans-Serif" font-size="10.00">string.h</text>
</a>
</g>
</g>
<!-- Node2&#45;&gt;Node4 -->
<g id="edge3" class="edge"><title>Node2&#45;&gt;Node4</title>
<path fill="none" stroke="midnightblue" d="M69.1144,-56.083C73.8674,-48.5341 80.8181,-37.4948 86.6516,-28.2298"/>
<polygon fill="midnightblue" stroke="midnightblue" points="89.6237,-30.0783 91.9901,-19.7511 83.7001,-26.3486 89.6237,-30.0783"/>
</g>
</g>
</svg>
