<?xml version="1.0" encoding="UTF-8" standalone="no"?>
<!DOCTYPE svg PUBLIC "-//W3C//DTD SVG 1.1//EN"
 "http://www.w3.org/Graphics/SVG/1.1/DTD/svg11.dtd">
<!-- Generated by graphviz version 2.38.0 (20140413.2041)
 -->
<!-- Title: KV_Error.hpp Pages: 1 -->
<svg width="345pt" height="196pt"
 viewBox="0.00 0.00 345.00 196.00" xmlns="http://www.w3.org/2000/svg" xmlns:xlink="http://www.w3.org/1999/xlink">
<g id="graph0" class="graph" transform="scale(1 1) rotate(0) translate(4 192)">
<title>KV_Error.hpp</title>
<polygon fill="white" stroke="none" points="-4,4 -4,-192 341,-192 341,4 -4,4"/>
<!-- Node1 -->
<g id="node1" class="node"><title>Node1</title>
<g id="a_node1"><a xlink:title=" ">
<polygon fill="#bfbfbf" stroke="black" points="156,-168.5 156,-187.5 231,-187.5 231,-168.5 156,-168.5"/>
<text text-anchor="middle" x="193.5" y="-175.5" font-family="Helvetica,sans-Serif" font-size="10.00">KV_Error.hpp</text>
</a>
</g>
</g>
<!-- Node2 -->
<g id="node2" class="node"><title>Node2</title>
<g id="a_node2"><a xlink:href="../../dc/d2c/KV__Iterator_8hpp.html" target="_top" xlink:title="Iterating over a dictionary generated by the KV_Builder, used for parsing and for checking if a key i...">
<polygon fill="white" stroke="black" points="151,-112.5 151,-131.5 236,-131.5 236,-112.5 151,-112.5"/>
<text text-anchor="middle" x="193.5" y="-119.5" font-family="Helvetica,sans-Serif" font-size="10.00">KV_Iterator.hpp</text>
</a>
</g>
</g>
<!-- Node1&#45;&gt;Node2 -->
<g id="edge1" class="edge"><title>Node1&#45;&gt;Node2</title>
<path fill="none" stroke="midnightblue" d="M193.5,-157.805C193.5,-148.91 193.5,-138.78 193.5,-131.751"/>
<polygon fill="midnightblue" stroke="midnightblue" points="190,-158.083 193.5,-168.083 197,-158.083 190,-158.083"/>
</g>
<!-- Node3 -->
<g id="node3" class="node"><title>Node3</title>
<g id="a_node3"><a xlink:href="../../dc/d98/KV__Builder_8hpp.html" target="_top" xlink:title="This file contains the KV_Builder class, a key&#45;value pair, dictionary&#45;like container that supports ma...">
<polygon fill="white" stroke="black" points="48.5,-56.5 48.5,-75.5 132.5,-75.5 132.5,-56.5 48.5,-56.5"/>
<text text-anchor="middle" x="90.5" y="-63.5" font-family="Helvetica,sans-Serif" font-size="10.00">KV_Builder.hpp</text>
</a>
</g>
</g>
<!-- Node2&#45;&gt;Node3 -->
<g id="edge2" class="edge"><title>Node2&#45;&gt;Node3</title>
<path fill="none" stroke="midnightblue" d="M167.921,-107.59C148.877,-97.6052 123.436,-84.2672 107.008,-75.6545"/>
<polygon fill="midnightblue" stroke="midnightblue" points="166.469,-110.78 176.951,-112.324 169.72,-104.581 166.469,-110.78"/>
</g>
<!-- Node7 -->
<g id="node7" class="node"><title>Node7</title>
<g id="a_node7"><a xlink:href="../../db/d5a/KV__Iterator_8cpp.html" target="_top" xlink:title=" ">
<polygon fill="white" stroke="black" points="151,-56.5 151,-75.5 236,-75.5 236,-56.5 151,-56.5"/>
<text text-anchor="middle" x="193.5" y="-63.5" font-family="Helvetica,sans-Serif" font-size="10.00">KV_Iterator.cpp</text>
</a>
</g>
</g>
<!-- Node2&#45;&gt;Node7 -->
<g id="edge7" class="edge"><title>Node2&#45;&gt;Node7</title>
<path fill="none" stroke="midnightblue" d="M193.5,-101.805C193.5,-92.9102 193.5,-82.7798 193.5,-75.7511"/>
<polygon fill="midnightblue" stroke="midnightblue" points="190,-102.083 193.5,-112.083 197,-102.083 190,-102.083"/>
</g>
<!-- Node8 -->
<g id="node8" class="node"><title>Node8</title>
<g id="a_node8"><a xlink:href="../../de/da1/KV__Parser_8cpp.html" target="_top" xlink:title=" ">
<polygon fill="white" stroke="black" points="254,-56.5 254,-75.5 337,-75.5 337,-56.5 254,-56.5"/>
<text text-anchor="middle" x="295.5" y="-63.5" font-family="Helvetica,sans-Serif" font-size="10.00">KV_Parser.cpp</text>
</a>
</g>
</g>
<!-- Node2&#45;&gt;Node8 -->
<g id="edge8" class="edge"><title>Node2&#45;&gt;Node8</title>
<path fill="none" stroke="midnightblue" d="M218.831,-107.59C237.69,-97.6052 262.884,-84.2672 279.153,-75.6545"/>
<polygon fill="midnightblue" stroke="midnightblue" points="217.088,-104.552 209.888,-112.324 220.364,-110.738 217.088,-104.552"/>
</g>
<!-- Node4 -->
<g id="node4" class="node"><title>Node4</title>
<g id="a_node4"><a xlink:href="../../d7/d98/KV__Builder_8ipp.html" target="_top" xlink:title=" ">
<polygon fill="white" stroke="black" points="0,-0.5 0,-19.5 81,-19.5 81,-0.5 0,-0.5"/>
<text text-anchor="middle" x="40.5" y="-7.5" font-family="Helvetica,sans-Serif" font-size="10.00">KV_Builder.ipp</text>
</a>
</g>
</g>
<!-- Node3&#45;&gt;Node4 -->
<g id="edge3" class="edge"><title>Node3&#45;&gt;Node4</title>
<path fill="none" stroke="midnightblue" d="M69.7204,-49.2533C59.8567,-39.6731 49.2046,-27.7906 43.5308,-19.8339"/>
<polygon fill="midnightblue" stroke="midnightblue" points="67.6376,-52.0949 77.3518,-56.324 72.3951,-46.9601 67.6376,-52.0949"/>
</g>
<!-- Node5 -->
<g id="node5" class="node"><title>Node5</title>
<g id="a_node5"><a xlink:href="../../d7/d1f/KV__Builder_8cpp.html" target="_top" xlink:title=" ">
<polygon fill="white" stroke="black" points="99.5,-0.5 99.5,-19.5 183.5,-19.5 183.5,-0.5 99.5,-0.5"/>
<text text-anchor="middle" x="141.5" y="-7.5" font-family="Helvetica,sans-Serif" font-size="10.00">KV_Builder.cpp</text>
</a>
</g>
</g>
<!-- Node3&#45;&gt;Node5 -->
<g id="edge5" class="edge"><title>Node3&#45;&gt;Node5</title>
<path fill="none" stroke="midnightblue" d="M105.878,-48.7175C114.867,-39.1997 125.859,-27.5608 133.235,-19.7511"/>
<polygon fill="midnightblue" stroke="midnightblue" points="103.243,-46.4096 98.9216,-56.083 108.332,-51.216 103.243,-46.4096"/>
</g>
<!-- Node6 -->
<g id="node6" class="node"><title>Node6</title>
<g id="a_node6"><a xlink:href="../../df/d37/KVComm_8h.html" target="_top" xlink:title=" ">
<polygon fill="white" stroke="black" points="201.5,-0.5 201.5,-19.5 269.5,-19.5 269.5,-0.5 201.5,-0.5"/>
<text text-anchor="middle" x="235.5" y="-7.5" font-family="Helvetica,sans-Serif" font-size="10.00">KVComm.h</text>
</a>
</g>
</g>
<!-- Node3&#45;&gt;Node6 -->
<g id="edge6" class="edge"><title>Node3&#45;&gt;Node6</title>
<path fill="none" stroke="midnightblue" d="M122.975,-52.9058C150.236,-42.7536 188.492,-28.5063 212.632,-19.5164"/>
<polygon fill="midnightblue" stroke="midnightblue" points="121.625,-49.6736 113.476,-56.4435 124.068,-56.2334 121.625,-49.6736"/>
</g>
<!-- Node4&#45;&gt;Node3 -->
<g id="edge4" class="edge"><title>Node4&#45;&gt;Node3</title>
<path fill="none" stroke="midnightblue" d="M61.3317,-26.7973C71.1465,-36.3354 81.7314,-48.1409 87.4098,-56.083"/>
<polygon fill="midnightblue" stroke="midnightblue" points="63.4461,-23.9847 53.7339,-19.7511 58.6861,-29.1173 63.4461,-23.9847"/>
</g>
</g>
</svg>
