<?xml version="1.0" encoding="UTF-8" standalone="no"?>
<!DOCTYPE svg PUBLIC "-//W3C//DTD SVG 1.1//EN"
 "http://www.w3.org/Graphics/SVG/1.1/DTD/svg11.dtd">
<!-- Generated by graphviz version 2.38.0 (20140413.2041)
 -->
<!-- Title: SLIPParser.ipp Pages: 1 -->
<svg width="203pt" height="196pt"
 viewBox="0.00 0.00 203.00 196.00" xmlns="http://www.w3.org/2000/svg" xmlns:xlink="http://www.w3.org/1999/xlink">
<g id="graph0" class="graph" transform="scale(1 1) rotate(0) translate(4 192)">
<title>SLIPParser.ipp</title>
<polygon fill="white" stroke="none" points="-4,4 -4,-192 199,-192 199,4 -4,4"/>
<!-- Node1 -->
<g id="node1" class="node"><title>Node1</title>
<g id="a_node1"><a xlink:title=" ">
<polygon fill="#bfbfbf" stroke="black" points="109,-168.5 109,-187.5 192,-187.5 192,-168.5 109,-168.5"/>
<text text-anchor="middle" x="150.5" y="-175.5" font-family="Helvetica,sans-Serif" font-size="10.00">SLIPParser.ipp</text>
</a>
</g>
</g>
<!-- Node2 -->
<g id="node2" class="node"><title>Node2</title>
<g id="a_node2"><a xlink:href="../../df/dfe/SLIPParser_8hpp.html" target="_top" xlink:title=" ">
<polygon fill="white" stroke="black" points="107.5,-112.5 107.5,-131.5 193.5,-131.5 193.5,-112.5 107.5,-112.5"/>
<text text-anchor="middle" x="150.5" y="-119.5" font-family="Helvetica,sans-Serif" font-size="10.00">SLIPParser.hpp</text>
</a>
</g>
</g>
<!-- Node1&#45;&gt;Node2 -->
<g id="edge1" class="edge"><title>Node1&#45;&gt;Node2</title>
<path fill="none" stroke="midnightblue" d="M144.028,-158.101C143.396,-149.136 143.843,-138.858 145.369,-131.751"/>
<polygon fill="midnightblue" stroke="midnightblue" points="140.566,-158.622 145.334,-168.083 147.507,-157.713 140.566,-158.622"/>
</g>
<!-- Node2&#45;&gt;Node1 -->
<g id="edge2" class="edge"><title>Node2&#45;&gt;Node1</title>
<path fill="none" stroke="midnightblue" d="M156.958,-141.691C157.606,-150.635 157.176,-160.927 155.666,-168.083"/>
<polygon fill="midnightblue" stroke="midnightblue" points="160.423,-141.2 155.631,-131.751 153.485,-142.126 160.423,-141.2"/>
</g>
<!-- Node3 -->
<g id="node3" class="node"><title>Node3</title>
<g id="a_node3"><a xlink:href="../../da/dd2/SLIPStream_8hpp.html" target="_top" xlink:title=" ">
<polygon fill="white" stroke="black" points="106,-56.5 106,-75.5 195,-75.5 195,-56.5 106,-56.5"/>
<text text-anchor="middle" x="150.5" y="-63.5" font-family="Helvetica,sans-Serif" font-size="10.00">SLIPStream.hpp</text>
</a>
</g>
</g>
<!-- Node2&#45;&gt;Node3 -->
<g id="edge3" class="edge"><title>Node2&#45;&gt;Node3</title>
<path fill="none" stroke="midnightblue" d="M150.5,-101.805C150.5,-92.9102 150.5,-82.7798 150.5,-75.7511"/>
<polygon fill="midnightblue" stroke="midnightblue" points="147,-102.083 150.5,-112.083 154,-102.083 147,-102.083"/>
</g>
<!-- Node4 -->
<g id="node4" class="node"><title>Node4</title>
<g id="a_node4"><a xlink:href="../../d9/df2/SLIPStream_8cpp.html" target="_top" xlink:title=" ">
<polygon fill="white" stroke="black" points="0,-0.5 0,-19.5 89,-19.5 89,-0.5 0,-0.5"/>
<text text-anchor="middle" x="44.5" y="-7.5" font-family="Helvetica,sans-Serif" font-size="10.00">SLIPStream.cpp</text>
</a>
</g>
</g>
<!-- Node3&#45;&gt;Node4 -->
<g id="edge4" class="edge"><title>Node3&#45;&gt;Node4</title>
<path fill="none" stroke="midnightblue" d="M124.444,-51.7261C104.816,-41.7271 78.472,-28.3065 61.4885,-19.6545"/>
<polygon fill="midnightblue" stroke="midnightblue" points="122.97,-54.9033 133.469,-56.324 126.148,-48.666 122.97,-54.9033"/>
</g>
<!-- Node5 -->
<g id="node5" class="node"><title>Node5</title>
<g id="a_node5"><a xlink:href="../../d3/d61/SLIPStream_8ipp.html" target="_top" xlink:title=" ">
<polygon fill="white" stroke="black" points="107.5,-0.5 107.5,-19.5 193.5,-19.5 193.5,-0.5 107.5,-0.5"/>
<text text-anchor="middle" x="150.5" y="-7.5" font-family="Helvetica,sans-Serif" font-size="10.00">SLIPStream.ipp</text>
</a>
</g>
</g>
<!-- Node3&#45;&gt;Node5 -->
<g id="edge5" class="edge"><title>Node3&#45;&gt;Node5</title>
<path fill="none" stroke="midnightblue" d="M144.028,-46.1005C143.396,-37.1357 143.843,-26.8579 145.369,-19.7511"/>
<polygon fill="midnightblue" stroke="midnightblue" points="140.566,-46.6216 145.334,-56.083 147.507,-45.7134 140.566,-46.6216"/>
</g>
<!-- Node5&#45;&gt;Node3 -->
<g id="edge6" class="edge"><title>Node5&#45;&gt;Node3</title>
<path fill="none" stroke="midnightblue" d="M156.958,-29.6911C157.606,-38.6353 157.176,-48.9272 155.666,-56.083"/>
<polygon fill="midnightblue" stroke="midnightblue" points="160.423,-29.2002 155.631,-19.7511 153.485,-30.1262 160.423,-29.2002"/>
</g>
</g>
</svg>
