<?xml version="1.0" encoding="UTF-8" standalone="no"?>
<!DOCTYPE svg PUBLIC "-//W3C//DTD SVG 1.1//EN"
 "http://www.w3.org/Graphics/SVG/1.1/DTD/svg11.dtd">
<!-- Generated by graphviz version 2.38.0 (20140413.2041)
 -->
<!-- Title: KV_Iterator.cpp Pages: 1 -->
<svg width="1197pt" height="218pt"
 viewBox="0.00 0.00 1197.00 218.00" xmlns="http://www.w3.org/2000/svg" xmlns:xlink="http://www.w3.org/1999/xlink">
<g id="graph0" class="graph" transform="scale(1 1) rotate(0) translate(4 214)">
<title>KV_Iterator.cpp</title>
<polygon fill="white" stroke="none" points="-4,4 -4,-214 1193,-214 1193,4 -4,4"/>
<!-- Node1 -->
<g id="node1" class="node"><title>Node1</title>
<g id="a_node1"><a xlink:title=" ">
<polygon fill="#bfbfbf" stroke="black" points="847,-190.5 847,-209.5 932,-209.5 932,-190.5 847,-190.5"/>
<text text-anchor="middle" x="889.5" y="-197.5" font-family="Helvetica,sans-Serif" font-size="10.00">KV_Iterator.cpp</text>
</a>
</g>
</g>
<!-- Node2 -->
<g id="node2" class="node"><title>Node2</title>
<g id="a_node2"><a xlink:href="../../dd/d0f/KV__Helpers_8hpp.html" target="_top" xlink:title="Helpers for address manipulation used to layout dictionary entries in memory.">
<polygon fill="white" stroke="black" points="0,-56.5 0,-86.5 139,-86.5 139,-56.5 0,-56.5"/>
<text text-anchor="start" x="8" y="-74.5" font-family="Helvetica,sans-Serif" font-size="10.00">KVComm/include/KVComm</text>
<text text-anchor="middle" x="69.5" y="-63.5" font-family="Helvetica,sans-Serif" font-size="10.00">/KV_Helpers.hpp</text>
</a>
</g>
</g>
<!-- Node1&#45;&gt;Node2 -->
<g id="edge1" class="edge"><title>Node1&#45;&gt;Node2</title>
<path fill="none" stroke="midnightblue" d="M846.751,-193.112C734.254,-177.496 420.509,-133.166 149.258,-87.2739"/>
<polygon fill="midnightblue" stroke="midnightblue" points="149.667,-83.7932 139.222,-85.5718 148.496,-90.6946 149.667,-83.7932"/>
</g>
<!-- Node4 -->
<g id="node4" class="node"><title>Node4</title>
<g id="a_node4"><a xlink:href="../../dc/d2c/KV__Iterator_8hpp.html" target="_top" xlink:title="Iterating over a dictionary generated by the KV_Builder, used for parsing and for checking if a key i...">
<polygon fill="white" stroke="black" points="592,-123.5 592,-153.5 731,-153.5 731,-123.5 592,-123.5"/>
<text text-anchor="start" x="600" y="-141.5" font-family="Helvetica,sans-Serif" font-size="10.00">KVComm/include/KVComm</text>
<text text-anchor="middle" x="661.5" y="-130.5" font-family="Helvetica,sans-Serif" font-size="10.00">/KV_Iterator.hpp</text>
</a>
</g>
</g>
<!-- Node1&#45;&gt;Node4 -->
<g id="edge3" class="edge"><title>Node1&#45;&gt;Node4</title>
<path fill="none" stroke="midnightblue" d="M856.833,-190.475C822.563,-181.532 767.831,-167.249 725.01,-156.074"/>
<polygon fill="midnightblue" stroke="midnightblue" points="725.795,-152.662 715.235,-153.523 724.027,-159.435 725.795,-152.662"/>
</g>
<!-- Node11 -->
<g id="node11" class="node"><title>Node11</title>
<g id="a_node11"><a xlink:title=" ">
<polygon fill="white" stroke="#bfbfbf" points="733,-0.5 733,-19.5 782,-19.5 782,-0.5 733,-0.5"/>
<text text-anchor="middle" x="757.5" y="-7.5" font-family="Helvetica,sans-Serif" font-size="10.00">string.h</text>
</a>
</g>
</g>
<!-- Node1&#45;&gt;Node11 -->
<g id="edge19" class="edge"><title>Node1&#45;&gt;Node11</title>
<path fill="none" stroke="midnightblue" d="M913.161,-190.46C967.935,-169.457 1095.18,-112.848 1046.5,-56 1014.14,-18.2137 862.012,-11.908 792.413,-11.029"/>
<polygon fill="midnightblue" stroke="midnightblue" points="792.407,-7.52888 782.374,-10.933 792.34,-14.5286 792.407,-7.52888"/>
</g>
<!-- Node18 -->
<g id="node18" class="node"><title>Node18</title>
<g id="a_node18"><a xlink:title=" ">
<polygon fill="white" stroke="#bfbfbf" points="1094,-129 1094,-148 1189,-148 1189,-129 1094,-129"/>
<text text-anchor="middle" x="1141.5" y="-136" font-family="Helvetica,sans-Serif" font-size="10.00">AH/STL/algorithm</text>
</a>
</g>
</g>
<!-- Node1&#45;&gt;Node18 -->
<g id="edge18" class="edge"><title>Node1&#45;&gt;Node18</title>
<path fill="none" stroke="midnightblue" d="M925.605,-190.475C970.329,-179.915 1046.58,-161.911 1095.47,-150.369"/>
<polygon fill="midnightblue" stroke="midnightblue" points="1096.53,-153.713 1105.46,-148.009 1094.92,-146.901 1096.53,-153.713"/>
</g>
<!-- Node3 -->
<g id="node3" class="node"><title>Node3</title>
<g id="a_node3"><a xlink:title=" ">
<polygon fill="white" stroke="#bfbfbf" points="43.5,-0.5 43.5,-19.5 95.5,-19.5 95.5,-0.5 43.5,-0.5"/>
<text text-anchor="middle" x="69.5" y="-7.5" font-family="Helvetica,sans-Serif" font-size="10.00">stddef.h</text>
</a>
</g>
</g>
<!-- Node2&#45;&gt;Node3 -->
<g id="edge2" class="edge"><title>Node2&#45;&gt;Node3</title>
<path fill="none" stroke="midnightblue" d="M69.5,-56.3993C69.5,-48.4664 69.5,-38.458 69.5,-29.8583"/>
<polygon fill="midnightblue" stroke="midnightblue" points="73.0001,-29.6577 69.5,-19.6578 66.0001,-29.6578 73.0001,-29.6577"/>
</g>
<!-- Node4&#45;&gt;Node2 -->
<g id="edge8" class="edge"><title>Node4&#45;&gt;Node2</title>
<path fill="none" stroke="midnightblue" d="M591.854,-132.565C494.85,-125.267 313.382,-110.08 149.464,-87.2089"/>
<polygon fill="midnightblue" stroke="midnightblue" points="149.583,-83.6911 139.192,-85.7622 148.607,-90.6227 149.583,-83.6911"/>
</g>
<!-- Node5 -->
<g id="node5" class="node"><title>Node5</title>
<g id="a_node5"><a xlink:href="../../d5/dbd/KV__Error_8hpp.html" target="_top" xlink:title=" ">
<polygon fill="white" stroke="black" points="157,-56.5 157,-86.5 296,-86.5 296,-56.5 157,-56.5"/>
<text text-anchor="start" x="165" y="-74.5" font-family="Helvetica,sans-Serif" font-size="10.00">KVComm/include/KVComm</text>
<text text-anchor="middle" x="226.5" y="-63.5" font-family="Helvetica,sans-Serif" font-size="10.00">/KV_Error.hpp</text>
</a>
</g>
</g>
<!-- Node4&#45;&gt;Node5 -->
<g id="edge4" class="edge"><title>Node4&#45;&gt;Node5</title>
<path fill="none" stroke="midnightblue" d="M591.924,-128.564C522.128,-119.395 411.305,-104.278 306.352,-87.2664"/>
<polygon fill="midnightblue" stroke="midnightblue" points="306.648,-83.7686 296.215,-85.6144 305.522,-90.6774 306.648,-83.7686"/>
</g>
<!-- Node9 -->
<g id="node9" class="node"><title>Node9</title>
<g id="a_node9"><a xlink:href="../../d6/da2/KV__Types_8hpp.html" target="_top" xlink:title="KV_Type type definitions for fundamental types (int::_t, uint::_t, float, double, bool,...">
<polygon fill="white" stroke="black" points="314,-56.5 314,-86.5 453,-86.5 453,-56.5 314,-56.5"/>
<text text-anchor="start" x="322" y="-74.5" font-family="Helvetica,sans-Serif" font-size="10.00">KVComm/include/KVComm</text>
<text text-anchor="middle" x="383.5" y="-63.5" font-family="Helvetica,sans-Serif" font-size="10.00">/KV_Types.hpp</text>
</a>
</g>
</g>
<!-- Node4&#45;&gt;Node9 -->
<g id="edge9" class="edge"><title>Node4&#45;&gt;Node9</title>
<path fill="none" stroke="midnightblue" d="M601.52,-123.476C558.098,-113.323 499.27,-99.5685 453.665,-88.9055"/>
<polygon fill="midnightblue" stroke="midnightblue" points="454.386,-85.4796 443.851,-86.6109 452.792,-92.2958 454.386,-85.4796"/>
</g>
<!-- Node12 -->
<g id="node12" class="node"><title>Node12</title>
<g id="a_node12"><a xlink:title=" ">
<polygon fill="white" stroke="#bfbfbf" points="471,-62 471,-81 548,-81 548,-62 471,-62"/>
<text text-anchor="middle" x="509.5" y="-69" font-family="Helvetica,sans-Serif" font-size="10.00">AH/STL/array</text>
</a>
</g>
</g>
<!-- Node4&#45;&gt;Node12 -->
<g id="edge12" class="edge"><title>Node4&#45;&gt;Node12</title>
<path fill="none" stroke="midnightblue" d="M628.518,-123.396C601.73,-111.941 564.31,-95.9385 538.619,-84.9521"/>
<polygon fill="midnightblue" stroke="midnightblue" points="539.964,-81.7208 529.393,-81.007 537.212,-88.1571 539.964,-81.7208"/>
</g>
<!-- Node13 -->
<g id="node13" class="node"><title>Node13</title>
<g id="a_node13"><a xlink:title=" ">
<polygon fill="white" stroke="#bfbfbf" points="566,-62 566,-81 653,-81 653,-62 566,-62"/>
<text text-anchor="middle" x="609.5" y="-69" font-family="Helvetica,sans-Serif" font-size="10.00">AH/STL/cstddef</text>
</a>
</g>
</g>
<!-- Node4&#45;&gt;Node13 -->
<g id="edge13" class="edge"><title>Node4&#45;&gt;Node13</title>
<path fill="none" stroke="midnightblue" d="M650.217,-123.396C642.189,-113.361 631.371,-99.8382 622.903,-89.2535"/>
<polygon fill="midnightblue" stroke="midnightblue" points="625.436,-86.8168 616.456,-81.1945 619.97,-91.1897 625.436,-86.8168"/>
</g>
<!-- Node14 -->
<g id="node14" class="node"><title>Node14</title>
<g id="a_node14"><a xlink:title=" ">
<polygon fill="white" stroke="#bfbfbf" points="671.5,-62 671.5,-81 755.5,-81 755.5,-62 671.5,-62"/>
<text text-anchor="middle" x="713.5" y="-69" font-family="Helvetica,sans-Serif" font-size="10.00">AH/STL/cstdint</text>
</a>
</g>
</g>
<!-- Node4&#45;&gt;Node14 -->
<g id="edge14" class="edge"><title>Node4&#45;&gt;Node14</title>
<path fill="none" stroke="midnightblue" d="M672.783,-123.396C680.811,-113.361 691.629,-99.8382 700.097,-89.2535"/>
<polygon fill="midnightblue" stroke="midnightblue" points="703.03,-91.1897 706.544,-81.1945 697.564,-86.8168 703.03,-91.1897"/>
</g>
<!-- Node15 -->
<g id="node15" class="node"><title>Node15</title>
<g id="a_node15"><a xlink:title=" ">
<polygon fill="white" stroke="#bfbfbf" points="774,-62 774,-81 859,-81 859,-62 774,-62"/>
<text text-anchor="middle" x="816.5" y="-69" font-family="Helvetica,sans-Serif" font-size="10.00">AH/STL/iterator</text>
</a>
</g>
</g>
<!-- Node4&#45;&gt;Node15 -->
<g id="edge15" class="edge"><title>Node4&#45;&gt;Node15</title>
<path fill="none" stroke="midnightblue" d="M695.133,-123.396C722.45,-111.941 760.608,-95.9385 786.806,-84.9521"/>
<polygon fill="midnightblue" stroke="midnightblue" points="788.346,-88.102 796.214,-81.007 785.639,-81.6466 788.346,-88.102"/>
</g>
<!-- Node16 -->
<g id="node16" class="node"><title>Node16</title>
<g id="a_node16"><a xlink:title=" ">
<polygon fill="white" stroke="#bfbfbf" points="877.5,-62 877.5,-81 959.5,-81 959.5,-62 877.5,-62"/>
<text text-anchor="middle" x="918.5" y="-69" font-family="Helvetica,sans-Serif" font-size="10.00">AH/STL/vector</text>
</a>
</g>
</g>
<!-- Node4&#45;&gt;Node16 -->
<g id="edge16" class="edge"><title>Node4&#45;&gt;Node16</title>
<path fill="none" stroke="midnightblue" d="M721.143,-123.489C762.352,-113.659 818.375,-100 867.5,-87 871.345,-85.9826 875.344,-84.8956 879.337,-83.7915"/>
<polygon fill="midnightblue" stroke="midnightblue" points="880.469,-87.1091 889.155,-81.0417 878.581,-80.3685 880.469,-87.1091"/>
</g>
<!-- Node17 -->
<g id="node17" class="node"><title>Node17</title>
<g id="a_node17"><a xlink:title=" ">
<polygon fill="white" stroke="#bfbfbf" points="977.5,-62 977.5,-81 1037.5,-81 1037.5,-62 977.5,-62"/>
<text text-anchor="middle" x="1007.5" y="-69" font-family="Helvetica,sans-Serif" font-size="10.00">WString.h</text>
</a>
</g>
</g>
<!-- Node4&#45;&gt;Node17 -->
<g id="edge17" class="edge"><title>Node4&#45;&gt;Node17</title>
<path fill="none" stroke="midnightblue" d="M731.196,-129.928C793.952,-122.193 888.363,-108.275 968.5,-87 971.315,-86.2528 974.21,-85.3813 977.09,-84.4433"/>
<polygon fill="midnightblue" stroke="midnightblue" points="978.409,-87.69 986.69,-81.0815 976.095,-81.0835 978.409,-87.69"/>
</g>
<!-- Node6 -->
<g id="node6" class="node"><title>Node6</title>
<g id="a_node6"><a xlink:title=" ">
<polygon fill="white" stroke="#bfbfbf" points="126.5,-0.5 126.5,-19.5 178.5,-19.5 178.5,-0.5 126.5,-0.5"/>
<text text-anchor="middle" x="152.5" y="-7.5" font-family="Helvetica,sans-Serif" font-size="10.00">sstream</text>
</a>
</g>
</g>
<!-- Node5&#45;&gt;Node6 -->
<g id="edge5" class="edge"><title>Node5&#45;&gt;Node6</title>
<path fill="none" stroke="midnightblue" d="M208.963,-56.3993C197.656,-47.3076 182.958,-35.4899 171.393,-26.1909"/>
<polygon fill="midnightblue" stroke="midnightblue" points="173.254,-23.1964 163.268,-19.6578 168.868,-28.6517 173.254,-23.1964"/>
</g>
<!-- Node7 -->
<g id="node7" class="node"><title>Node7</title>
<g id="a_node7"><a xlink:title=" ">
<polygon fill="white" stroke="#bfbfbf" points="197,-0.5 197,-19.5 256,-19.5 256,-0.5 197,-0.5"/>
<text text-anchor="middle" x="226.5" y="-7.5" font-family="Helvetica,sans-Serif" font-size="10.00">stdexcept</text>
</a>
</g>
</g>
<!-- Node5&#45;&gt;Node7 -->
<g id="edge6" class="edge"><title>Node5&#45;&gt;Node7</title>
<path fill="none" stroke="midnightblue" d="M226.5,-56.3993C226.5,-48.4664 226.5,-38.458 226.5,-29.8583"/>
<polygon fill="midnightblue" stroke="midnightblue" points="230,-29.6577 226.5,-19.6578 223,-29.6578 230,-29.6577"/>
</g>
<!-- Node8 -->
<g id="node8" class="node"><title>Node8</title>
<g id="a_node8"><a xlink:title=" ">
<polygon fill="white" stroke="#bfbfbf" points="274,-0.5 274,-19.5 315,-19.5 315,-0.5 274,-0.5"/>
<text text-anchor="middle" x="294.5" y="-7.5" font-family="Helvetica,sans-Serif" font-size="10.00">string</text>
</a>
</g>
</g>
<!-- Node5&#45;&gt;Node8 -->
<g id="edge7" class="edge"><title>Node5&#45;&gt;Node8</title>
<path fill="none" stroke="midnightblue" d="M242.615,-56.3993C252.904,-47.3967 266.247,-35.7214 276.826,-26.4652"/>
<polygon fill="midnightblue" stroke="midnightblue" points="279.384,-28.8769 284.605,-19.6578 274.775,-23.6088 279.384,-28.8769"/>
</g>
<!-- Node10 -->
<g id="node10" class="node"><title>Node10</title>
<g id="a_node10"><a xlink:title=" ">
<polygon fill="white" stroke="#bfbfbf" points="359,-0.5 359,-19.5 408,-19.5 408,-0.5 359,-0.5"/>
<text text-anchor="middle" x="383.5" y="-7.5" font-family="Helvetica,sans-Serif" font-size="10.00">stdint.h</text>
</a>
</g>
</g>
<!-- Node9&#45;&gt;Node10 -->
<g id="edge10" class="edge"><title>Node9&#45;&gt;Node10</title>
<path fill="none" stroke="midnightblue" d="M383.5,-56.3993C383.5,-48.4664 383.5,-38.458 383.5,-29.8583"/>
<polygon fill="midnightblue" stroke="midnightblue" points="387,-29.6577 383.5,-19.6578 380,-29.6578 387,-29.6577"/>
</g>
<!-- Node9&#45;&gt;Node11 -->
<g id="edge11" class="edge"><title>Node9&#45;&gt;Node11</title>
<path fill="none" stroke="midnightblue" d="M453.221,-57.4215C456.016,-56.9344 458.784,-56.4588 461.5,-56 555.874,-40.0588 667.622,-23.769 722.927,-15.8792"/>
<polygon fill="midnightblue" stroke="midnightblue" points="723.49,-19.3345 732.897,-14.4607 722.504,-12.4042 723.49,-19.3345"/>
</g>
</g>
</svg>
