<?xml version="1.0" encoding="UTF-8" standalone="no"?>
<!DOCTYPE svg PUBLIC "-//W3C//DTD SVG 1.1//EN"
 "http://www.w3.org/Graphics/SVG/1.1/DTD/svg11.dtd">
<!-- Generated by graphviz version 2.38.0 (20140413.2041)
 -->
<!-- Title: SLIPParserCRC&lt; CRC &gt; Pages: 1 -->
<svg width="138pt" height="358pt"
 viewBox="0.00 0.00 138.00 358.00" xmlns="http://www.w3.org/2000/svg" xmlns:xlink="http://www.w3.org/1999/xlink">
<g id="graph0" class="graph" transform="scale(1 1) rotate(0) translate(4 354)">
<title>SLIPParserCRC&lt; CRC &gt;</title>
<polygon fill="white" stroke="none" points="-4,4 -4,-354 134,-354 134,4 -4,4"/>
<!-- Node1 -->
<g id="node1" class="node"><title>Node1</title>
<g id="a_node1"><a xlink:title="Class for parsing SLIP packets with a CRC checksum to check the integrity of the packets.">
<polygon fill="#bfbfbf" stroke="black" points="0,-0.5 0,-112.5 130,-112.5 130,-0.5 0,-0.5"/>
<text text-anchor="middle" x="65" y="-100.5" font-family="Helvetica,sans-Serif" font-size="10.00">SLIPParserCRC&lt; CRC &gt;</text>
<polyline fill="none" stroke="black" points="0,-93.5 130,-93.5 "/>
<text text-anchor="start" x="8" y="-81.5" font-family="Helvetica,sans-Serif" font-size="10.00">&#45; crc</text>
<polyline fill="none" stroke="black" points="0,-74.5 130,-74.5 "/>
<text text-anchor="start" x="8" y="-62.5" font-family="Helvetica,sans-Serif" font-size="10.00">+ SLIPParserCRC()</text>
<text text-anchor="start" x="8" y="-51.5" font-family="Helvetica,sans-Serif" font-size="10.00">+ SLIPParserCRC()</text>
<text text-anchor="start" x="8" y="-40.5" font-family="Helvetica,sans-Serif" font-size="10.00">+ parse()</text>
<text text-anchor="start" x="8" y="-29.5" font-family="Helvetica,sans-Serif" font-size="10.00">+ wasTruncated()</text>
<text text-anchor="start" x="8" y="-18.5" font-family="Helvetica,sans-Serif" font-size="10.00">+ numTruncated()</text>
<text text-anchor="start" x="8" y="-7.5" font-family="Helvetica,sans-Serif" font-size="10.00">+ checksum()</text>
</a>
</g>
</g>
<!-- Node2 -->
<g id="node2" class="node"><title>Node2</title>
<g id="a_node2"><a xlink:href="../../d9/db2/classSLIPParser.html" target="_top" xlink:title="Class for parsing SLIP packets.">
<polygon fill="white" stroke="black" points="18,-160.5 18,-349.5 112,-349.5 112,-160.5 18,-160.5"/>
<text text-anchor="middle" x="65" y="-337.5" font-family="Helvetica,sans-Serif" font-size="10.00">SLIPParser</text>
<polyline fill="none" stroke="black" points="18,-330.5 112,-330.5 "/>
<text text-anchor="start" x="26" y="-318.5" font-family="Helvetica,sans-Serif" font-size="10.00">&#45; buffer</text>
<text text-anchor="start" x="26" y="-307.5" font-family="Helvetica,sans-Serif" font-size="10.00">&#45; write</text>
<text text-anchor="start" x="26" y="-296.5" font-family="Helvetica,sans-Serif" font-size="10.00">&#45; bufferSize</text>
<text text-anchor="start" x="26" y="-285.5" font-family="Helvetica,sans-Serif" font-size="10.00">&#45; truncated</text>
<text text-anchor="start" x="26" y="-274.5" font-family="Helvetica,sans-Serif" font-size="10.00">&#45; escape</text>
<polyline fill="none" stroke="black" points="18,-267.5 112,-267.5 "/>
<text text-anchor="start" x="26" y="-255.5" font-family="Helvetica,sans-Serif" font-size="10.00">+ SLIPParser()</text>
<text text-anchor="start" x="26" y="-244.5" font-family="Helvetica,sans-Serif" font-size="10.00">+ SLIPParser()</text>
<text text-anchor="start" x="26" y="-233.5" font-family="Helvetica,sans-Serif" font-size="10.00">+ SLIPParser()</text>
<text text-anchor="start" x="26" y="-222.5" font-family="Helvetica,sans-Serif" font-size="10.00">+ SLIPParser()</text>
<text text-anchor="start" x="26" y="-211.5" font-family="Helvetica,sans-Serif" font-size="10.00">+ parse()</text>
<text text-anchor="start" x="26" y="-200.5" font-family="Helvetica,sans-Serif" font-size="10.00">+ parse()</text>
<text text-anchor="start" x="26" y="-189.5" font-family="Helvetica,sans-Serif" font-size="10.00">+ wasTruncated()</text>
<text text-anchor="start" x="26" y="-178.5" font-family="Helvetica,sans-Serif" font-size="10.00">+ numTruncated()</text>
<text text-anchor="start" x="26" y="-167.5" font-family="Helvetica,sans-Serif" font-size="10.00">&#45; reset()</text>
</a>
</g>
</g>
<!-- Node2&#45;&gt;Node1 -->
<g id="edge1" class="edge"><title>Node2&#45;&gt;Node1</title>
<path fill="none" stroke="#404040" d="M65,-160.354C65,-148.376 65,-136.307 65,-124.861"/>
<polygon fill="none" stroke="#404040" points="65.0001,-124.718 61,-118.718 65,-112.718 69,-118.718 65.0001,-124.718"/>
<text text-anchor="middle" x="82" y="-134" font-family="Helvetica,sans-Serif" font-size="10.00"> &#45;parser</text>
</g>
</g>
</svg>
