<?xml version="1.0" encoding="UTF-8" standalone="no"?>
<!DOCTYPE svg PUBLIC "-//W3C//DTD SVG 1.1//EN"
 "http://www.w3.org/Graphics/SVG/1.1/DTD/svg11.dtd">
<!-- Generated by graphviz version 2.38.0 (20140413.2041)
 -->
<!-- Title: KV_Builder.ipp Pages: 1 -->
<svg width="1102pt" height="285pt"
 viewBox="0.00 0.00 1102.14 285.00" xmlns="http://www.w3.org/2000/svg" xmlns:xlink="http://www.w3.org/1999/xlink">
<g id="graph0" class="graph" transform="scale(1 1) rotate(0) translate(4 281)">
<title>KV_Builder.ipp</title>
<polygon fill="white" stroke="none" points="-4,4 -4,-281 1098.14,-281 1098.14,4 -4,4"/>
<!-- Node1 -->
<g id="node1" class="node"><title>Node1</title>
<g id="a_node1"><a xlink:title=" ">
<polygon fill="#bfbfbf" stroke="black" points="818,-257.5 818,-276.5 899,-276.5 899,-257.5 818,-257.5"/>
<text text-anchor="middle" x="858.5" y="-264.5" font-family="Helvetica,sans-Serif" font-size="10.00">KV_Builder.ipp</text>
</a>
</g>
</g>
<!-- Node2 -->
<g id="node2" class="node"><title>Node2</title>
<g id="a_node2"><a xlink:href="../../dc/d98/KV__Builder_8hpp.html" target="_top" xlink:title="This file contains the KV_Builder class, a key&#45;value pair, dictionary&#45;like container that supports ma...">
<polygon fill="white" stroke="black" points="789,-190.5 789,-220.5 928,-220.5 928,-190.5 789,-190.5"/>
<text text-anchor="start" x="797" y="-208.5" font-family="Helvetica,sans-Serif" font-size="10.00">KVComm/include/KVComm</text>
<text text-anchor="middle" x="858.5" y="-197.5" font-family="Helvetica,sans-Serif" font-size="10.00">/KV_Builder.hpp</text>
</a>
</g>
</g>
<!-- Node1&#45;&gt;Node2 -->
<g id="edge1" class="edge"><title>Node1&#45;&gt;Node2</title>
<path fill="none" stroke="midnightblue" d="M853.599,-257.475C852.072,-250.471 851.491,-240.192 851.856,-230.696"/>
<polygon fill="midnightblue" stroke="midnightblue" points="855.361,-230.77 852.67,-220.523 848.383,-230.212 855.361,-230.77"/>
</g>
<!-- Node10 -->
<g id="node10" class="node"><title>Node10</title>
<g id="a_node10"><a xlink:href="../../d6/da2/KV__Types_8hpp.html" target="_top" xlink:title="KV_Type type definitions for fundamental types (int::_t, uint::_t, float, double, bool,...">
<polygon fill="white" stroke="black" points="899,-56.5 899,-86.5 1038,-86.5 1038,-56.5 899,-56.5"/>
<text text-anchor="start" x="907" y="-74.5" font-family="Helvetica,sans-Serif" font-size="10.00">KVComm/include/KVComm</text>
<text text-anchor="middle" x="968.5" y="-63.5" font-family="Helvetica,sans-Serif" font-size="10.00">/KV_Types.hpp</text>
</a>
</g>
</g>
<!-- Node1&#45;&gt;Node10 -->
<g id="edge25" class="edge"><title>Node1&#45;&gt;Node10</title>
<path fill="none" stroke="midnightblue" d="M899.242,-259.534C953.357,-248.52 1046.94,-220.465 1088.5,-154 1095.8,-142.318 1096.12,-134.477 1088.5,-123 1078.73,-108.283 1063.73,-97.8455 1047.62,-90.4457"/>
<polygon fill="midnightblue" stroke="midnightblue" points="1048.61,-87.0661 1038.04,-86.4305 1045.91,-93.5225 1048.61,-87.0661"/>
</g>
<!-- Node2&#45;&gt;Node1 -->
<g id="edge24" class="edge"><title>Node2&#45;&gt;Node1</title>
<path fill="none" stroke="midnightblue" d="M864.33,-220.523C865.373,-228.586 865.529,-238.813 864.799,-247.526"/>
<polygon fill="midnightblue" stroke="midnightblue" points="861.327,-247.085 863.401,-257.475 868.259,-248.06 861.327,-247.085"/>
</g>
<!-- Node3 -->
<g id="node3" class="node"><title>Node3</title>
<g id="a_node3"><a xlink:href="../../dc/d2c/KV__Iterator_8hpp.html" target="_top" xlink:title="Iterating over a dictionary generated by the KV_Builder, used for parsing and for checking if a key i...">
<polygon fill="white" stroke="black" points="538,-123.5 538,-153.5 677,-153.5 677,-123.5 538,-123.5"/>
<text text-anchor="start" x="546" y="-141.5" font-family="Helvetica,sans-Serif" font-size="10.00">KVComm/include/KVComm</text>
<text text-anchor="middle" x="607.5" y="-130.5" font-family="Helvetica,sans-Serif" font-size="10.00">/KV_Iterator.hpp</text>
</a>
</g>
</g>
<!-- Node2&#45;&gt;Node3 -->
<g id="edge2" class="edge"><title>Node2&#45;&gt;Node3</title>
<path fill="none" stroke="midnightblue" d="M804.346,-190.476C765.469,-180.408 712.916,-166.799 671.889,-156.174"/>
<polygon fill="midnightblue" stroke="midnightblue" points="672.548,-152.73 661.99,-153.611 670.793,-159.506 672.548,-152.73"/>
</g>
<!-- Node12 -->
<g id="node12" class="node"><title>Node12</title>
<g id="a_node12"><a xlink:title=" ">
<polygon fill="white" stroke="#bfbfbf" points="1026,-0.5 1026,-19.5 1075,-19.5 1075,-0.5 1026,-0.5"/>
<text text-anchor="middle" x="1050.5" y="-7.5" font-family="Helvetica,sans-Serif" font-size="10.00">string.h</text>
</a>
</g>
</g>
<!-- Node2&#45;&gt;Node12 -->
<g id="edge22" class="edge"><title>Node2&#45;&gt;Node12</title>
<path fill="none" stroke="midnightblue" d="M861.151,-190.377C865.354,-172.023 875.343,-140.285 896.5,-123 949.593,-79.6227 1002.65,-139.705 1046.5,-87 1059.67,-71.169 1058.29,-46.4438 1055.19,-29.5225"/>
<polygon fill="midnightblue" stroke="midnightblue" points="1058.6,-28.7231 1053.04,-19.7017 1051.76,-30.2185 1058.6,-28.7231"/>
</g>
<!-- Node13 -->
<g id="node13" class="node"><title>Node13</title>
<g id="a_node13"><a xlink:title=" ">
<polygon fill="white" stroke="#bfbfbf" points="0,-62 0,-81 77,-81 77,-62 0,-62"/>
<text text-anchor="middle" x="38.5" y="-69" font-family="Helvetica,sans-Serif" font-size="10.00">AH/STL/array</text>
</a>
</g>
</g>
<!-- Node2&#45;&gt;Node13 -->
<g id="edge18" class="edge"><title>Node2&#45;&gt;Node13</title>
<path fill="none" stroke="midnightblue" d="M788.883,-200.143C693.699,-193.543 517.825,-179.048 369.5,-154 241.623,-132.405 210.644,-121.024 85.5,-87 82.101,-86.0759 78.577,-85.0731 75.0567,-84.041"/>
<polygon fill="midnightblue" stroke="midnightblue" points="75.8359,-80.6206 65.2518,-81.0956 73.822,-87.3247 75.8359,-80.6206"/>
</g>
<!-- Node14 -->
<g id="node14" class="node"><title>Node14</title>
<g id="a_node14"><a xlink:title=" ">
<polygon fill="white" stroke="#bfbfbf" points="95,-62 95,-81 182,-81 182,-62 95,-62"/>
<text text-anchor="middle" x="138.5" y="-69" font-family="Helvetica,sans-Serif" font-size="10.00">AH/STL/cstddef</text>
</a>
</g>
</g>
<!-- Node2&#45;&gt;Node14 -->
<g id="edge19" class="edge"><title>Node2&#45;&gt;Node14</title>
<path fill="none" stroke="midnightblue" d="M788.702,-195.027C666.542,-177.825 406.424,-138.426 190.5,-87 186.178,-85.9706 181.673,-84.8252 177.202,-83.6421"/>
<polygon fill="midnightblue" stroke="midnightblue" points="178.119,-80.2643 167.551,-81.0222 176.285,-87.0198 178.119,-80.2643"/>
</g>
<!-- Node17 -->
<g id="node17" class="node"><title>Node17</title>
<g id="a_node17"><a xlink:title=" ">
<polygon fill="white" stroke="#bfbfbf" points="798.5,-62 798.5,-81 880.5,-81 880.5,-62 798.5,-62"/>
<text text-anchor="middle" x="839.5" y="-69" font-family="Helvetica,sans-Serif" font-size="10.00">AH/STL/vector</text>
</a>
</g>
</g>
<!-- Node2&#45;&gt;Node17 -->
<g id="edge21" class="edge"><title>Node2&#45;&gt;Node17</title>
<path fill="none" stroke="midnightblue" d="M856.467,-190.374C853.016,-166.397 846.013,-117.748 842.171,-91.0561"/>
<polygon fill="midnightblue" stroke="midnightblue" points="845.627,-90.4966 840.737,-81.0973 838.698,-91.4939 845.627,-90.4966"/>
</g>
<!-- Node19 -->
<g id="node19" class="node"><title>Node19</title>
<g id="a_node19"><a xlink:title=" ">
<polygon fill="white" stroke="#bfbfbf" points="906,-129 906,-148 1017,-148 1017,-129 906,-129"/>
<text text-anchor="middle" x="961.5" y="-136" font-family="Helvetica,sans-Serif" font-size="10.00">AH/STL/initializer_list</text>
</a>
</g>
</g>
<!-- Node2&#45;&gt;Node19 -->
<g id="edge20" class="edge"><title>Node2&#45;&gt;Node19</title>
<path fill="none" stroke="midnightblue" d="M880.849,-190.396C898.122,-179.496 921.918,-164.479 939.183,-153.584"/>
<polygon fill="midnightblue" stroke="midnightblue" points="941.431,-156.304 948.02,-148.007 937.695,-150.384 941.431,-156.304"/>
</g>
<!-- Node20 -->
<g id="node20" class="node"><title>Node20</title>
<g id="a_node20"><a xlink:title=" ">
<polygon fill="white" stroke="#bfbfbf" points="1035,-129 1035,-148 1080,-148 1080,-129 1035,-129"/>
<text text-anchor="middle" x="1057.5" y="-136" font-family="Helvetica,sans-Serif" font-size="10.00">Print.h</text>
</a>
</g>
</g>
<!-- Node2&#45;&gt;Node20 -->
<g id="edge23" class="edge"><title>Node2&#45;&gt;Node20</title>
<path fill="none" stroke="midnightblue" d="M911.369,-190.44C944.516,-181.153 987.933,-168.121 1025.5,-154 1027.11,-153.395 1028.75,-152.748 1030.4,-152.074"/>
<polygon fill="midnightblue" stroke="midnightblue" points="1031.94,-155.224 1039.73,-148.051 1029.17,-148.796 1031.94,-155.224"/>
</g>
<!-- Node4 -->
<g id="node4" class="node"><title>Node4</title>
<g id="a_node4"><a xlink:href="../../d5/dbd/KV__Error_8hpp.html" target="_top" xlink:title=" ">
<polygon fill="white" stroke="black" points="200,-56.5 200,-86.5 339,-86.5 339,-56.5 200,-56.5"/>
<text text-anchor="start" x="208" y="-74.5" font-family="Helvetica,sans-Serif" font-size="10.00">KVComm/include/KVComm</text>
<text text-anchor="middle" x="269.5" y="-63.5" font-family="Helvetica,sans-Serif" font-size="10.00">/KV_Error.hpp</text>
</a>
</g>
</g>
<!-- Node3&#45;&gt;Node4 -->
<g id="edge3" class="edge"><title>Node3&#45;&gt;Node4</title>
<path fill="none" stroke="midnightblue" d="M537.876,-124.111C483.002,-113.558 406.448,-98.8362 349.139,-87.8153"/>
<polygon fill="midnightblue" stroke="midnightblue" points="349.515,-84.3234 339.034,-85.8719 348.193,-91.1974 349.515,-84.3234"/>
</g>
<!-- Node8 -->
<g id="node8" class="node"><title>Node8</title>
<g id="a_node8"><a xlink:href="../../dd/d0f/KV__Helpers_8hpp.html" target="_top" xlink:title="Helpers for address manipulation used to layout dictionary entries in memory.">
<polygon fill="white" stroke="black" points="357,-56.5 357,-86.5 496,-86.5 496,-56.5 357,-56.5"/>
<text text-anchor="start" x="365" y="-74.5" font-family="Helvetica,sans-Serif" font-size="10.00">KVComm/include/KVComm</text>
<text text-anchor="middle" x="426.5" y="-63.5" font-family="Helvetica,sans-Serif" font-size="10.00">/KV_Helpers.hpp</text>
</a>
</g>
</g>
<!-- Node3&#45;&gt;Node8 -->
<g id="edge7" class="edge"><title>Node3&#45;&gt;Node8</title>
<path fill="none" stroke="midnightblue" d="M568.226,-123.396C540.949,-113.601 504.416,-100.481 475.273,-90.0153"/>
<polygon fill="midnightblue" stroke="midnightblue" points="476.292,-86.6624 465.698,-86.5765 473.926,-93.2504 476.292,-86.6624"/>
</g>
<!-- Node3&#45;&gt;Node10 -->
<g id="edge9" class="edge"><title>Node3&#45;&gt;Node10</title>
<path fill="none" stroke="midnightblue" d="M677.049,-125.132C731.793,-115.376 810.31,-101.341 888.665,-87.1471"/>
<polygon fill="midnightblue" stroke="midnightblue" points="889.501,-90.5527 898.716,-85.3253 888.252,-83.665 889.501,-90.5527"/>
</g>
<!-- Node3&#45;&gt;Node13 -->
<g id="edge12" class="edge"><title>Node3&#45;&gt;Node13</title>
<path fill="none" stroke="midnightblue" d="M537.604,-135.237C436.837,-130.96 245.297,-119.034 85.5,-87 81.3555,-86.1692 77.0566,-85.1175 72.8179,-83.9615"/>
<polygon fill="midnightblue" stroke="midnightblue" points="73.7182,-80.5783 63.1377,-81.1295 71.7527,-87.2967 73.7182,-80.5783"/>
</g>
<!-- Node3&#45;&gt;Node14 -->
<g id="edge13" class="edge"><title>Node3&#45;&gt;Node14</title>
<path fill="none" stroke="midnightblue" d="M537.634,-132.292C454.39,-125.34 311.378,-111.029 190.5,-87 185.752,-86.0561 180.802,-84.9027 175.926,-83.6629"/>
<polygon fill="midnightblue" stroke="midnightblue" points="176.674,-80.2398 166.109,-81.0358 174.864,-87.0019 176.674,-80.2398"/>
</g>
<!-- Node15 -->
<g id="node15" class="node"><title>Node15</title>
<g id="a_node15"><a xlink:title=" ">
<polygon fill="white" stroke="#bfbfbf" points="514.5,-62 514.5,-81 598.5,-81 598.5,-62 514.5,-62"/>
<text text-anchor="middle" x="556.5" y="-69" font-family="Helvetica,sans-Serif" font-size="10.00">AH/STL/cstdint</text>
</a>
</g>
</g>
<!-- Node3&#45;&gt;Node15 -->
<g id="edge14" class="edge"><title>Node3&#45;&gt;Node15</title>
<path fill="none" stroke="midnightblue" d="M596.434,-123.396C588.56,-113.361 577.95,-99.8382 569.645,-89.2535"/>
<polygon fill="midnightblue" stroke="midnightblue" points="572.248,-86.9014 563.322,-81.1945 566.741,-91.2225 572.248,-86.9014"/>
</g>
<!-- Node16 -->
<g id="node16" class="node"><title>Node16</title>
<g id="a_node16"><a xlink:title=" ">
<polygon fill="white" stroke="#bfbfbf" points="617,-62 617,-81 702,-81 702,-62 617,-62"/>
<text text-anchor="middle" x="659.5" y="-69" font-family="Helvetica,sans-Serif" font-size="10.00">AH/STL/iterator</text>
</a>
</g>
</g>
<!-- Node3&#45;&gt;Node16 -->
<g id="edge15" class="edge"><title>Node3&#45;&gt;Node16</title>
<path fill="none" stroke="midnightblue" d="M618.783,-123.396C626.811,-113.361 637.629,-99.8382 646.097,-89.2535"/>
<polygon fill="midnightblue" stroke="midnightblue" points="649.03,-91.1897 652.544,-81.1945 643.564,-86.8168 649.03,-91.1897"/>
</g>
<!-- Node3&#45;&gt;Node17 -->
<g id="edge16" class="edge"><title>Node3&#45;&gt;Node17</title>
<path fill="none" stroke="midnightblue" d="M658.929,-123.401C695.404,-113.359 745.494,-99.4858 789.5,-87 793.057,-85.9908 796.754,-84.934 800.455,-83.8704"/>
<polygon fill="midnightblue" stroke="midnightblue" points="801.531,-87.2026 810.169,-81.0676 799.591,-80.4769 801.531,-87.2026"/>
</g>
<!-- Node18 -->
<g id="node18" class="node"><title>Node18</title>
<g id="a_node18"><a xlink:title=" ">
<polygon fill="white" stroke="#bfbfbf" points="720.5,-62 720.5,-81 780.5,-81 780.5,-62 720.5,-62"/>
<text text-anchor="middle" x="750.5" y="-69" font-family="Helvetica,sans-Serif" font-size="10.00">WString.h</text>
</a>
</g>
</g>
<!-- Node3&#45;&gt;Node18 -->
<g id="edge17" class="edge"><title>Node3&#45;&gt;Node18</title>
<path fill="none" stroke="midnightblue" d="M638.529,-123.396C663.509,-112.041 698.316,-96.2201 722.464,-85.2437"/>
<polygon fill="midnightblue" stroke="midnightblue" points="724.129,-88.3314 731.785,-81.007 721.233,-81.9588 724.129,-88.3314"/>
</g>
<!-- Node5 -->
<g id="node5" class="node"><title>Node5</title>
<g id="a_node5"><a xlink:title=" ">
<polygon fill="white" stroke="#bfbfbf" points="169.5,-0.5 169.5,-19.5 221.5,-19.5 221.5,-0.5 169.5,-0.5"/>
<text text-anchor="middle" x="195.5" y="-7.5" font-family="Helvetica,sans-Serif" font-size="10.00">sstream</text>
</a>
</g>
</g>
<!-- Node4&#45;&gt;Node5 -->
<g id="edge4" class="edge"><title>Node4&#45;&gt;Node5</title>
<path fill="none" stroke="midnightblue" d="M251.963,-56.3993C240.656,-47.3076 225.958,-35.4899 214.393,-26.1909"/>
<polygon fill="midnightblue" stroke="midnightblue" points="216.254,-23.1964 206.268,-19.6578 211.868,-28.6517 216.254,-23.1964"/>
</g>
<!-- Node6 -->
<g id="node6" class="node"><title>Node6</title>
<g id="a_node6"><a xlink:title=" ">
<polygon fill="white" stroke="#bfbfbf" points="240,-0.5 240,-19.5 299,-19.5 299,-0.5 240,-0.5"/>
<text text-anchor="middle" x="269.5" y="-7.5" font-family="Helvetica,sans-Serif" font-size="10.00">stdexcept</text>
</a>
</g>
</g>
<!-- Node4&#45;&gt;Node6 -->
<g id="edge5" class="edge"><title>Node4&#45;&gt;Node6</title>
<path fill="none" stroke="midnightblue" d="M269.5,-56.3993C269.5,-48.4664 269.5,-38.458 269.5,-29.8583"/>
<polygon fill="midnightblue" stroke="midnightblue" points="273,-29.6577 269.5,-19.6578 266,-29.6578 273,-29.6577"/>
</g>
<!-- Node7 -->
<g id="node7" class="node"><title>Node7</title>
<g id="a_node7"><a xlink:title=" ">
<polygon fill="white" stroke="#bfbfbf" points="317,-0.5 317,-19.5 358,-19.5 358,-0.5 317,-0.5"/>
<text text-anchor="middle" x="337.5" y="-7.5" font-family="Helvetica,sans-Serif" font-size="10.00">string</text>
</a>
</g>
</g>
<!-- Node4&#45;&gt;Node7 -->
<g id="edge6" class="edge"><title>Node4&#45;&gt;Node7</title>
<path fill="none" stroke="midnightblue" d="M285.615,-56.3993C295.904,-47.3967 309.247,-35.7214 319.826,-26.4652"/>
<polygon fill="midnightblue" stroke="midnightblue" points="322.384,-28.8769 327.605,-19.6578 317.775,-23.6088 322.384,-28.8769"/>
</g>
<!-- Node9 -->
<g id="node9" class="node"><title>Node9</title>
<g id="a_node9"><a xlink:title=" ">
<polygon fill="white" stroke="#bfbfbf" points="400.5,-0.5 400.5,-19.5 452.5,-19.5 452.5,-0.5 400.5,-0.5"/>
<text text-anchor="middle" x="426.5" y="-7.5" font-family="Helvetica,sans-Serif" font-size="10.00">stddef.h</text>
</a>
</g>
</g>
<!-- Node8&#45;&gt;Node9 -->
<g id="edge8" class="edge"><title>Node8&#45;&gt;Node9</title>
<path fill="none" stroke="midnightblue" d="M426.5,-56.3993C426.5,-48.4664 426.5,-38.458 426.5,-29.8583"/>
<polygon fill="midnightblue" stroke="midnightblue" points="430,-29.6577 426.5,-19.6578 423,-29.6578 430,-29.6577"/>
</g>
<!-- Node11 -->
<g id="node11" class="node"><title>Node11</title>
<g id="a_node11"><a xlink:title=" ">
<polygon fill="white" stroke="#bfbfbf" points="944,-0.5 944,-19.5 993,-19.5 993,-0.5 944,-0.5"/>
<text text-anchor="middle" x="968.5" y="-7.5" font-family="Helvetica,sans-Serif" font-size="10.00">stdint.h</text>
</a>
</g>
</g>
<!-- Node10&#45;&gt;Node11 -->
<g id="edge10" class="edge"><title>Node10&#45;&gt;Node11</title>
<path fill="none" stroke="midnightblue" d="M968.5,-56.3993C968.5,-48.4664 968.5,-38.458 968.5,-29.8583"/>
<polygon fill="midnightblue" stroke="midnightblue" points="972,-29.6577 968.5,-19.6578 965,-29.6578 972,-29.6577"/>
</g>
<!-- Node10&#45;&gt;Node12 -->
<g id="edge11" class="edge"><title>Node10&#45;&gt;Node12</title>
<path fill="none" stroke="midnightblue" d="M987.933,-56.3993C1000.71,-47.1293 1017.39,-35.0254 1030.31,-25.6469"/>
<polygon fill="midnightblue" stroke="midnightblue" points="1032.53,-28.3635 1038.57,-19.6578 1028.42,-22.6979 1032.53,-28.3635"/>
</g>
</g>
</svg>
