<?xml version="1.0" encoding="UTF-8" standalone="no"?>
<!DOCTYPE svg PUBLIC "-//W3C//DTD SVG 1.1//EN"
 "http://www.w3.org/Graphics/SVG/1.1/DTD/svg11.dtd">
<!-- Generated by graphviz version 2.38.0 (20140413.2041)
 -->
<!-- Title: SLIPSender.ipp Pages: 1 -->
<svg width="142pt" height="252pt"
 viewBox="0.00 0.00 141.93 252.00" xmlns="http://www.w3.org/2000/svg" xmlns:xlink="http://www.w3.org/1999/xlink">
<g id="graph0" class="graph" transform="scale(1 1) rotate(0) translate(4 248)">
<title>SLIPSender.ipp</title>
<polygon fill="white" stroke="none" points="-4,4 -4,-248 137.925,-248 137.925,4 -4,4"/>
<!-- Node1 -->
<g id="node1" class="node"><title>Node1</title>
<g id="a_node1"><a xlink:title=" ">
<polygon fill="#bfbfbf" stroke="black" points="11.9254,-224.5 11.9254,-243.5 96.9254,-243.5 96.9254,-224.5 11.9254,-224.5"/>
<text text-anchor="middle" x="54.4254" y="-231.5" font-family="Helvetica,sans-Serif" font-size="10.00">SLIPSender.ipp</text>
</a>
</g>
</g>
<!-- Node2 -->
<g id="node2" class="node"><title>Node2</title>
<g id="a_node2"><a xlink:href="../../d5/ddb/SLIPSender_8hpp.html" target="_top" xlink:title=" ">
<polygon fill="white" stroke="black" points="10.4254,-168.5 10.4254,-187.5 98.4254,-187.5 98.4254,-168.5 10.4254,-168.5"/>
<text text-anchor="middle" x="54.4254" y="-175.5" font-family="Helvetica,sans-Serif" font-size="10.00">SLIPSender.hpp</text>
</a>
</g>
</g>
<!-- Node1&#45;&gt;Node2 -->
<g id="edge1" class="edge"><title>Node1&#45;&gt;Node2</title>
<path fill="none" stroke="midnightblue" d="M47.953,-214.101C47.321,-205.136 47.7681,-194.858 49.2944,-187.751"/>
<polygon fill="midnightblue" stroke="midnightblue" points="44.4912,-214.622 49.2591,-224.083 51.4321,-213.713 44.4912,-214.622"/>
</g>
<!-- Node2&#45;&gt;Node1 -->
<g id="edge2" class="edge"><title>Node2&#45;&gt;Node1</title>
<path fill="none" stroke="midnightblue" d="M60.8829,-197.691C61.5316,-206.635 61.1012,-216.927 59.5917,-224.083"/>
<polygon fill="midnightblue" stroke="midnightblue" points="64.3485,-197.2 59.5564,-187.751 57.41,-198.126 64.3485,-197.2"/>
</g>
<!-- Node3 -->
<g id="node3" class="node"><title>Node3</title>
<g id="a_node3"><a xlink:href="../../da/dd2/SLIPStream_8hpp.html" target="_top" xlink:title=" ">
<polygon fill="white" stroke="black" points="8.92537,-56.5 8.92537,-75.5 97.9254,-75.5 97.9254,-56.5 8.92537,-56.5"/>
<text text-anchor="middle" x="53.4254" y="-63.5" font-family="Helvetica,sans-Serif" font-size="10.00">SLIPStream.hpp</text>
</a>
</g>
</g>
<!-- Node2&#45;&gt;Node3 -->
<g id="edge3" class="edge"><title>Node2&#45;&gt;Node3</title>
<path fill="none" stroke="midnightblue" d="M30.056,-162.726C19.4776,-155.089 8.20267,-144.64 2.42537,-132 -8.00945,-109.17 19.6544,-87.1785 38.2051,-75.5474"/>
<polygon fill="midnightblue" stroke="midnightblue" points="28.3835,-165.818 38.642,-168.467 32.2741,-159.999 28.3835,-165.818"/>
</g>
<!-- Node4 -->
<g id="node4" class="node"><title>Node4</title>
<g id="a_node4"><a xlink:href="../../d9/df2/SLIPStream_8cpp.html" target="_top" xlink:title=" ">
<polygon fill="white" stroke="black" points="44.9254,-0.5 44.9254,-19.5 133.925,-19.5 133.925,-0.5 44.9254,-0.5"/>
<text text-anchor="middle" x="89.4254" y="-7.5" font-family="Helvetica,sans-Serif" font-size="10.00">SLIPStream.cpp</text>
</a>
</g>
</g>
<!-- Node2&#45;&gt;Node4 -->
<g id="edge8" class="edge"><title>Node2&#45;&gt;Node4</title>
<path fill="none" stroke="midnightblue" d="M78.7947,-162.726C89.3731,-155.089 100.648,-144.64 106.425,-132 124.239,-93.0273 103.356,-40.2214 93.7533,-19.678"/>
<polygon fill="midnightblue" stroke="midnightblue" points="76.5766,-159.999 70.2087,-168.467 80.4672,-165.818 76.5766,-159.999"/>
</g>
<!-- Node5 -->
<g id="node5" class="node"><title>Node5</title>
<g id="a_node5"><a xlink:href="../../d3/d61/SLIPStream_8ipp.html" target="_top" xlink:title=" ">
<polygon fill="white" stroke="black" points="11.4254,-112.5 11.4254,-131.5 97.4254,-131.5 97.4254,-112.5 11.4254,-112.5"/>
<text text-anchor="middle" x="54.4254" y="-119.5" font-family="Helvetica,sans-Serif" font-size="10.00">SLIPStream.ipp</text>
</a>
</g>
</g>
<!-- Node2&#45;&gt;Node5 -->
<g id="edge7" class="edge"><title>Node2&#45;&gt;Node5</title>
<path fill="none" stroke="midnightblue" d="M54.4254,-157.805C54.4254,-148.91 54.4254,-138.78 54.4254,-131.751"/>
<polygon fill="midnightblue" stroke="midnightblue" points="50.9255,-158.083 54.4254,-168.083 57.9255,-158.083 50.9255,-158.083"/>
</g>
<!-- Node3&#45;&gt;Node4 -->
<g id="edge4" class="edge"><title>Node3&#45;&gt;Node4</title>
<path fill="none" stroke="midnightblue" d="M65.0483,-47.5656C71.2422,-38.2747 78.5931,-27.2484 83.5913,-19.7511"/>
<polygon fill="midnightblue" stroke="midnightblue" points="62.0049,-45.821 59.37,-56.083 67.8293,-49.7039 62.0049,-45.821"/>
</g>
<!-- Node3&#45;&gt;Node5 -->
<g id="edge5" class="edge"><title>Node3&#45;&gt;Node5</title>
<path fill="none" stroke="midnightblue" d="M60.229,-85.6911C61.0434,-94.6353 60.8036,-104.927 59.4266,-112.083"/>
<polygon fill="midnightblue" stroke="midnightblue" points="63.6812,-85.1117 58.7184,-75.7511 56.7607,-86.1635 63.6812,-85.1117"/>
</g>
<!-- Node5&#45;&gt;Node3 -->
<g id="edge6" class="edge"><title>Node5&#45;&gt;Node3</title>
<path fill="none" stroke="midnightblue" d="M47.603,-102.101C46.805,-93.1357 47.0618,-82.8579 48.4564,-75.7511"/>
<polygon fill="midnightblue" stroke="midnightblue" points="44.1551,-102.71 49.0939,-112.083 51.0783,-101.676 44.1551,-102.71"/>
</g>
</g>
</svg>
