<?xml version="1.0" encoding="UTF-8" standalone="no"?>
<!DOCTYPE svg PUBLIC "-//W3C//DTD SVG 1.1//EN"
 "http://www.w3.org/Graphics/SVG/1.1/DTD/svg11.dtd">
<!-- Generated by graphviz version 2.38.0 (20140413.2041)
 -->
<!-- Title: SLIPParser.hpp Pages: 1 -->
<svg width="203pt" height="140pt"
 viewBox="0.00 0.00 203.00 140.00" xmlns="http://www.w3.org/2000/svg" xmlns:xlink="http://www.w3.org/1999/xlink">
<g id="graph0" class="graph" transform="scale(1 1) rotate(0) translate(4 136)">
<title>SLIPParser.hpp</title>
<polygon fill="white" stroke="none" points="-4,4 -4,-136 199,-136 199,4 -4,4"/>
<!-- Node1 -->
<g id="node1" class="node"><title>Node1</title>
<g id="a_node1"><a xlink:title=" ">
<polygon fill="#bfbfbf" stroke="black" points="3.5,-112.5 3.5,-131.5 89.5,-131.5 89.5,-112.5 3.5,-112.5"/>
<text text-anchor="middle" x="46.5" y="-119.5" font-family="Helvetica,sans-Serif" font-size="10.00">SLIPParser.hpp</text>
</a>
</g>
</g>
<!-- Node2 -->
<g id="node2" class="node"><title>Node2</title>
<g id="a_node2"><a xlink:href="../../d3/d0e/SLIPParser_8ipp.html" target="_top" xlink:title=" ">
<polygon fill="white" stroke="black" points="5,-56.5 5,-75.5 88,-75.5 88,-56.5 5,-56.5"/>
<text text-anchor="middle" x="46.5" y="-63.5" font-family="Helvetica,sans-Serif" font-size="10.00">SLIPParser.ipp</text>
</a>
</g>
</g>
<!-- Node1&#45;&gt;Node2 -->
<g id="edge1" class="edge"><title>Node1&#45;&gt;Node2</title>
<path fill="none" stroke="midnightblue" d="M40.0276,-102.101C39.3956,-93.1357 39.8427,-82.8579 41.369,-75.7511"/>
<polygon fill="midnightblue" stroke="midnightblue" points="36.5658,-102.622 41.3337,-112.083 43.5067,-101.713 36.5658,-102.622"/>
</g>
<!-- Node3 -->
<g id="node3" class="node"><title>Node3</title>
<g id="a_node3"><a xlink:href="../../da/dd2/SLIPStream_8hpp.html" target="_top" xlink:title=" ">
<polygon fill="white" stroke="black" points="106,-56.5 106,-75.5 195,-75.5 195,-56.5 106,-56.5"/>
<text text-anchor="middle" x="150.5" y="-63.5" font-family="Helvetica,sans-Serif" font-size="10.00">SLIPStream.hpp</text>
</a>
</g>
</g>
<!-- Node1&#45;&gt;Node3 -->
<g id="edge3" class="edge"><title>Node1&#45;&gt;Node3</title>
<path fill="none" stroke="midnightblue" d="M72.3275,-107.59C91.5567,-97.6052 117.245,-84.2672 133.832,-75.6545"/>
<polygon fill="midnightblue" stroke="midnightblue" points="70.4715,-104.61 63.2094,-112.324 73.6972,-110.822 70.4715,-104.61"/>
</g>
<!-- Node2&#45;&gt;Node1 -->
<g id="edge2" class="edge"><title>Node2&#45;&gt;Node1</title>
<path fill="none" stroke="midnightblue" d="M52.9575,-85.6911C53.6062,-94.6353 53.1758,-104.927 51.6663,-112.083"/>
<polygon fill="midnightblue" stroke="midnightblue" points="56.4231,-85.2002 51.631,-75.7511 49.4846,-86.1262 56.4231,-85.2002"/>
</g>
<!-- Node4 -->
<g id="node4" class="node"><title>Node4</title>
<g id="a_node4"><a xlink:href="../../d9/df2/SLIPStream_8cpp.html" target="_top" xlink:title=" ">
<polygon fill="white" stroke="black" points="0,-0.5 0,-19.5 89,-19.5 89,-0.5 0,-0.5"/>
<text text-anchor="middle" x="44.5" y="-7.5" font-family="Helvetica,sans-Serif" font-size="10.00">SLIPStream.cpp</text>
</a>
</g>
</g>
<!-- Node3&#45;&gt;Node4 -->
<g id="edge4" class="edge"><title>Node3&#45;&gt;Node4</title>
<path fill="none" stroke="midnightblue" d="M124.444,-51.7261C104.816,-41.7271 78.472,-28.3065 61.4885,-19.6545"/>
<polygon fill="midnightblue" stroke="midnightblue" points="122.97,-54.9033 133.469,-56.324 126.148,-48.666 122.97,-54.9033"/>
</g>
<!-- Node5 -->
<g id="node5" class="node"><title>Node5</title>
<g id="a_node5"><a xlink:href="../../d3/d61/SLIPStream_8ipp.html" target="_top" xlink:title=" ">
<polygon fill="white" stroke="black" points="107.5,-0.5 107.5,-19.5 193.5,-19.5 193.5,-0.5 107.5,-0.5"/>
<text text-anchor="middle" x="150.5" y="-7.5" font-family="Helvetica,sans-Serif" font-size="10.00">SLIPStream.ipp</text>
</a>
</g>
</g>
<!-- Node3&#45;&gt;Node5 -->
<g id="edge5" class="edge"><title>Node3&#45;&gt;Node5</title>
<path fill="none" stroke="midnightblue" d="M144.028,-46.1005C143.396,-37.1357 143.843,-26.8579 145.369,-19.7511"/>
<polygon fill="midnightblue" stroke="midnightblue" points="140.566,-46.6216 145.334,-56.083 147.507,-45.7134 140.566,-46.6216"/>
</g>
<!-- Node5&#45;&gt;Node3 -->
<g id="edge6" class="edge"><title>Node5&#45;&gt;Node3</title>
<path fill="none" stroke="midnightblue" d="M156.958,-29.6911C157.606,-38.6353 157.176,-48.9272 155.666,-56.083"/>
<polygon fill="midnightblue" stroke="midnightblue" points="160.423,-29.2002 155.631,-19.7511 153.485,-30.1262 160.423,-29.2002"/>
</g>
</g>
</svg>
