<?xml version="1.0" encoding="UTF-8" standalone="no"?>
<!DOCTYPE svg PUBLIC "-//W3C//DTD SVG 1.1//EN"
 "http://www.w3.org/Graphics/SVG/1.1/DTD/svg11.dtd">
<!-- Generated by graphviz version 2.38.0 (20140413.2041)
 -->
<!-- Title: KV_Builder.hpp Pages: 1 -->
<svg width="1084pt" height="218pt"
 viewBox="0.00 0.00 1083.50 218.00" xmlns="http://www.w3.org/2000/svg" xmlns:xlink="http://www.w3.org/1999/xlink">
<g id="graph0" class="graph" transform="scale(1 1) rotate(0) translate(4 214)">
<title>KV_Builder.hpp</title>
<polygon fill="white" stroke="none" points="-4,4 -4,-214 1079.5,-214 1079.5,4 -4,4"/>
<!-- Node1 -->
<g id="node1" class="node"><title>Node1</title>
<g id="a_node1"><a xlink:title="This file contains the KV_Builder class, a key&#45;value pair, dictionary&#45;like container that supports ma...">
<polygon fill="#bfbfbf" stroke="black" points="538.5,-190.5 538.5,-209.5 622.5,-209.5 622.5,-190.5 538.5,-190.5"/>
<text text-anchor="middle" x="580.5" y="-197.5" font-family="Helvetica,sans-Serif" font-size="10.00">KV_Builder.hpp</text>
</a>
</g>
</g>
<!-- Node2 -->
<g id="node2" class="node"><title>Node2</title>
<g id="a_node2"><a xlink:href="../../dc/d2c/KV__Iterator_8hpp.html" target="_top" xlink:title="Iterating over a dictionary generated by the KV_Builder, used for parsing and for checking if a key i...">
<polygon fill="white" stroke="black" points="511,-123.5 511,-153.5 650,-153.5 650,-123.5 511,-123.5"/>
<text text-anchor="start" x="519" y="-141.5" font-family="Helvetica,sans-Serif" font-size="10.00">KVComm/include/KVComm</text>
<text text-anchor="middle" x="580.5" y="-130.5" font-family="Helvetica,sans-Serif" font-size="10.00">/KV_Iterator.hpp</text>
</a>
</g>
</g>
<!-- Node1&#45;&gt;Node2 -->
<g id="edge1" class="edge"><title>Node1&#45;&gt;Node2</title>
<path fill="none" stroke="midnightblue" d="M580.5,-190.475C580.5,-183.471 580.5,-173.192 580.5,-163.696"/>
<polygon fill="midnightblue" stroke="midnightblue" points="584,-163.523 580.5,-153.523 577,-163.523 584,-163.523"/>
</g>
<!-- Node11 -->
<g id="node11" class="node"><title>Node11</title>
<g id="a_node11"><a xlink:title=" ">
<polygon fill="white" stroke="#bfbfbf" points="0,-0.5 0,-19.5 49,-19.5 49,-0.5 0,-0.5"/>
<text text-anchor="middle" x="24.5" y="-7.5" font-family="Helvetica,sans-Serif" font-size="10.00">string.h</text>
</a>
</g>
</g>
<!-- Node1&#45;&gt;Node11 -->
<g id="edge21" class="edge"><title>Node1&#45;&gt;Node11</title>
<path fill="none" stroke="midnightblue" d="M538.134,-196.943C420.449,-190.272 93.8519,-164.948 27.5,-87 14.1597,-71.3282 15.9512,-46.5684 19.3941,-29.5956"/>
<polygon fill="midnightblue" stroke="midnightblue" points="22.829,-30.2804 21.7526,-19.7404 16.0212,-28.6511 22.829,-30.2804"/>
</g>
<!-- Node12 -->
<g id="node12" class="node"><title>Node12</title>
<g id="a_node12"><a xlink:title=" ">
<polygon fill="white" stroke="#bfbfbf" points="194,-62 194,-81 271,-81 271,-62 194,-62"/>
<text text-anchor="middle" x="232.5" y="-69" font-family="Helvetica,sans-Serif" font-size="10.00">AH/STL/array</text>
</a>
</g>
</g>
<!-- Node1&#45;&gt;Node12 -->
<g id="edge17" class="edge"><title>Node1&#45;&gt;Node12</title>
<path fill="none" stroke="midnightblue" d="M563.714,-190.408C547.409,-181.839 522.158,-167.972 501.5,-154 483.159,-141.595 482.599,-132.289 462.5,-123 387.255,-88.2245 359.882,-107.246 279.5,-87 275.893,-86.0914 272.152,-85.0722 268.428,-84.0063"/>
<polygon fill="midnightblue" stroke="midnightblue" points="269.295,-80.6126 258.712,-81.1197 267.301,-87.3227 269.295,-80.6126"/>
</g>
<!-- Node13 -->
<g id="node13" class="node"><title>Node13</title>
<g id="a_node13"><a xlink:title=" ">
<polygon fill="white" stroke="#bfbfbf" points="888,-62 888,-81 975,-81 975,-62 888,-62"/>
<text text-anchor="middle" x="931.5" y="-69" font-family="Helvetica,sans-Serif" font-size="10.00">AH/STL/cstddef</text>
</a>
</g>
</g>
<!-- Node1&#45;&gt;Node13 -->
<g id="edge18" class="edge"><title>Node1&#45;&gt;Node13</title>
<path fill="none" stroke="midnightblue" d="M596.287,-190.443C612.222,-181.679 637.421,-167.467 658.5,-154 678.659,-141.121 680.54,-132.486 702.5,-123 775.796,-91.338 800.842,-105.545 878.5,-87 882.845,-85.9624 887.374,-84.8193 891.874,-83.6439"/>
<polygon fill="midnightblue" stroke="midnightblue" points="892.838,-87.0091 901.597,-81.0477 891.032,-80.2461 892.838,-87.0091"/>
</g>
<!-- Node16 -->
<g id="node16" class="node"><title>Node16</title>
<g id="a_node16"><a xlink:title=" ">
<polygon fill="white" stroke="#bfbfbf" points="993.5,-62 993.5,-81 1075.5,-81 1075.5,-62 993.5,-62"/>
<text text-anchor="middle" x="1034.5" y="-69" font-family="Helvetica,sans-Serif" font-size="10.00">AH/STL/vector</text>
</a>
</g>
</g>
<!-- Node1&#45;&gt;Node16 -->
<g id="edge20" class="edge"><title>Node1&#45;&gt;Node16</title>
<path fill="none" stroke="midnightblue" d="M608.118,-190.357C631.783,-182.428 666.395,-169.57 694.5,-154 714.795,-142.757 715.041,-131.821 736.5,-123 839.514,-80.656 875.644,-110.567 984.5,-87 988.892,-86.0492 993.464,-84.9207 997.98,-83.7196"/>
<polygon fill="midnightblue" stroke="midnightblue" points="998.994,-87.0706 1007.69,-81.0145 997.115,-80.3275 998.994,-87.0706"/>
</g>
<!-- Node18 -->
<g id="node18" class="node"><title>Node18</title>
<g id="a_node18"><a xlink:title=" ">
<polygon fill="white" stroke="#bfbfbf" points="745,-129 745,-148 856,-148 856,-129 745,-129"/>
<text text-anchor="middle" x="800.5" y="-136" font-family="Helvetica,sans-Serif" font-size="10.00">AH/STL/initializer_list</text>
</a>
</g>
</g>
<!-- Node1&#45;&gt;Node18 -->
<g id="edge19" class="edge"><title>Node1&#45;&gt;Node18</title>
<path fill="none" stroke="midnightblue" d="M612.021,-190.475C650.739,-180.004 716.524,-162.212 759.236,-150.66"/>
<polygon fill="midnightblue" stroke="midnightblue" points="760.298,-153.999 769.038,-148.009 758.471,-147.241 760.298,-153.999"/>
</g>
<!-- Node19 -->
<g id="node19" class="node"><title>Node19</title>
<g id="a_node19"><a xlink:title=" ">
<polygon fill="white" stroke="#bfbfbf" points="874,-129 874,-148 919,-148 919,-129 874,-129"/>
<text text-anchor="middle" x="896.5" y="-136" font-family="Helvetica,sans-Serif" font-size="10.00">Print.h</text>
</a>
</g>
</g>
<!-- Node1&#45;&gt;Node19 -->
<g id="edge22" class="edge"><title>Node1&#45;&gt;Node19</title>
<path fill="none" stroke="midnightblue" d="M622.866,-196.042C679.276,-191.266 781.678,-179.659 865.5,-154 867.375,-153.426 869.281,-152.759 871.18,-152.033"/>
<polygon fill="midnightblue" stroke="midnightblue" points="872.623,-155.223 880.43,-148.06 869.861,-148.791 872.623,-155.223"/>
</g>
<!-- Node20 -->
<g id="node20" class="node"><title>Node20</title>
<g id="a_node20"><a xlink:href="../../d7/d98/KV__Builder_8ipp.html" target="_top" xlink:title=" ">
<polygon fill="white" stroke="black" points="373,-129 373,-148 454,-148 454,-129 373,-129"/>
<text text-anchor="middle" x="413.5" y="-136" font-family="Helvetica,sans-Serif" font-size="10.00">KV_Builder.ipp</text>
</a>
</g>
</g>
<!-- Node1&#45;&gt;Node20 -->
<g id="edge23" class="edge"><title>Node1&#45;&gt;Node20</title>
<path fill="none" stroke="midnightblue" d="M551.672,-190.475C520.934,-180.313 472.836,-163.256 442.168,-151.7"/>
<polygon fill="midnightblue" stroke="midnightblue" points="443.076,-148.3 432.486,-148.009 440.583,-154.841 443.076,-148.3"/>
</g>
<!-- Node3 -->
<g id="node3" class="node"><title>Node3</title>
<g id="a_node3"><a xlink:href="../../d5/dbd/KV__Error_8hpp.html" target="_top" xlink:title=" ">
<polygon fill="white" stroke="black" points="289,-56.5 289,-86.5 428,-86.5 428,-56.5 289,-56.5"/>
<text text-anchor="start" x="297" y="-74.5" font-family="Helvetica,sans-Serif" font-size="10.00">KVComm/include/KVComm</text>
<text text-anchor="middle" x="358.5" y="-63.5" font-family="Helvetica,sans-Serif" font-size="10.00">/KV_Error.hpp</text>
</a>
</g>
</g>
<!-- Node2&#45;&gt;Node3 -->
<g id="edge2" class="edge"><title>Node2&#45;&gt;Node3</title>
<path fill="none" stroke="midnightblue" d="M532.603,-123.476C498.582,-113.515 452.718,-100.086 416.604,-89.5123"/>
<polygon fill="midnightblue" stroke="midnightblue" points="417.275,-86.062 406.694,-86.6109 415.308,-92.7799 417.275,-86.062"/>
</g>
<!-- Node7 -->
<g id="node7" class="node"><title>Node7</title>
<g id="a_node7"><a xlink:href="../../dd/d0f/KV__Helpers_8hpp.html" target="_top" xlink:title="Helpers for address manipulation used to layout dictionary entries in memory.">
<polygon fill="white" stroke="black" points="446,-56.5 446,-86.5 585,-86.5 585,-56.5 446,-56.5"/>
<text text-anchor="start" x="454" y="-74.5" font-family="Helvetica,sans-Serif" font-size="10.00">KVComm/include/KVComm</text>
<text text-anchor="middle" x="515.5" y="-63.5" font-family="Helvetica,sans-Serif" font-size="10.00">/KV_Helpers.hpp</text>
</a>
</g>
</g>
<!-- Node2&#45;&gt;Node7 -->
<g id="edge6" class="edge"><title>Node2&#45;&gt;Node7</title>
<path fill="none" stroke="midnightblue" d="M566.396,-123.396C557.708,-114.708 546.405,-103.405 536.658,-93.6576"/>
<polygon fill="midnightblue" stroke="midnightblue" points="539.122,-91.1727 529.577,-86.5765 534.173,-96.1225 539.122,-91.1727"/>
</g>
<!-- Node9 -->
<g id="node9" class="node"><title>Node9</title>
<g id="a_node9"><a xlink:href="../../d6/da2/KV__Types_8hpp.html" target="_top" xlink:title="KV_Type type definitions for fundamental types (int::_t, uint::_t, float, double, bool,...">
<polygon fill="white" stroke="black" points="37,-56.5 37,-86.5 176,-86.5 176,-56.5 37,-56.5"/>
<text text-anchor="start" x="45" y="-74.5" font-family="Helvetica,sans-Serif" font-size="10.00">KVComm/include/KVComm</text>
<text text-anchor="middle" x="106.5" y="-63.5" font-family="Helvetica,sans-Serif" font-size="10.00">/KV_Types.hpp</text>
</a>
</g>
</g>
<!-- Node2&#45;&gt;Node9 -->
<g id="edge8" class="edge"><title>Node2&#45;&gt;Node9</title>
<path fill="none" stroke="midnightblue" d="M510.765,-128.827C412.934,-116.628 241.471,-95.1242 186.38,-87.182"/>
<polygon fill="midnightblue" stroke="midnightblue" points="186.615,-83.6784 176.207,-85.6618 185.58,-90.6015 186.615,-83.6784"/>
</g>
<!-- Node2&#45;&gt;Node12 -->
<g id="edge11" class="edge"><title>Node2&#45;&gt;Node12</title>
<path fill="none" stroke="midnightblue" d="M510.834,-125.438C505.984,-124.61 501.169,-123.79 496.5,-123 400.108,-106.685 374.647,-109.461 279.5,-87 275.682,-86.0987 271.721,-85.054 267.791,-83.9464"/>
<polygon fill="midnightblue" stroke="midnightblue" points="268.768,-80.5854 258.186,-81.1092 266.785,-87.2987 268.768,-80.5854"/>
</g>
<!-- Node2&#45;&gt;Node13 -->
<g id="edge12" class="edge"><title>Node2&#45;&gt;Node13</title>
<path fill="none" stroke="midnightblue" d="M650.168,-125.45C655.018,-124.619 659.832,-123.796 664.5,-123 759.577,-106.797 784.311,-107.752 878.5,-87 883.146,-85.9763 887.994,-84.8011 892.788,-83.5723"/>
<polygon fill="midnightblue" stroke="midnightblue" points="893.702,-86.951 902.472,-81.0061 891.909,-80.1846 893.702,-86.951"/>
</g>
<!-- Node14 -->
<g id="node14" class="node"><title>Node14</title>
<g id="a_node14"><a xlink:title=" ">
<polygon fill="white" stroke="#bfbfbf" points="603.5,-62 603.5,-81 687.5,-81 687.5,-62 603.5,-62"/>
<text text-anchor="middle" x="645.5" y="-69" font-family="Helvetica,sans-Serif" font-size="10.00">AH/STL/cstdint</text>
</a>
</g>
</g>
<!-- Node2&#45;&gt;Node14 -->
<g id="edge13" class="edge"><title>Node2&#45;&gt;Node14</title>
<path fill="none" stroke="midnightblue" d="M594.604,-123.396C604.94,-113.06 618.976,-99.0237 629.691,-88.309"/>
<polygon fill="midnightblue" stroke="midnightblue" points="632.209,-90.7405 636.805,-81.1945 627.259,-85.7907 632.209,-90.7405"/>
</g>
<!-- Node15 -->
<g id="node15" class="node"><title>Node15</title>
<g id="a_node15"><a xlink:title=" ">
<polygon fill="white" stroke="#bfbfbf" points="706,-62 706,-81 791,-81 791,-62 706,-62"/>
<text text-anchor="middle" x="748.5" y="-69" font-family="Helvetica,sans-Serif" font-size="10.00">AH/STL/iterator</text>
</a>
</g>
</g>
<!-- Node2&#45;&gt;Node15 -->
<g id="edge14" class="edge"><title>Node2&#45;&gt;Node15</title>
<path fill="none" stroke="midnightblue" d="M616.953,-123.396C646.822,-111.84 688.65,-95.6562 717.064,-84.6629"/>
<polygon fill="midnightblue" stroke="midnightblue" points="718.449,-87.8797 726.513,-81.007 715.923,-81.3512 718.449,-87.8797"/>
</g>
<!-- Node2&#45;&gt;Node16 -->
<g id="edge15" class="edge"><title>Node2&#45;&gt;Node16</title>
<path fill="none" stroke="midnightblue" d="M650.093,-129.09C761.32,-115.609 968.361,-90.3271 984.5,-87 988.952,-86.0821 993.585,-84.9652 998.156,-83.7629"/>
<polygon fill="midnightblue" stroke="midnightblue" points="999.269,-87.0864 1007.97,-81.0385 997.396,-80.3415 999.269,-87.0864"/>
</g>
<!-- Node17 -->
<g id="node17" class="node"><title>Node17</title>
<g id="a_node17"><a xlink:title=" ">
<polygon fill="white" stroke="#bfbfbf" points="809.5,-62 809.5,-81 869.5,-81 869.5,-62 809.5,-62"/>
<text text-anchor="middle" x="839.5" y="-69" font-family="Helvetica,sans-Serif" font-size="10.00">WString.h</text>
</a>
</g>
</g>
<!-- Node2&#45;&gt;Node17 -->
<g id="edge16" class="edge"><title>Node2&#45;&gt;Node17</title>
<path fill="none" stroke="midnightblue" d="M650.465,-123.872C694.001,-114.794 750.944,-101.831 800.5,-87 803.071,-86.2304 805.718,-85.3788 808.364,-84.4852"/>
<polygon fill="midnightblue" stroke="midnightblue" points="809.551,-87.7778 817.806,-81.1362 807.211,-81.1804 809.551,-87.7778"/>
</g>
<!-- Node4 -->
<g id="node4" class="node"><title>Node4</title>
<g id="a_node4"><a xlink:title=" ">
<polygon fill="white" stroke="#bfbfbf" points="258.5,-0.5 258.5,-19.5 310.5,-19.5 310.5,-0.5 258.5,-0.5"/>
<text text-anchor="middle" x="284.5" y="-7.5" font-family="Helvetica,sans-Serif" font-size="10.00">sstream</text>
</a>
</g>
</g>
<!-- Node3&#45;&gt;Node4 -->
<g id="edge3" class="edge"><title>Node3&#45;&gt;Node4</title>
<path fill="none" stroke="midnightblue" d="M340.963,-56.3993C329.656,-47.3076 314.958,-35.4899 303.393,-26.1909"/>
<polygon fill="midnightblue" stroke="midnightblue" points="305.254,-23.1964 295.268,-19.6578 300.868,-28.6517 305.254,-23.1964"/>
</g>
<!-- Node5 -->
<g id="node5" class="node"><title>Node5</title>
<g id="a_node5"><a xlink:title=" ">
<polygon fill="white" stroke="#bfbfbf" points="329,-0.5 329,-19.5 388,-19.5 388,-0.5 329,-0.5"/>
<text text-anchor="middle" x="358.5" y="-7.5" font-family="Helvetica,sans-Serif" font-size="10.00">stdexcept</text>
</a>
</g>
</g>
<!-- Node3&#45;&gt;Node5 -->
<g id="edge4" class="edge"><title>Node3&#45;&gt;Node5</title>
<path fill="none" stroke="midnightblue" d="M358.5,-56.3993C358.5,-48.4664 358.5,-38.458 358.5,-29.8583"/>
<polygon fill="midnightblue" stroke="midnightblue" points="362,-29.6577 358.5,-19.6578 355,-29.6578 362,-29.6577"/>
</g>
<!-- Node6 -->
<g id="node6" class="node"><title>Node6</title>
<g id="a_node6"><a xlink:title=" ">
<polygon fill="white" stroke="#bfbfbf" points="406,-0.5 406,-19.5 447,-19.5 447,-0.5 406,-0.5"/>
<text text-anchor="middle" x="426.5" y="-7.5" font-family="Helvetica,sans-Serif" font-size="10.00">string</text>
</a>
</g>
</g>
<!-- Node3&#45;&gt;Node6 -->
<g id="edge5" class="edge"><title>Node3&#45;&gt;Node6</title>
<path fill="none" stroke="midnightblue" d="M374.615,-56.3993C384.904,-47.3967 398.247,-35.7214 408.826,-26.4652"/>
<polygon fill="midnightblue" stroke="midnightblue" points="411.384,-28.8769 416.605,-19.6578 406.775,-23.6088 411.384,-28.8769"/>
</g>
<!-- Node8 -->
<g id="node8" class="node"><title>Node8</title>
<g id="a_node8"><a xlink:title=" ">
<polygon fill="white" stroke="#bfbfbf" points="489.5,-0.5 489.5,-19.5 541.5,-19.5 541.5,-0.5 489.5,-0.5"/>
<text text-anchor="middle" x="515.5" y="-7.5" font-family="Helvetica,sans-Serif" font-size="10.00">stddef.h</text>
</a>
</g>
</g>
<!-- Node7&#45;&gt;Node8 -->
<g id="edge7" class="edge"><title>Node7&#45;&gt;Node8</title>
<path fill="none" stroke="midnightblue" d="M515.5,-56.3993C515.5,-48.4664 515.5,-38.458 515.5,-29.8583"/>
<polygon fill="midnightblue" stroke="midnightblue" points="519,-29.6577 515.5,-19.6578 512,-29.6578 519,-29.6577"/>
</g>
<!-- Node10 -->
<g id="node10" class="node"><title>Node10</title>
<g id="a_node10"><a xlink:title=" ">
<polygon fill="white" stroke="#bfbfbf" points="82,-0.5 82,-19.5 131,-19.5 131,-0.5 82,-0.5"/>
<text text-anchor="middle" x="106.5" y="-7.5" font-family="Helvetica,sans-Serif" font-size="10.00">stdint.h</text>
</a>
</g>
</g>
<!-- Node9&#45;&gt;Node10 -->
<g id="edge9" class="edge"><title>Node9&#45;&gt;Node10</title>
<path fill="none" stroke="midnightblue" d="M106.5,-56.3993C106.5,-48.4664 106.5,-38.458 106.5,-29.8583"/>
<polygon fill="midnightblue" stroke="midnightblue" points="110,-29.6577 106.5,-19.6578 103,-29.6578 110,-29.6577"/>
</g>
<!-- Node9&#45;&gt;Node11 -->
<g id="edge10" class="edge"><title>Node9&#45;&gt;Node11</title>
<path fill="none" stroke="midnightblue" d="M87.0671,-56.3993C74.2917,-47.1293 57.6107,-35.0254 44.6856,-25.6469"/>
<polygon fill="midnightblue" stroke="midnightblue" points="46.581,-22.6979 36.4317,-19.6578 42.47,-28.3635 46.581,-22.6979"/>
</g>
<!-- Node20&#45;&gt;Node1 -->
<g id="edge24" class="edge"><title>Node20&#45;&gt;Node1</title>
<path fill="none" stroke="midnightblue" d="M442.28,-148.009C473.001,-158.164 521.098,-175.22 551.784,-186.782"/>
<polygon fill="midnightblue" stroke="midnightblue" points="550.883,-190.184 561.474,-190.475 553.376,-183.643 550.883,-190.184"/>
</g>
<!-- Node20&#45;&gt;Node9 -->
<g id="edge25" class="edge"><title>Node20&#45;&gt;Node9</title>
<path fill="none" stroke="midnightblue" d="M373.049,-128.936C324.774,-118.714 243.024,-101.406 182.758,-88.6459"/>
<polygon fill="midnightblue" stroke="midnightblue" points="183.411,-85.2065 172.902,-86.5592 181.961,-92.0547 183.411,-85.2065"/>
</g>
</g>
</svg>
